<svg width="24" height="25" viewBox="0 0 24 25" fill="none" xmlns="http://www.w3.org/2000/svg">
<g clip-path="url(#clip0_1515_18430)">
<path d="M11.1852 0.168459C9.64766 0.426271 8.25547 1.56065 7.66484 3.03721C7.43047 3.60908 7.34141 4.07783 7.34141 4.76221C7.34141 5.62471 7.46797 6.17315 7.82891 6.89033C8.06797 7.36377 8.20859 7.56533 8.57422 7.95908C8.73359 8.13721 8.84609 8.27783 8.82266 8.27783C8.73828 8.27783 7.93672 8.76533 7.59922 9.02315C7.40703 9.16846 7.21484 9.31377 7.16797 9.34658C7.10234 9.39346 7.02266 9.38877 6.71797 9.30908C5.93516 9.10752 4.87109 9.14971 4.10703 9.40752C2.50859 9.95127 1.31797 11.3013 0.985156 12.9513C0.666406 14.5028 1.14922 16.0872 2.27891 17.2169L2.56953 17.5075L2.27891 17.7185C1.38359 18.356 0.638281 19.3778 0.277344 20.4466C0.0523438 21.1122 -0.00390625 21.5106 -0.00390625 22.4669C-0.00390625 23.531 0.0429688 23.6669 0.511719 23.9153C0.671094 23.9997 1.02734 24.0044 11.9961 24.0044C22.9648 24.0044 23.3211 23.9997 23.4805 23.9153C23.7102 23.7935 23.8039 23.6997 23.907 23.5028C23.9867 23.3481 23.9961 23.2216 23.9961 22.4669C23.9961 21.5106 23.9398 21.1122 23.7148 20.4466C23.3539 19.3685 22.5898 18.3372 21.6898 17.6997L21.3805 17.4794L21.7086 17.156C22.3883 16.481 22.843 15.6185 23.0117 14.6528C23.082 14.2685 23.082 13.4575 23.0164 13.0544C22.7445 11.3997 21.5117 9.96533 19.8852 9.40752C19.1211 9.14971 18.057 9.10752 17.2742 9.30908C16.9695 9.38877 16.8898 9.39346 16.8242 9.34658C16.7773 9.31377 16.5852 9.16846 16.393 9.02315C16.0508 8.76065 15.2539 8.27783 15.1648 8.27783C15.1414 8.27783 15.2586 8.13721 15.4227 7.95908C15.8117 7.56065 15.9852 7.30283 16.2383 6.76377C16.5617 6.07002 16.6602 5.62002 16.6602 4.78565C16.6602 3.9419 16.5617 3.48721 16.2383 2.80283C15.8773 2.03877 15.3711 1.43408 14.6961 0.955959C13.8617 0.370022 13.0414 0.116896 11.9867 0.12627C11.668 0.130959 11.307 0.149708 11.1852 0.168459ZM12.7461 2.11846C13.5898 2.35752 14.3305 3.05596 14.6211 3.88564C14.7664 4.28877 14.7992 5.01064 14.6961 5.41846C14.4898 6.23877 13.9461 6.90908 13.1914 7.26533C12.7602 7.47158 12.4414 7.54189 11.9445 7.53721C10.9461 7.53252 9.98047 6.91377 9.53047 6.0044C9.00078 4.93096 9.20234 3.69814 10.0461 2.85908C10.5148 2.39502 10.9695 2.15596 11.6023 2.04346C11.893 1.9919 12.4133 2.02471 12.7461 2.11846ZM12.9102 9.55283C13.5992 9.65596 14.6352 10.0825 15.132 10.4669C15.1414 10.4716 15.057 10.5794 14.9445 10.7013C14.4664 11.2122 14.0492 11.981 13.8711 12.6841C13.7398 13.1856 13.6977 14.0435 13.7727 14.545C13.932 15.5528 14.4008 16.481 15.1086 17.1794L15.4133 17.4794L15.0523 17.7466C14.6492 18.0419 14.0492 18.6606 13.782 19.0544C13.257 19.8278 12.8961 20.831 12.8117 21.745L12.7789 22.106H11.9914H11.2086L11.1758 21.745C11.0914 20.8169 10.7398 19.8325 10.2102 19.0544C9.94766 18.67 9.34766 18.0466 8.95859 17.756L8.61172 17.5028L8.96328 17.1466C9.71797 16.3685 10.1398 15.4685 10.2617 14.3716C10.4117 13.0497 9.96172 11.6716 9.07109 10.7247C8.94453 10.5888 8.85078 10.4716 8.86016 10.4669C9.17422 10.2231 9.91953 9.85752 10.4023 9.71221C11.2461 9.45908 11.9961 9.41221 12.9102 9.55283ZM6.22109 11.1606C6.93828 11.3294 7.71172 11.9294 8.04922 12.5763C8.24141 12.9419 8.38672 13.5044 8.38672 13.8794C8.38672 14.2544 8.24141 14.8216 8.04922 15.1731C7.85703 15.5435 7.38828 16.0403 7.04609 16.2466C6.57266 16.5325 6.23516 16.6169 5.62109 16.6169C4.99766 16.6216 4.80078 16.5841 4.38828 16.3825C3.63828 16.0263 3.09922 15.3513 2.87422 14.4935C2.77109 14.0997 2.80859 13.3778 2.95391 12.97C3.16953 12.3466 3.70391 11.7278 4.30859 11.3997C4.82422 11.1185 5.62109 11.02 6.22109 11.1606ZM19.093 11.1841C20.1102 11.4419 20.893 12.2716 21.1133 13.3263C21.1977 13.7294 21.1977 13.9825 21.1133 14.395C20.893 15.445 20.0539 16.3075 19.0133 16.5513C17.593 16.8888 16.0977 15.9747 15.7227 14.5356C15.6852 14.381 15.6523 14.0763 15.6523 13.856C15.6523 13.0825 15.9008 12.4872 16.4492 11.9294C16.8289 11.545 17.293 11.2731 17.7711 11.156C18.1461 11.0669 18.6805 11.0763 19.093 11.1841ZM19.1117 18.6185C20.7148 18.9419 21.8914 20.245 22.0883 21.9044L22.1117 22.106H18.4133H14.7148V21.9513C14.7195 21.4685 15.0102 20.6575 15.3664 20.1513C16.2242 18.9325 17.6961 18.3278 19.1117 18.6185ZM6.71797 18.7356C7.26641 18.9185 7.70234 19.1763 8.11484 19.5653C8.76641 20.1794 9.17422 20.981 9.25859 21.8013L9.29141 22.106H5.58359H1.87578L1.89922 21.9325C2.02109 21.0606 2.27891 20.4513 2.79922 19.8231C3.04297 19.5278 3.55391 19.1388 3.95703 18.9372C4.52891 18.656 4.80078 18.5997 5.59297 18.595C6.24453 18.5903 6.31016 18.5997 6.71797 18.7356Z" fill="#089D49"/>
</g>
<defs>
<clipPath id="clip0_1515_18430">
<rect width="24" height="24" fill="white" transform="translate(-0.00390625 0.074707)"/>
</clipPath>
</defs>
</svg>
