<svg width="76" height="76" viewBox="0 0 76 76" fill="none" xmlns="http://www.w3.org/2000/svg">
<path d="M23.0627 0.53125C17.9845 0.859375 14.5158 2.92188 12.7658 6.625C10.6408 11.125 11.5783 15.9531 14.9845 18.125C16.3283 18.9844 17.5627 19.2969 19.4845 19.3125C21.5314 19.3125 22.6877 19.0469 24.4845 18.1562C27.8439 16.5 29.6408 13.7969 30.3439 9.32812C30.5627 7.92188 30.5627 4.17188 30.3283 2.67188C30.1252 1.3125 29.8127 0.890625 28.8908 0.734375C27.6877 0.53125 24.6564 0.421875 23.0627 0.53125ZM27.7033 3.46875C27.9533 3.84375 27.7814 9.14062 27.4689 10.2656C26.7502 12.9219 25.3439 14.7656 23.2658 15.7812C22.3752 16.2188 20.2189 16.8281 20.0783 16.6875C20.047 16.6562 20.297 16.4531 20.6252 16.2344C22.5783 14.9375 24.4064 13 24.4064 12.2188C24.4064 11.5312 23.7814 10.9062 23.0939 10.9062C22.6095 10.9062 22.3908 11.0469 21.3283 12.1094C19.5939 13.8281 17.7033 15.0938 16.4064 15.4062C15.8439 15.5312 15.4689 15.1562 15.5939 14.5938C15.9064 13.2969 17.172 11.4062 18.8908 9.67188C19.9533 8.60938 20.0939 8.39062 20.0939 7.90625C20.0939 7.21875 19.4689 6.59375 18.7814 6.59375C18.1408 6.59375 16.9064 7.64062 15.5783 9.29688C14.6252 10.5 14.4845 10.625 14.4377 10.2969C14.3752 9.75 14.9689 8.07812 15.5939 7.04688C16.6095 5.35938 18.422 4.14062 20.8127 3.53125C22.8283 3.01562 27.3752 2.98438 27.7033 3.46875Z" fill="#151515"/>
<path d="M62.8439 1.10938C62.3908 1.45312 61.4689 2.23438 60.7971 2.84375C59.8596 3.6875 59.5471 4.07812 59.4689 4.48438C59.2971 5.4375 60.1408 6.28125 61.0471 6.0625C61.2658 6 62.0471 5.40625 62.7971 4.71875C63.5314 4.03125 64.2033 3.46875 64.2814 3.46875C64.5783 3.46875 67.9533 7 68.6252 8C69.7658 9.70312 70.2346 10.9844 70.3127 12.6562C70.3752 13.8594 70.3283 14.2812 70.0314 15.2031C69.7033 16.2188 68.5471 18.2812 68.3908 18.125C68.3439 18.0938 68.3908 17.6406 68.4689 17.125C68.5627 16.625 68.6252 15.3906 68.6252 14.3906C68.6252 12.7812 68.5939 12.5312 68.2971 12.1562C68.0471 11.8281 67.8439 11.75 67.2971 11.75C66.7502 11.75 66.5471 11.8281 66.2971 12.1562C66.0158 12.5312 65.9689 12.7969 65.9689 14.3594C65.9689 16.4531 65.6564 18.2031 65.0627 19.4062C64.7189 20.1094 64.5627 20.2656 64.2502 20.2656C63.3596 20.2656 62.5314 17.4062 62.5314 14.3594C62.5314 12.7969 62.4846 12.5312 62.2033 12.1562C61.9533 11.8281 61.7502 11.75 61.2033 11.75C60.6564 11.75 60.4533 11.8281 60.2033 12.1562C59.9064 12.5312 59.8752 12.7812 59.8752 14.4844C59.8752 15.5312 59.9533 16.7656 60.0314 17.2188C60.1252 17.6719 60.1564 18.0781 60.1252 18.125C60.0783 18.1562 59.7971 17.7969 59.4846 17.3281C58.1252 15.2656 57.7658 12.7188 58.5627 10.5781C59.1721 8.98438 59.2033 8.375 58.7658 7.90625C58.3908 7.51562 57.5939 7.40625 57.0783 7.6875C56.7346 7.85938 56.0627 9.34375 55.7189 10.6562C55.3283 12.1875 55.4846 14.9062 56.0314 16.4062C57.0314 19.0938 58.8439 21.2344 61.0314 22.3125L62.2814 22.9219H64.2502H66.2189L67.4689 22.3125C69.6564 21.2344 71.4689 19.0938 72.4689 16.4062C73.0158 14.9062 73.1721 12.2031 72.7814 10.6562C72.1721 8.17188 69.9377 4.78125 67.4846 2.625C64.7658 0.21875 64.2502 0.046875 62.8439 1.10938Z" fill="#151515"/>
<path d="M38.9844 3.20314C36.125 4.26564 35.25 7.82814 37.2188 10.3281C37.5625 10.7656 37.8906 11.3281 37.9375 11.5781C38.0312 12.0469 37.7344 12.7969 37.2969 13.1563C36.8281 13.5469 36.25 14.9219 36.1719 15.8125C36.1094 16.3906 36.1719 17.0156 36.3594 17.625C36.9688 19.7813 39.5 21.125 41.75 20.5C43.75 19.9531 45.8438 17.2344 46.5156 14.3438C46.8281 12.9844 46.8281 10.4063 46.5156 9.17189C45.9062 6.76564 44.0469 4.10939 42.4531 3.37502C41.5781 2.95314 39.875 2.87502 38.9844 3.20314ZM42.0625 6.42189C42.7969 7.20314 43.5156 8.51564 43.8906 9.70314C44.1719 10.6563 44.1562 12.9063 43.8438 13.9531C43.2656 15.8906 41.875 17.75 40.8594 17.9375C39.7188 18.1563 38.6562 17.1563 38.8281 16.0156C38.875 15.7188 39.2344 15.0781 39.6094 14.5625C41.1094 12.5625 40.9844 10.8281 39.1562 8.31252C38.2969 7.14064 39.125 5.65627 40.6094 5.65627C41.2812 5.65627 41.4062 5.71877 42.0625 6.42189Z" fill="#151515"/>
<path d="M5.5625 17.0469C4.64062 17.4688 3.85938 18.2188 3.40625 19.125C3.0625 19.8125 3 20.1406 3 21.3594C3 23.0469 3.4375 24.8125 3.9375 25.2188C4.4375 25.625 5.28125 25.5781 5.73438 25.1094C6.1875 24.6719 6.20312 24.4219 5.89062 23.2031C5.76562 22.7188 5.65625 21.8906 5.65625 21.3906C5.65625 20.5469 5.70312 20.4219 6.1875 19.9375C6.625 19.5 6.84375 19.4063 7.375 19.4063C7.90625 19.4063 8.125 19.5 8.53125 19.9063C8.96875 20.3438 9.07812 20.6094 9.20312 21.5313C9.40625 22.8906 9.71875 23.5781 10.4531 24.2969C11.1719 25.0313 11.8594 25.3438 13.2188 25.5469C14.1406 25.6719 14.4062 25.7813 14.8438 26.2188C15.25 26.625 15.3438 26.8438 15.3438 27.375C15.3438 27.9063 15.25 28.125 14.8125 28.5625C14.3125 29.0625 14.2188 29.0938 13.2188 29.0938C11.8594 29.0938 10.2969 28.5469 9.0625 27.6875C7.98438 26.9219 7.25 26.8594 6.67188 27.4531C5.76562 28.3438 6.42188 29.4063 8.5625 30.5313C10.125 31.3594 11.6875 31.75 13.3906 31.75C14.6094 31.75 14.9375 31.6875 15.625 31.3438C17.2031 30.5625 18 29.2344 18 27.375C18 25.9844 17.6875 25.1875 16.7969 24.2969C16.0156 23.5156 15.25 23.1719 13.9688 22.9844C12.3125 22.75 12 22.4375 11.7656 20.75C11.5156 18.9844 10.5156 17.5938 9.03125 16.9844C8.23438 16.6563 6.35938 16.6875 5.5625 17.0469Z" fill="#151515"/>
<path d="M48.5939 18.5312C47.7345 18.8437 47.2658 19.1875 46.7502 19.8906C46.0783 20.8281 45.9064 21.8594 46.1877 23.4375C46.6564 26.0937 48.0939 28.1094 50.3127 29.2031C51.3127 29.7031 51.6408 29.7812 52.8439 29.8437C54.0783 29.9062 54.3127 29.875 55.0627 29.5156C55.5158 29.2969 56.0002 29.0156 56.1252 28.9062C57.2345 27.9687 57.8283 26.1875 57.547 24.5781C57.0627 21.5781 54.6877 19.2187 51.5158 18.5469C50.172 18.2656 49.3595 18.2656 48.5939 18.5312ZM51.047 21.1875C52.2502 21.5 53.047 21.9687 53.8127 22.8281C55.6095 24.8125 55.2345 27.2187 53.1252 27.2187C51.1095 27.2187 49.3439 25.5625 48.8439 23.1562C48.5939 21.9531 48.7189 21.4375 49.3127 21.1562C49.7658 20.9375 50.1252 20.9375 51.047 21.1875Z" fill="#151515"/>
<path d="M29.4064 19.797C27.0627 20.3282 25.0783 21.8126 24.1252 23.7814C22.9846 26.0939 23.1408 28.2345 24.5627 29.7814C25.5314 30.8282 26.5002 31.172 28.1721 31.0939C29.3596 31.0314 29.6877 30.9532 30.6877 30.4532C32.9064 29.3595 34.3439 27.3439 34.8127 24.6876C35.0939 23.0626 34.9221 22.0314 34.1877 21.0782C33.1721 19.7501 31.5471 19.3126 29.4064 19.797ZM31.6408 22.3907C32.2346 22.6564 32.3908 23.1564 32.2033 24.2032C31.7502 26.6876 29.9533 28.4532 27.9064 28.4689C25.7658 28.4689 25.3752 26.0939 27.1877 24.0782C28.3908 22.7345 30.5783 21.9064 31.6408 22.3907Z" fill="#151515"/>
<path d="M66.9377 26.9844C65.469 27.625 64.4846 29 64.2346 30.75C64.0002 32.4375 63.6877 32.75 62.0158 32.9844C60.2346 33.2344 58.8596 34.2344 58.2346 35.7188C57.9065 36.5156 57.9377 38.3906 58.2971 39.1875C58.719 40.1094 59.469 40.8906 60.3752 41.3438C61.0627 41.6875 61.3908 41.75 62.6096 41.75C64.344 41.75 65.5002 41.4688 67.1408 40.6563C69.3283 39.5781 70.8283 38.0781 71.9065 35.8906C72.719 34.25 73.0002 33.0938 73.0002 31.3594C73.0002 30.1406 72.9377 29.8125 72.594 29.125C72.1408 28.2188 71.3596 27.4688 70.4377 27.0469C69.6408 26.6875 67.7033 26.6563 66.9377 26.9844ZM69.8283 29.9531L70.3752 30.5L70.3127 31.7969C70.1721 34.0781 69.0627 36.0781 67.1096 37.5469C65.8283 38.5313 64.6408 38.9688 63.0471 39.0625L61.7502 39.125L61.2033 38.5781C60.7502 38.125 60.6565 37.9219 60.6565 37.375C60.6565 36.8438 60.7502 36.625 61.1721 36.2188C61.594 35.7813 61.8596 35.6719 62.7815 35.5469C64.1408 35.3438 64.8283 35.0313 65.5471 34.2969C66.2815 33.5781 66.594 32.8906 66.7971 31.5313C66.9221 30.6094 67.0315 30.3438 67.469 29.9063C67.8752 29.5 68.094 29.4063 68.6252 29.4063C69.1721 29.4063 69.3752 29.5 69.8283 29.9531Z" fill="#151515"/>
<path d="M39.1876 29.4531C37.3283 29.7188 37.172 29.9062 36.9376 32.0469C36.4689 36.0625 36.9533 39.8281 38.2345 42.375C38.5314 42.9688 38.922 43.5312 39.0783 43.625C39.5626 43.875 40.2501 43.8125 40.6251 43.4688C41.2033 42.9219 41.2189 42.4688 40.672 41.2969C39.7345 39.2656 39.5158 38.0781 39.5001 35C39.4845 33.4844 39.547 32.1875 39.6095 32.1094C39.6876 32.0469 40.9845 31.9844 42.5001 32C44.8126 32.0156 45.4689 32.0625 46.5158 32.3438C49.9689 33.2812 52.047 35.2812 52.7658 38.3438C53.1095 39.8125 53.0626 39.8438 52.2658 38.7656C51.8751 38.2188 51.0314 37.25 50.4064 36.625C49.3283 35.5781 49.2033 35.5 48.5783 35.5C47.7345 35.5 47.2189 35.9688 47.2189 36.7344C47.2189 37.1562 47.422 37.4531 48.3908 38.4375C50.422 40.5469 51.8283 42.7656 51.7189 43.7188C51.672 44.1406 51.6251 44.1719 51.0001 44.1406C49.8283 44.0938 47.7501 42.7188 45.8126 40.75C44.9376 39.8594 44.7345 39.7188 44.2345 39.7188C43.3751 39.7188 42.922 40.3125 42.9845 41.3594C43.0158 41.8438 44.297 43.2188 45.8595 44.4219L47.2501 45.5H38.9533C34.1408 45.5 30.6564 45.4375 30.6564 45.3594C30.6564 45.2812 30.3751 44.8438 30.0314 44.3906C29.2345 43.3281 29.2033 42.6875 29.8908 41.8125C30.7345 40.75 31.0158 40.0469 31.0939 38.7812C31.1564 37.7969 31.1095 37.4531 30.8126 36.7812C30.422 35.875 29.422 34.875 28.5158 34.4688C27.5939 34.0625 25.7658 34.0938 24.8439 34.5469C23.3908 35.25 21.7033 37.5 20.9689 39.7188C20.5783 40.9219 20.3908 43.4688 20.6251 44.6719L20.7658 45.5H17.9689C15.3439 45.5 15.1564 45.4844 15.2658 45.2188C15.7345 44.1406 15.8751 43.5312 15.9376 42.2656C16.0158 40.625 15.7033 39.2969 14.8908 37.9219C13.7345 35.9375 12.6408 35.1875 10.9533 35.1875C9.67202 35.2031 8.87514 35.5469 8.03139 36.5156C6.03139 38.7812 5.40639 41.6875 6.31264 44.3594L6.68764 45.5H3.90639C0.422019 45.5 0.500144 45.4531 0.500144 47.5469C0.500144 51.375 2.18764 55.7344 4.89077 58.9062C7.40639 61.875 10.6095 63.8906 14.5626 65L16.047 65.4219L35.1564 65.4688L54.2501 65.5156V69.25V73H38.0001H21.7501V70.8125C21.7501 68.8281 21.7189 68.5938 21.4376 68.3125C21.0158 67.8906 19.9845 67.8906 19.5626 68.3125C19.2658 68.6094 19.2501 68.8281 19.2501 71.75C19.2501 74.6719 19.2658 74.8906 19.5626 75.1875C19.8751 75.5 20.0783 75.5 38.0001 75.5C55.922 75.5 56.1251 75.5 56.4376 75.1875C56.7345 74.8906 56.7501 74.6719 56.7501 70.1875V65.5H57.7501C59.8908 65.5 62.7501 64.7812 65.0314 63.6562C68.7345 61.8281 71.9533 58.5938 73.7033 54.9219C74.8595 52.5 75.5001 49.8438 75.5001 47.4375C75.5001 45.3438 76.0626 45.5 68.6251 45.5C62.5783 45.5 62.3595 45.5156 62.0626 45.8125C61.8595 46.0156 61.7501 46.3281 61.7501 46.75C61.7501 47.1719 61.8595 47.4844 62.0626 47.6875C62.3595 47.9844 62.5783 48 67.6251 48H72.8751L72.7658 48.8906C72.6095 50.1875 71.9845 52.2656 71.3595 53.5938C69.5314 57.4688 66.0314 60.625 61.9845 62.0156C59.3283 62.9375 60.3751 62.8906 39.4845 62.9531C18.9064 63.0312 17.3439 62.9844 14.9533 62.2969C9.48452 60.7344 5.28139 56.5312 3.71889 51.125C3.51577 50.3906 3.29702 49.3906 3.23452 48.8906L3.12514 48H30.8751C58.422 48 58.6251 48 58.9376 47.6875C59.1408 47.4844 59.2501 47.1719 59.2501 46.75C59.2501 46.3281 59.1408 46.0156 58.9376 45.8125C58.6564 45.5312 58.422 45.5 56.3595 45.5C55.1095 45.5 54.0939 45.4688 54.0939 45.4219C54.0939 45.3906 54.2658 45.1094 54.4845 44.7969C55.3595 43.4844 55.5626 42.625 55.5626 40.2656C55.5626 38.3125 55.5158 37.9531 55.1408 36.8281C53.8751 33.0312 51.1408 30.6562 46.9376 29.7031C45.2033 29.3125 41.172 29.1875 39.1876 29.4531ZM27.4533 36.9688C28.5783 37.4531 28.7658 38.9219 27.8283 39.9844C27.0626 40.875 26.7345 41.75 26.7345 43C26.7345 43.75 26.8283 44.2969 27.047 44.7812L27.3595 45.5H25.4376H23.5158L23.3283 44.6094C22.9845 42.8438 23.2033 41.0156 23.9533 39.5156C24.5001 38.4375 25.5001 37.2031 26.0314 36.9688C26.6564 36.7031 26.797 36.7031 27.4533 36.9688ZM12.047 38.5625C12.3908 38.9531 12.8283 39.6719 13.0158 40.1719C13.672 41.9375 13.1564 44.3125 11.9064 45.1406C10.8751 45.8594 9.79702 45.3906 9.04702 43.9062C8.39077 42.6406 8.39077 41.1875 9.06264 39.8438C10.1251 37.6875 10.9533 37.3281 12.047 38.5625Z" fill="#151515"/>
<path d="M6.75028 50.9219C6.35966 51.4219 6.40653 52.2188 6.84403 52.7031C7.10966 52.9844 7.98466 53 38.0003 53C68.0159 53 68.8909 52.9844 69.1565 52.7031C69.594 52.2188 69.6409 51.4219 69.2503 50.9219L68.9222 50.5H38.0003H7.07841L6.75028 50.9219Z" fill="#151515"/>
</svg>
