<svg width="80" height="80" viewBox="0 0 80 80" fill="none" xmlns="http://www.w3.org/2000/svg">
<g clip-path="url(#clip0_101_4812)">
<path d="M2.21875 0.328247C1.39062 0.750122 0.421875 1.82825 0.1875 2.62512C0.046875 3.06262 0 6.00012 0 13.0939V22.9533L0.390625 24.1876C1.48438 27.6408 4.39062 30.1095 8.0625 30.6408L9.21875 30.8126V52.9532C9.21875 77.3282 9.17188 76.1251 10.1719 77.6876C10.75 78.5782 11.8281 79.4064 12.8594 79.7501C13.9375 80.1095 15.5781 80.0782 16.6719 79.6564C17.9062 79.2032 19.2031 77.9064 19.6562 76.672C20 75.797 20 75.5939 20 67.7032V59.6407L21.2656 61.5001C24.5781 66.3595 29.4062 71.2345 35.3125 75.7032C37.8281 77.6095 41.25 79.8282 41.8281 79.9376C43.0469 80.172 43.7969 79.9376 45.5469 78.8282C52.9219 74.1407 60.2344 67.2657 64.2344 61.2657L65.3125 59.6407V67.7032C65.3125 75.5939 65.3125 75.797 65.6562 76.672C66.1094 77.922 67.4062 79.2032 68.6719 79.672C69.9062 80.1407 71.9062 80.0782 72.9375 79.547C73.7812 79.1095 74.7812 78.2189 75.25 77.4845C76.1094 76.1095 76.0938 76.4064 76.0938 61.547V47.8439L76.5312 47.7501C77.1875 47.5939 78.5156 46.6095 78.9688 45.9689C79.1875 45.6564 79.5 45.0626 79.6875 44.6564C80 43.922 80.0156 43.8283 79.9688 27.2345L79.9219 10.547L79.4062 9.06262C77.9062 4.75012 74.6719 1.62512 70.4062 0.406372C67.8906 -0.328003 66.5625 -0.0936279 65.6719 1.2345L65.3125 1.76575V18.8439V35.9376L64.2656 35.0783C63.6719 34.6095 62.5 33.8751 61.6406 33.4376C55.9062 30.5783 49.0938 31.8283 43.875 36.7033L42.7188 37.7814L41.5625 36.7658C38.2031 33.8439 35.1562 32.3751 31.6562 32.0158C27.6406 31.5939 23.9219 32.7345 20.75 35.3595L20 35.9689V33.3908V30.797L20.9062 30.7033C22.1406 30.5626 23.9062 29.9689 24.9375 29.3439C26.2969 28.547 27.75 26.8908 28.4375 25.4064C28.7656 24.7033 29.1094 23.7658 29.2031 23.3126C29.3125 22.7658 29.375 19.2657 29.375 12.7657C29.375 3.32825 29.3594 3.03137 29.0469 2.34387C28.3594 0.812622 27.0625 0.00012207 25.3281 0.00012207C24.4531 0.00012207 24.0938 0.0782471 23.4219 0.437622C22.5 0.906372 21.6875 1.922 21.4062 2.93762C21.3125 3.28137 21.25 5.82825 21.25 9.26575V15.0314L20.7969 15.4845C20.2188 16.0626 19.7812 16.0626 19.2031 15.4845L18.75 15.0314V9.18762C18.75 2.76575 18.7188 2.46887 17.8125 1.37512C17.5469 1.06262 16.9844 0.625122 16.5312 0.406372C14.9531 -0.390503 12.7188 0.00012207 11.6719 1.25012C10.6719 2.422 10.7031 2.172 10.625 8.95325L10.5469 15.1876L10.1094 15.5626C9.54688 16.047 9.20312 16.0314 8.60938 15.547L8.14062 15.1407L8.09375 9.01575C8.04688 3.07825 8.03125 2.87512 7.70312 2.25012C7.26562 1.422 6.46875 0.656372 5.70312 0.296997C4.8125 -0.124878 3.09375 -0.109253 2.21875 0.328247ZM4.76562 3.07825C4.90625 3.21887 5.09375 3.50012 5.17188 3.70325C5.25 3.90637 5.3125 6.62512 5.3125 9.71887C5.3125 13.5939 5.375 15.547 5.5 15.9689C5.73438 16.7501 6.71875 17.8751 7.5625 18.3283C8.5625 18.8595 10.2969 18.8126 11.2812 18.2501C11.6719 18.0001 12.2188 17.547 12.5 17.2345C13.3906 16.1564 13.4375 15.7032 13.4375 9.34387V3.57825L13.8281 3.20325C14.3906 2.62512 15.2969 2.68762 15.6719 3.34387C15.8125 3.57825 15.875 5.37512 15.9375 9.76575C16.0312 16.5001 16 16.3126 17.0938 17.4689C17.9219 18.3595 18.6719 18.672 20 18.672C20.8906 18.672 21.3125 18.5939 21.7969 18.3283C22.625 17.8908 23.3438 17.1095 23.7344 16.2501C24.0312 15.5782 24.0625 15.2345 24.0625 9.71887C24.0625 3.59387 24.1094 3.172 24.7656 2.90637C25.3438 2.68762 25.9219 2.81262 26.25 3.2345C26.5781 3.65637 26.5781 3.68762 26.5312 13.2657L26.4844 22.8908L25.9844 23.9533C24.7344 26.5939 22.4062 27.9689 19.1406 27.9689C18.1406 27.9689 17.9844 28.0158 17.6406 28.3751L17.2656 28.7814L17.1875 34.5783C17.1094 40.0939 17.0938 40.4376 16.75 41.3126C16.5625 41.8126 16.2969 42.8439 16.1562 43.5783C15.7031 45.922 16.0469 49.8282 16.9375 52.7345C17.1562 53.4064 17.1875 55.0157 17.1875 64.3439C17.1875 74.0782 17.1562 75.2501 16.9375 75.7345C16.0938 77.5001 13.6094 77.672 12.5312 76.047L12.1094 75.4064L12.0312 51.9845L11.9531 28.5626L11.5781 28.2658C11.2969 28.047 10.9688 27.9689 10.1562 27.9689C7 27.9689 4.64062 26.6251 3.40625 24.1095L2.89062 23.047L2.84375 13.3439C2.79688 3.70325 2.8125 3.64075 3.125 3.2345C3.51562 2.7345 4.35938 2.65637 4.76562 3.07825ZM69.3281 3.03137C71.9062 3.71887 74.25 5.4845 75.7031 7.81262C75.9375 8.18762 76.3594 9.06262 76.625 9.76575L77.1094 11.0157L77.1562 27.1564C77.1875 41.9533 77.1719 43.3439 76.9375 43.8439C76.5938 44.5783 75.7344 45.1251 74.7812 45.2658C74.2812 45.3283 73.875 45.4845 73.6406 45.7189L73.2812 46.0783V60.4689C73.2812 73.0939 73.25 74.922 73.0469 75.4376C72.1562 77.547 69.7344 77.8126 68.4844 75.9532L68.125 75.422V64.5157V53.5939L68.5156 52.2657C69.6719 48.2501 69.625 43.6408 68.3906 40.7189C68.1406 40.172 68.125 38.4533 68.125 21.4689C68.125 6.64075 68.1719 2.81262 68.3281 2.81262C68.4219 2.81262 68.875 2.90637 69.3281 3.03137ZM31.7188 34.8439C34.7969 35.3439 37.7812 37.0158 40.5938 39.8595C41.8594 41.1251 42.375 41.4533 42.9844 41.297C43.1875 41.2501 44.0938 40.4845 45 39.6095C48.5781 36.1564 52.3125 34.5001 55.8906 34.7658C57.6719 34.8908 58.7344 35.1876 60.4375 36.0314C63.0156 37.297 65.0938 39.7189 66.0469 42.5783C66.4219 43.7033 66.4688 44.0626 66.4688 46.172C66.4844 47.8751 66.4062 48.8751 66.2031 49.8439C65.2969 54.0626 63.1719 58.2657 59.6875 62.6564C57.875 64.9532 53.3281 69.422 50.5469 71.6564C47.4531 74.1251 43.0781 77.1876 42.6562 77.1876C42.4375 77.1876 39 74.8907 37.1094 73.4689C32.9844 70.3751 28.2812 65.9689 25.75 62.8126C22.3281 58.5626 20.0156 54.0314 19.125 49.8439C18.7344 47.9845 18.7344 44.5158 19.1094 43.1251C20.6719 37.5626 26.1562 33.9689 31.7188 34.8439Z" fill="#151515"/>
<path d="M36.4376 48.2345C36.2501 48.3908 35.5782 49.8595 34.922 51.5158L33.7188 54.5158L31.2501 54.5626C28.8751 54.6095 28.7501 54.6251 28.3751 54.9845C27.8282 55.5001 27.8126 56.422 28.3595 56.9533C28.7345 57.3439 28.7345 57.3439 32.0313 57.3439C35.0157 57.3439 35.3438 57.3126 35.5938 57.0626C35.7657 56.8908 36.1563 56.0939 36.4845 55.2658C36.8126 54.422 37.1095 53.7814 37.1407 53.8126C37.1876 53.8439 37.8282 55.9533 38.5938 58.4845C39.3595 61.0314 40.0626 63.2501 40.1563 63.422C40.5313 64.1408 41.6251 64.2814 42.2345 63.7033C42.4532 63.5001 43.4376 61.5001 44.6095 58.8283C45.7032 56.3283 46.6095 54.2814 46.6251 54.2658C46.6407 54.2501 47.2813 55.7189 48.047 57.5314C49.5313 61.0001 49.8126 61.4064 50.7032 61.4064C51.3751 61.4064 51.7345 61.047 53.047 59.0314L54.1407 57.3439H56.7345C59.2345 57.3439 59.3282 57.3283 59.6563 56.9845C60.1563 56.4533 60.1251 55.4845 59.5938 54.9845C59.2032 54.6251 59.1095 54.6095 56.3595 54.5626C52.7345 54.5001 52.5782 54.5314 51.7188 55.8595C51.3595 56.422 51.0157 56.8751 50.9532 56.8751C50.9063 56.8751 50.2345 55.3908 49.4688 53.5939C48.7032 51.797 47.9532 50.1095 47.797 49.8595C47.4688 49.3126 46.7345 49.1095 46.0938 49.3751C45.5782 49.5939 45.4845 49.7658 43.1251 55.1251C42.297 57.0001 41.6095 58.3595 41.547 58.2501C41.4845 58.1408 40.797 55.9064 40.0157 53.2814C38.4688 48.1095 38.3907 47.9689 37.3438 47.9689C37.0157 47.9689 36.6095 48.0939 36.4376 48.2345Z" fill="#151515"/>
</g>
<defs>
<clipPath id="clip0_101_4812">
<rect width="80" height="80" fill="white"/>
</clipPath>
</defs>
</svg>
