<svg width="39" height="29" viewBox="0 0 39 29" fill="none" xmlns="http://www.w3.org/2000/svg">
<path d="M3.41663 2.16463C2.78841 2.38966 2.30552 2.87724 2.08517 3.51484C2.00078 3.76332 1.99609 4.02118 1.99609 11.9396C1.99609 19.8581 2.00078 20.1159 2.08517 20.3644C2.30552 21.0114 2.7931 21.499 3.43539 21.7193C3.68386 21.8037 3.84795 21.8084 6.85781 21.8084C8.59246 21.8084 10.013 21.8225 10.013 21.8412C10.0177 22.1413 10.3599 24.4854 10.4256 24.6776C10.6506 25.3105 11.1757 25.8075 11.8367 26.0091C12.0149 26.0606 13.0604 26.0747 18.1752 26.0747C24.1199 26.0747 24.3075 26.07 24.5606 25.9856C25.2029 25.7653 25.6905 25.2777 25.9109 24.6307C25.9953 24.3822 25.9999 24.1244 25.9999 16.2059C25.9999 8.23591 25.9999 8.03432 25.9109 7.77646C25.6905 7.13417 25.2029 6.6466 24.556 6.42625C24.3075 6.34186 24.0965 6.33717 19.0285 6.33717C16.1359 6.33717 13.7636 6.32311 13.7636 6.29967C13.7589 6.0043 13.4167 3.66018 13.351 3.46796C13.126 2.83505 12.6009 2.33809 11.9399 2.1365C11.7617 2.08493 11.021 2.07086 7.69232 2.07555C3.88546 2.07555 3.64636 2.08493 3.41663 2.16463ZM11.7195 3.63674C11.818 3.71175 11.9258 3.83833 11.9586 3.91803C12.0055 4.02586 14.0449 20.1394 14.0449 20.3691C14.0449 20.3879 11.7711 20.3972 8.99565 20.3925L3.94172 20.3785L3.77763 20.2753C3.68855 20.2191 3.57135 20.1019 3.51978 20.0175C3.42601 19.8628 3.42601 19.7784 3.42601 11.9396V4.01649L3.52915 3.8524C3.64167 3.66956 3.77763 3.5711 3.9886 3.51953C4.0683 3.50078 5.79827 3.48672 7.83765 3.4914L11.5461 3.50078L11.7195 3.63674ZM24.2184 7.87023C24.3075 7.92649 24.4247 8.04369 24.4763 8.12808C24.57 8.28279 24.57 8.36718 24.57 16.2059C24.57 24.0447 24.57 24.1291 24.4763 24.2838C24.4247 24.3682 24.3075 24.4854 24.2184 24.5416L24.0543 24.6448L18.4097 24.6589L12.7603 24.6682L12.8588 24.5651C13.3229 24.0494 15.3811 21.6396 15.4701 21.5037C15.5498 21.3911 15.592 21.2599 15.592 21.1474C15.592 21.0536 15.2216 18.0015 14.7716 14.3775C14.3215 10.7488 13.9511 7.77178 13.9511 7.7624C13.9511 7.74833 16.2249 7.74833 19.0051 7.75302L24.0543 7.76709L24.2184 7.87023ZM12.5118 22.7179C12.0805 23.2196 11.7195 23.6274 11.7148 23.6181C11.7055 23.6087 11.6586 23.2571 11.607 22.8351C11.5554 22.4132 11.5039 22.01 11.4898 21.935L11.471 21.8084H12.3853H13.2995L12.5118 22.7179Z" fill="#089D49" stroke="#089D49" stroke-width="0.5"/>
<path d="M7.23279 7.18549C7.13433 7.26988 7.03119 7.38708 7.00306 7.45741C6.91399 7.69651 5.55908 14.5695 5.55908 14.7992C5.55908 15.2212 5.82631 15.479 6.25763 15.479C6.54361 15.479 6.75927 15.3712 6.88117 15.1649C6.92336 15.0946 7.05463 14.5367 7.17653 13.9319C7.29373 13.3271 7.40156 12.7926 7.41563 12.7458C7.43907 12.6754 7.52346 12.6661 8.37203 12.6661C9.22061 12.6661 9.30499 12.6754 9.32844 12.7458C9.3425 12.7926 9.45033 13.3271 9.56754 13.9319C9.68943 14.5367 9.8207 15.0946 9.8629 15.1649C9.98479 15.3712 10.2005 15.479 10.4864 15.479C10.9178 15.479 11.185 15.2212 11.185 14.7992C11.185 14.5695 9.83008 7.69651 9.741 7.45741C9.71287 7.38708 9.60973 7.26988 9.51128 7.18549L9.33312 7.04015H8.37203H7.41094L7.23279 7.18549ZM8.48924 8.54977C8.51737 8.67166 9.02839 11.2221 9.02839 11.2455C9.02839 11.2549 8.73303 11.2596 8.37203 11.2596C8.01104 11.2596 7.71568 11.2549 7.71568 11.2455C7.71568 11.2221 8.2267 8.67166 8.25483 8.54977C8.26889 8.48882 8.31577 8.44663 8.37203 8.44663C8.42829 8.44663 8.47517 8.48882 8.48924 8.54977Z" fill="#089D49"/>
<path d="M19.2298 11.349C18.9719 11.5224 18.9204 11.6584 18.9204 12.1835V12.6664H17.7389C16.6559 12.6664 16.5434 12.6757 16.4168 12.7554C16.2012 12.9008 16.1074 13.0789 16.1074 13.3696C16.1074 13.7868 16.3231 14.0306 16.7356 14.0728L16.9607 14.0963L17.1107 14.5182C17.4108 15.348 17.8327 16.131 18.3672 16.8389L18.6016 17.1436L18.3718 17.3452C18.25 17.4577 17.8843 17.7625 17.5608 18.0203C17.2373 18.2782 16.9372 18.5454 16.895 18.6111C16.7778 18.7845 16.7825 19.2112 16.8997 19.3893C17.0451 19.6097 17.2232 19.6987 17.5233 19.6987C17.828 19.6987 17.9171 19.6425 18.986 18.7517C19.3189 18.4704 19.6049 18.2454 19.6236 18.2454C19.6424 18.2454 19.9283 18.4704 20.2612 18.7517C21.3301 19.6425 21.4192 19.6987 21.7239 19.6987C22.024 19.6987 22.2021 19.6097 22.3475 19.3893C22.4647 19.2112 22.4694 18.7845 22.3522 18.6111C22.31 18.5454 22.0099 18.2782 21.6864 18.0203C21.363 17.7625 20.9973 17.4577 20.8754 17.3452L20.6456 17.1436L20.8801 16.8389C21.4145 16.131 21.8365 15.348 22.1365 14.5182L22.2865 14.0963L22.5116 14.0728C22.9241 14.0306 23.1398 13.7868 23.1398 13.3696C23.1398 13.0789 23.046 12.9008 22.8304 12.7554C22.7038 12.6757 22.5913 12.6664 21.513 12.6664H20.3268V12.1835C20.3268 11.7943 20.3081 11.6818 20.2378 11.5693C20.0924 11.3536 19.9143 11.2599 19.6236 11.2599C19.4501 11.2599 19.3236 11.288 19.2298 11.349ZM20.716 14.1525C20.5284 14.6776 19.7408 16.0419 19.6236 16.0419C19.5064 16.0419 18.7188 14.6776 18.5312 14.1525C18.5031 14.0775 18.5734 14.0728 19.6236 14.0728C20.6738 14.0728 20.7441 14.0775 20.716 14.1525Z" fill="#089D49"/>
<path d="M34 15.5747L31 12.5747H37L34 15.5747Z" fill="#222222"/>
</svg>
