<svg width="1400" height="213" viewBox="0 0 1400 213" fill="none" xmlns="http://www.w3.org/2000/svg">
<path d="M9.60126 195.058H21.5393V199.731H3.81006V164.425H9.60126V195.058Z" fill="#D6C000"/>
<path d="M52.0363 185.05C52.0363 186.1 51.9686 187.048 51.8331 187.895H30.4463C30.6157 190.13 31.4454 191.925 32.9355 193.28C34.4257 194.634 36.2545 195.312 38.4219 195.312C41.5377 195.312 43.739 194.008 45.0259 191.4H51.2743C50.4277 193.974 48.8867 196.091 46.6515 197.75C44.4502 199.376 41.707 200.188 38.4219 200.188C35.7465 200.188 33.3419 199.596 31.2083 198.41C29.1086 197.191 27.4491 195.498 26.2299 193.33C25.0446 191.129 24.4519 188.589 24.4519 185.71C24.4519 182.832 25.0277 180.309 26.1791 178.141C27.3645 175.94 29.007 174.247 31.1067 173.061C33.2403 171.876 35.6787 171.283 38.4219 171.283C41.0635 171.283 43.4173 171.859 45.4831 173.01C47.549 174.162 49.1577 175.788 50.3091 177.887C51.4606 179.953 52.0363 182.341 52.0363 185.05ZM45.9911 183.221C45.9573 181.088 45.1953 179.377 43.7051 178.09C42.215 176.804 40.3693 176.16 38.1679 176.16C36.1698 176.16 34.4595 176.804 33.0371 178.09C31.6147 179.344 30.7681 181.054 30.4971 183.221H45.9911Z" fill="#D6C000"/>
<path d="M64.4919 176.465V191.959C64.4919 193.009 64.7289 193.771 65.2031 194.245C65.7111 194.685 66.5577 194.905 67.743 194.905H71.299V199.731H66.7271C64.1193 199.731 62.1212 199.122 60.7327 197.902C59.3441 196.683 58.6498 194.702 58.6498 191.959V176.465H55.3479V171.74H58.6498V164.781H64.4919V171.74H71.299V176.465H64.4919Z" fill="#D6C000"/>
<path d="M110.61 164.425V169.15H95.6239V179.564H107.308V184.288H95.6239V199.731H89.8327V164.425H110.61Z" fill="#D6C000"/>
<path d="M128.118 200.188C125.476 200.188 123.089 199.596 120.955 198.41C118.822 197.191 117.145 195.498 115.926 193.33C114.707 191.129 114.097 188.589 114.097 185.71C114.097 182.866 114.724 180.343 115.977 178.141C117.23 175.94 118.94 174.247 121.108 173.061C123.275 171.876 125.697 171.283 128.372 171.283C131.048 171.283 133.469 171.876 135.636 173.061C137.804 174.247 139.514 175.94 140.767 178.141C142.02 180.343 142.647 182.866 142.647 185.71C142.647 188.555 142.003 191.078 140.716 193.28C139.43 195.481 137.668 197.191 135.433 198.41C133.232 199.596 130.794 200.188 128.118 200.188ZM128.118 195.159C129.608 195.159 130.997 194.804 132.284 194.092C133.604 193.381 134.671 192.314 135.484 190.892C136.297 189.47 136.703 187.742 136.703 185.71C136.703 183.678 136.314 181.968 135.535 180.58C134.756 179.157 133.723 178.09 132.436 177.379C131.149 176.668 129.761 176.312 128.27 176.312C126.78 176.312 125.392 176.668 124.105 177.379C122.852 178.09 121.853 179.157 121.108 180.58C120.363 181.968 119.99 183.678 119.99 185.71C119.99 188.725 120.752 191.061 122.276 192.721C123.834 194.346 125.781 195.159 128.118 195.159Z" fill="#D6C000"/>
<path d="M160.513 200.188C157.871 200.188 155.484 199.596 153.35 198.41C151.217 197.191 149.54 195.498 148.321 193.33C147.102 191.129 146.492 188.589 146.492 185.71C146.492 182.866 147.119 180.343 148.372 178.141C149.625 175.94 151.335 174.247 153.503 173.061C155.67 171.876 158.092 171.283 160.767 171.283C163.442 171.283 165.864 171.876 168.031 173.061C170.199 174.247 171.909 175.94 173.162 178.141C174.415 180.343 175.042 182.866 175.042 185.71C175.042 188.555 174.398 191.078 173.111 193.28C171.824 195.481 170.063 197.191 167.828 198.41C165.627 199.596 163.188 200.188 160.513 200.188ZM160.513 195.159C162.003 195.159 163.392 194.804 164.679 194.092C165.999 193.381 167.066 192.314 167.879 190.892C168.692 189.47 169.098 187.742 169.098 185.71C169.098 183.678 168.709 181.968 167.93 180.58C167.151 179.157 166.118 178.09 164.831 177.379C163.544 176.668 162.156 176.312 160.665 176.312C159.175 176.312 157.787 176.668 156.5 177.379C155.247 178.09 154.248 179.157 153.503 180.58C152.758 181.968 152.385 183.678 152.385 185.71C152.385 188.725 153.147 191.061 154.671 192.721C156.229 194.346 158.176 195.159 160.513 195.159Z" fill="#D6C000"/>
<path d="M178.836 185.609C178.836 182.798 179.412 180.309 180.563 178.141C181.749 175.974 183.341 174.297 185.339 173.112C187.371 171.893 189.623 171.283 192.095 171.283C193.924 171.283 195.719 171.69 197.48 172.502C199.275 173.281 200.697 174.331 201.747 175.652V162.139H207.589V199.731H201.747V195.515C200.799 196.87 199.478 197.987 197.785 198.868C196.125 199.748 194.212 200.188 192.044 200.188C189.606 200.188 187.371 199.579 185.339 198.36C183.341 197.107 181.749 195.379 180.563 193.178C179.412 190.943 178.836 188.42 178.836 185.609ZM201.747 185.71C201.747 183.78 201.341 182.104 200.528 180.681C199.749 179.259 198.716 178.175 197.429 177.43C196.142 176.685 194.754 176.312 193.263 176.312C191.773 176.312 190.385 176.685 189.098 177.43C187.811 178.141 186.761 179.208 185.948 180.63C185.169 182.019 184.78 183.678 184.78 185.609C184.78 187.539 185.169 189.233 185.948 190.689C186.761 192.145 187.811 193.263 189.098 194.042C190.419 194.787 191.807 195.159 193.263 195.159C194.754 195.159 196.142 194.787 197.429 194.042C198.716 193.297 199.749 192.213 200.528 190.79C201.341 189.334 201.747 187.641 201.747 185.71Z" fill="#D6C000"/>
<path d="M247.289 181.596C249.186 181.934 250.794 182.933 252.115 184.593C253.436 186.252 254.096 188.132 254.096 190.232C254.096 192.027 253.622 193.652 252.674 195.108C251.76 196.531 250.422 197.665 248.661 198.512C246.9 199.325 244.851 199.731 242.514 199.731H228.392V164.425H241.854C244.258 164.425 246.324 164.832 248.051 165.644C249.779 166.457 251.082 167.558 251.963 168.946C252.843 170.301 253.284 171.825 253.284 173.518C253.284 175.55 252.742 177.244 251.658 178.598C250.574 179.953 249.118 180.952 247.289 181.596ZM234.183 179.259H241.346C243.242 179.259 244.715 178.836 245.765 177.989C246.849 177.108 247.391 175.855 247.391 174.23C247.391 172.638 246.849 171.402 245.765 170.521C244.715 169.607 243.242 169.15 241.346 169.15H234.183V179.259ZM242.006 195.007C243.97 195.007 245.511 194.533 246.629 193.584C247.746 192.636 248.305 191.315 248.305 189.622C248.305 187.895 247.713 186.523 246.527 185.507C245.342 184.491 243.767 183.983 241.803 183.983H234.183V195.007H242.006Z" fill="#D6C000"/>
<path d="M286.044 185.05C286.044 186.1 285.976 187.048 285.841 187.895H264.454C264.623 190.13 265.453 191.925 266.943 193.28C268.433 194.634 270.262 195.312 272.429 195.312C275.545 195.312 277.746 194.008 279.033 191.4H285.282C284.435 193.974 282.894 196.091 280.659 197.75C278.458 199.376 275.714 200.188 272.429 200.188C269.754 200.188 267.349 199.596 265.216 198.41C263.116 197.191 261.457 195.498 260.237 193.33C259.052 191.129 258.459 188.589 258.459 185.71C258.459 182.832 259.035 180.309 260.187 178.141C261.372 175.94 263.014 174.247 265.114 173.061C267.248 171.876 269.686 171.283 272.429 171.283C275.071 171.283 277.425 171.859 279.491 173.01C281.556 174.162 283.165 175.788 284.317 177.887C285.468 179.953 286.044 182.341 286.044 185.05ZM279.999 183.221C279.965 181.088 279.203 179.377 277.713 178.09C276.222 176.804 274.377 176.16 272.175 176.16C270.177 176.16 268.467 176.804 267.045 178.09C265.622 179.344 264.775 181.054 264.505 183.221H279.999Z" fill="#D6C000"/>
<path d="M327.748 164.425V169.15H318.35V199.731H312.559V169.15H303.11V164.425H327.748Z" fill="#D6C000"/>
<path d="M348.091 171.283C350.225 171.283 352.121 171.74 353.781 172.655C355.474 173.569 356.795 174.924 357.743 176.719C358.725 178.514 359.216 180.681 359.216 183.221V199.731H353.476V184.085C353.476 181.579 352.849 179.665 351.596 178.344C350.343 176.99 348.633 176.312 346.466 176.312C344.298 176.312 342.571 176.99 341.284 178.344C340.031 179.665 339.404 181.579 339.404 184.085V199.731H333.613V162.139H339.404V174.992C340.387 173.806 341.623 172.892 343.113 172.248C344.637 171.605 346.296 171.283 348.091 171.283Z" fill="#D6C000"/>
<path d="M391.8 171.74L374.63 212.888H368.635L374.325 199.274L363.301 171.74H369.753L377.627 193.076L385.806 171.74H391.8Z" fill="#D6C000"/>
<path d="M446.552 164.425V199.731H440.761V175.55L429.991 199.731H425.978L415.158 175.55V199.731H409.367V164.425H415.615L428.01 192.111L440.355 164.425H446.552Z" fill="#D6C000"/>
<path d="M479.818 185.05C479.818 186.1 479.75 187.048 479.615 187.895H458.228C458.397 190.13 459.227 191.925 460.717 193.28C462.207 194.634 464.036 195.312 466.204 195.312C469.319 195.312 471.521 194.008 472.808 191.4H479.056C478.209 193.974 476.668 196.091 474.433 197.75C472.232 199.376 469.489 200.188 466.204 200.188C463.528 200.188 461.124 199.596 458.99 198.41C456.89 197.191 455.231 195.498 454.012 193.33C452.826 191.129 452.234 188.589 452.234 185.71C452.234 182.832 452.809 180.309 453.961 178.141C455.146 175.94 456.789 174.247 458.888 173.061C461.022 171.876 463.46 171.283 466.204 171.283C468.845 171.283 471.199 171.859 473.265 173.01C475.331 174.162 476.939 175.788 478.091 177.887C479.242 179.953 479.818 182.341 479.818 185.05ZM473.773 183.221C473.739 181.088 472.977 179.377 471.487 178.09C469.997 176.804 468.151 176.16 465.95 176.16C463.951 176.16 462.241 176.804 460.819 178.09C459.396 179.344 458.55 181.054 458.279 183.221H473.773Z" fill="#D6C000"/>
<path d="M483.587 185.609C483.587 182.798 484.162 180.309 485.314 178.141C486.499 175.974 488.091 174.297 490.089 173.112C492.121 171.893 494.373 171.283 496.845 171.283C498.674 171.283 500.469 171.69 502.23 172.502C504.025 173.281 505.448 174.331 506.497 175.652V162.139H512.339V199.731H506.497V195.515C505.549 196.87 504.228 197.987 502.535 198.868C500.876 199.748 498.962 200.188 496.795 200.188C494.356 200.188 492.121 199.579 490.089 198.36C488.091 197.107 486.499 195.379 485.314 193.178C484.162 190.943 483.587 188.42 483.587 185.609ZM506.497 185.71C506.497 183.78 506.091 182.104 505.278 180.681C504.499 179.259 503.466 178.175 502.18 177.43C500.893 176.685 499.504 176.312 498.014 176.312C496.524 176.312 495.135 176.685 493.848 177.43C492.561 178.141 491.512 179.208 490.699 180.63C489.92 182.019 489.53 183.678 489.53 185.609C489.53 187.539 489.92 189.233 490.699 190.689C491.512 192.145 492.561 193.263 493.848 194.042C495.169 194.787 496.558 195.159 498.014 195.159C499.504 195.159 500.893 194.787 502.18 194.042C503.466 193.297 504.499 192.213 505.278 190.79C506.091 189.334 506.497 187.641 506.497 185.71Z" fill="#D6C000"/>
<path d="M522.892 168.032C521.843 168.032 520.962 167.676 520.251 166.965C519.54 166.254 519.184 165.374 519.184 164.324C519.184 163.274 519.54 162.393 520.251 161.682C520.962 160.971 521.843 160.615 522.892 160.615C523.908 160.615 524.772 160.971 525.483 161.682C526.194 162.393 526.55 163.274 526.55 164.324C526.55 165.374 526.194 166.254 525.483 166.965C524.772 167.676 523.908 168.032 522.892 168.032ZM525.737 171.74V199.731H519.946V171.74H525.737Z" fill="#D6C000"/>
<path d="M531.41 185.71C531.41 182.832 531.986 180.309 533.137 178.141C534.323 175.94 535.948 174.247 538.014 173.061C540.08 171.876 542.451 171.283 545.126 171.283C548.513 171.283 551.307 172.096 553.508 173.722C555.743 175.313 557.25 177.599 558.029 180.58H551.781C551.273 179.191 550.46 178.107 549.343 177.328C548.225 176.55 546.819 176.16 545.126 176.16C542.755 176.16 540.859 177.007 539.437 178.7C538.048 180.36 537.354 182.696 537.354 185.71C537.354 188.725 538.048 191.078 539.437 192.772C540.859 194.465 542.755 195.312 545.126 195.312C548.479 195.312 550.697 193.838 551.781 190.892H558.029C557.216 193.737 555.693 196.006 553.457 197.699C551.222 199.359 548.445 200.188 545.126 200.188C542.451 200.188 540.08 199.596 538.014 198.41C535.948 197.191 534.323 195.498 533.137 193.33C531.986 191.129 531.41 188.589 531.41 185.71Z" fill="#D6C000"/>
<path d="M566.747 168.032C565.697 168.032 564.817 167.676 564.105 166.965C563.394 166.254 563.039 165.374 563.039 164.324C563.039 163.274 563.394 162.393 564.105 161.682C564.817 160.971 565.697 160.615 566.747 160.615C567.763 160.615 568.627 160.971 569.338 161.682C570.049 162.393 570.405 163.274 570.405 164.324C570.405 165.374 570.049 166.254 569.338 166.965C568.627 167.676 567.763 168.032 566.747 168.032ZM569.592 171.74V199.731H563.801V171.74H569.592Z" fill="#D6C000"/>
<path d="M591.318 171.283C593.519 171.283 595.483 171.74 597.21 172.655C598.971 173.569 600.343 174.924 601.325 176.719C602.307 178.514 602.798 180.681 602.798 183.221V199.731H597.058V184.085C597.058 181.579 596.431 179.665 595.178 178.344C593.925 176.99 592.215 176.312 590.048 176.312C587.88 176.312 586.153 176.99 584.866 178.344C583.613 179.665 582.986 181.579 582.986 184.085V199.731H577.195V171.74H582.986V174.941C583.935 173.789 585.137 172.892 586.593 172.248C588.083 171.605 589.658 171.283 591.318 171.283Z" fill="#D6C000"/>
<path d="M635.839 185.05C635.839 186.1 635.772 187.048 635.636 187.895H614.249C614.419 190.13 615.249 191.925 616.739 193.28C618.229 194.634 620.058 195.312 622.225 195.312C625.341 195.312 627.542 194.008 628.829 191.4H635.077C634.231 193.974 632.69 196.091 630.455 197.75C628.253 199.376 625.51 200.188 622.225 200.188C619.55 200.188 617.145 199.596 615.011 198.41C612.912 197.191 611.252 195.498 610.033 193.33C608.848 191.129 608.255 188.589 608.255 185.71C608.255 182.832 608.831 180.309 609.982 178.141C611.168 175.94 612.81 174.247 614.91 173.061C617.043 171.876 619.482 171.283 622.225 171.283C624.867 171.283 627.22 171.859 629.286 173.01C631.352 174.162 632.961 175.788 634.112 177.887C635.264 179.953 635.839 182.341 635.839 185.05ZM629.794 183.221C629.76 181.088 628.998 179.377 627.508 178.09C626.018 176.804 624.172 176.16 621.971 176.16C619.973 176.16 618.263 176.804 616.84 178.09C615.418 179.344 614.571 181.054 614.3 183.221H629.794Z" fill="#D6C000"/>
<mask id="path-2-outside-1_1240_25171" maskUnits="userSpaceOnUse" x="-2" y="0.731445" width="1404" height="201" fill="black">
<rect fill="white" x="-2" y="0.731445" width="1404" height="201"/>
<path d="M79.6427 20.0669H16.5818V55.2403H70.7656V69.9797H16.5818V130.026H0V5.32758H79.6427V20.0669Z"/>
<path d="M195.042 19.6482C200.122 25.2313 204.002 32.0705 206.682 40.166C209.418 48.2615 210.786 57.4456 210.786 67.7185C210.786 77.9914 209.39 87.2035 206.599 95.3548C203.863 103.45 200.011 110.206 195.042 115.621C189.905 121.26 183.82 125.503 176.785 128.351C169.806 131.198 161.822 132.622 152.833 132.622C144.068 132.622 136.084 131.17 128.882 128.267C121.736 125.364 115.65 121.149 110.625 115.621C105.601 110.094 101.72 103.311 98.9847 95.271C96.3048 87.2314 94.9649 78.0472 94.9649 67.7185C94.9649 57.5573 96.3048 48.4569 98.9847 40.4172C101.665 32.3218 105.573 25.3988 110.709 19.6482C115.622 14.1768 121.708 9.98945 128.966 7.08625C136.28 4.18305 144.236 2.73145 152.833 2.73145C161.766 2.73145 169.778 4.21096 176.869 7.16999C184.015 10.0732 190.073 14.2326 195.042 19.6482ZM193.534 67.7185C193.534 51.5276 189.905 39.0494 182.647 30.284C175.389 21.4627 165.479 17.052 152.917 17.052C140.244 17.052 130.278 21.4627 123.02 30.284C115.818 39.0494 112.217 51.5276 112.217 67.7185C112.217 84.0769 115.901 96.611 123.271 105.321C130.641 113.974 140.523 118.301 152.917 118.301C165.312 118.301 175.166 113.974 182.48 105.321C189.849 96.611 193.534 84.0769 193.534 67.7185Z"/>
<path d="M333.471 19.6482C338.551 25.2313 342.432 32.0705 345.111 40.166C347.847 48.2615 349.215 57.4456 349.215 67.7185C349.215 77.9914 347.819 87.2035 345.028 95.3548C342.292 103.45 338.44 110.206 333.471 115.621C328.334 121.26 322.249 125.503 315.214 128.351C308.235 131.198 300.251 132.622 291.263 132.622C282.497 132.622 274.513 131.17 267.311 128.267C260.165 125.364 254.079 121.149 249.055 115.621C244.03 110.094 240.15 103.311 237.414 95.271C234.734 87.2314 233.394 78.0472 233.394 67.7185C233.394 57.5573 234.734 48.4569 237.414 40.4172C240.094 32.3218 244.002 25.3988 249.138 19.6482C254.051 14.1768 260.137 9.98945 267.395 7.08625C274.709 4.18305 282.665 2.73145 291.263 2.73145C300.196 2.73145 308.207 4.21096 315.298 7.16999C322.444 10.0732 328.502 14.2326 333.471 19.6482ZM331.963 67.7185C331.963 51.5276 328.334 39.0494 321.076 30.284C313.818 21.4627 303.908 17.052 291.346 17.052C278.673 17.052 268.707 21.4627 261.449 30.284C254.247 39.0494 250.646 51.5276 250.646 67.7185C250.646 84.0769 254.331 96.611 261.7 105.321C269.07 113.974 278.952 118.301 291.346 118.301C303.741 118.301 313.595 113.974 320.909 105.321C328.278 96.611 331.963 84.0769 331.963 67.7185Z"/>
<path d="M484.294 67.8023C484.294 79.1359 481.81 89.4088 476.841 98.6209C471.928 107.833 465.368 114.979 457.161 120.06C451.466 123.577 445.101 126.118 438.066 127.681C431.088 129.244 421.876 130.026 410.43 130.026H378.942V5.32758H410.095C422.266 5.32758 431.925 6.22087 439.071 8.00746C446.274 9.73821 452.359 12.1389 457.328 15.2096C465.814 20.5136 472.43 27.5762 477.176 36.3974C481.922 45.2187 484.294 55.687 484.294 67.8023ZM466.959 67.551C466.959 57.7806 465.256 49.5456 461.85 42.8459C458.445 36.1462 453.364 30.8702 446.609 27.0178C441.695 24.2263 436.475 22.3001 430.948 21.2394C425.421 20.1227 418.805 19.5644 411.1 19.5644H395.523V115.789H411.1C419.084 115.789 426.035 115.203 431.953 114.03C437.927 112.858 443.398 110.68 448.367 107.498C454.564 103.534 459.198 98.3138 462.269 91.8374C465.396 85.361 466.959 77.2656 466.959 67.551Z"/>
<path d="M613.556 124.039C610.485 125.379 607.694 126.635 605.181 127.808C602.725 128.98 599.487 130.209 595.467 131.493C592.061 132.553 588.348 133.447 584.329 134.173C580.365 134.954 575.982 135.345 571.18 135.345C562.136 135.345 553.901 134.089 546.475 131.576C539.106 129.008 532.685 125.016 527.214 119.601C521.854 114.297 517.667 107.569 514.652 99.4179C511.637 91.2107 510.13 81.6916 510.13 70.8604C510.13 60.5875 511.581 51.4033 514.484 43.3079C517.388 35.2124 521.575 28.3731 527.046 22.7901C532.35 17.3745 538.743 13.243 546.224 10.3956C553.761 7.54822 562.108 6.12459 571.264 6.12459C577.964 6.12459 584.636 6.93412 591.28 8.55321C597.979 10.1723 605.405 13.0197 613.556 17.0953V36.7757H612.3C605.433 31.0251 598.621 26.8378 591.866 24.2138C585.11 21.5897 577.88 20.2777 570.176 20.2777C563.867 20.2777 558.172 21.3105 553.091 23.3763C548.067 25.3862 543.572 28.5407 539.608 32.8396C535.756 37.0269 532.741 42.3308 530.564 48.7514C528.442 55.1161 527.381 62.4858 527.381 70.8604C527.381 79.6258 528.554 87.163 530.899 93.4719C533.299 99.7808 536.37 104.917 540.111 108.881C544.019 113.013 548.569 116.083 553.761 118.093C559.009 120.047 564.537 121.024 570.343 121.024C578.327 121.024 585.808 119.656 592.787 116.921C599.766 114.185 606.298 110.082 612.384 104.61H613.556V124.039Z"/>
<path d="M757.104 198.879H734.833L686.385 83.5061H663.02V133.084H646.438V8.38571H681.361C688.898 8.38571 695.179 8.88817 700.204 9.89312C705.228 10.8422 709.751 12.573 713.771 15.0854C718.293 17.9328 721.81 21.5339 724.323 25.8887C726.891 30.1876 728.175 35.659 728.175 42.3029C728.175 51.2917 725.914 58.8289 721.391 64.9144C716.869 70.9441 710.644 75.4943 702.716 78.565L757.104 198.879ZM710.839 43.4754C710.839 39.9022 710.197 36.7477 708.913 34.012C707.685 31.2205 705.619 28.8756 702.716 26.9773C700.315 25.3582 697.468 24.2416 694.174 23.6275C690.88 22.9575 687 22.6226 682.533 22.6226H663.02V69.6879H679.77C685.018 69.6879 689.596 69.2413 693.504 68.348C697.412 67.3989 700.734 65.6681 703.47 63.1558C705.982 60.8109 707.825 58.131 708.997 55.1161C710.225 52.0454 710.839 48.1652 710.839 43.4754Z"/>
<path d="M817.378 133.084H768.135V120.354H784.465V21.1151H768.135V8.38571H817.378V21.1151H801.047V120.354H817.378V133.084Z"/>
<path d="M935.744 46.0715C935.744 51.5988 934.767 56.7352 932.813 61.4808C930.915 66.1706 928.235 70.2462 924.774 73.7078C920.475 78.0067 915.394 81.2449 909.532 83.4223C903.67 85.5439 896.272 86.6047 887.339 86.6047H870.757V133.084H854.176V8.38571H888.009C895.49 8.38571 901.827 9.02776 907.019 10.3119C912.212 11.5401 916.818 13.4942 920.838 16.1741C925.583 19.3565 929.24 23.3204 931.808 28.0661C934.432 32.8117 935.744 38.8135 935.744 46.0715ZM918.493 46.4902C918.493 42.1913 917.739 38.4506 916.232 35.2682C914.724 32.0859 912.435 29.4898 909.364 27.4799C906.685 25.7491 903.614 24.5208 900.152 23.795C896.747 23.0134 892.42 22.6226 887.172 22.6226H870.757V72.4516H884.743C891.443 72.4516 896.886 71.8654 901.074 70.6929C905.261 69.4646 908.667 67.5385 911.291 64.9144C913.915 62.2345 915.757 59.4151 916.818 56.456C917.934 53.497 918.493 50.1751 918.493 46.4902Z"/>
<path d="M1055.2 23.125H1010.65V133.084H994.065V23.125H949.512V8.38571H1055.2V23.125Z"/>
<path d="M1124.49 133.084H1075.25V120.354H1091.58V21.1151H1075.25V8.38571H1124.49V21.1151H1108.16V120.354H1124.49V133.084Z"/>
<path d="M1254.25 22.7063C1259.33 28.2894 1263.21 35.1287 1265.89 43.2242C1268.62 51.3196 1269.99 60.5037 1269.99 70.7766C1269.99 81.0495 1268.6 90.2616 1265.81 98.4129C1263.07 106.508 1259.22 113.264 1254.25 118.679C1249.11 124.318 1243.03 128.562 1235.99 131.409C1229.01 134.256 1221.03 135.68 1212.04 135.68C1203.27 135.68 1195.29 134.228 1188.09 131.325C1180.94 128.422 1174.86 124.207 1169.83 118.679C1164.81 113.152 1160.93 106.369 1158.19 98.3291C1155.51 90.2895 1154.17 81.1053 1154.17 70.7766C1154.17 60.6154 1155.51 51.515 1158.19 43.4754C1160.87 35.3799 1164.78 28.4569 1169.92 22.7063C1174.83 17.2349 1180.91 13.0476 1188.17 10.1444C1195.49 7.24116 1203.44 5.78957 1212.04 5.78957C1220.97 5.78957 1228.98 7.2691 1236.08 10.2281C1243.22 13.1313 1249.28 17.2907 1254.25 22.7063ZM1252.74 70.7766C1252.74 54.5857 1249.11 42.1075 1241.85 33.3421C1234.6 24.5208 1224.69 20.1102 1212.12 20.1102C1199.45 20.1102 1189.48 24.5208 1182.23 33.3421C1175.02 42.1075 1171.42 54.5857 1171.42 70.7766C1171.42 87.135 1175.11 99.6691 1182.48 108.379C1189.85 117.032 1199.73 121.359 1212.12 121.359C1224.52 121.359 1234.37 117.032 1241.69 108.379C1249.06 99.6691 1252.74 87.135 1252.74 70.7766Z"/>
<path d="M1400 133.084H1379.48L1320.36 21.5338V133.084H1304.86V8.38571H1330.57L1384.51 110.221V8.38571H1400V133.084Z"/>
<path d="M738.395 95.5986H760.098L708.09 198.879H686.385L738.395 95.5986Z"/>
</mask>
<path d="M79.6427 20.0669H16.5818V55.2403H70.7656V69.9797H16.5818V130.026H0V5.32758H79.6427V20.0669Z" fill="url(#paint0_linear_1240_25171)"/>
<path d="M195.042 19.6482C200.122 25.2313 204.002 32.0705 206.682 40.166C209.418 48.2615 210.786 57.4456 210.786 67.7185C210.786 77.9914 209.39 87.2035 206.599 95.3548C203.863 103.45 200.011 110.206 195.042 115.621C189.905 121.26 183.82 125.503 176.785 128.351C169.806 131.198 161.822 132.622 152.833 132.622C144.068 132.622 136.084 131.17 128.882 128.267C121.736 125.364 115.65 121.149 110.625 115.621C105.601 110.094 101.72 103.311 98.9847 95.271C96.3048 87.2314 94.9649 78.0472 94.9649 67.7185C94.9649 57.5573 96.3048 48.4569 98.9847 40.4172C101.665 32.3218 105.573 25.3988 110.709 19.6482C115.622 14.1768 121.708 9.98945 128.966 7.08625C136.28 4.18305 144.236 2.73145 152.833 2.73145C161.766 2.73145 169.778 4.21096 176.869 7.16999C184.015 10.0732 190.073 14.2326 195.042 19.6482ZM193.534 67.7185C193.534 51.5276 189.905 39.0494 182.647 30.284C175.389 21.4627 165.479 17.052 152.917 17.052C140.244 17.052 130.278 21.4627 123.02 30.284C115.818 39.0494 112.217 51.5276 112.217 67.7185C112.217 84.0769 115.901 96.611 123.271 105.321C130.641 113.974 140.523 118.301 152.917 118.301C165.312 118.301 175.166 113.974 182.48 105.321C189.849 96.611 193.534 84.0769 193.534 67.7185Z" fill="url(#paint1_linear_1240_25171)"/>
<path d="M333.471 19.6482C338.551 25.2313 342.432 32.0705 345.111 40.166C347.847 48.2615 349.215 57.4456 349.215 67.7185C349.215 77.9914 347.819 87.2035 345.028 95.3548C342.292 103.45 338.44 110.206 333.471 115.621C328.334 121.26 322.249 125.503 315.214 128.351C308.235 131.198 300.251 132.622 291.263 132.622C282.497 132.622 274.513 131.17 267.311 128.267C260.165 125.364 254.079 121.149 249.055 115.621C244.03 110.094 240.15 103.311 237.414 95.271C234.734 87.2314 233.394 78.0472 233.394 67.7185C233.394 57.5573 234.734 48.4569 237.414 40.4172C240.094 32.3218 244.002 25.3988 249.138 19.6482C254.051 14.1768 260.137 9.98945 267.395 7.08625C274.709 4.18305 282.665 2.73145 291.263 2.73145C300.196 2.73145 308.207 4.21096 315.298 7.16999C322.444 10.0732 328.502 14.2326 333.471 19.6482ZM331.963 67.7185C331.963 51.5276 328.334 39.0494 321.076 30.284C313.818 21.4627 303.908 17.052 291.346 17.052C278.673 17.052 268.707 21.4627 261.449 30.284C254.247 39.0494 250.646 51.5276 250.646 67.7185C250.646 84.0769 254.331 96.611 261.7 105.321C269.07 113.974 278.952 118.301 291.346 118.301C303.741 118.301 313.595 113.974 320.909 105.321C328.278 96.611 331.963 84.0769 331.963 67.7185Z" fill="url(#paint2_linear_1240_25171)"/>
<path d="M484.294 67.8023C484.294 79.1359 481.81 89.4088 476.841 98.6209C471.928 107.833 465.368 114.979 457.161 120.06C451.466 123.577 445.101 126.118 438.066 127.681C431.088 129.244 421.876 130.026 410.43 130.026H378.942V5.32758H410.095C422.266 5.32758 431.925 6.22087 439.071 8.00746C446.274 9.73821 452.359 12.1389 457.328 15.2096C465.814 20.5136 472.43 27.5762 477.176 36.3974C481.922 45.2187 484.294 55.687 484.294 67.8023ZM466.959 67.551C466.959 57.7806 465.256 49.5456 461.85 42.8459C458.445 36.1462 453.364 30.8702 446.609 27.0178C441.695 24.2263 436.475 22.3001 430.948 21.2394C425.421 20.1227 418.805 19.5644 411.1 19.5644H395.523V115.789H411.1C419.084 115.789 426.035 115.203 431.953 114.03C437.927 112.858 443.398 110.68 448.367 107.498C454.564 103.534 459.198 98.3138 462.269 91.8374C465.396 85.361 466.959 77.2656 466.959 67.551Z" fill="url(#paint3_linear_1240_25171)"/>
<path d="M613.556 124.039C610.485 125.379 607.694 126.635 605.181 127.808C602.725 128.98 599.487 130.209 595.467 131.493C592.061 132.553 588.348 133.447 584.329 134.173C580.365 134.954 575.982 135.345 571.18 135.345C562.136 135.345 553.901 134.089 546.475 131.576C539.106 129.008 532.685 125.016 527.214 119.601C521.854 114.297 517.667 107.569 514.652 99.4179C511.637 91.2107 510.13 81.6916 510.13 70.8604C510.13 60.5875 511.581 51.4033 514.484 43.3079C517.388 35.2124 521.575 28.3731 527.046 22.7901C532.35 17.3745 538.743 13.243 546.224 10.3956C553.761 7.54822 562.108 6.12459 571.264 6.12459C577.964 6.12459 584.636 6.93412 591.28 8.55321C597.979 10.1723 605.405 13.0197 613.556 17.0953V36.7757H612.3C605.433 31.0251 598.621 26.8378 591.866 24.2138C585.11 21.5897 577.88 20.2777 570.176 20.2777C563.867 20.2777 558.172 21.3105 553.091 23.3763C548.067 25.3862 543.572 28.5407 539.608 32.8396C535.756 37.0269 532.741 42.3308 530.564 48.7514C528.442 55.1161 527.381 62.4858 527.381 70.8604C527.381 79.6258 528.554 87.163 530.899 93.4719C533.299 99.7808 536.37 104.917 540.111 108.881C544.019 113.013 548.569 116.083 553.761 118.093C559.009 120.047 564.537 121.024 570.343 121.024C578.327 121.024 585.808 119.656 592.787 116.921C599.766 114.185 606.298 110.082 612.384 104.61H613.556V124.039Z" fill="url(#paint4_linear_1240_25171)"/>
<path d="M757.104 198.879H734.833L686.385 83.5061H663.02V133.084H646.438V8.38571H681.361C688.898 8.38571 695.179 8.88817 700.204 9.89312C705.228 10.8422 709.751 12.573 713.771 15.0854C718.293 17.9328 721.81 21.5339 724.323 25.8887C726.891 30.1876 728.175 35.659 728.175 42.3029C728.175 51.2917 725.914 58.8289 721.391 64.9144C716.869 70.9441 710.644 75.4943 702.716 78.565L757.104 198.879ZM710.839 43.4754C710.839 39.9022 710.197 36.7477 708.913 34.012C707.685 31.2205 705.619 28.8756 702.716 26.9773C700.315 25.3582 697.468 24.2416 694.174 23.6275C690.88 22.9575 687 22.6226 682.533 22.6226H663.02V69.6879H679.77C685.018 69.6879 689.596 69.2413 693.504 68.348C697.412 67.3989 700.734 65.6681 703.47 63.1558C705.982 60.8109 707.825 58.131 708.997 55.1161C710.225 52.0454 710.839 48.1652 710.839 43.4754Z" fill="url(#paint5_linear_1240_25171)"/>
<path d="M817.378 133.084H768.135V120.354H784.465V21.1151H768.135V8.38571H817.378V21.1151H801.047V120.354H817.378V133.084Z" fill="url(#paint6_linear_1240_25171)"/>
<path d="M935.744 46.0715C935.744 51.5988 934.767 56.7352 932.813 61.4808C930.915 66.1706 928.235 70.2462 924.774 73.7078C920.475 78.0067 915.394 81.2449 909.532 83.4223C903.67 85.5439 896.272 86.6047 887.339 86.6047H870.757V133.084H854.176V8.38571H888.009C895.49 8.38571 901.827 9.02776 907.019 10.3119C912.212 11.5401 916.818 13.4942 920.838 16.1741C925.583 19.3565 929.24 23.3204 931.808 28.0661C934.432 32.8117 935.744 38.8135 935.744 46.0715ZM918.493 46.4902C918.493 42.1913 917.739 38.4506 916.232 35.2682C914.724 32.0859 912.435 29.4898 909.364 27.4799C906.685 25.7491 903.614 24.5208 900.152 23.795C896.747 23.0134 892.42 22.6226 887.172 22.6226H870.757V72.4516H884.743C891.443 72.4516 896.886 71.8654 901.074 70.6929C905.261 69.4646 908.667 67.5385 911.291 64.9144C913.915 62.2345 915.757 59.4151 916.818 56.456C917.934 53.497 918.493 50.1751 918.493 46.4902Z" fill="url(#paint7_linear_1240_25171)"/>
<path d="M1055.2 23.125H1010.65V133.084H994.065V23.125H949.512V8.38571H1055.2V23.125Z" fill="url(#paint8_linear_1240_25171)"/>
<path d="M1124.49 133.084H1075.25V120.354H1091.58V21.1151H1075.25V8.38571H1124.49V21.1151H1108.16V120.354H1124.49V133.084Z" fill="url(#paint9_linear_1240_25171)"/>
<path d="M1254.25 22.7063C1259.33 28.2894 1263.21 35.1287 1265.89 43.2242C1268.62 51.3196 1269.99 60.5037 1269.99 70.7766C1269.99 81.0495 1268.6 90.2616 1265.81 98.4129C1263.07 106.508 1259.22 113.264 1254.25 118.679C1249.11 124.318 1243.03 128.562 1235.99 131.409C1229.01 134.256 1221.03 135.68 1212.04 135.68C1203.27 135.68 1195.29 134.228 1188.09 131.325C1180.94 128.422 1174.86 124.207 1169.83 118.679C1164.81 113.152 1160.93 106.369 1158.19 98.3291C1155.51 90.2895 1154.17 81.1053 1154.17 70.7766C1154.17 60.6154 1155.51 51.515 1158.19 43.4754C1160.87 35.3799 1164.78 28.4569 1169.92 22.7063C1174.83 17.2349 1180.91 13.0476 1188.17 10.1444C1195.49 7.24116 1203.44 5.78957 1212.04 5.78957C1220.97 5.78957 1228.98 7.2691 1236.08 10.2281C1243.22 13.1313 1249.28 17.2907 1254.25 22.7063ZM1252.74 70.7766C1252.74 54.5857 1249.11 42.1075 1241.85 33.3421C1234.6 24.5208 1224.69 20.1102 1212.12 20.1102C1199.45 20.1102 1189.48 24.5208 1182.23 33.3421C1175.02 42.1075 1171.42 54.5857 1171.42 70.7766C1171.42 87.135 1175.11 99.6691 1182.48 108.379C1189.85 117.032 1199.73 121.359 1212.12 121.359C1224.52 121.359 1234.37 117.032 1241.69 108.379C1249.06 99.6691 1252.74 87.135 1252.74 70.7766Z" fill="url(#paint10_linear_1240_25171)"/>
<path d="M1400 133.084H1379.48L1320.36 21.5338V133.084H1304.86V8.38571H1330.57L1384.51 110.221V8.38571H1400V133.084Z" fill="url(#paint11_linear_1240_25171)"/>
<path d="M738.395 95.5986H760.098L708.09 198.879H686.385L738.395 95.5986Z" fill="url(#paint12_linear_1240_25171)"/>
<path d="M79.6427 20.0669V22.0669H81.6427V20.0669H79.6427ZM16.5818 20.0669V18.0669H14.5818V20.0669H16.5818ZM16.5818 55.2403H14.5818V57.2403H16.5818V55.2403ZM70.7656 55.2403H72.7656V53.2403H70.7656V55.2403ZM70.7656 69.9797V71.9797H72.7656V69.9797H70.7656ZM16.5818 69.9797V67.9797H14.5818V69.9797H16.5818ZM16.5818 130.026V132.026H18.5818V130.026H16.5818ZM0 130.026H-2V132.026H0V130.026ZM0 5.32758V3.32758H-2V5.32758H0ZM79.6427 5.32758H81.6427V3.32758H79.6427V5.32758ZM195.042 19.6482L196.521 18.3021L196.515 18.296L195.042 19.6482ZM206.682 40.166L204.784 40.7945L204.788 40.8063L206.682 40.166ZM206.599 95.3548L204.706 94.7068L204.704 94.7145L206.599 95.3548ZM195.042 115.621L193.568 114.269L193.563 114.275L195.042 115.621ZM176.785 128.351L176.035 126.497L176.029 126.499L176.785 128.351ZM128.882 128.267L128.129 130.12L128.134 130.122L128.882 128.267ZM98.9847 95.271L97.0873 95.9035L97.0913 95.9153L98.9847 95.271ZM98.9847 40.4172L100.882 41.0497L100.883 41.0458L98.9847 40.4172ZM110.709 19.6482L109.221 18.3119L109.218 18.3159L110.709 19.6482ZM128.966 7.08625L128.228 5.22734L128.223 5.2293L128.966 7.08625ZM176.869 7.16999L176.098 9.01572L176.107 9.01936L176.116 9.02293L176.869 7.16999ZM182.647 30.284L181.103 31.5547L181.107 31.5595L182.647 30.284ZM123.02 30.284L121.475 29.0132L121.475 29.0143L123.02 30.284ZM123.271 105.321L121.744 106.612L121.748 106.617L123.271 105.321ZM182.48 105.321L180.953 104.029L180.952 104.03L182.48 105.321ZM333.471 19.6482L334.95 18.3021L334.944 18.296L333.471 19.6482ZM345.111 40.166L343.213 40.7945L343.217 40.8063L345.111 40.166ZM345.028 95.3548L343.136 94.7068L343.133 94.7145L345.028 95.3548ZM333.471 115.621L331.997 114.269L331.992 114.275L333.471 115.621ZM315.214 128.351L314.464 126.497L314.459 126.499L315.214 128.351ZM267.311 128.267L266.558 130.12L266.563 130.122L267.311 128.267ZM237.414 95.271L235.516 95.9035L235.52 95.9153L237.414 95.271ZM237.414 40.4172L239.311 41.0497L239.312 41.0458L237.414 40.4172ZM249.138 19.6482L247.65 18.3119L247.647 18.3159L249.138 19.6482ZM267.395 7.08625L266.657 5.22734L266.652 5.2293L267.395 7.08625ZM315.298 7.16999L314.528 9.01572L314.536 9.01936L314.545 9.02293L315.298 7.16999ZM321.076 30.284L319.532 31.5547L319.536 31.5595L321.076 30.284ZM261.449 30.284L259.905 29.0132L259.904 29.0143L261.449 30.284ZM261.7 105.321L260.173 106.612L260.178 106.617L261.7 105.321ZM320.909 105.321L319.382 104.029L319.381 104.03L320.909 105.321ZM476.841 98.6209L475.081 97.6714L475.076 97.6797L476.841 98.6209ZM457.161 120.06L458.212 121.761L458.213 121.76L457.161 120.06ZM438.066 127.681L437.633 125.728L437.629 125.729L438.066 127.681ZM378.942 130.026H376.942V132.026H378.942V130.026ZM378.942 5.32758V3.32758H376.942V5.32758H378.942ZM439.071 8.00746L438.586 9.94774L438.595 9.94996L438.604 9.9521L439.071 8.00746ZM457.328 15.2096L458.388 13.5136L458.379 13.5083L457.328 15.2096ZM446.609 27.0178L447.599 25.2805L447.597 25.2789L446.609 27.0178ZM430.948 21.2394L430.552 23.1998L430.561 23.2017L430.571 23.2035L430.948 21.2394ZM395.523 19.5644V17.5644H393.523V19.5644H395.523ZM395.523 115.789H393.523V117.789H395.523V115.789ZM431.953 114.03L431.568 112.068L431.564 112.068L431.953 114.03ZM448.367 107.498L447.29 105.813L447.289 105.814L448.367 107.498ZM462.269 91.8374L460.468 90.9679L460.462 90.9806L462.269 91.8374ZM613.556 124.039L614.356 125.872L615.556 125.349V124.039H613.556ZM605.181 127.808L604.336 125.995L604.328 125.999L604.32 126.003L605.181 127.808ZM595.467 131.493L596.062 133.402L596.069 133.4L596.075 133.398L595.467 131.493ZM584.329 134.173L583.973 132.204L583.957 132.207L583.942 132.21L584.329 134.173ZM546.475 131.576L545.817 133.465L545.826 133.468L545.834 133.471L546.475 131.576ZM527.214 119.601L528.621 118.179L528.621 118.179L527.214 119.601ZM514.652 99.4179L512.774 100.108L512.776 100.112L514.652 99.4179ZM527.046 22.7901L528.475 24.1899L528.475 24.1895L527.046 22.7901ZM546.224 10.3956L545.517 8.52465L545.513 8.5264L546.224 10.3956ZM591.28 8.55321L590.806 10.4964L590.81 10.4973L591.28 8.55321ZM613.556 17.0953H615.556V15.8593L614.45 15.3065L613.556 17.0953ZM613.556 36.7757V38.7757H615.556V36.7757H613.556ZM612.3 36.7757L611.016 38.309L611.573 38.7757H612.3V36.7757ZM553.091 23.3763L553.834 25.2332L553.845 25.229L553.091 23.3763ZM539.608 32.8396L538.138 31.4839L538.136 31.4855L539.608 32.8396ZM530.564 48.7514L528.67 48.109L528.666 48.1189L530.564 48.7514ZM530.899 93.4719L529.024 94.1687L529.027 94.1759L529.029 94.1832L530.899 93.4719ZM540.111 108.881L538.656 110.254L538.658 110.256L540.111 108.881ZM553.761 118.093L553.039 119.958L553.051 119.963L553.063 119.968L553.761 118.093ZM612.384 104.61V102.61H611.617L611.046 103.123L612.384 104.61ZM613.556 104.61H615.556V102.61H613.556V104.61ZM757.104 198.879V200.879H760.203L758.927 198.055L757.104 198.879ZM734.833 198.879L732.989 199.653L733.504 200.879H734.833V198.879ZM686.385 83.5061L688.229 82.7317L687.715 81.5061H686.385V83.5061ZM663.02 83.5061V81.5061H661.02V83.5061H663.02ZM663.02 133.084V135.084H665.02V133.084H663.02ZM646.438 133.084H644.438V135.084H646.438V133.084ZM646.438 8.38571V6.38571H644.438V8.38571H646.438ZM700.204 9.89312L699.811 11.8543L699.822 11.8564L699.832 11.8584L700.204 9.89312ZM713.771 15.0854L714.836 13.3929L714.831 13.3894L713.771 15.0854ZM724.323 25.8887L722.59 26.8881L722.598 26.9013L722.606 26.9144L724.323 25.8887ZM721.391 64.9144L722.991 66.1144L722.997 66.1073L721.391 64.9144ZM702.716 78.565L701.994 76.7L700.023 77.4633L700.893 79.3889L702.716 78.565ZM708.913 34.012L707.083 34.8175L707.092 34.8398L707.103 34.8619L708.913 34.012ZM702.716 26.9773L701.598 28.6355L701.609 28.6435L701.621 28.6513L702.716 26.9773ZM694.174 23.6275L693.775 25.5874L693.791 25.5906L693.807 25.5936L694.174 23.6275ZM663.02 22.6226V20.6226H661.02V22.6226H663.02ZM663.02 69.6879H661.02V71.6879H663.02V69.6879ZM693.504 68.348L693.95 70.2977L693.963 70.2947L693.976 70.2915L693.504 68.348ZM703.47 63.1558L704.822 64.6288L704.828 64.6234L704.834 64.6179L703.47 63.1558ZM708.997 55.1161L707.14 54.3733L707.136 54.3823L707.133 54.3912L708.997 55.1161ZM817.378 133.084V135.084H819.378V133.084H817.378ZM768.135 133.084H766.135V135.084H768.135V133.084ZM768.135 120.354V118.354H766.135V120.354H768.135ZM784.465 120.354V122.354H786.465V120.354H784.465ZM784.465 21.1151H786.465V19.1151H784.465V21.1151ZM768.135 21.1151H766.135V23.1151H768.135V21.1151ZM768.135 8.38571V6.38571H766.135V8.38571H768.135ZM817.378 8.38571H819.378V6.38571H817.378V8.38571ZM817.378 21.1151V23.1151H819.378V21.1151H817.378ZM801.047 21.1151V19.1151H799.047V21.1151H801.047ZM801.047 120.354H799.047V122.354H801.047V120.354ZM817.378 120.354H819.378V118.354H817.378V120.354ZM932.813 61.4808L930.964 60.7193L930.959 60.7304L932.813 61.4808ZM909.532 83.4223L910.212 85.3029L910.22 85.3001L910.228 85.2972L909.532 83.4223ZM870.757 86.6047V84.6047H868.757V86.6047H870.757ZM870.757 133.084V135.084H872.757V133.084H870.757ZM854.176 133.084H852.176V135.084H854.176V133.084ZM854.176 8.38571V6.38571H852.176V8.38571H854.176ZM907.019 10.3119L906.539 12.2534L906.549 12.2558L906.559 12.2582L907.019 10.3119ZM920.838 16.1741L921.952 14.513L921.947 14.51L920.838 16.1741ZM931.808 28.0661L930.049 29.018L930.054 29.0259L930.058 29.0338L931.808 28.0661ZM909.364 27.4799L910.46 25.8064L910.449 25.7998L909.364 27.4799ZM900.152 23.795L899.705 25.7443L899.723 25.7486L899.742 25.7524L900.152 23.795ZM870.757 22.6226V20.6226H868.757V22.6226H870.757ZM870.757 72.4516H868.757V74.4516H870.757V72.4516ZM901.074 70.6929L901.613 72.6189L901.625 72.6155L901.636 72.6121L901.074 70.6929ZM911.291 64.9144L912.705 66.3286L912.712 66.3212L912.72 66.3137L911.291 64.9144ZM916.818 56.456L914.947 55.7499L914.941 55.7655L914.935 55.7811L916.818 56.456ZM1055.2 23.125V25.125H1057.2V23.125H1055.2ZM1010.65 23.125V21.125H1008.65V23.125H1010.65ZM1010.65 133.084V135.084H1012.65V133.084H1010.65ZM994.065 133.084H992.065V135.084H994.065V133.084ZM994.065 23.125H996.065V21.125H994.065V23.125ZM949.512 23.125H947.512V25.125H949.512V23.125ZM949.512 8.38571V6.38571H947.512V8.38571H949.512ZM1055.2 8.38571H1057.2V6.38571H1055.2V8.38571ZM1124.49 133.084V135.084H1126.49V133.084H1124.49ZM1075.25 133.084H1073.25V135.084H1075.25V133.084ZM1075.25 120.354V118.354H1073.25V120.354H1075.25ZM1091.58 120.354V122.354H1093.58V120.354H1091.58ZM1091.58 21.1151H1093.58V19.1151H1091.58V21.1151ZM1075.25 21.1151H1073.25V23.1151H1075.25V21.1151ZM1075.25 8.38571V6.38571H1073.25V8.38571H1075.25ZM1124.49 8.38571H1126.49V6.38571H1124.49V8.38571ZM1124.49 21.1151V23.1151H1126.49V21.1151H1124.49ZM1108.16 21.1151V19.1151H1106.16V21.1151H1108.16ZM1108.16 120.354H1106.16V122.354H1108.16V120.354ZM1124.49 120.354H1126.49V118.354H1124.49V120.354ZM1254.25 22.7063L1255.73 21.3602L1255.72 21.3542L1254.25 22.7063ZM1265.89 43.2242L1263.99 43.8527L1263.99 43.8645L1265.89 43.2242ZM1265.81 98.4129L1263.91 97.7649L1263.91 97.7726L1265.81 98.4129ZM1254.25 118.679L1252.77 117.327L1252.77 117.333L1254.25 118.679ZM1235.99 131.409L1235.24 129.555L1235.24 129.557L1235.99 131.409ZM1188.09 131.325L1187.34 133.178L1187.34 133.18L1188.09 131.325ZM1158.19 98.3291L1156.29 98.9616L1156.3 98.9734L1158.19 98.3291ZM1158.19 43.4754L1160.09 44.1079L1160.09 44.1039L1158.19 43.4754ZM1169.92 22.7063L1168.43 21.3701L1168.42 21.374L1169.92 22.7063ZM1188.17 10.1444L1187.43 8.28545L1187.43 8.28741L1188.17 10.1444ZM1236.08 10.2281L1235.3 12.0739L1235.31 12.0775L1235.32 12.0811L1236.08 10.2281ZM1241.85 33.3421L1240.31 34.6128L1240.31 34.6176L1241.85 33.3421ZM1182.23 33.3421L1180.68 32.0714L1180.68 32.0724L1182.23 33.3421ZM1182.48 108.379L1180.95 109.671L1180.95 109.675L1182.48 108.379ZM1241.69 108.379L1240.16 107.087L1240.16 107.088L1241.69 108.379ZM1400 133.084V135.084H1402V133.084H1400ZM1379.48 133.084L1377.72 134.02L1378.28 135.084H1379.48V133.084ZM1320.36 21.5338L1322.12 20.5972L1318.36 21.5338H1320.36ZM1320.36 133.084V135.084H1322.36V133.084H1320.36ZM1304.86 133.084H1302.86V135.084H1304.86V133.084ZM1304.86 8.38571V6.38571H1302.86V8.38571H1304.86ZM1330.57 8.38571L1332.34 7.44967L1331.78 6.38571H1330.57V8.38571ZM1384.51 110.221L1382.74 111.157L1386.51 110.221H1384.51ZM1384.51 8.38571V6.38571H1382.51V8.38571H1384.51ZM1400 8.38571H1402V6.38571H1400V8.38571ZM760.098 95.5986L761.884 96.4981L763.344 93.5986H760.098V95.5986ZM738.395 95.5986V93.5986H737.162L736.608 94.6991L738.395 95.5986ZM686.385 198.879L684.599 197.979L683.139 200.879H686.385V198.879ZM708.09 198.879V200.879H709.322L709.876 199.779L708.09 198.879ZM79.6427 18.0669H16.5818V22.0669H79.6427V18.0669ZM14.5818 20.0669V55.2403H18.5818V20.0669H14.5818ZM16.5818 57.2403H70.7656V53.2403H16.5818V57.2403ZM68.7656 55.2403V69.9797H72.7656V55.2403H68.7656ZM70.7656 67.9797H16.5818V71.9797H70.7656V67.9797ZM14.5818 69.9797V130.026H18.5818V69.9797H14.5818ZM16.5818 128.026H0V132.026H16.5818V128.026ZM2 130.026V5.32758H-2V130.026H2ZM0 7.32758H79.6427V3.32758H0V7.32758ZM77.6427 5.32758V20.0669H81.6427V5.32758H77.6427ZM193.562 20.9943C198.431 26.3449 202.18 32.9305 204.784 40.7945L208.581 39.5375C205.824 31.2106 201.813 24.1176 196.521 18.3021L193.562 20.9943ZM204.788 40.8063C207.441 48.6586 208.786 57.6207 208.786 67.7185H212.786C212.786 57.2706 211.395 47.8643 208.577 39.5257L204.788 40.8063ZM208.786 67.7185C208.786 77.8121 207.414 86.7998 204.706 94.7068L208.491 96.0028C211.366 87.6072 212.786 78.1706 212.786 67.7185H208.786ZM204.704 94.7145C202.043 102.588 198.32 109.09 193.568 114.269L196.515 116.973C201.701 111.322 205.683 104.312 208.493 95.9951L204.704 94.7145ZM193.563 114.275C188.627 119.693 182.79 123.762 176.035 126.497L177.535 130.205C184.849 127.244 191.183 122.827 196.52 116.968L193.563 114.275ZM176.029 126.499C169.332 129.232 161.612 130.622 152.833 130.622V134.622C162.032 134.622 170.28 133.165 177.54 130.203L176.029 126.499ZM152.833 130.622C144.291 130.622 136.566 129.208 129.63 126.412L128.134 130.122C135.603 133.133 143.845 134.622 152.833 134.622V130.622ZM129.635 126.414C122.756 123.62 116.922 119.574 112.105 114.276L109.146 116.967C114.378 122.723 120.715 127.108 128.129 130.12L129.635 126.414ZM112.105 114.276C107.289 108.978 103.538 102.442 100.878 94.6267L97.0913 95.9153C99.9033 104.179 103.913 111.211 109.146 116.967L112.105 114.276ZM100.882 94.6386C98.2831 86.8418 96.9649 77.8776 96.9649 67.7185H92.9649C92.9649 78.2168 94.3265 87.6209 97.0873 95.9035L100.882 94.6386ZM96.9649 67.7185C96.9649 57.7308 98.2821 48.8495 100.882 41.0497L97.0873 39.7848C94.3275 48.0643 92.9649 57.3838 92.9649 67.7185H96.9649ZM100.883 41.0458C103.486 33.1826 107.265 26.5061 112.201 20.9805L109.218 18.3159C103.88 24.2914 99.8428 31.4609 97.086 39.7887L100.883 41.0458ZM112.197 20.9844C116.892 15.7558 122.717 11.7397 129.709 8.9432L128.223 5.2293C120.698 8.23918 114.352 12.5977 109.221 18.3119L112.197 20.9844ZM129.704 8.94515C136.762 6.14346 144.465 4.73145 152.833 4.73145V0.731445C144.006 0.731445 135.798 2.22263 128.228 5.22734L129.704 8.94515ZM152.833 4.73145C161.545 4.73145 169.288 6.17371 176.098 9.01572L177.639 5.32427C170.268 2.24821 161.988 0.731445 152.833 0.731445V4.73145ZM176.116 9.02293C183.002 11.8203 188.809 15.8138 193.568 21.0003L196.515 18.296C191.336 12.6514 185.028 8.32609 177.621 5.31706L176.116 9.02293ZM195.534 67.7185C195.534 51.2552 191.846 38.2576 184.188 29.0084L181.107 31.5595C187.964 39.8412 191.534 51.8 191.534 67.7185H195.534ZM184.192 29.0132C176.513 19.6804 166.009 15.052 152.917 15.052V19.052C164.949 19.052 174.266 23.245 181.103 31.5547L184.192 29.0132ZM152.917 15.052C139.72 15.052 129.158 19.6759 121.475 29.0132L124.564 31.5547C131.398 23.2495 140.767 19.052 152.917 19.052V15.052ZM121.475 29.0143C113.875 38.2631 110.217 51.2583 110.217 67.7185H114.217C114.217 51.7968 117.76 39.8357 124.565 31.5536L121.475 29.0143ZM110.217 67.7185C110.217 84.3485 113.96 97.4131 121.744 106.612L124.798 104.029C117.843 95.8089 114.217 83.8054 114.217 67.7185H110.217ZM121.748 106.617C129.535 115.761 139.997 120.301 152.917 120.301V116.301C141.049 116.301 131.746 112.188 124.794 104.024L121.748 106.617ZM152.917 120.301C165.838 120.301 176.275 115.761 184.007 106.612L180.952 104.03C174.057 112.188 164.786 116.301 152.917 116.301V120.301ZM184.006 106.612C191.791 97.4131 195.534 84.3485 195.534 67.7185H191.534C191.534 83.8054 187.908 95.8089 180.953 104.029L184.006 106.612ZM331.992 20.9943C336.861 26.3449 340.609 32.9305 343.213 40.7945L347.01 39.5375C344.254 31.2106 340.242 24.1176 334.95 18.3021L331.992 20.9943ZM343.217 40.8063C345.87 48.6586 347.215 57.6207 347.215 67.7185H351.215C351.215 57.2706 349.824 47.8643 347.006 39.5257L343.217 40.8063ZM347.215 67.7185C347.215 77.8121 345.843 86.7998 343.136 94.7068L346.92 96.0028C349.795 87.6072 351.215 78.1706 351.215 67.7185H347.215ZM343.133 94.7145C340.472 102.588 336.749 109.09 331.997 114.269L334.944 116.973C340.13 111.322 344.112 104.312 346.922 95.9951L343.133 94.7145ZM331.992 114.275C327.056 119.693 321.219 123.762 314.464 126.497L315.964 130.205C323.278 127.244 329.612 122.827 334.949 116.968L331.992 114.275ZM314.459 126.499C307.761 129.232 300.041 130.622 291.263 130.622V134.622C300.462 134.622 308.709 133.165 315.97 130.203L314.459 126.499ZM291.263 130.622C282.721 130.622 274.995 129.208 268.059 126.412L266.563 130.122C274.032 133.133 282.274 134.622 291.263 134.622V130.622ZM268.064 126.414C261.186 123.62 255.351 119.574 250.534 114.276L247.575 116.967C252.807 122.723 259.144 127.108 266.558 130.12L268.064 126.414ZM250.534 114.276C245.718 108.978 241.967 102.442 239.307 94.6267L235.52 95.9153C238.332 104.179 242.342 111.211 247.575 116.967L250.534 114.276ZM239.311 94.6386C236.712 86.8418 235.394 77.8776 235.394 67.7185H231.394C231.394 78.2168 232.756 87.6209 235.516 95.9035L239.311 94.6386ZM235.394 67.7185C235.394 57.7308 236.711 48.8495 239.311 41.0497L235.516 39.7848C232.757 48.0643 231.394 57.3838 231.394 67.7185H235.394ZM239.312 41.0458C241.915 33.1826 245.694 26.5061 250.63 20.9805L247.647 18.3159C242.309 24.2914 238.272 31.4609 235.515 39.7887L239.312 41.0458ZM250.626 20.9844C255.321 15.7558 261.146 11.7397 268.138 8.9432L266.652 5.2293C259.127 8.23918 252.781 12.5977 247.65 18.3119L250.626 20.9844ZM268.133 8.94515C275.191 6.14346 282.894 4.73145 291.263 4.73145V0.731445C282.436 0.731445 274.227 2.22263 266.657 5.22734L268.133 8.94515ZM291.263 4.73145C299.974 4.73145 307.717 6.17371 314.528 9.01572L316.068 5.32427C308.697 2.24821 300.417 0.731445 291.263 0.731445V4.73145ZM314.545 9.02293C321.431 11.8203 327.238 15.8138 331.997 21.0003L334.944 18.296C329.765 12.6514 323.457 8.3261 316.051 5.31706L314.545 9.02293ZM333.963 67.7185C333.963 51.2552 330.275 38.2576 322.617 29.0084L319.536 31.5595C326.393 39.8412 329.963 51.8 329.963 67.7185H333.963ZM322.621 29.0132C314.942 19.6804 304.439 15.052 291.346 15.052V19.052C303.378 19.052 312.695 23.245 319.532 31.5547L322.621 29.0132ZM291.346 15.052C278.149 15.052 267.587 19.6759 259.905 29.0132L262.993 31.5547C269.827 23.2495 279.197 19.052 291.346 19.052V15.052ZM259.904 29.0143C252.304 38.2631 248.646 51.2583 248.646 67.7185H252.646C252.646 51.7968 256.189 39.8357 262.994 31.5536L259.904 29.0143ZM248.646 67.7185C248.646 84.3485 252.389 97.4131 260.173 106.612L263.227 104.029C256.272 95.8089 252.646 83.8054 252.646 67.7185H248.646ZM260.178 106.617C267.964 115.761 278.426 120.301 291.346 120.301V116.301C279.478 116.301 270.175 112.188 263.223 104.024L260.178 106.617ZM291.346 120.301C304.267 120.301 314.704 115.761 322.436 106.612L319.381 104.03C312.486 112.188 303.215 116.301 291.346 116.301V120.301ZM322.436 106.612C330.22 97.4131 333.963 84.3485 333.963 67.7185H329.963C329.963 83.8054 326.337 95.8089 319.382 104.029L322.436 106.612ZM482.294 67.8023C482.294 78.8326 479.879 88.7749 475.081 97.6714L478.601 99.5703C483.74 90.0427 486.294 79.4392 486.294 67.8023H482.294ZM475.076 97.6797C470.315 106.607 463.99 113.48 456.108 118.359L458.213 121.76C466.745 116.479 473.54 109.059 478.606 99.562L475.076 97.6797ZM456.11 118.358C450.619 121.749 444.466 124.21 437.633 125.728L438.5 129.633C445.736 128.025 452.312 125.405 458.212 121.761L456.11 118.358ZM437.629 125.729C430.853 127.247 421.805 128.026 410.43 128.026V132.026C421.946 132.026 431.322 131.241 438.504 129.632L437.629 125.729ZM410.43 128.026H378.942V132.026H410.43V128.026ZM380.942 130.026V5.32758H376.942V130.026H380.942ZM378.942 7.32758H410.095V3.32758H378.942V7.32758ZM410.095 7.32758C422.194 7.32758 431.668 8.21811 438.586 9.94774L439.556 6.06717C432.182 4.22363 422.339 3.32758 410.095 3.32758V7.32758ZM438.604 9.9521C445.653 11.6459 451.529 13.9771 456.277 16.911L458.379 13.5083C453.189 10.3007 446.895 7.83051 439.539 6.06282L438.604 9.9521ZM456.268 16.9056C464.459 22.0251 470.834 28.8296 475.415 37.345L478.937 35.4499C474.027 26.3227 467.169 19.002 458.388 13.5136L456.268 16.9056ZM475.415 37.345C479.974 45.8199 482.294 55.9489 482.294 67.8023H486.294C486.294 55.425 483.869 44.6175 478.937 35.4499L475.415 37.345ZM468.959 67.551C468.959 57.5569 467.218 48.9914 463.633 41.9396L460.068 43.7522C463.294 50.0997 464.959 58.0044 464.959 67.551H468.959ZM463.633 41.9396C460.044 34.8788 454.682 29.3193 447.599 25.2805L445.618 28.7552C452.046 32.421 456.845 37.4136 460.068 43.7522L463.633 41.9396ZM447.597 25.2789C442.494 22.3799 437.068 20.3774 431.325 19.2752L430.571 23.2035C435.883 24.2229 440.897 26.0727 445.621 28.7568L447.597 25.2789ZM431.344 19.279C425.649 18.1284 418.893 17.5644 411.1 17.5644V21.5644C418.716 21.5644 425.193 22.1171 430.552 23.1998L431.344 19.279ZM411.1 17.5644H395.523V21.5644H411.1V17.5644ZM393.523 19.5644V115.789H397.523V19.5644H393.523ZM395.523 117.789H411.1V113.789H395.523V117.789ZM411.1 117.789C419.175 117.789 426.262 117.196 432.342 115.992L431.564 112.068C425.808 113.209 418.993 113.789 411.1 113.789V117.789ZM432.338 115.993C438.551 114.773 444.259 112.504 449.446 109.182L447.289 105.814C442.538 108.856 437.303 110.942 431.568 112.068L432.338 115.993ZM449.445 109.183C455.949 105.022 460.84 99.5189 464.076 92.6943L460.462 90.9806C457.556 97.1087 453.18 102.046 447.29 105.813L449.445 109.183ZM464.07 92.7069C467.365 85.8816 468.959 77.4664 468.959 67.551H464.959C464.959 77.0648 463.426 84.8405 460.468 90.9679L464.07 92.7069ZM612.756 122.206C609.673 123.551 606.866 124.815 604.336 125.995L606.027 129.62C608.522 128.456 611.298 127.207 614.356 125.872L612.756 122.206ZM604.32 126.003C601.977 127.121 598.833 128.318 594.858 129.587L596.075 133.398C600.14 132.099 603.473 130.839 606.043 129.613L604.32 126.003ZM594.872 129.583C591.555 130.616 587.923 131.491 583.973 132.204L584.684 136.141C588.773 135.402 592.567 134.491 596.062 133.402L594.872 129.583ZM583.942 132.21C580.126 132.963 575.876 133.345 571.18 133.345V137.345C576.088 137.345 580.603 136.946 584.716 136.135L583.942 132.21ZM571.18 133.345C562.321 133.345 554.306 132.115 547.116 129.682L545.834 133.471C553.495 136.063 561.951 137.345 571.18 137.345V133.345ZM547.134 129.688C540.041 127.216 533.877 123.382 528.621 118.179L525.807 121.022C531.493 126.65 538.17 130.8 545.817 133.465L547.134 129.688ZM528.621 118.179C523.498 113.11 519.457 106.643 516.528 98.7241L512.776 100.112C515.877 108.495 520.21 115.484 525.807 121.022L528.621 118.179ZM516.529 98.7282C513.612 90.7876 512.13 81.5104 512.13 70.8604H508.13C508.13 81.8727 509.662 91.6338 512.774 100.108L516.529 98.7282ZM512.13 70.8604C512.13 60.7741 513.555 51.8243 516.367 43.983L512.602 42.6327C509.607 50.9823 508.13 60.401 508.13 70.8604H512.13ZM516.367 43.983C519.183 36.1315 523.225 29.5471 528.475 24.1899L525.618 21.3902C519.925 27.1992 515.592 34.2932 512.602 42.6327L516.367 43.983ZM528.475 24.1895C533.565 18.992 539.709 15.0152 546.935 12.2648L545.513 8.5264C537.776 11.4708 531.135 15.7569 525.617 21.3907L528.475 24.1895ZM546.931 12.2665C554.214 9.51532 562.317 8.12459 571.264 8.12459V4.12459C561.899 4.12459 553.309 5.58113 545.517 8.52465L546.931 12.2665ZM571.264 8.12459C577.801 8.12459 584.314 8.91424 590.806 10.4963L591.753 6.61008C584.957 4.954 578.127 4.12459 571.264 4.12459V8.12459ZM590.81 10.4973C597.324 12.0716 604.605 14.8559 612.662 18.8842L614.45 15.3065C606.204 11.1835 598.634 8.27304 591.749 6.60918L590.81 10.4973ZM611.556 17.0953V36.7757H615.556V17.0953H611.556ZM613.556 34.7757H612.3V38.7757H613.556V34.7757ZM613.584 35.2423C606.587 29.3834 599.59 25.0686 592.59 22.3495L591.142 26.078C597.652 28.607 604.278 32.6668 611.016 38.309L613.584 35.2423ZM592.59 22.3495C585.589 19.6302 578.112 18.2777 570.176 18.2777V22.2777C577.648 22.2777 584.631 23.5492 591.142 26.078L592.59 22.3495ZM570.176 18.2777C563.647 18.2777 557.691 19.347 552.338 21.5236L553.845 25.229C558.653 23.274 564.086 22.2777 570.176 22.2777V18.2777ZM552.349 21.5193C547.025 23.6487 542.287 26.9836 538.138 31.4839L541.078 34.1954C544.857 30.0977 549.108 27.1237 553.834 25.2332L552.349 21.5193ZM538.136 31.4855C534.063 35.9135 530.92 41.4742 528.67 48.109L532.458 49.3937C534.562 43.1875 537.449 38.1404 541.08 34.1937L538.136 31.4855ZM528.666 48.1189C526.462 54.7309 525.381 62.3219 525.381 70.8604H529.381C529.381 62.6497 530.422 55.5012 532.461 49.3838L528.666 48.1189ZM525.381 70.8604C525.381 79.7955 526.575 87.5808 529.024 94.1687L532.773 92.7751C530.532 86.7452 529.381 79.4561 529.381 70.8604H525.381ZM529.029 94.1832C531.502 100.681 534.698 106.059 538.656 110.254L541.565 107.509C538.042 103.775 535.097 98.8807 532.768 92.7606L529.029 94.1832ZM538.658 110.256C542.766 114.598 547.564 117.839 553.039 119.958L554.483 116.228C549.574 114.328 545.272 111.427 541.564 107.507L538.658 110.256ZM553.063 119.968C558.543 122.008 564.307 123.024 570.343 123.024V119.024C564.766 119.024 559.476 118.087 554.459 116.219L553.063 119.968ZM570.343 123.024C578.56 123.024 586.291 121.616 593.517 118.783L592.057 115.059C585.326 117.697 578.093 119.024 570.343 119.024V123.024ZM593.517 118.783C600.739 115.952 607.473 111.714 613.721 106.097L611.046 103.123C605.123 108.449 598.793 112.418 592.057 115.059L593.517 118.783ZM612.384 106.61H613.556V102.61H612.384V106.61ZM611.556 104.61V124.039H615.556V104.61H611.556ZM757.104 196.879H734.833V200.879H757.104V196.879ZM736.677 198.105L688.229 82.7317L684.541 84.2804L732.989 199.653L736.677 198.105ZM686.385 81.5061H663.02V85.5061H686.385V81.5061ZM661.02 83.5061V133.084H665.02V83.5061H661.02ZM663.02 131.084H646.438V135.084H663.02V131.084ZM648.438 133.084V8.38571H644.438V133.084H648.438ZM646.438 10.3857H681.361V6.38571H646.438V10.3857ZM681.361 10.3857C688.822 10.3857 694.961 10.8841 699.811 11.8543L700.596 7.93196C695.397 6.89221 688.974 6.38571 681.361 6.38571V10.3857ZM699.832 11.8584C704.632 12.765 708.918 14.4108 712.711 16.7814L714.831 13.3894C710.584 10.7352 705.825 8.9195 700.575 7.92788L699.832 11.8584ZM712.705 16.7779C716.97 19.4631 720.251 22.8328 722.59 26.8881L726.055 24.8892C723.37 20.2349 719.616 16.4024 714.836 13.3929L712.705 16.7779ZM722.606 26.9144C724.937 30.8178 726.175 35.9056 726.175 42.3029H730.175C730.175 35.4125 728.844 29.5575 726.039 24.863L722.606 26.9144ZM726.175 42.3029C726.175 50.9442 724.007 58.0415 719.786 63.7215L722.997 66.1073C727.82 59.6162 730.175 51.6392 730.175 42.3029H726.175ZM719.791 63.7144C715.521 69.4077 709.618 73.7467 701.994 76.7L703.438 80.43C711.669 77.2419 718.217 72.4806 722.991 66.1144L719.791 63.7144ZM700.893 79.3889L755.282 199.703L758.927 198.055L704.538 77.7412L700.893 79.3889ZM712.839 43.4754C712.839 39.6615 712.153 36.208 710.724 33.1622L707.103 34.8619C708.241 37.2875 708.839 40.1429 708.839 43.4754H712.839ZM710.744 33.2066C709.339 30.0133 706.992 27.3837 703.81 25.3034L701.621 28.6513C704.246 30.3674 706.031 32.4277 707.083 34.8175L710.744 33.2066ZM703.834 25.3192C701.174 23.5249 698.062 22.3179 694.54 21.6614L693.807 25.5936C696.874 26.1654 699.457 27.1916 701.598 28.6355L703.834 25.3192ZM694.573 21.6676C691.113 20.9639 687.093 20.6226 682.533 20.6226V24.6226C686.906 24.6226 690.647 24.9511 693.775 25.5874L694.573 21.6676ZM682.533 20.6226H663.02V24.6226H682.533V20.6226ZM661.02 22.6226V69.6879H665.02V22.6226H661.02ZM663.02 71.6879H679.77V67.6879H663.02V71.6879ZM679.77 71.6879C685.124 71.6879 689.858 71.2329 693.95 70.2977L693.058 66.3983C689.333 67.2498 684.911 67.6879 679.77 67.6879V71.6879ZM693.976 70.2915C698.185 69.2694 701.817 67.3887 704.822 64.6288L702.117 61.6827C699.651 63.9476 696.639 65.5284 693.032 66.4045L693.976 70.2915ZM704.834 64.6179C707.552 62.081 709.573 59.1534 710.861 55.841L707.133 54.3912C706.076 57.1086 704.412 59.5408 702.105 61.6936L704.834 64.6179ZM710.854 55.8589C712.207 52.4753 712.839 48.3215 712.839 43.4754H708.839C708.839 48.0089 708.243 51.6155 707.14 54.3733L710.854 55.8589ZM817.378 131.084H768.135V135.084H817.378V131.084ZM770.135 133.084V120.354H766.135V133.084H770.135ZM768.135 122.354H784.465V118.354H768.135V122.354ZM786.465 120.354V21.1151H782.465V120.354H786.465ZM784.465 19.1151H768.135V23.1151H784.465V19.1151ZM770.135 21.1151V8.38571H766.135V21.1151H770.135ZM768.135 10.3857H817.378V6.38571H768.135V10.3857ZM815.378 8.38571V21.1151H819.378V8.38571H815.378ZM817.378 19.1151H801.047V23.1151H817.378V19.1151ZM799.047 21.1151V120.354H803.047V21.1151H799.047ZM801.047 122.354H817.378V118.354H801.047V122.354ZM815.378 120.354V133.084H819.378V120.354H815.378ZM933.744 46.0715C933.744 51.3579 932.811 56.2333 930.964 60.7193L934.663 62.2423C936.724 57.237 937.744 51.8397 937.744 46.0715H933.744ZM930.959 60.7304C929.158 65.1802 926.625 69.028 923.36 72.2935L926.188 75.122C929.845 71.4645 932.672 67.1609 934.667 62.2312L930.959 60.7304ZM923.36 72.2935C919.27 76.3832 914.436 79.4673 908.836 81.5475L910.228 85.2972C916.352 83.0226 921.68 79.6302 926.188 75.122L923.36 72.2935ZM908.851 81.5417C903.28 83.5581 896.132 84.6047 887.339 84.6047V88.6047C896.412 88.6047 904.06 87.5297 910.212 85.3029L908.851 81.5417ZM887.339 84.6047H870.757V88.6047H887.339V84.6047ZM868.757 86.6047V133.084H872.757V86.6047H868.757ZM870.757 131.084H854.176V135.084H870.757V131.084ZM856.176 133.084V8.38571H852.176V133.084H856.176ZM854.176 10.3857H888.009V6.38571H854.176V10.3857ZM888.009 10.3857C895.388 10.3857 901.553 11.0201 906.539 12.2534L907.5 8.37036C902.102 7.03543 895.593 6.38571 888.009 6.38571V10.3857ZM906.559 12.2582C911.544 13.4374 915.926 15.3033 919.728 17.8382L921.947 14.51C917.71 11.6852 912.879 9.6429 907.48 8.36558L906.559 12.2582ZM919.724 17.8352C924.216 20.8479 927.645 24.5744 930.049 29.018L933.567 27.1142C930.836 22.0665 926.95 17.865 921.952 14.513L919.724 17.8352ZM930.058 29.0338C932.472 33.3998 933.744 39.0418 933.744 46.0715H937.744C937.744 38.5852 936.393 32.2236 933.559 27.0983L930.058 29.0338ZM920.493 46.4902C920.493 41.9593 919.698 37.9145 918.039 34.412L914.424 36.1244C915.78 38.9866 916.493 42.4232 916.493 46.4902H920.493ZM918.039 34.412C916.367 30.8825 913.825 28.0091 910.46 25.8065L908.269 29.1533C911.045 30.9705 913.081 33.2893 914.424 36.1244L918.039 34.412ZM910.449 25.7998C907.542 23.9223 904.238 22.6082 900.563 21.8376L899.742 25.7524C902.989 26.4334 905.827 27.5759 908.279 29.1599L910.449 25.7998ZM900.6 21.8457C896.994 21.0181 892.503 20.6226 887.172 20.6226V24.6226C892.336 24.6226 896.5 25.0086 899.705 25.7443L900.6 21.8457ZM887.172 20.6226H870.757V24.6226H887.172V20.6226ZM868.757 22.6226V72.4516H872.757V22.6226H868.757ZM870.757 74.4516H884.743V70.4516H870.757V74.4516ZM884.743 74.4516C891.538 74.4516 897.182 73.8594 901.613 72.6189L900.534 68.767C896.59 69.8713 891.347 70.4516 884.743 70.4516V74.4516ZM901.636 72.6121C906.089 71.3061 909.805 69.2282 912.705 66.3286L909.876 63.5002C907.528 65.8487 904.433 67.6232 900.511 68.7738L901.636 72.6121ZM912.72 66.3137C915.507 63.4671 917.526 60.4086 918.701 57.131L914.935 55.7811C913.989 58.4215 912.322 61.002 909.862 63.5152L912.72 66.3137ZM918.689 57.1621C919.904 53.9435 920.493 50.3772 920.493 46.4902H916.493C916.493 49.973 915.965 53.0505 914.947 55.7499L918.689 57.1621ZM1055.2 21.125H1010.65V25.125H1055.2V21.125ZM1008.65 23.125V133.084H1012.65V23.125H1008.65ZM1010.65 131.084H994.065V135.084H1010.65V131.084ZM996.065 133.084V23.125H992.065V133.084H996.065ZM994.065 21.125H949.512V25.125H994.065V21.125ZM951.512 23.125V8.38571H947.512V23.125H951.512ZM949.512 10.3857H1055.2V6.38571H949.512V10.3857ZM1053.2 8.38571V23.125H1057.2V8.38571H1053.2ZM1124.49 131.084H1075.25V135.084H1124.49V131.084ZM1077.25 133.084V120.354H1073.25V133.084H1077.25ZM1075.25 122.354H1091.58V118.354H1075.25V122.354ZM1093.58 120.354V21.1151H1089.58V120.354H1093.58ZM1091.58 19.1151H1075.25V23.1151H1091.58V19.1151ZM1077.25 21.1151V8.38571H1073.25V21.1151H1077.25ZM1075.25 10.3857H1124.49V6.38571H1075.25V10.3857ZM1122.49 8.38571V21.1151H1126.49V8.38571H1122.49ZM1124.49 19.1151H1108.16V23.1151H1124.49V19.1151ZM1106.16 21.1151V120.354H1110.16V21.1151H1106.16ZM1108.16 122.354H1124.49V118.354H1108.16V122.354ZM1122.49 120.354V133.084H1126.49V120.354H1122.49ZM1252.77 24.0524C1257.64 29.403 1261.39 35.9887 1263.99 43.8527L1267.79 42.5956C1265.03 34.2687 1261.02 27.1758 1255.73 21.3603L1252.77 24.0524ZM1263.99 43.8645C1266.65 51.7168 1267.99 60.6788 1267.99 70.7766H1271.99C1271.99 60.3287 1270.6 50.9225 1267.78 42.5839L1263.99 43.8645ZM1267.99 70.7766C1267.99 80.8702 1266.62 89.8579 1263.91 97.7649L1267.7 99.0609C1270.57 90.6653 1271.99 81.2287 1271.99 70.7766H1267.99ZM1263.91 97.7726C1261.25 105.647 1257.53 112.148 1252.77 117.327L1255.72 120.032C1260.91 114.38 1264.89 107.37 1267.7 99.0532L1263.91 97.7726ZM1252.77 117.333C1247.83 122.751 1242 126.821 1235.24 129.555L1236.74 133.263C1244.06 130.302 1250.39 125.885 1255.73 120.026L1252.77 117.333ZM1235.24 129.557C1228.54 132.29 1220.82 133.68 1212.04 133.68V137.68C1221.24 137.68 1229.49 136.223 1236.75 133.261L1235.24 129.557ZM1212.04 133.68C1203.5 133.68 1195.77 132.266 1188.84 129.47L1187.34 133.18C1194.81 136.191 1203.05 137.68 1212.04 137.68V133.68ZM1188.84 129.472C1181.96 126.678 1176.13 122.633 1171.31 117.334L1168.35 120.025C1173.58 125.781 1179.92 130.166 1187.34 133.178L1188.84 129.472ZM1171.31 117.334C1166.49 112.036 1162.74 105.5 1160.08 97.6849L1156.3 98.9734C1159.11 107.237 1163.12 114.269 1168.35 120.025L1171.31 117.334ZM1160.09 97.6967C1157.49 89.9 1156.17 80.9357 1156.17 70.7766H1152.17C1152.17 81.2749 1153.53 90.679 1156.29 98.9616L1160.09 97.6967ZM1156.17 70.7766C1156.17 60.7889 1157.49 51.9076 1160.09 44.1079L1156.29 42.843C1153.53 51.1225 1152.17 60.4419 1152.17 70.7766H1156.17ZM1160.09 44.1039C1162.69 36.2408 1166.47 29.5643 1171.41 24.0387L1168.42 21.374C1163.09 27.3495 1159.05 34.5191 1156.29 42.8469L1160.09 44.1039ZM1171.4 24.0426C1176.1 18.814 1181.92 14.7978 1188.92 12.0013L1187.43 8.28741C1179.9 11.2973 1173.56 15.6559 1168.43 21.3701L1171.4 24.0426ZM1188.91 12.0033C1195.97 9.20157 1203.67 7.78957 1212.04 7.78957V3.78957C1203.21 3.78957 1195 5.28074 1187.43 8.28546L1188.91 12.0033ZM1212.04 7.78957C1220.75 7.78957 1228.49 9.23185 1235.3 12.0739L1236.85 8.38241C1229.47 5.30636 1221.19 3.78957 1212.04 3.78957V7.78957ZM1235.32 12.0811C1242.21 14.8784 1248.02 18.8719 1252.77 24.0585L1255.72 21.3542C1250.54 15.7095 1244.23 11.3842 1236.83 8.3752L1235.32 12.0811ZM1254.74 70.7766C1254.74 54.3133 1251.05 41.3157 1243.39 32.0666L1240.31 34.6176C1247.17 42.8993 1250.74 54.8581 1250.74 70.7766H1254.74ZM1243.4 32.0714C1235.72 22.7386 1225.22 18.1102 1212.12 18.1102V22.1102C1224.16 22.1102 1233.47 26.3031 1240.31 34.6128L1243.4 32.0714ZM1212.12 18.1102C1198.93 18.1102 1188.36 22.734 1180.68 32.0714L1183.77 34.6128C1190.6 26.3076 1199.97 22.1102 1212.12 22.1102V18.1102ZM1180.68 32.0724C1173.08 41.3212 1169.42 54.3164 1169.42 70.7766H1173.42C1173.42 54.8549 1176.97 42.8938 1183.77 34.6118L1180.68 32.0724ZM1169.42 70.7766C1169.42 87.4066 1173.17 100.471 1180.95 109.671L1184 107.087C1177.05 98.867 1173.42 86.8635 1173.42 70.7766H1169.42ZM1180.95 109.675C1188.74 118.819 1199.2 123.359 1212.12 123.359V119.359C1200.26 119.359 1190.95 115.246 1184 107.082L1180.95 109.675ZM1212.12 123.359C1225.04 123.359 1235.48 118.819 1243.21 109.67L1240.16 107.088C1233.26 115.246 1223.99 119.359 1212.12 119.359V123.359ZM1243.21 109.671C1251 100.471 1254.74 87.4066 1254.74 70.7766H1250.74C1250.74 86.8635 1247.11 98.867 1240.16 107.087L1243.21 109.671ZM1400 131.084H1379.48V135.084H1400V131.084ZM1381.25 132.147L1322.12 20.5972L1318.59 22.4705L1377.72 134.02L1381.25 132.147ZM1318.36 21.5338V133.084H1322.36V21.5338H1318.36ZM1320.36 131.084H1304.86V135.084H1320.36V131.084ZM1306.86 133.084V8.38571H1302.86V133.084H1306.86ZM1304.86 10.3857H1330.57V6.38571H1304.86V10.3857ZM1328.81 9.32175L1382.74 111.157L1386.27 109.285L1332.34 7.44967L1328.81 9.32175ZM1386.51 110.221V8.38571H1382.51V110.221H1386.51ZM1384.51 10.3857H1400V6.38571H1384.51V10.3857ZM1398 8.38571V133.084H1402V8.38571H1398ZM760.098 93.5986H738.395V97.5986H760.098V93.5986ZM736.608 94.6991L684.599 197.979L688.172 199.779L740.181 96.4982L736.608 94.6991ZM709.876 199.779L761.884 96.4981L758.312 94.6991L706.303 197.98L709.876 199.779ZM686.385 200.879H708.09V196.879H686.385V200.879Z" fill="url(#paint13_linear_1240_25171)" mask="url(#path-2-outside-1_1240_25171)"/>
<defs>
<linearGradient id="paint0_linear_1240_25171" x1="311" y1="-235.5" x2="702.809" y2="428.843" gradientUnits="userSpaceOnUse">
<stop stop-color="#089D49"/>
<stop offset="0.351749" stop-color="#089D49"/>
<stop offset="0.495562" stop-color="#A6CC39"/>
<stop offset="1" stop-color="#A6CC39"/>
</linearGradient>
<linearGradient id="paint1_linear_1240_25171" x1="311" y1="-235.5" x2="702.809" y2="428.843" gradientUnits="userSpaceOnUse">
<stop stop-color="#089D49"/>
<stop offset="0.351749" stop-color="#089D49"/>
<stop offset="0.495562" stop-color="#A6CC39"/>
<stop offset="1" stop-color="#A6CC39"/>
</linearGradient>
<linearGradient id="paint2_linear_1240_25171" x1="311" y1="-235.5" x2="702.809" y2="428.843" gradientUnits="userSpaceOnUse">
<stop stop-color="#089D49"/>
<stop offset="0.351749" stop-color="#089D49"/>
<stop offset="0.495562" stop-color="#A6CC39"/>
<stop offset="1" stop-color="#A6CC39"/>
</linearGradient>
<linearGradient id="paint3_linear_1240_25171" x1="311" y1="-235.5" x2="702.809" y2="428.843" gradientUnits="userSpaceOnUse">
<stop stop-color="#089D49"/>
<stop offset="0.351749" stop-color="#089D49"/>
<stop offset="0.495562" stop-color="#A6CC39"/>
<stop offset="1" stop-color="#A6CC39"/>
</linearGradient>
<linearGradient id="paint4_linear_1240_25171" x1="311" y1="-235.5" x2="702.809" y2="428.843" gradientUnits="userSpaceOnUse">
<stop stop-color="#089D49"/>
<stop offset="0.351749" stop-color="#089D49"/>
<stop offset="0.495562" stop-color="#A6CC39"/>
<stop offset="1" stop-color="#A6CC39"/>
</linearGradient>
<linearGradient id="paint5_linear_1240_25171" x1="311" y1="-235.5" x2="702.809" y2="428.843" gradientUnits="userSpaceOnUse">
<stop stop-color="#089D49"/>
<stop offset="0.351749" stop-color="#089D49"/>
<stop offset="0.495562" stop-color="#A6CC39"/>
<stop offset="1" stop-color="#A6CC39"/>
</linearGradient>
<linearGradient id="paint6_linear_1240_25171" x1="311" y1="-235.5" x2="702.809" y2="428.843" gradientUnits="userSpaceOnUse">
<stop stop-color="#089D49"/>
<stop offset="0.351749" stop-color="#089D49"/>
<stop offset="0.495562" stop-color="#A6CC39"/>
<stop offset="1" stop-color="#A6CC39"/>
</linearGradient>
<linearGradient id="paint7_linear_1240_25171" x1="311" y1="-235.5" x2="702.809" y2="428.843" gradientUnits="userSpaceOnUse">
<stop stop-color="#089D49"/>
<stop offset="0.351749" stop-color="#089D49"/>
<stop offset="0.495562" stop-color="#A6CC39"/>
<stop offset="1" stop-color="#A6CC39"/>
</linearGradient>
<linearGradient id="paint8_linear_1240_25171" x1="311" y1="-235.5" x2="702.809" y2="428.843" gradientUnits="userSpaceOnUse">
<stop stop-color="#089D49"/>
<stop offset="0.351749" stop-color="#089D49"/>
<stop offset="0.495562" stop-color="#A6CC39"/>
<stop offset="1" stop-color="#A6CC39"/>
</linearGradient>
<linearGradient id="paint9_linear_1240_25171" x1="311" y1="-235.5" x2="702.809" y2="428.843" gradientUnits="userSpaceOnUse">
<stop stop-color="#089D49"/>
<stop offset="0.351749" stop-color="#089D49"/>
<stop offset="0.495562" stop-color="#A6CC39"/>
<stop offset="1" stop-color="#A6CC39"/>
</linearGradient>
<linearGradient id="paint10_linear_1240_25171" x1="311" y1="-235.5" x2="702.809" y2="428.843" gradientUnits="userSpaceOnUse">
<stop stop-color="#089D49"/>
<stop offset="0.351749" stop-color="#089D49"/>
<stop offset="0.495562" stop-color="#A6CC39"/>
<stop offset="1" stop-color="#A6CC39"/>
</linearGradient>
<linearGradient id="paint11_linear_1240_25171" x1="311" y1="-235.5" x2="702.809" y2="428.843" gradientUnits="userSpaceOnUse">
<stop stop-color="#089D49"/>
<stop offset="0.351749" stop-color="#089D49"/>
<stop offset="0.495562" stop-color="#A6CC39"/>
<stop offset="1" stop-color="#A6CC39"/>
</linearGradient>
<linearGradient id="paint12_linear_1240_25171" x1="311" y1="-235.5" x2="702.809" y2="428.843" gradientUnits="userSpaceOnUse">
<stop stop-color="#089D49"/>
<stop offset="0.351749" stop-color="#089D49"/>
<stop offset="0.495562" stop-color="#A6CC39"/>
<stop offset="1" stop-color="#A6CC39"/>
</linearGradient>
<linearGradient id="paint13_linear_1240_25171" x1="319.5" y1="-240" x2="670.019" y2="474.018" gradientUnits="userSpaceOnUse">
<stop stop-color="#089D49"/>
<stop offset="0.361625" stop-color="#089D49"/>
<stop offset="0.481515" stop-color="#A6CC39"/>
<stop offset="1" stop-color="#A6CC39"/>
</linearGradient>
</defs>
</svg>
