<svg width="80" height="80" viewBox="0 0 80 80" fill="none" xmlns="http://www.w3.org/2000/svg">
<path d="M10.7031 3.34384C10.2656 3.54697 9.4375 4.12509 8.82812 4.64072C8.23438 5.15634 7.28125 5.84384 6.71875 6.17197C4.48438 7.48447 3.92188 8.21884 3.28125 10.7032C3.10938 11.3907 2.65625 12.6251 2.3125 13.4376C1.73438 14.7501 1.65625 15.047 1.65625 16.0938C1.67188 17.1251 1.75 17.4532 2.375 18.9063C2.76562 19.8126 3.17188 20.9376 3.28125 21.4063C3.82812 23.7813 4.42188 24.5938 6.57812 25.9063C7.29688 26.3438 8.34375 27.0938 8.90625 27.5626C10.75 29.1407 10.7188 29.1407 15.3906 29.172C20.1562 29.2032 20.2188 29.1876 22.1875 27.5313C22.8281 26.9845 23.8125 26.2813 24.375 25.9688C25.625 25.2657 26.6406 24.3438 27.0469 23.5626C27.2188 23.2345 27.5156 22.3438 27.7188 21.5938C27.9219 20.8438 28.3281 19.6563 28.625 18.9688C29.6562 16.6563 29.6719 15.6563 28.75 13.5001C28.3906 12.672 27.9531 11.3907 27.75 10.6407C27.1094 8.28134 26.5469 7.51572 24.4531 6.25009C23.7656 5.82822 22.75 5.09384 22.1875 4.62509C20.3438 3.04697 20.3906 3.04697 15.625 3.01572C11.5625 2.98447 11.4688 2.98447 10.7031 3.34384ZM16.0938 5.54697C16.3125 5.50009 17.0156 5.45322 17.6562 5.43759C19.0312 5.42197 19.3438 5.54697 20.7031 6.71884C21.2188 7.15634 22.2188 7.87509 22.9219 8.29697C24.5781 9.29697 24.8906 9.68759 25.2969 11.2813C25.4844 12.0001 25.9062 13.2345 26.25 14.0313C26.5938 14.8438 26.875 15.7345 26.875 16.047C26.875 16.3595 26.5938 17.2657 26.25 18.0626C25.9062 18.8595 25.5625 19.8595 25.4688 20.2657C24.9844 22.4376 24.6875 22.8595 22.7656 23.9845C22.1719 24.3126 21.2656 24.9688 20.7344 25.4376C20.2031 25.9063 19.5938 26.3751 19.375 26.4845C18.8281 26.7657 12.2812 26.7657 11.7188 26.4845C11.5 26.3751 10.8125 25.8595 10.2031 25.3438C9.57812 24.8282 8.64062 24.1563 8.09375 23.8438C6.42188 22.9063 6.15625 22.5626 5.625 20.5001C5.45312 19.797 5.0625 18.672 4.78125 18.0157C3.90625 16.0313 3.89062 16.2032 4.98438 13.5938C5.25 12.9532 5.60938 11.8438 5.79688 11.1251C6.1875 9.60947 6.46875 9.28134 8.125 8.28134C8.75 7.92197 9.6875 7.25009 10.2188 6.81259C11.6875 5.57822 11.7031 5.57822 12.3125 5.48447C12.625 5.42197 13.5156 5.43759 14.2969 5.50009C15.0625 5.56259 15.875 5.59384 16.0938 5.54697Z" fill="#151515"/>
<path d="M13.2344 8.04688C11.7813 8.4375 10.7344 9.07812 9.51563 10.2969C6.1875 13.6562 6.17188 18.5469 9.51563 21.8906C11.1875 23.5625 13.1563 24.375 15.5469 24.375C17.9531 24.375 19.875 23.5781 21.5781 21.875C25.9531 17.4688 24.1875 10.2031 18.2344 8.20312C17.2656 7.89062 16.7813 7.8125 15.5156 7.82812C14.6719 7.82812 13.6406 7.9375 13.2344 8.04688ZM18 10.8281C19.2813 11.4219 20.2188 12.3438 20.8906 13.7031C21.4219 14.7656 21.4844 15.0312 21.4844 16.0781C21.4844 17.0781 21.4063 17.4219 20.9844 18.3125C20.375 19.6094 19.2969 20.7188 18.0469 21.3438C17.2031 21.75 16.9531 21.7969 15.5469 21.7969C14.0938 21.7969 13.9063 21.7656 12.9531 21.2969C11.7031 20.6875 10.6094 19.5625 10.0313 18.3125C9.42188 17.0312 9.42188 15.1562 10.0313 13.875C11.4531 10.8281 15.0469 9.45312 18 10.8281Z" fill="#151515"/>
<path d="M46.9219 21.25C46.3125 21.4062 45.5 21.6875 45.125 21.8906C43.2812 22.8125 40.4062 25.5 39.0312 27.5938C38.6562 28.1875 35.9531 32.9531 33.0469 38.2031C30.125 43.4375 27.4844 48.0781 27.1406 48.5C26.0938 49.8438 25.4062 51.5781 25.0781 53.6875C25.0312 54.0312 24.8281 54.5625 24.6406 54.875C24.3438 55.3281 13.3594 65.8906 10.7969 68.1562C9.5 69.3125 8.125 69.8906 4.71875 70.7188C2.90625 71.1562 1.51562 71.5781 1.21875 71.7812C0.359375 72.3438 0 73.0469 0 74.0938C0 75.3125 0.40625 76.1094 1.29688 76.6406L1.98438 77.0312H39.0781H76.1719L77.1094 76.5781C78.2656 76.0312 79.0781 75.2031 79.6094 74.0156C79.9844 73.2031 80.0312 72.9531 79.9688 71.7344L79.9219 70.3438L77.9688 66.4062C76.8906 64.25 75.8906 62.4062 75.75 62.3281C75.3281 62.0938 74.5938 62.1719 74.25 62.4531C73.5469 63.0469 73.625 63.3125 75.6094 67.3281C77.2969 70.7188 77.5 71.2188 77.5 71.9531C77.5 73.2656 76.625 74.2812 75.2969 74.5469C74.3438 74.7188 62.7656 74.7188 62.2969 74.5469C62.0781 74.4531 61.8594 74.25 61.7969 74.0781C61.6094 73.4844 61.9688 73.1875 63.3906 72.75C68.8281 71.0781 69.2812 70.9062 69.7812 70.4062C70.4062 69.7812 70.5938 68.875 70.25 68.0781C69.9844 67.4375 64.9844 59.7344 59.625 51.7188C57.6406 48.75 56.0156 46.2344 56.0156 46.125C56.0156 45.8906 63 41.7031 63.1406 41.8438C63.2031 41.9062 64.6875 44.9375 66.4531 48.5938C71.3594 58.7812 71.2344 58.5312 71.6562 58.7344C71.875 58.8281 72.1875 58.9062 72.3594 58.9062C72.8281 58.9062 73.4375 58.2188 73.4375 57.6875C73.4375 57.2969 61.6562 32.75 58.5469 26.6406C56.3125 22.25 51.5469 20.0312 46.9219 21.25ZM51.3281 23.6719C53.0938 24.1406 54.8125 25.3594 55.75 26.8281C56.4219 27.875 61.9062 39.1875 61.8438 39.3906C61.7656 39.6094 54.5 43.9062 54.3594 43.8125C54.1875 43.7031 42.6719 27.4062 42.5625 27.1094C42.3125 26.4688 45.9531 24.0469 47.8125 23.5938C48.7188 23.3906 50.3438 23.4219 51.3281 23.6719ZM44.5938 34.5L47.8125 39.0781L47.5781 40.2188C46.6094 44.9375 43.5781 49.6094 39.6875 52.4062L38.9219 52.9531L39.1562 52.3125C39.4844 51.375 39.4375 49.6094 39.0625 48.7656C38.6094 47.7812 37.9219 46.9688 37.0312 46.4062C35.9375 45.7031 34.9688 45.4531 33.4062 45.4375C32.6406 45.4375 32.0312 45.4062 32.0312 45.3594C32.0312 45.3125 34.0156 41.6875 36.4375 37.3281C40.5625 29.9219 40.875 29.4062 41.1094 29.6562C41.25 29.7969 42.8125 31.9844 44.5938 34.5ZM58.8281 55.3594C63.7031 62.6562 67.625 68.6719 67.5625 68.75C67.4844 68.8125 66.0938 69.2656 64.4531 69.7656C61.0312 70.8125 60.4688 71.0625 59.9375 71.75C59.4688 72.375 59.1406 73.5781 59.2812 74.2188L59.375 74.6875H47.25H35.125L35.8281 73.8594C36.9531 72.5156 40.1562 67.9531 40.625 67.0312C41.2188 65.8281 41.4375 64.8281 41.4219 63.2656C41.4219 61.2969 41.125 60.7812 40.0156 60.7812C39.1094 60.7812 38.9062 61.1875 38.9219 62.9531C38.9219 64.2344 38.8594 64.6719 38.5625 65.4219C38.1719 66.3594 34.5625 71.5156 33.6406 72.4531C31.7031 74.375 28.6406 74.9219 26.2031 73.7969C24.8906 73.1719 23.625 72 22.9688 70.75L22.4531 69.7969L22.9844 69.3906C27.7969 65.6562 33.0625 60.8438 35.8281 57.6875C36.1406 57.3281 36.4844 57.0312 36.5625 57.0312C36.6562 57.0312 37.2656 56.75 37.9375 56.4219C43.3125 53.7188 47.75 48.5625 49.4062 43.0938C49.6094 42.4375 49.8125 41.9375 49.8594 42C49.9219 42.0625 53.9531 48.0781 58.8281 55.3594ZM35.3594 48.4062C36.3438 48.9375 36.7656 49.5312 36.8438 50.5312C36.8906 51.2188 36.8125 51.5 36.2656 52.5781C34.75 55.6094 30.2031 60.2656 23.5469 65.6719C17.9688 70.1719 12.6406 74.2031 11.875 74.4844C11.2344 74.7031 3.03125 74.7656 2.6875 74.5469C2.5625 74.4688 2.5 74.2969 2.53125 74.1406C2.5625 73.9062 3.20312 73.6875 5.78125 73.0469C9.20312 72.1719 10.5625 71.625 11.9844 70.4844C13.1406 69.5781 25.9219 57.4375 26.4531 56.75C27.0625 55.9531 27.3125 55.3125 27.6562 53.6562C28.1562 51.125 29.2031 49.5312 30.9375 48.6094C32.5625 47.7344 33.9844 47.6719 35.3594 48.4062ZM22.1562 73.9375L22.875 74.6875H19.5312L16.1719 74.6719L16.5938 74.3594C16.8125 74.1875 17.7656 73.4688 18.6875 72.75L20.375 71.4375L20.9062 72.3125C21.2031 72.8125 21.7656 73.5312 22.1562 73.9375Z" fill="#151515"/>
</svg>
