<svg width="36" height="41" viewBox="0 0 36 41" fill="none" xmlns="http://www.w3.org/2000/svg">
<path d="M16.6095 0.893307C15.7267 1.15112 15.1252 1.51049 14.3986 2.22924C13.8361 2.77612 13.672 3.01049 13.4064 3.55737C12.9845 4.45581 12.883 4.92456 12.8908 5.94018C12.8986 7.02612 13.1408 7.81518 13.7111 8.66674C15.172 10.8542 17.922 11.5964 20.297 10.4402C21.4845 9.86206 22.4767 8.71362 22.8908 7.44018C23.0627 6.91674 23.1017 6.64331 23.1095 5.94018C23.1174 4.92456 23.0158 4.45581 22.5939 3.55737C22.3283 3.01049 22.1564 2.77612 21.6017 2.22924C20.8674 1.50268 20.1799 1.09643 19.2814 0.869869C18.6174 0.697994 17.2502 0.713619 16.6095 0.893307ZM19.2502 2.09643C19.9064 2.33081 20.3674 2.62768 20.8674 3.14331C21.6095 3.89331 22.0705 5.19799 21.9533 6.19018C21.9142 6.55737 21.6408 7.52612 21.5549 7.61206C21.5392 7.62768 21.3049 7.44799 21.047 7.20581C19.3439 5.66674 16.6486 5.67456 14.9455 7.22143C14.6877 7.44799 14.4611 7.62768 14.4455 7.61206C14.3595 7.52612 14.0861 6.55737 14.047 6.19018C13.9299 5.19799 14.3908 3.89331 15.133 3.14331C15.9689 2.29174 16.8283 1.91674 18.0002 1.91674C18.5783 1.91674 18.8595 1.96362 19.2502 2.09643ZM19.4142 7.55737C19.922 7.80737 20.7345 8.47924 20.7345 8.64331C20.7345 8.76049 20.1408 9.19799 19.6799 9.40893C18.5783 9.93237 17.422 9.93237 16.3205 9.40893C15.8674 9.19799 15.2658 8.76049 15.2658 8.64331C15.2658 8.53393 15.9377 7.90893 16.2814 7.71362C16.9377 7.32299 17.3517 7.22143 18.1252 7.25268C18.7658 7.26831 18.9064 7.30737 19.4142 7.55737Z" fill="white"/>
<path d="M17.4453 2.43237C16.7812 2.6355 16.2812 3.35425 16.2812 4.11206C16.2812 4.53394 16.6562 5.198 17.0469 5.47144C17.3594 5.68237 17.4453 5.70581 18 5.70581C18.5547 5.70581 18.6406 5.68237 18.9531 5.47144C19.3438 5.198 19.7188 4.53394 19.7188 4.11206C19.7188 3.33862 19.2188 2.62769 18.5234 2.42456C18.0469 2.28394 17.9141 2.28394 17.4453 2.43237ZM18.4141 3.72925C18.5938 3.94019 18.5859 4.11206 18.3828 4.36987C18.1641 4.65112 17.8125 4.62769 17.5859 4.323C17.1797 3.77612 17.9688 3.21362 18.4141 3.72925Z" fill="white"/>
<path d="M4.09382 8.17456C2.24226 8.65112 0.867261 10.0261 0.382886 11.8777C0.226636 12.4949 0.218823 13.6902 0.375073 14.3699C0.695386 15.7449 1.74226 17.0652 3.00789 17.6902C3.97664 18.1667 4.49226 18.2683 5.61726 18.2292C6.65632 18.1824 7.21882 18.0261 8.05476 17.5339C8.62507 17.198 9.44538 16.3699 9.78132 15.8074C10.4141 14.7371 10.6485 13.2917 10.3907 12.073C10.0001 10.198 8.50007 8.64331 6.62507 8.16675C5.84382 7.96362 4.87507 7.97144 4.09382 8.17456ZM6.32038 9.29956C7.7657 9.68237 8.9532 10.9167 9.25788 12.3621C9.37507 12.9636 9.30476 13.8699 9.08601 14.4714L8.90632 14.9558L8.4532 14.5339C7.68757 13.823 6.43757 13.3308 5.39851 13.323C4.3282 13.323 2.97664 13.8542 2.24226 14.573L1.84382 14.9636L1.66414 14.5183C1.40632 13.8464 1.36726 12.7214 1.58601 12.0183C2.19539 10.0027 4.3282 8.78394 6.32038 9.29956ZM6.14851 14.6121C6.79695 14.7839 7.18757 15.0027 7.7032 15.4949C8.22663 15.9949 8.22663 15.9871 7.50007 16.4636C6.29695 17.2371 4.77351 17.2839 3.46101 16.5886C3.21882 16.4636 2.92195 16.2605 2.80476 16.1355L2.59382 15.9089L2.98445 15.5261C3.8282 14.6746 5.04695 14.323 6.14851 14.6121Z" fill="white"/>
<path d="M4.57028 9.823C3.73434 10.2371 3.41403 11.3933 3.90622 12.2371C3.99216 12.3855 4.21091 12.6042 4.39841 12.7371C4.70309 12.948 4.78903 12.9714 5.37497 12.9714C5.96091 12.9714 6.05466 12.948 6.34372 12.7449C7.19528 12.1589 7.29684 10.8152 6.54684 10.1042C6.03903 9.6355 5.19528 9.5105 4.57028 9.823ZM5.73434 10.9792C6.05466 11.2996 5.83591 11.8386 5.39059 11.8386C5.08591 11.8386 4.85934 11.6199 4.85934 11.3308C4.85934 10.8777 5.41403 10.6589 5.73434 10.9792Z" fill="white"/>
<path d="M29.3594 8.15894C26.9297 8.81519 25.3906 10.9324 25.5156 13.4324C25.5859 14.7683 26.0547 15.823 26.9844 16.7605C27.5625 17.3308 28.1406 17.7058 28.9219 17.9949C29.3438 18.1511 29.6328 18.198 30.3828 18.2292C31.5078 18.2683 32.0234 18.1667 32.9922 17.6902C33.9609 17.2136 34.7344 16.4246 35.2109 15.4324C35.6641 14.4949 35.7656 13.9636 35.7188 12.8386C35.6875 12.1589 35.6328 11.8386 35.4844 11.4324C34.9063 9.89331 33.7578 8.75269 32.2734 8.27612C31.3984 7.99487 30.1641 7.94019 29.3594 8.15894ZM31.4531 9.26831C32.8203 9.55737 34 10.6511 34.4141 12.0183C34.6328 12.7214 34.5938 13.8464 34.3359 14.5183L34.1563 14.9636L33.7578 14.573C33.0234 13.8542 31.6719 13.323 30.6016 13.323C29.5625 13.3308 28.3125 13.823 27.5469 14.5339L27.0938 14.9558L26.9141 14.4714C26.6953 13.8699 26.625 12.9636 26.7422 12.3621C26.8906 11.6824 27.3359 10.8621 27.8359 10.3621C28.7969 9.40112 30.1484 8.99487 31.4531 9.26831ZM31.3828 14.6121C32.0391 14.7839 32.5781 15.0808 33.0156 15.5261L33.4063 15.9089L33.1953 16.1355C33.0781 16.2605 32.7813 16.4636 32.5391 16.5886C31.2266 17.2839 29.7031 17.2371 28.5 16.4636C27.7734 15.9871 27.7734 15.9949 28.2969 15.4949C29.2031 14.6277 30.2734 14.323 31.3828 14.6121Z" fill="white"/>
<path d="M29.9141 9.79175C28.7423 10.3542 28.6016 12.0183 29.6563 12.7449C29.9454 12.948 30.0391 12.9714 30.6251 12.9714C31.2188 12.9714 31.297 12.9558 31.6095 12.7371C32.5626 12.0652 32.5626 10.6042 31.6095 9.92456C31.172 9.62769 30.3985 9.56519 29.9141 9.79175ZM31.0079 10.9792C31.3126 11.3152 31.0782 11.8386 30.6095 11.8386C30.1641 11.8386 29.9454 11.2996 30.2657 10.9792C30.4688 10.7761 30.8282 10.7761 31.0079 10.9792Z" fill="white"/>
<path d="M17.7266 11.8542C17.6406 11.9011 17.5469 11.9792 17.5156 12.0261C17.4844 12.073 17.4531 12.6433 17.4531 13.2996C17.4531 14.4402 17.4609 14.4871 17.625 14.6042C17.7188 14.6746 17.8906 14.7292 18 14.7292C18.1094 14.7292 18.2812 14.6746 18.375 14.6042C18.5391 14.4871 18.5469 14.4402 18.5469 13.2996C18.5469 12.6433 18.5156 12.073 18.4844 12.0261C18.4141 11.9167 18.1172 11.7605 17.9844 11.7605C17.9297 11.7605 17.8125 11.8074 17.7266 11.8542Z" fill="white"/>
<path d="M16.9844 15.3933C16.0625 15.5652 15.0781 16.0964 14.3672 16.7996C13.4375 17.7292 12.8438 19.1433 12.8438 20.4324C12.8438 21.8777 13.6094 23.4871 14.7422 24.4167C15.5703 25.0964 16.9219 25.5808 18 25.5808C19.8984 25.5808 21.7344 24.448 22.5703 22.7527C23.125 21.6277 23.2656 20.6355 23.0391 19.4402C22.7344 17.8464 21.6719 16.4949 20.1563 15.7761C19.1953 15.3152 18.125 15.1902 16.9844 15.3933ZM18.7891 16.5574C20.3828 16.9011 21.6406 18.2136 21.9141 19.8308C22.2578 21.9011 20.7344 23.9792 18.6094 24.3386C16.5078 24.698 14.4141 23.1433 14.0859 20.9792C13.7813 18.9949 15.1797 16.9949 17.1719 16.5652C17.7969 16.4246 18.1641 16.4246 18.7891 16.5574Z" fill="white"/>
<path d="M17.5859 17.3542C17.4219 17.4402 17.2734 17.6667 17.0547 18.1511C16.8828 18.5261 16.7344 18.8308 16.7266 18.8464C16.7109 18.8542 16.4609 18.9011 16.1641 18.9402C15.8594 18.9871 15.5 19.0496 15.3516 19.073C14.9609 19.1355 14.7188 19.4402 14.7188 19.8777C14.7188 20.2136 14.7422 20.2605 15.2969 20.7996L15.8672 21.3621L15.7656 21.9324C15.5703 23.0418 15.6641 23.4089 16.2188 23.573C16.5312 23.6668 16.5625 23.6589 17.2578 23.2918L17.9766 22.9168L18.6875 23.2839C19.4688 23.6902 19.7578 23.7136 20.0938 23.4011C20.3516 23.1589 20.3828 22.8933 20.2344 22.1277L20.1016 21.4324L20.6875 20.823C21.25 20.2527 21.2812 20.198 21.2812 19.8699C21.2812 19.5964 21.2344 19.4714 21.0859 19.3152C20.875 19.1121 20.7031 19.0652 19.8672 18.9792L19.3516 18.9324L19.0078 18.2214C18.5469 17.2761 18.1641 17.0417 17.5859 17.3542ZM18.6484 19.9167C18.7422 19.9792 19.0078 20.0496 19.2422 20.0808L19.6562 20.1355L19.3359 20.4636C18.9453 20.8621 18.8516 21.1433 18.9453 21.6433C18.9844 21.8543 19 22.0339 18.9844 22.0496C18.9688 22.073 18.7734 21.9949 18.5547 21.8855C18.0625 21.6355 17.8594 21.6277 17.3672 21.8777L16.9766 22.0808L17.0312 21.4949L17.0859 20.9168L16.7188 20.5261C16.3125 20.0886 16.3047 20.0964 16.9922 20.0027C17.3984 19.948 17.5781 19.7917 17.8438 19.2605L18.0234 18.9167L18.2422 19.3621C18.3672 19.6042 18.5469 19.8542 18.6484 19.9167Z" fill="white"/>
<path d="M10.586 16.0261C10.3751 16.2996 10.3751 16.5652 10.6016 16.7839C10.8985 17.0886 12.3438 17.8542 12.6016 17.8542C13.0235 17.8542 13.2891 17.3855 13.0782 16.9949C12.961 16.7761 11.2501 15.823 10.9766 15.823C10.8204 15.823 10.6954 15.8855 10.586 16.0261Z" fill="white"/>
<path d="M23.8985 16.3308C23.4297 16.6042 23 16.8933 22.9453 16.9636C22.6875 17.323 22.961 17.8542 23.3985 17.8542C23.6563 17.8542 25.1016 17.0886 25.4063 16.7839C25.625 16.5652 25.625 16.2996 25.4141 16.0261C25.1641 15.7058 24.8828 15.7605 23.8985 16.3308Z" fill="white"/>
<path d="M4.07033 22.7449C2.75783 23.0574 1.42189 24.1355 0.82814 25.3542C0.343765 26.3308 0.242203 26.8464 0.281265 27.9714C0.312515 28.7214 0.35939 29.0105 0.51564 29.4324C1.28127 31.4714 2.96877 32.7214 5.1172 32.8308C6.62501 32.9167 7.89845 32.4246 8.98439 31.3386C10.0781 30.2449 10.5547 28.9871 10.4766 27.4246C10.3594 25.1511 8.85158 23.3152 6.63283 22.7371C6.0547 22.5886 4.69533 22.5886 4.07033 22.7449ZM6.53126 23.948C8.28126 24.4871 9.44533 26.2058 9.3047 28.0339C9.26564 28.5652 8.9922 29.4949 8.87501 29.4949C8.84376 29.4949 8.69533 29.3621 8.54689 29.2058C7.82033 28.4558 6.78908 28.0183 5.57814 27.9558C4.35158 27.8855 3.18752 28.2917 2.28127 29.1042C1.77345 29.5496 1.78908 29.5574 1.56252 28.7996C1.3047 27.9246 1.4297 26.7605 1.88283 25.8621C2.14845 25.3542 2.89845 24.573 3.40626 24.2996C4.3672 23.7761 5.54689 23.6433 6.53126 23.948ZM6.38283 29.2605C6.93751 29.4324 7.71876 29.9558 7.9922 30.3386L8.15626 30.573L7.78908 30.8464C7.01564 31.4089 6.21876 31.6824 5.38283 31.6824C4.53126 31.6824 3.51564 31.323 2.89064 30.7917L2.58595 30.5417L2.8672 30.2214C3.75001 29.2527 5.12501 28.8699 6.38283 29.2605Z" fill="white"/>
<path d="M4.99222 24.2527C3.87503 24.5339 3.34378 25.7136 3.86722 26.7371C4.22659 27.4246 5.1719 27.7917 5.92972 27.5417C7.25784 27.1042 7.46878 25.1667 6.26565 24.4636C5.89065 24.2527 5.35159 24.1589 4.99222 24.2527ZM5.75784 25.6042C6.03128 25.9246 5.80472 26.448 5.39065 26.448C4.88284 26.448 4.67972 25.8621 5.07034 25.5339C5.31253 25.323 5.53128 25.3464 5.75784 25.6042Z" fill="white"/>
<path d="M29.1719 22.7996C26.0625 23.7292 24.5938 27.1824 26.0703 30.0886C27.211 32.3308 29.8672 33.3855 32.2969 32.573C33.7891 32.073 34.9063 30.9714 35.4844 29.4324C35.6328 29.0261 35.6875 28.7058 35.7188 28.0261C35.7656 26.9011 35.6641 26.3699 35.211 25.4324C34.9141 24.823 34.75 24.5886 34.25 24.0886C33.7578 23.6042 33.5 23.4246 32.9141 23.1433C32.0235 22.7136 31.586 22.6199 30.5547 22.6277C29.9688 22.6277 29.6016 22.6746 29.1719 22.7996ZM31.6797 23.9167C32.6797 24.2136 33.6797 25.0105 34.1172 25.8621C34.5703 26.7605 34.6953 27.9246 34.4375 28.7996C34.211 29.5574 34.2266 29.5496 33.7188 29.1042C33.2031 28.6433 32.3985 28.2214 31.6719 28.0417C31 27.8699 29.7969 27.9324 29.1172 28.1667C28.5469 28.3621 27.836 28.8074 27.4531 29.2058C27.3047 29.3621 27.1563 29.4949 27.125 29.4949C27.0078 29.4949 26.7344 28.5652 26.6953 28.0339C26.5547 26.2214 27.6563 24.5652 29.4063 23.9714C30.0313 23.7527 31.0469 23.7292 31.6797 23.9167ZM31.6094 29.2605C32.1875 29.4402 32.6719 29.7449 33.1172 30.198L33.4297 30.5261L33.1172 30.7839C32.4844 31.323 31.4766 31.6824 30.6172 31.6824C29.7813 31.6824 28.9844 31.4089 28.211 30.8464L27.8438 30.573L28.0078 30.3464C28.2735 29.9714 29 29.4714 29.5547 29.2839C30.211 29.0574 30.9375 29.0496 31.6094 29.2605Z" fill="white"/>
<path d="M30.1953 24.2605C29.4688 24.4402 28.9375 25.1277 28.9375 25.8933C28.9453 27.2214 30.2266 28.0105 31.4141 27.4246C32.6406 26.8074 32.6328 25.0183 31.3984 24.3933C31.0938 24.2371 30.5313 24.1746 30.1953 24.2605ZM30.9375 25.5339C31.2031 25.7605 31.2188 26.1042 30.9688 26.3074C30.5 26.6902 29.9063 26.1902 30.1953 25.6589C30.2656 25.5183 30.5 25.3777 30.6719 25.3621C30.7031 25.3542 30.8203 25.4324 30.9375 25.5339Z" fill="white"/>
<path d="M11.5156 23.4871C10.625 23.9949 10.4219 24.1746 10.4219 24.4714C10.4219 24.7214 10.75 25.0417 11.0078 25.0417C11.25 25.0417 12.9688 24.0652 13.0781 23.8699C13.2891 23.4714 13.0234 23.0105 12.5859 23.0105C12.4219 23.0105 12.0469 23.1824 11.5156 23.4871Z" fill="white"/>
<path d="M23.0001 23.1824C22.8282 23.3699 22.797 23.6355 22.922 23.8699C23.0314 24.0652 24.7501 25.0417 24.9923 25.0417C25.2501 25.0417 25.5782 24.7136 25.5782 24.4558C25.5782 24.1746 25.3517 23.9792 24.4298 23.4558C23.5626 22.9636 23.2579 22.9089 23.0001 23.1824Z" fill="white"/>
<path d="M17.625 26.2605C17.4609 26.3777 17.4531 26.4246 17.4531 27.5652C17.4531 28.2214 17.4844 28.7917 17.5156 28.8386C17.6172 28.9949 17.9375 29.1199 18.1172 29.073C18.5156 28.9714 18.5469 28.8699 18.5469 27.5808C18.5469 26.4246 18.5391 26.3777 18.375 26.2605C18.2812 26.1902 18.1094 26.1355 18 26.1355C17.8906 26.1355 17.7188 26.1902 17.625 26.2605Z" fill="white"/>
<path d="M16.8283 30.0105C15.1642 30.3621 13.6486 31.7527 13.1095 33.4324C12.9377 33.948 12.8986 34.2214 12.8908 34.9246C12.883 35.9402 12.9845 36.4089 13.4064 37.3074C13.6642 37.8464 13.8439 38.0886 14.3986 38.6355C15.4611 39.698 16.4924 40.1199 18.0002 40.1199C19.5002 40.1199 20.5314 39.698 21.6017 38.6355C22.1564 38.0886 22.3283 37.8542 22.5939 37.3074C23.0158 36.4089 23.1174 35.9402 23.1095 34.9246C23.1017 34.2214 23.0627 33.948 22.8908 33.4246C22.3439 31.7449 20.8205 30.3542 19.133 30.0027C18.4533 29.8621 17.5002 29.8621 16.8283 30.0105ZM18.797 31.1433C19.5392 31.2996 20.1799 31.6589 20.7814 32.2605C21.883 33.3621 22.2424 34.8621 21.7502 36.2683C21.6642 36.5105 21.5783 36.7214 21.5627 36.7449C21.5392 36.7605 21.3205 36.6042 21.0705 36.3933C20.0861 35.5417 19.2892 35.2527 18.0002 35.2527C16.7111 35.2527 15.9142 35.5417 14.9299 36.3933C14.6799 36.6042 14.4611 36.7605 14.4377 36.7449C14.422 36.7214 14.3361 36.5105 14.2502 36.2683C13.758 34.8621 14.1174 33.3621 15.2189 32.2605C16.2267 31.2605 17.4767 30.8699 18.797 31.1433ZM18.6408 36.4558C18.8674 36.5027 19.2424 36.6277 19.4611 36.7371C19.8908 36.9324 20.7345 37.6433 20.7345 37.8074C20.7345 37.9011 20.3752 38.198 19.9533 38.4558C18.8595 39.1199 17.1408 39.1199 16.047 38.4558C15.6252 38.198 15.2658 37.9011 15.2658 37.8074C15.2658 37.6589 16.0939 36.948 16.4924 36.7527C17.2189 36.4011 17.9142 36.3074 18.6408 36.4558Z" fill="white"/>
<path d="M17.25 31.6746C16.2656 32.1199 15.9765 33.4949 16.6875 34.3074C17.0468 34.7136 17.4375 34.8855 18 34.8855C19.4843 34.8855 20.25 33.2527 19.3047 32.1042C18.9922 31.7292 18.539 31.5261 18 31.5261C17.75 31.5261 17.4375 31.5886 17.25 31.6746ZM18.414 32.9402C18.789 33.448 18.0468 34.0105 17.6093 33.5417C17.4062 33.323 17.414 33.1667 17.6172 32.9011C17.8359 32.6277 18.1875 32.6433 18.414 32.9402Z" fill="white"/>
</svg>
