<svg width="80" height="80" viewBox="0 0 80 80" fill="none" xmlns="http://www.w3.org/2000/svg">
<path d="M40.1719 0.40625C39.9844 0.640625 39.8438 0.984375 39.8438 1.17188C39.8438 1.35938 39.9844 1.70312 40.1719 1.9375C40.4844 2.32812 40.5313 2.34375 42.2656 2.34375H44.0469L42.1719 5.34375C41.1406 6.98438 40.25 8.53125 40.2031 8.76562C40.0938 9.34375 40.3906 10.0781 40.875 10.3906C41.1719 10.5781 41.7813 10.625 44.0625 10.625C46.6719 10.625 46.8906 10.6094 47.1875 10.3125C47.5938 9.90625 47.5938 9.0625 47.2031 8.57812C46.9219 8.23438 46.75 8.20312 45.1875 8.125L43.4844 8.04688L45.3438 5.07812C47.4375 1.71875 47.5625 1.29688 46.7344 0.453125L46.2813 0H43.375H40.4844L40.1719 0.40625Z" fill="#222222"/>
<path d="M24.2654 3.5C22.5779 4.26562 19.281 6.84375 17.1092 9.07812C12.2029 14.1406 9.1873 20.3281 8.21855 27.3125C7.84355 29.9219 7.8748 30.9531 8.32792 31.375C8.78105 31.7969 9.53105 31.8281 9.9998 31.4375C10.3123 31.1875 10.3748 30.9219 10.4998 29.4375C11.2967 20.1406 16.2029 11.8125 23.9373 6.67188C26.156 5.1875 26.5467 5.48438 25.6248 7.98438C23.8435 12.8438 23.4529 18.5781 24.5935 23.6094C25.9373 29.5625 29.0623 34.7031 33.9529 38.9844C35.5623 40.4062 36.0623 41.0312 36.5154 42.1875C36.7654 42.8281 36.7967 43.75 36.8435 52.2969L36.8904 61.7188H36.4529C35.0154 61.7031 30.4373 60.3594 28.0467 59.2344C19.1404 55.0625 12.6248 46.7031 10.9217 37.2656C10.656 35.7344 10.5154 35.3281 10.2029 35.0312C9.57792 34.4531 8.73417 34.5938 8.34355 35.3438C8.14042 35.75 8.14042 35.9531 8.35917 37.2344C10.1404 47.7188 16.8279 56.5781 26.4529 61.25C29.7029 62.8125 31.4373 63.3438 36.531 64.3125L36.8748 64.375V70.9531C36.8748 77.1719 36.8904 77.5469 37.1873 78.1094C37.5779 78.875 38.656 79.8125 39.2967 79.9375C39.5623 79.9844 41.6404 80 43.9217 79.9688C47.7185 79.9219 48.1248 79.8906 48.9685 79.5625C50.9373 78.8281 52.6404 77.4688 53.7654 75.7344C54.6248 74.4062 55.0154 73.1406 55.1092 71.3594L55.2029 69.8438H56.4842C58.8435 69.8438 61.0779 68.8125 62.3592 67.1094C63.1717 66.0312 63.2654 65.5 62.7654 64.9219C62.2185 64.2812 61.3592 64.2812 60.8279 64.9375C59.3123 66.7812 58.4998 67.2344 56.531 67.3125L55.156 67.375V62.2344V57.0781L54.7967 56.75C54.3435 56.3281 53.5935 56.3125 53.1092 56.7031L52.7342 57L52.656 64.7188L52.5779 72.4219L52.0779 73.4844C51.5154 74.6562 50.2967 76.0469 49.3123 76.6094C47.8435 77.4688 47.2185 77.5625 43.4998 77.5781C40.3279 77.5781 39.9998 77.5469 39.7029 77.2813C39.3904 76.9844 39.3904 76.9844 39.3435 59.7812C39.2967 43.5312 39.281 42.5312 38.9998 41.7188C38.3748 39.8438 37.5623 38.6562 36.0154 37.3906C35.5467 37 35.156 36.6406 35.156 36.5781C35.156 36.5312 36.3279 36.0469 37.781 35.5C40.531 34.4688 41.2029 34.3594 42.406 34.7188C42.781 34.8281 43.3435 35.2188 43.7654 35.625C44.9529 36.7656 44.9998 37.0469 44.9998 43.75V49.4844L45.3592 49.8125C45.8592 50.2812 46.6248 50.2656 47.1092 49.7656L47.4998 49.3906V44.6875V39.9688L50.3592 40.0312C52.9529 40.0781 53.2967 40.125 54.3435 40.5C55.9529 41.0781 57.0935 41.7969 58.281 42.9844C59.4842 44.1562 60.4529 45.7031 60.9529 47.2656C61.2967 48.3125 61.3279 48.625 61.406 54.625C61.4842 60.5156 61.4998 60.9219 61.781 61.2344C62.1873 61.6719 63.156 61.6875 63.5935 61.25C63.8904 60.9531 63.906 60.7344 63.906 57.8438V54.75L64.4685 54.2031C66.6092 52.1562 69.6248 47.4844 70.906 44.2031C72.0779 41.2812 72.2498 40.2031 71.7967 39.1094C71.4842 38.3594 71.156 38 70.4685 37.6562C69.031 36.9219 68.1873 37.0781 66.0154 38.5312C64.4217 39.5938 62.6404 40.5469 61.2342 41.0938L60.4373 41.4062L59.7342 40.7812C58.031 39.2812 55.8279 38.1719 53.7185 37.75C52.906 37.5781 51.656 37.5 49.9529 37.5H47.3904L47.281 36.8438C47.0154 35.2188 45.5467 33.4062 43.781 32.5469C42.9842 32.1719 42.7185 32.125 41.2498 32.1094H39.6092L36.3592 33.3281C33.5935 34.375 33.0779 34.5312 32.8592 34.3594C32.4685 34.0312 30.8904 31.8906 30.156 30.7031C27.5935 26.5625 26.2029 21.1562 26.4685 16.4844C26.6248 13.5 27.1404 11.1875 28.3592 7.82812C28.6717 6.95312 28.7498 6.5 28.6873 6.04688C28.4217 4.40625 27.3435 3.40625 25.7185 3.32812C25.1248 3.29688 24.5779 3.35938 24.2654 3.5ZM69.2342 39.8438C69.6404 40.0625 69.6092 40.375 69.0623 41.9219C68.0935 44.6719 66.5935 47.4531 64.8123 49.8594L63.9842 50.9688L63.8904 49.5156C63.7654 47.6875 63.4217 46.3594 62.6873 44.8438C62.3748 44.2031 62.1092 43.6406 62.0779 43.5938C62.0467 43.5469 62.5779 43.2656 63.2498 42.9688C64.7342 42.3125 66.6717 41.2188 67.8904 40.3438C68.9217 39.5938 68.8279 39.6406 69.2342 39.8438Z" fill="#222222"/>
<path d="M60.9058 8.01562C60.2183 8.54687 60.2652 9.76562 60.984 10.1406C61.1715 10.2344 62.0308 10.3281 62.9058 10.3437L64.4683 10.3906L62.6246 13.3437C61.0777 15.8125 60.7808 16.3906 60.7808 16.9062C60.7808 18.375 61.2652 18.5938 64.5621 18.5938C67.3277 18.5938 67.6715 18.5 67.984 17.7187C68.1715 17.1875 67.7965 16.2812 67.3121 16.1719C67.109 16.125 66.2808 16.0781 65.4527 16.0469L63.9527 16.0156L65.8121 13.0469C67.4058 10.4844 67.6558 10 67.6558 9.42187C67.6558 8.95312 67.5465 8.64062 67.2808 8.32812L66.9058 7.89062L64.0308 7.84375C61.8433 7.82812 61.109 7.85937 60.9058 8.01562Z" fill="#222222"/>
<path d="M46.8746 18.125C46.4371 18.5625 46.4527 19.5312 46.8902 19.9375C47.1559 20.1719 47.5309 20.25 48.8902 20.3125L50.5777 20.3906L48.7184 23.3594C46.6246 26.7187 46.5152 27.0937 47.3277 28L47.7809 28.5156L50.3902 28.5625C53.234 28.625 53.7496 28.5156 54.0465 27.875C54.2965 27.3125 54.2652 26.9687 53.8902 26.5C53.5777 26.1094 53.5309 26.0937 51.7965 26.0937H50.0152L51.9059 23.0781C53.5621 20.4687 53.8121 19.9844 53.8121 19.4062C53.8277 18.8281 53.7496 18.6562 53.3121 18.2656L52.8121 17.8125H49.9996C47.3902 17.8125 47.1715 17.8281 46.8746 18.125Z" fill="#222222"/>
</svg>
