<svg width="120" height="119" viewBox="0 0 120 119" fill="none" xmlns="http://www.w3.org/2000/svg">
<g filter="url(#filter0_d_1351_8585)">
<circle cx="43.2552" cy="43.2552" r="43.2552" transform="matrix(-1 0 0 1 103.286 16.3417)" fill="#FB76BE" fill-opacity="0.8"/>
</g>
<g clip-path="url(#clip0_1351_8585)">
<path d="M43.5676 33.3867C42.9391 33.6236 42.0737 34.4479 41.7852 35.0969C41.5998 35.5193 41.538 35.8284 41.538 36.4672C41.538 37.9817 41.3834 37.7963 47.4209 43.8337C51.5008 47.9239 52.7371 49.2323 52.8195 49.5002C52.8813 49.696 52.9225 50.2008 52.9225 50.6026C52.9225 51.3341 52.9122 51.3753 52.4692 51.942C50.4499 54.5692 50.0481 58.4636 51.4801 61.5236C51.7068 62.0078 52.088 62.6878 52.3456 63.0278C52.9844 63.9344 54.3031 65.1604 55.1994 65.6859C56.0752 66.1907 57.6412 66.7677 58.4551 66.8707C58.7539 66.9016 59.0012 66.9531 59.0012 66.9737C59.0012 67.0355 56.5182 78.4922 56.4667 78.6777C56.4152 78.8528 56.2091 78.8631 53.9425 78.8631C52.5928 78.8631 51.4801 78.8322 51.4801 78.7807C51.4801 78.7395 51.9232 76.0917 52.4795 72.8978C53.3965 67.5507 53.4686 67.0768 53.3243 66.8295C53.0359 66.3143 52.2529 66.2628 51.9541 66.7368C51.8717 66.8604 51.3359 69.7246 50.759 73.0936L49.7184 79.2237L48.8426 81.2431C48.3584 82.3558 47.936 83.4479 47.9051 83.6745C47.8021 84.4781 48.2863 85.3951 49.0075 85.766C49.3784 85.9617 49.6153 85.972 52.3559 85.972C55.0449 85.972 55.3334 85.9514 55.6837 85.7763C56.1267 85.5496 56.5903 85.1066 56.7861 84.7357C56.8582 84.5915 57.6 81.2946 58.4448 77.4001C59.2896 73.4954 60.0005 70.3118 60.0315 70.3118C60.0624 70.3118 60.7733 73.4954 61.6181 77.4001C62.4629 81.2946 63.2047 84.5915 63.2768 84.7357C63.4726 85.1066 63.9362 85.5496 64.3792 85.7763C64.7295 85.9514 65.018 85.972 67.707 85.972C70.4476 85.972 70.6845 85.9617 71.0554 85.766C71.7869 85.3951 72.2712 84.4781 72.1578 83.6539C72.1166 83.4067 71.7148 82.3558 71.2512 81.3152L70.4063 79.4298L69.0052 71.3318L67.5937 63.2235L67.841 62.8835C68.2119 62.3581 68.9434 60.7612 69.1391 60.0606C69.8603 57.3509 69.273 54.1674 67.6452 52.0141C67.161 51.365 67.1404 51.3238 67.1404 50.6541C67.1404 49.2839 66.8313 49.6754 72.6524 43.8337C78.6795 37.7963 78.5249 37.9817 78.5249 36.4672C78.5146 35.3854 78.2468 34.7466 77.4844 34.0564C76.7529 33.3867 76.145 33.1806 75.0323 33.2424C73.9814 33.2939 73.3839 33.603 72.4978 34.52C71.8075 35.2412 71.7148 35.5709 72.096 36.0448C72.2505 36.2508 72.3948 36.3127 72.6936 36.3127C73.013 36.3127 73.1469 36.2302 73.5796 35.7872C74.2802 35.0763 74.6717 34.8497 75.2177 34.8497C76.3614 34.8497 77.1444 35.8903 76.825 36.9617C76.722 37.3223 76.1244 37.9817 73.0851 41.0313L69.4585 44.6579L68.2737 43.4731L67.0889 42.2883L69.0258 40.3514C71.0554 38.3114 71.1378 38.1775 70.7876 37.6726C70.5609 37.3429 70.19 37.2193 69.85 37.3532C69.6852 37.4151 68.1706 38.8368 66.4707 40.5265C63.792 43.1846 63.2871 43.6379 62.7102 43.9264C61.7623 44.3797 61.0514 44.5549 60.0315 44.5549C59.0218 44.5549 58.3006 44.39 57.3527 43.9264C56.7552 43.6379 56.1576 43.0713 51.7377 38.6823C48.379 35.3339 46.6481 33.6855 46.3288 33.5206C45.7209 33.2115 44.2373 33.1394 43.5676 33.3867ZM45.7827 35.1588C45.9373 35.2721 47.6269 36.9308 49.5226 38.8265L52.974 42.2883L51.7892 43.4731L50.6044 44.6579L46.9778 41.0313C43.9385 37.9817 43.341 37.3223 43.2379 36.9617C42.7846 35.4575 44.5052 34.2315 45.7827 35.1588ZM54.9419 44.2355C56.3637 45.5543 58.0224 46.2033 60.0315 46.2033C62.0508 46.2033 63.6992 45.5646 65.1416 44.2149L65.9143 43.4937L67.0992 44.6682L68.2737 45.8427L67.1404 46.976C66.0277 48.099 65.6053 48.7275 65.595 49.2942C65.5847 49.7681 65.4507 49.8608 65.121 49.6342C64.575 49.2426 63.5447 48.779 62.6381 48.5112C61.8344 48.2639 61.546 48.233 60.1654 48.2227C58.6715 48.2124 58.5891 48.2227 58.3624 48.439C58.0842 48.7275 58.0636 49.3045 58.3109 49.5826C58.4757 49.7578 58.6818 49.7887 60.0108 49.8299C61.309 49.8711 61.6387 49.9226 62.3496 50.1596C64.4823 50.8808 66.0277 52.2305 66.9858 54.188C67.5834 55.3934 67.7791 56.2794 67.7791 57.6394C67.7688 59.8648 66.9446 61.6884 65.2344 63.2853C64.6574 63.8211 64.1732 64.1611 63.4932 64.4908C62.1744 65.1398 61.4532 65.3047 60.0315 65.3047C58.6097 65.3047 57.8885 65.1398 56.5697 64.4908C55.8794 64.1611 55.4055 63.8211 54.8182 63.2853C53.1286 61.709 52.2941 59.8442 52.2838 57.6394C52.2838 56.2897 52.4795 55.4243 53.0771 54.188C53.6437 53.0238 54.3546 52.148 55.3746 51.3856C56.3637 50.6438 56.4255 50.5717 56.4255 50.1184C56.4255 49.3869 55.7352 49.1396 54.9728 49.5929C54.6328 49.7887 54.5916 49.799 54.5298 49.6445C54.4989 49.562 54.468 49.3869 54.468 49.2633C54.468 48.7378 53.9631 47.9857 52.8813 46.9245L51.7892 45.8427L52.9431 44.6888C53.5819 44.05 54.1177 43.5246 54.1383 43.5246C54.1589 43.5246 54.5195 43.844 54.9419 44.2355ZM67.3979 71.7748C68.047 75.5559 68.5828 78.6983 68.5828 78.7601C68.5828 78.8219 67.7482 78.8631 66.1204 78.8631C63.8538 78.8631 63.6477 78.8528 63.5962 78.6777C63.5447 78.4922 61.0617 67.0355 61.0617 66.9737C61.0617 66.9531 61.2987 66.9119 61.5769 66.8707C62.8132 66.7059 64.5132 65.995 65.564 65.2016C65.8937 64.9647 66.1719 64.7895 66.1822 64.8307C66.2028 64.872 66.7386 67.9937 67.3979 71.7748ZM56.0134 80.6867C56.0134 80.7897 55.8485 81.5625 55.6631 82.397C55.4158 83.52 55.2613 83.9939 55.0964 84.1485C54.8801 84.3648 54.7667 84.3751 52.6341 84.406C51.408 84.4266 50.2438 84.406 50.0687 84.3751C49.4093 84.2515 49.4299 84.066 50.2541 82.2012L50.9959 80.5116H53.4995C55.8279 80.5116 56.0134 80.5219 56.0134 80.6867ZM69.8088 82.2012C70.633 84.066 70.6536 84.2515 69.9942 84.3751C69.8191 84.406 68.6549 84.4266 67.4288 84.406C65.2962 84.3751 65.1828 84.3648 64.9665 84.1485C64.8016 83.9939 64.6471 83.52 64.3998 82.397C64.2144 81.5625 64.0495 80.7897 64.0495 80.6867C64.0495 80.5219 64.235 80.5116 66.5634 80.5116H69.067L69.8088 82.2012Z" fill="white"/>
<path d="M62.608 53.4256C62.2989 53.5595 61.6395 54.1365 60.5784 55.1874L59.0123 56.7534L58.1057 55.8777C57.1372 54.9401 56.756 54.7547 55.87 54.7547C54.3143 54.7547 53.2428 56.2486 53.6961 57.8146C53.8609 58.3812 53.9743 58.5152 55.736 60.2769C57.4566 61.9975 57.6627 62.1624 58.1675 62.3169C58.8681 62.5229 59.136 62.5229 59.8366 62.3169C60.362 62.1624 60.5577 61.9872 63.0304 59.5145C65.9564 56.5885 65.9564 56.5885 65.8843 55.3728C65.8534 54.7856 65.7916 54.5795 65.5443 54.2189C64.8952 53.3123 63.628 52.962 62.608 53.4256ZM64.0504 55.0637C64.174 55.1874 64.2564 55.4037 64.2564 55.5995C64.2564 55.888 63.9989 56.197 61.9692 58.237C60.702 59.5042 59.5378 60.6066 59.3729 60.6994C59.1978 60.7921 58.9814 60.823 58.8063 60.7818C58.5075 60.7097 55.5712 57.8558 55.3342 57.4128C55.0767 56.9285 55.4373 56.4031 56.0245 56.4031C56.1688 56.4031 56.6015 56.7534 57.2918 57.4231C57.8687 57.9897 58.4663 58.5049 58.6311 58.5667C59.239 58.7933 59.476 58.6388 61.4335 56.7019C63.4219 54.734 63.6074 54.6207 64.0504 55.0637Z" fill="white"/>
<path d="M58.5068 33.3145C57.2499 33.5205 56.0444 34.489 55.5911 35.6738C55.313 36.4053 55.2099 38.3525 55.3851 39.5065C55.756 41.907 57.6105 43.5245 59.9904 43.5245C61.9067 43.5245 63.4315 42.587 64.2558 40.9076C64.6576 40.0834 64.8121 39.0325 64.74 37.4974C64.6782 35.849 64.4515 35.2617 63.5964 34.3963C62.7103 33.5205 62.154 33.3145 60.3922 33.2733C59.6607 33.2527 58.8056 33.2733 58.5068 33.3145ZM61.7831 35.1175C62.2879 35.375 62.5867 35.6738 62.8443 36.158C63.0503 36.5289 63.0709 36.735 63.0709 38.0641C63.0709 39.4962 63.0606 39.5786 62.7825 40.1452C62.4734 40.7634 61.917 41.3197 61.2783 41.6391C60.7631 41.8967 59.3001 41.8967 58.785 41.6391C58.1462 41.3197 57.5899 40.7634 57.2808 40.1452C57.0026 39.5786 56.9923 39.4962 56.9923 38.0641C56.9923 36.8071 57.0232 36.5186 57.1881 36.2096C57.7547 35.1278 58.3935 34.8599 60.2377 34.9114C61.134 34.932 61.5152 34.9835 61.7831 35.1175Z" fill="white"/>
</g>
<defs>
<filter id="filter0_d_1351_8585" x="0.775391" y="0.341675" width="118.51" height="118.51" filterUnits="userSpaceOnUse" color-interpolation-filters="sRGB">
<feFlood flood-opacity="0" result="BackgroundImageFix"/>
<feColorMatrix in="SourceAlpha" type="matrix" values="0 0 0 0 0 0 0 0 0 0 0 0 0 0 0 0 0 0 127 0" result="hardAlpha"/>
<feOffset/>
<feGaussianBlur stdDeviation="8"/>
<feColorMatrix type="matrix" values="0 0 0 0 0.196487 0 0 0 0 0.196487 0 0 0 0 0.279476 0 0 0 0.08 0"/>
<feBlend mode="multiply" in2="BackgroundImageFix" result="effect1_dropShadow_1351_8585"/>
<feBlend mode="normal" in="SourceGraphic" in2="effect1_dropShadow_1351_8585" result="shape"/>
</filter>
<clipPath id="clip0_1351_8585">
<rect width="52.7502" height="52.7502" fill="white" transform="translate(33.6558 33.2217)"/>
</clipPath>
</defs>
</svg>
