<svg width="120" height="119" viewBox="0 0 120 119" fill="none" xmlns="http://www.w3.org/2000/svg">
<g filter="url(#filter0_d_1351_8533)">
<circle cx="43.2552" cy="43.2552" r="43.2552" transform="matrix(-1 0 0 1 103.286 16.0559)" fill="#A4D221" fill-opacity="0.7"/>
</g>
<g clip-path="url(#clip0_1351_8533)">
<path d="M59.1033 33.5439C59.1033 33.8736 59.1342 34.296 59.1651 34.4711L59.2372 34.7905H60.0923H60.9578V33.8633V32.936H60.0305H59.1033V33.5439Z" fill="white"/>
<path d="M56.2801 33.1523C55.9504 33.2038 55.6516 33.2553 55.631 33.2862C55.5898 33.3274 55.8577 34.9759 55.9195 35.0377C55.9401 35.0686 56.3419 35.0377 56.8158 34.9759C57.6606 34.8625 57.6709 34.8625 57.6194 34.5947C57.5885 34.4504 57.537 34.0383 57.5061 33.6777C57.4237 32.9565 57.4855 32.9771 56.2801 33.1523Z" fill="white"/>
<path d="M62.575 33.5748C62.5338 33.8736 62.5029 34.296 62.5029 34.502V34.8832L63.1005 34.945C64.2647 35.0893 64.1823 35.1408 64.3162 34.3269C64.5326 33.1421 64.6253 33.2451 63.2138 33.0905L62.6369 33.0184L62.575 33.5748Z" fill="white"/>
<path d="M53.1072 33.8014C52.6745 33.9251 52.2933 34.0487 52.2521 34.0899C52.1696 34.1723 52.6024 35.6971 52.726 35.7796C52.8187 35.8311 54.0447 35.5426 54.2508 35.4087C54.3641 35.3468 54.3538 35.1923 54.2096 34.5741C54.1066 34.1517 54.0035 33.7602 53.9623 33.6984C53.9211 33.6263 53.6532 33.6572 53.1072 33.8014Z" fill="white"/>
<path d="M66.0669 33.7809C66.0463 33.853 65.9433 34.2342 65.8505 34.6257C65.7166 35.1924 65.7166 35.3572 65.8196 35.419C65.9845 35.522 67.3444 35.862 67.3857 35.8105C67.5196 35.6045 67.8802 34.1518 67.7978 34.09C67.6947 33.9869 66.4996 33.6572 66.2627 33.6572C66.1699 33.6572 66.0875 33.7191 66.0669 33.7809Z" fill="white"/>
<path d="M49.6039 35.0171C49.2124 35.1923 48.9033 35.3674 48.9033 35.4086C48.9033 35.4602 49.0682 35.8414 49.2742 36.2638C49.6863 37.1395 49.5627 37.1086 50.6754 36.6141L51.2627 36.3565L50.9433 35.522C50.7269 34.945 50.5724 34.6874 50.459 34.6977C50.3663 34.6977 49.9851 34.842 49.6039 35.0171Z" fill="white"/>
<path d="M69.1686 35.4292C69.014 35.8413 68.8904 36.2328 68.8904 36.2946C68.8904 36.3667 69.0655 36.4904 69.2819 36.5728C69.4879 36.6655 69.8382 36.8097 70.0546 36.8922L70.4358 37.057L70.7964 36.274C70.9921 35.8413 71.157 35.4498 71.157 35.4086C71.157 35.3261 69.7558 34.6874 69.5704 34.6874C69.5085 34.6874 69.3231 35.0274 69.1686 35.4292Z" fill="white"/>
<path d="M46.5644 36.5729C46.1522 36.8099 45.8123 37.0365 45.8123 37.0777C45.8123 37.1911 46.7292 38.6025 46.8013 38.6025C46.8322 38.6025 47.1825 38.4068 47.574 38.1801L48.2849 37.7577L47.8522 36.9438C47.6049 36.4905 47.3886 36.1299 47.3577 36.1299C47.3268 36.1299 46.9662 36.3256 46.5644 36.5729Z" fill="white"/>
<path d="M72.2182 36.9438L71.7751 37.7577L72.486 38.1801C72.8775 38.4171 73.2278 38.6025 73.2587 38.6025C73.3412 38.6025 74.2478 37.2323 74.2478 37.1086C74.2478 37.0262 72.826 36.1299 72.6921 36.1299C72.6715 36.1299 72.4551 36.5008 72.2182 36.9438Z" fill="white"/>
<path d="M58.4229 37.5928C56.6405 39.4164 55.4763 41.3224 54.9715 43.2387C54.683 44.3411 54.6624 46.0308 54.9303 47.1023C55.3836 49.0083 56.7745 51.3058 58.4744 52.9749L59.1029 53.5827V54.6027V55.6124L58.5878 54.9633C57.2999 53.3561 55.5278 52.3567 53.0243 51.8209C52.0558 51.6149 51.5098 51.5634 50.0674 51.5531L48.2953 51.5325L48.0068 51.8209L47.7183 52.1094L47.7286 53.83C47.7286 55.7463 47.9553 57.1372 48.5013 58.6208C49.8304 62.2783 52.7667 64.2049 57.5884 64.5861L59.1029 64.7097V67.1412C59.0926 69.2841 59.0823 69.5417 58.9484 69.3563C57.7945 67.7696 56.3624 66.7497 54.4151 66.1212C52.9109 65.6473 51.7055 65.4618 49.9643 65.4515C48.5323 65.4412 48.3777 65.4618 48.1098 65.6576C47.708 65.9564 47.6359 66.42 47.708 68.1714C47.842 71.3241 48.6868 73.7865 50.2528 75.5173C51.3346 76.7125 53.0243 77.6397 54.9715 78.1136C56.0224 78.3712 57.5884 78.5773 58.5363 78.5773H59.1029V80.3802V82.1832H60.0302H60.9574V80.3802V78.5773H61.4622C63.0798 78.5773 65.4494 78.1342 66.7579 77.5882C70.3432 76.084 72.1668 72.9828 72.3626 68.0684C72.4244 66.3788 72.3523 65.9564 71.9402 65.6576C71.6826 65.4618 71.5177 65.4412 70.096 65.4515C66.0367 65.4618 62.8428 66.8424 61.1429 69.3048C60.978 69.552 60.9677 69.449 60.9677 67.1412L60.9574 64.7097L62.4822 64.5861C67.2936 64.2049 70.2299 62.2783 71.559 58.6208C72.105 57.1475 72.3214 55.7463 72.3317 53.83L72.342 52.1094L72.0535 51.8209L71.765 51.5325L70.0445 51.5428C68.633 51.5531 68.0972 51.6046 67.0876 51.8106C64.5428 52.3464 62.7707 53.3354 61.4725 54.9633L60.9574 55.6124V54.6027V53.5827L61.5859 52.9749C63.2858 51.3058 64.687 48.9877 65.1403 47.092C65.3979 46.0308 65.367 44.3308 65.0888 43.2387C64.584 41.3224 63.4198 39.4164 61.6374 37.5928C60.5144 36.4595 60.4835 36.4389 60.0302 36.4389C59.5768 36.4389 59.5459 36.4595 58.4229 37.5928ZM60.741 39.3752C61.9259 40.6527 62.9046 42.3321 63.2755 43.7539C63.8525 45.9277 63.0489 48.4519 61.0295 50.7804C60.535 51.347 60.4938 51.3779 60.0302 51.3779C59.5665 51.3779 59.5253 51.347 59.0308 50.7804C58.3199 49.9664 57.6914 49.0083 57.2999 48.1428C56.1563 45.6702 56.4242 43.4139 58.1654 40.8382C58.6908 40.0655 59.8756 38.7055 60.0302 38.7055C60.0714 38.7055 60.3908 39.0043 60.741 39.3752ZM52.5812 53.6342C55.1363 54.17 56.8981 55.3754 57.8357 57.2608C58.4847 58.5796 58.7732 59.785 58.8762 61.5983L58.9484 62.8037L58.5363 62.7625C58.3096 62.7419 57.7326 62.6904 57.2381 62.6595C55.7751 62.577 54.2194 62.1031 52.9728 61.3819C50.9534 60.2074 49.7995 57.8481 49.5625 54.376L49.4904 53.3045L50.5825 53.3767C51.1801 53.4179 52.0764 53.5312 52.5812 53.6342ZM70.4978 54.4378C70.3329 57.0444 69.5396 59.1874 68.2724 60.4547C67.0566 61.6807 64.9446 62.5358 62.8222 62.6595C62.3277 62.6904 61.7507 62.7419 61.5241 62.7625L61.1119 62.8037L61.1841 61.4952C61.318 59.002 62.101 56.9208 63.3683 55.6433C64.7488 54.273 67.1494 53.4488 70.0651 53.3561L70.5699 53.3354L70.4978 54.4378ZM52.54 67.5636C55.0539 68.0581 56.7642 69.2017 57.7326 71.0253C58.4744 72.4368 58.7732 73.5907 58.8865 75.5688L58.9484 76.7331L57.9696 76.6712C52.7152 76.3312 50.1807 74.0131 49.6243 69.0472C49.5728 68.532 49.5213 67.9242 49.5213 67.6872V67.2545L50.531 67.306C51.077 67.3369 51.9837 67.4606 52.54 67.5636ZM70.4978 68.3157C70.3123 71.1077 69.4366 73.364 68.056 74.6004C66.7064 75.8058 64.7797 76.4652 61.9362 76.6712L61.1119 76.7331L61.1841 75.5173C61.2871 73.5907 61.5859 72.4265 62.3277 71.015C62.9664 69.8199 63.801 69.0266 65.1094 68.3878C66.6033 67.6563 67.7366 67.409 70.3226 67.2545L70.5699 67.2442L70.4978 68.3157Z" fill="white"/>
<path d="M35.1492 38.4375C34.531 38.726 34.1498 39.1175 33.8716 39.7357C33.6656 40.1787 33.6553 40.3847 33.6553 45.2477C33.6553 50.1106 33.6656 50.3166 33.8716 50.7596C34.3353 51.7796 35.1904 52.3051 36.4164 52.3051H37.1582V65.3587V78.4226L37.4055 78.9377C38.1988 80.648 40.5272 80.9571 41.8151 79.525C42.5569 78.7111 42.5157 79.4941 42.5157 65.1732V52.3257L43.3193 52.2844C44.4938 52.2226 45.2253 51.7796 45.7404 50.8215C45.9671 50.399 45.9671 50.3372 45.9671 45.2477C45.9671 40.1272 45.9671 40.0963 45.7404 39.6738C45.1944 38.6539 44.4835 38.2418 43.2884 38.2418C42.5775 38.2418 42.4023 38.283 42.0005 38.5199C41.5369 38.7878 41.5266 38.7878 41.2999 38.5921C40.6921 38.1078 39.4145 38.046 38.5903 38.4787L38.0546 38.7569L37.4879 38.4787C36.7461 38.0975 35.891 38.0872 35.1492 38.4375ZM36.8594 40.3126L37.1067 40.5805L37.1376 43.5374C37.1685 46.3294 37.1788 46.5149 37.3746 46.7209C37.8279 47.2155 38.5388 47.1228 38.8273 46.5355C38.9921 46.2161 39.0127 45.8349 39.0127 43.3622V40.5496L39.2703 40.3023C39.6 39.9623 40.0327 39.9623 40.3624 40.3126L40.6096 40.5805L40.6406 43.4756C40.6509 45.3301 40.7024 46.4634 40.7745 46.5973C41.0218 47.0815 41.7327 47.1846 42.1757 46.8034L42.4641 46.5561L42.5157 43.4962L42.5672 40.4363L42.8144 40.2405C43.2369 39.9005 43.7726 40.0241 44.0405 40.529C44.2053 40.8381 44.2156 49.6057 44.0508 49.9663C43.8756 50.3578 43.5872 50.4403 42.3405 50.4712C41.2896 50.5021 41.166 50.5227 40.929 50.7493L40.6612 50.9966L40.6406 64.5241L40.6096 78.0414L40.3624 78.3093C40.0327 78.6596 39.6 78.6596 39.2703 78.3196L39.0127 78.0723V64.7405C39.0127 55.2516 38.9818 51.316 38.8994 51.079C38.7242 50.5742 38.3636 50.4506 37.1067 50.4506C36.0867 50.4506 36.0043 50.4299 35.7673 50.193L35.5098 49.9457V45.2064V40.4672L35.7776 40.2611C36.1485 39.9623 36.5504 39.9829 36.8594 40.3126Z" fill="white"/>
<path d="M78.8943 38.3448C78.0495 38.5818 77.3695 38.9939 76.5659 39.746C73.3618 42.7853 73.2072 48.8948 76.2568 52.1814C76.5659 52.5214 76.978 52.9026 77.1841 53.0366L77.5447 53.2838V65.6575C77.5447 79.4323 77.5035 78.7111 78.2453 79.525C79.5331 80.9571 81.8615 80.648 82.6549 78.9377L82.9021 78.4226V65.8944V53.3662L83.51 52.9026C84.6536 52.0063 85.653 50.399 86.1166 48.6991C86.3227 47.947 86.3536 47.5864 86.3536 46.0719C86.3536 44.5574 86.3227 44.2071 86.1166 43.4962C85.4263 41.0853 83.9015 39.2308 82.0058 38.489C81.2331 38.1902 79.7083 38.1181 78.8943 38.3448ZM81.6246 40.3538C82.8197 40.9308 83.9015 42.4762 84.3548 44.2689C84.6433 45.4228 84.5918 47.3391 84.2415 48.4415C83.7779 49.9148 82.933 51.0893 81.8719 51.7384C81.4494 51.996 81.2434 52.202 81.161 52.4287C81.0785 52.6553 81.0476 56.5189 81.0476 65.4102V78.0723L80.7901 78.3196C80.4604 78.6596 80.0277 78.6596 79.698 78.3093L79.4507 78.0414L79.3992 65.2041C79.3683 58.1364 79.3065 52.2948 79.2549 52.2226C79.2137 52.1402 78.9562 51.9445 78.6883 51.7796C77.6168 51.0996 76.8029 50.0487 76.3599 48.73C75.1957 45.2889 76.5144 41.312 79.1725 40.2405C79.8319 39.9726 80.924 40.0241 81.6246 40.3538Z" fill="white"/>
<path d="M46.2759 80.7101C46.0183 81.0913 45.8123 81.4519 45.8123 81.5137C45.8123 81.6167 47.3371 82.544 47.3989 82.4822C47.4195 82.4615 47.6255 82.0906 47.8522 81.6579L48.2849 80.8646L47.574 80.4422C47.1825 80.2155 46.8322 80.0198 46.8013 80.0198C46.7704 80.0198 46.5335 80.3289 46.2759 80.7101Z" fill="white"/>
<path d="M72.4654 80.4524L71.7751 80.8748L72.1976 81.6578C72.4345 82.0905 72.6406 82.4614 72.6612 82.482C72.7127 82.5335 74.2478 81.6269 74.2478 81.5445C74.2478 81.4105 73.3309 80.0197 73.2484 80.0197C73.1969 80.03 72.8569 80.2154 72.4654 80.4524Z" fill="white"/>
<path d="M49.2639 82.3481C49.0682 82.7808 48.9033 83.1723 48.9033 83.2135C48.9033 83.2959 50.3045 83.9347 50.4899 83.9347C50.6033 83.9347 51.1802 82.5747 51.1699 82.3275C51.1699 82.2553 50.9948 82.1317 50.7887 82.0493C50.5724 81.9566 50.2221 81.8123 50.0057 81.7299L49.6245 81.5651L49.2639 82.3481Z" fill="white"/>
<path d="M70.2299 81.6372C70.1475 81.6784 69.7869 81.8329 69.4366 81.9875L68.7979 82.2759L69.1172 83.1002C69.2924 83.5638 69.4881 83.9347 69.5603 83.9347C69.756 83.9347 71.1572 83.2959 71.1572 83.2135C71.1572 83.1311 70.4257 81.5548 70.3948 81.5754C70.3948 81.5754 70.3124 81.6063 70.2299 81.6372Z" fill="white"/>
<path d="M52.4273 83.5638C52.3037 83.9965 52.2007 84.388 52.2007 84.4395C52.2007 84.5632 53.5813 84.9959 53.8182 84.9444C53.9316 84.9238 54.0449 84.6662 54.1685 84.1408C54.2715 83.7183 54.354 83.3371 54.3643 83.2959C54.3643 83.2135 53.5607 82.9559 52.9837 82.8529L52.654 82.7911L52.4273 83.5638Z" fill="white"/>
<path d="M66.4391 82.9972C66.0888 83.1003 65.7694 83.2136 65.7282 83.2445C65.6767 83.3063 65.7385 83.6463 66.0167 84.6663L66.1094 85.0475L66.9542 84.8208C67.4178 84.6869 67.8093 84.5426 67.8299 84.4808C67.9021 84.2748 67.3869 82.853 67.2427 82.8324C67.1603 82.8221 66.7997 82.8942 66.4391 82.9972Z" fill="white"/>
<path d="M55.8689 83.6463C55.7761 83.9141 55.5804 85.2844 55.6216 85.3359C55.6937 85.3977 57.3525 85.6141 57.404 85.5626C57.4349 85.542 57.4864 85.1196 57.5173 84.6353L57.5894 83.7493L57.0331 83.6875C56.724 83.6463 56.3531 83.5947 56.1882 83.5638C56.0131 83.5226 55.8895 83.5535 55.8689 83.6463Z" fill="white"/>
<path d="M63.141 83.6462L62.3889 83.7492L62.4404 84.0686C62.4713 84.2541 62.5229 84.6662 62.5538 84.9959C62.6053 85.4492 62.6568 85.5831 62.7907 85.5831C63.0586 85.5728 64.3877 85.3771 64.4392 85.3359C64.4701 85.2947 64.3258 84.3262 64.2022 83.7492C64.1713 83.6256 64.0889 83.5329 64.0168 83.5329C63.9549 83.5432 63.5531 83.5947 63.141 83.6462Z" fill="white"/>
<path d="M59.1033 84.759V85.6863H60.0305H60.9578V85.0784C60.9578 84.7487 60.9269 84.3263 60.896 84.1512L60.8341 83.8318H59.9687H59.1033V84.759Z" fill="white"/>
</g>
<defs>
<filter id="filter0_d_1351_8533" x="0.775391" y="0.0559082" width="118.51" height="118.51" filterUnits="userSpaceOnUse" color-interpolation-filters="sRGB">
<feFlood flood-opacity="0" result="BackgroundImageFix"/>
<feColorMatrix in="SourceAlpha" type="matrix" values="0 0 0 0 0 0 0 0 0 0 0 0 0 0 0 0 0 0 127 0" result="hardAlpha"/>
<feOffset/>
<feGaussianBlur stdDeviation="8"/>
<feColorMatrix type="matrix" values="0 0 0 0 0.196487 0 0 0 0 0.196487 0 0 0 0 0.279476 0 0 0 0.08 0"/>
<feBlend mode="multiply" in2="BackgroundImageFix" result="effect1_dropShadow_1351_8533"/>
<feBlend mode="normal" in="SourceGraphic" in2="effect1_dropShadow_1351_8533" result="shape"/>
</filter>
<clipPath id="clip0_1351_8533">
<rect width="52.7502" height="52.7502" fill="white" transform="translate(33.6558 32.9359)"/>
</clipPath>
</defs>
</svg>
