<svg width="80" height="80" viewBox="0 0 80 80" fill="none" xmlns="http://www.w3.org/2000/svg">
<path d="M62.5782 13.5312C61.1719 14.2656 60.1875 16.0781 59.4532 19.2968L59.1094 20.8593L57.9063 21.1875C54.625 22.1093 52.4688 24.0312 52.5 26.0312C52.5157 26.6562 52.8594 27.5312 53.2969 28.1093C54.0938 29.1406 56.2813 30.3281 58.2813 30.8281L59.125 31.0468L59.3125 32.0468C59.5625 33.3906 59.9688 34.7343 60.4063 35.7656C60.6094 36.2187 60.7813 36.6562 60.7813 36.7187C60.7813 37.0156 58.1407 37.5468 56.3125 37.625C54.0157 37.7031 52.9844 37.5156 49.2969 36.3593C47.8282 35.8906 46.2657 35.4218 45.8125 35.3125L45 35.125L45.4844 34.5625C46.1563 33.7968 46.7188 32.5468 46.9219 31.3125C47.6563 27.0156 43.75 23.1406 39.4375 23.8906C34.5625 24.75 32.3282 30.3593 35.2969 34.2968L35.9375 35.1406L35.4219 35.2343C35.1563 35.2968 33.5938 35.7656 31.9844 36.2656C27.9063 37.5312 26.9532 37.7187 24.625 37.6093C22.7969 37.5312 21.2344 37.2656 21.25 37.0625C21.2657 37 21.6719 36.6718 22.1563 36.3281C23.5938 35.3125 26.7032 32.1093 27.7969 30.5C29.7969 27.5312 30.7813 24.8437 30.7813 22.2656C30.7813 20 30.125 18.2656 28.7188 16.7812C27.1407 15.1093 25.3594 14.3437 23.0469 14.3281C21.3438 14.3281 20.2969 14.6093 18.9219 15.4375L17.9219 16.0468L17.1563 15.5156C14.9375 14.0312 11.4063 13.9218 9.06254 15.2812C8.12504 15.8125 6.84379 17.0468 6.26566 17.9531C5.10941 19.75 4.81254 22.3593 5.46879 24.9218C5.89066 26.6562 7.29691 29.4062 8.65629 31.2187C10.0625 33.0625 12.4532 35.4062 14.1719 36.6093L15.4375 37.5156L15.0625 38.1718C14.3438 39.4375 14.6407 41.0156 15.8125 42.1406C17.1875 43.4531 21.5313 44.5468 25.3907 44.5312C26.9844 44.5156 27.7969 44.4062 30.8907 43.7343C31.8594 43.5312 32.6719 43.4062 32.7032 43.4375C32.75 43.4843 32.875 45.2187 32.9844 47.2812C33.1875 51.3593 33.1563 51.6406 32.4219 52.3437C32.2344 52.5312 29.2032 53.9218 25.6875 55.4531C21.6407 57.2187 19.0938 58.4218 18.7188 58.7343C17.7657 59.5312 17.3125 60.4687 17.2188 61.7968C17.125 63.3906 17.4688 64.3593 18.5 65.4062C19.9375 66.8281 18.125 66.7343 40.7969 66.6875L60.7032 66.6406L61.3282 66.2968C64.0782 64.8125 64.6407 61.0781 62.4375 58.9218C61.875 58.3593 60.8907 57.8906 55.3125 55.4687C51.7657 53.9218 48.7188 52.5312 48.5469 52.3906C47.8125 51.7343 47.7657 51.3125 47.9844 47.3906C48.0938 45.3906 48.2344 43.6718 48.2969 43.5625C48.3907 43.4218 48.8125 43.4687 50.1094 43.75C53.125 44.4062 53.9532 44.5156 55.5469 44.5312C60.0313 44.5468 64.5469 43.2343 65.6875 41.5937C66.2657 40.7812 66.4219 39.3125 66.0469 38.3906C65.7969 37.8281 65.8125 37.8125 66.3282 37.0312C66.9844 36.0468 67.4219 34.9062 67.9532 32.75L68.375 31.0468L69.6875 30.6718C73.6563 29.5312 75.6563 27.0781 74.625 24.625C74.0625 23.2812 71.7969 21.7812 69.375 21.1562L68.3125 20.875L68.0469 19.5468C67.4688 16.6562 66.3282 14.4062 65.0782 13.6718C64.3125 13.2187 63.2813 13.1562 62.5782 13.5312ZM64.4063 16.2187C64.8438 16.8906 65.375 18.2031 65.625 19.2187C65.7188 19.6093 65.8282 20.0468 65.875 20.1875C65.9532 20.4531 65.7813 20.4687 63.7657 20.4687C62.0938 20.4687 61.5625 20.4218 61.5625 20.2656C61.5625 19.3593 62.6875 16.5156 63.3125 15.8281C63.7032 15.4062 63.9375 15.4843 64.4063 16.2187ZM15.1563 17.0625C15.625 17.2812 16.3438 17.75 16.75 18.1093C17.7188 18.9687 18.2344 18.9687 19.1719 18.1093C19.5625 17.7656 20.2657 17.2812 20.75 17.0625C21.5157 16.7031 21.8438 16.6406 23.0469 16.6406C24.2813 16.6406 24.5625 16.6875 25.3125 17.0781C27.9375 18.4218 29.0625 21.0468 28.2969 24.0625C27.2344 28.3125 23.4844 32.9531 18.9532 35.6875L17.9688 36.2656L16.8907 35.625C11.75 32.625 7.34379 26.375 7.34379 22.0937C7.34379 19.8906 8.98441 17.6093 11.1407 16.8437C12.2813 16.4375 14.0157 16.5312 15.1563 17.0625ZM66.2344 22.9062C66.375 23.0468 66.3438 28.8593 66.2032 29.0156C66.0313 29.1718 61.75 29.1875 61.3594 29.0312C61.1094 28.9218 61.0938 28.6562 61.125 25.9062L61.1719 22.8906L61.875 22.7812C62.6563 22.6718 66.0938 22.7656 66.2344 22.9062ZM58.8282 25.9375C58.8282 27.3906 58.7813 28.5937 58.7188 28.5937C58.375 28.5937 56.4532 27.75 55.8594 27.3437C54.625 26.5 54.5157 25.7968 55.4532 24.9531C55.7969 24.6406 56.2969 24.2812 56.5782 24.125C57.0157 23.9062 58.5157 23.3281 58.75 23.2968C58.7969 23.2812 58.8282 24.4687 58.8282 25.9375ZM70.6875 24.0625C71.6407 24.5156 72.6563 25.4687 72.6563 25.9062C72.6563 26.6718 70.6407 28.125 69.0313 28.5156L68.6094 28.625V25.9687V23.2968L69.2657 23.5C69.625 23.6093 70.2657 23.8593 70.6875 24.0625ZM41.875 26.3281C42.7813 26.6406 43.6719 27.3906 44.1719 28.2343C44.7344 29.2187 44.8594 30.9062 44.4219 31.8906C43.3907 34.2031 40.7813 35.2031 38.625 34.125C35.4688 32.5625 35.4688 28.1562 38.6094 26.5781C39.7188 26.0312 40.7813 25.9375 41.875 26.3281ZM65.8282 31.9062C65.6563 32.8593 64.9844 34.7656 64.6094 35.4062C64.1563 36.1718 63.8594 36.4375 63.5782 36.3281C63.0313 36.125 61.9375 33.6718 61.6407 31.9843L61.5313 31.4062H63.7344H65.9375L65.8282 31.9062ZM44.125 37.2656C44.7969 37.4062 46.6719 37.9375 48.2969 38.4375C52.375 39.7187 53.4219 39.9218 55.8594 39.9218C58.0469 39.9062 58.75 39.7968 61.2032 39.0468C62.5782 38.6093 62.8594 38.5781 63.25 38.7343C63.8907 39 64.1719 39.5625 63.9375 40.0781C63.375 41.3125 57.4375 42.5937 54.25 42.2031C53.5625 42.1093 52.2032 41.8593 51.2344 41.625C48.9532 41.0937 47.5313 41.0468 46.9219 41.5C46.0782 42.1093 45.9844 42.5625 45.7188 46.9843C45.5313 50.3906 45.5157 51.2187 45.6875 51.8593C45.9375 52.8125 46.5313 53.75 47.2344 54.2812C47.5313 54.5156 50.6094 55.9375 54.0782 57.4375C57.7969 59.0468 60.5625 60.3437 60.8125 60.5781C61.3594 61.0937 61.625 61.8906 61.4844 62.5937C61.3594 63.3125 60.5782 64.1718 59.875 64.375C59.0938 64.5781 21.8438 64.5937 21.1094 64.375C19.4532 63.9062 18.8907 61.75 20.1094 60.5937C20.3594 60.3593 23.0313 59.125 26.4063 57.6562C33.5157 54.5781 33.5469 54.5625 34.2657 53.7656C35.4688 52.4375 35.5469 51.8593 35.2344 46.7968C34.9688 42.4218 34.9063 42.1562 34.0157 41.5C33.4063 41.0468 31.9688 41.0937 29.8125 41.6093C27.2032 42.25 25.7032 42.3906 23.6094 42.1875C20.4219 41.875 17.7969 41.0312 17.125 40.125C16.8438 39.7187 16.8438 39.6875 17.0938 39.2968C17.6094 38.5312 17.9532 38.4843 19.7344 39.0468C24.3125 40.4843 26.75 40.3437 33.1563 38.2968C35.2813 37.625 36.9532 37.2031 38.5157 36.9687C39.4532 36.8281 42.9219 37.0156 44.125 37.2656Z" fill="#222222"/>
<path d="M22.5625 20.8124C22.2969 21.0937 21 22.6562 19.6875 24.2656C18.375 25.8749 17.25 27.1718 17.1875 27.1562C17.125 27.1249 16.25 26.1562 15.25 24.9999C14.2344 23.8437 13.2656 22.7656 13.0938 22.6093C12.3594 21.9843 11.25 22.4999 11.25 23.4687C11.25 23.9062 11.5781 24.3593 13.2969 26.3281C16.7031 30.2187 16.6406 30.1562 17.2344 30.1562C17.8906 30.1562 17.9219 30.1093 21.7031 25.4843C23.9062 22.7968 24.6875 21.7187 24.6875 21.4218C24.6875 20.2499 23.4219 19.8906 22.5625 20.8124Z" fill="#222222"/>
<path d="M27.8908 59.4531C27.4221 59.9062 27.3908 60.4531 27.7971 60.9531L28.094 61.3281H40.0471C51.5783 61.3281 52.0158 61.3125 52.3283 61.0312C52.7502 60.6406 52.7658 59.7969 52.344 59.375C52.0315 59.0625 51.8283 59.0625 40.1565 59.0625H28.2658L27.8908 59.4531Z" fill="#222222"/>
</svg>
