<svg width="66" height="80" viewBox="0 0 66 80" fill="none" xmlns="http://www.w3.org/2000/svg">
<path d="M12.7033 0.234375C9.65644 0.90625 7.06269 2.3125 4.93769 4.46875C3.01581 6.40625 1.73456 8.65625 0.92206 11.5312L0.57831 12.7344L0.531435 39.3594C0.48456 68.625 0.45331 67.3281 1.43768 70C3.09394 74.5469 6.75019 77.9844 11.5314 79.4844L12.9221 79.9219L36.8596 79.9688L60.7814 80L61.6564 79.6719C64.6096 78.5781 66.1564 75.375 65.1877 72.3281C64.6408 70.5781 63.5158 69.3594 61.7971 68.6562L60.8908 68.2969V64.7656V61.2344L61.7814 60.875C63.4846 60.1719 64.6721 58.9062 65.2189 57.1562C65.4846 56.2656 65.5002 55.0781 65.5002 30.625C65.5002 5.45312 65.5002 5.01562 65.1877 4.04688C64.6252 2.26562 63.3908 0.96875 61.6564 0.3125C60.8127 0 60.5627 0 37.2502 0.015625C17.7971 0.015625 13.5314 0.0625 12.7033 0.234375ZM60.0471 2.5C61.2189 2.71875 62.0471 3.32812 62.5783 4.35938L63.0002 5.21875V30.625V56.0312L62.5627 56.8906C62.0471 57.9219 61.2189 58.5312 60.0471 58.75C59.5158 58.8438 51.2189 58.9062 36.8908 58.9062C14.8439 58.9062 14.5627 58.9062 13.7189 59.2188C11.9846 59.875 10.7502 61.1719 10.1877 62.9531C9.21894 66 10.7658 69.2031 13.7033 70.2969C14.5627 70.625 14.7971 70.625 28.0002 70.625C41.2346 70.625 41.4377 70.625 41.7502 70.3125C42.1721 69.8906 42.1721 69.0156 41.7502 68.5938C41.4377 68.2812 41.2346 68.2812 28.7971 68.2812C20.9846 68.2812 15.8439 68.2188 15.3283 68.125C14.8596 68.0312 14.2033 67.7656 13.8596 67.5312C13.0783 67 12.3752 65.6875 12.3752 64.7656C12.3752 63.8438 13.0783 62.5312 13.8596 62C14.2033 61.7656 14.8596 61.5 15.3283 61.4062C15.8596 61.3125 23.7502 61.25 37.2346 61.25H58.3127V64.7656V68.2812H51.6096H44.8908L44.5783 68.6875C44.1564 69.2188 44.1564 69.6875 44.5783 70.2188L44.8908 70.625H52.0471C56.1877 70.625 59.5627 70.6875 60.0471 70.7812C60.5158 70.875 61.1721 71.1406 61.5158 71.375C62.2971 71.9062 63.0002 73.2188 63.0002 74.1406C63.0002 75.0625 62.2971 76.375 61.5158 76.9062C61.1721 77.1562 60.5002 77.4219 60.0002 77.5C59.4064 77.6094 51.7189 77.6562 36.6408 77.6094C11.7346 77.5625 13.3908 77.625 10.8439 76.5312C9.28144 75.8438 8.04706 75.0156 6.84394 73.8438C5.23456 72.25 4.09394 70.3281 3.43769 68.0312L3.07831 66.7969V40V13.2031L3.43769 11.9688C3.79706 10.7188 4.60956 8.9375 5.23456 8.0625C7.39081 4.96875 10.9064 2.85938 14.4689 2.51562C16.4064 2.32812 59.0471 2.3125 60.0471 2.5Z" fill="#222222"/>
<path d="M31.5156 7.0156C30.6719 7.3906 28.8594 9.37497 27.5 11.4062C26.8906 12.3125 26.3438 13.0312 26.2969 13.0156C26.25 13 25.625 12.6406 24.9063 12.2187C22.8906 11 21.3906 10.4218 20.4219 10.5C19.375 10.5937 18.5156 11.0468 17.9063 11.8281C17.0781 12.9062 16.0156 16.6875 15.7344 19.5625L15.625 20.625L13.8906 20.5781C12.2813 20.5468 12.0781 20.5781 11.4844 20.9218C11.1094 21.1406 10.625 21.5781 10.3906 21.9218C10.0313 22.4531 9.93752 22.75 9.90627 23.75C9.71877 27.5468 11.3438 32.5625 13.8906 36.1093C14.6719 37.2187 16.8281 39.4687 17.9219 40.3593C20.4063 42.3437 24.0156 43.9687 27.4531 44.6406C29.5469 45.0468 36.3438 45.0468 38.5469 44.625C43.3906 43.7187 47.5625 41.3593 50.875 37.6562C54.0625 34.0781 56.0156 29.0781 56.0469 24.4375C56.0469 22.625 56.0313 22.5312 55.6094 21.9218C55.375 21.5781 54.8906 21.1406 54.5156 20.9218C53.9219 20.5781 53.7188 20.5468 52.1094 20.5781L50.3594 20.625L50.2813 19.875C50.0625 18.125 49.7031 16.2343 49.3281 14.9218C48.4063 11.6718 47.3906 10.5468 45.3594 10.5468C44.4688 10.5468 44.1406 10.6406 42.9688 11.2031C42.2344 11.5468 41.2344 12.0937 40.75 12.4062C40.2656 12.7187 39.8125 12.9843 39.7344 13.0156C39.6719 13.0312 39.1094 12.2968 38.4844 11.375C37.0313 9.18747 35.0313 7.10935 34.1719 6.8906C33.25 6.6406 32.2188 6.68747 31.5156 7.0156ZM33.875 9.71872C34.5938 10.3593 36.4063 12.6875 37.0469 13.7968L37.5156 14.625L36 16.2031L34.4688 17.7812L33.7344 17.6093C33.2031 17.5 32.7969 17.5 32.2656 17.6093L31.5313 17.7812L30 16.2187L28.4688 14.6406L28.9531 13.8125C29.5781 12.6875 31.4063 10.3593 32.125 9.71872C32.4375 9.4531 32.8281 9.21872 33 9.21872C33.1719 9.21872 33.5625 9.4531 33.875 9.71872ZM21.9531 13.5C24.2969 14.625 27.1094 16.7187 28.75 18.5937C29.7188 19.6875 29.7969 19.375 28 21.5156C27.3438 22.2812 26.5469 23.2968 26.2188 23.7656L25.6094 24.625L24.5781 23.9375C23.2344 23.0468 21.2969 22.125 19.6875 21.6093C18.9688 21.3906 18.3281 21.1406 18.25 21.0781C18.0469 20.9062 18.4219 18.0468 18.8594 16.3281C19.4688 13.9843 20 12.9687 20.6094 12.9687C20.7344 12.9687 21.3281 13.2031 21.9531 13.5ZM45.8125 13.125C46.4375 13.4531 47.6094 17.7343 47.7188 20.0468L47.7656 21.125L46.4063 21.5781C44.7031 22.125 42.7813 23.0468 41.4219 23.9375L40.3906 24.625L39.7813 23.7656C39.4531 23.2968 38.6563 22.2812 38 21.5156C36.2031 19.3906 36.2969 19.6718 37.0938 18.7343C38.5781 16.9531 41.2969 14.875 43.7813 13.625C45.1875 12.9218 45.3594 12.875 45.8125 13.125ZM33.5313 20.3281C34.1094 20.7812 36.6719 23.7968 37.75 25.2968C39.0781 27.1562 40.2344 29.3125 40.8125 31.0625C42.1563 35.0468 40.8906 38.875 37.4844 41.1093C36.1094 42 34.75 42.4062 33.0781 42.4218C30.6094 42.4218 28.6563 41.5937 27.0313 39.8593C25.8594 38.625 25.3281 37.6718 24.8906 36.0937C24.5 34.6875 24.1406 34.2968 23.3125 34.4375C22.7031 34.5312 22.2188 35.0156 22.2188 35.5312C22.2188 36.6406 23.2188 39.1562 24.1719 40.5C24.4688 40.9062 24.6719 41.25 24.625 41.25C24.3594 41.25 21.8281 39.9531 20.8125 39.2968C19.4063 38.3906 16.5938 35.625 15.6719 34.2656C13.7344 31.3593 12.375 27.2812 12.375 24.2812C12.375 23.1093 12.6563 22.9062 14.125 23.0468C16.875 23.2968 19.2031 23.9531 21.4688 25.0937C22.5313 25.625 24.25 26.7031 24.25 26.8281C24.25 26.8593 24.0313 27.3281 23.7656 27.8593C22.3594 30.625 22.375 32.1875 23.7969 32.1875C24.5938 32.1875 24.8125 31.9375 25.4063 30.4375C26.4063 27.8281 27.9531 25.4375 30.625 22.3281C31.9844 20.7343 32.7344 20 33 20C33.0625 20 33.2969 20.1406 33.5313 20.3281ZM53.3438 23.2343C53.7031 23.5468 53.7188 24.5312 53.3906 26.5156C52.9219 29.3906 51.5625 32.6406 49.8906 34.8437C48.8438 36.25 46.75 38.2187 45.2656 39.2187C44.2031 39.9375 41.6719 41.25 41.3594 41.25C41.2969 41.25 41.5 40.9218 41.7969 40.5C44.3594 36.9843 44.5469 32.4531 42.2813 27.9375C41.9844 27.3593 41.75 26.8593 41.75 26.8281C41.75 26.6875 43.5 25.6093 44.6563 25.0312C46.2031 24.25 47.9531 23.6718 49.6094 23.375C52.0469 22.9218 52.9688 22.8906 53.3438 23.2343Z" fill="#222222"/>
<path d="M20.2659 49.1406C19.5159 49.875 19.9065 50.9375 21.1409 51.5625C22.5003 52.2656 23.9847 52.0938 25.0472 51.1406C25.5472 50.6875 25.6565 50.4844 25.6565 50C25.6565 49.5313 25.5628 49.3281 25.2503 49.0781C24.7034 48.6406 24.2034 48.6719 23.5003 49.1406C23.1878 49.3594 22.8597 49.5313 22.7659 49.5313C22.6722 49.5313 22.3597 49.3594 22.0628 49.1406C21.3909 48.6406 20.7503 48.6406 20.2659 49.1406Z" fill="#222222"/>
<path d="M40.6563 49.0625C40.1407 49.5781 40.2345 50.4531 40.8751 51.0781C41.9532 52.125 43.7501 52.25 45.1095 51.3906C46.172 50.7187 46.422 49.8125 45.7345 49.1406C45.297 48.6875 44.4063 48.6094 44.0782 49C43.6407 49.5312 43.1563 49.5625 42.5313 49.1406C41.8438 48.6719 41.0938 48.625 40.6563 49.0625Z" fill="#222222"/>
<path d="M29.5941 50.4688C29.0316 51 29.1253 51.8438 29.8441 52.5312C30.8441 53.5 31.3285 53.6719 33.0003 53.6719C34.6722 53.6719 35.1566 53.5 36.1722 52.5312C36.641 52.0781 36.7503 51.8594 36.7503 51.375C36.7503 50.1406 35.5003 49.75 34.4847 50.6562C34.0316 51.0312 33.7347 51.1562 33.0941 51.2188C32.3441 51.2812 32.2347 51.2344 31.6097 50.7188C30.8285 50.0625 30.1253 49.9844 29.5941 50.4688Z" fill="#222222"/>
</svg>
