<svg width="1440" height="515" viewBox="0 0 1440 515" fill="none" xmlns="http://www.w3.org/2000/svg">
<g filter="url(#filter0_d_1351_8776)">
<rect width="1440" height="483" transform="translate(0 16)" fill="#ECFAD3"/>
<rect width="1440" height="483" transform="translate(0 16)" fill="white" fill-opacity="0.8"/>
<g opacity="0.05">
<path d="M502.463 121.524L504.711 138.517C504.736 138.631 504.805 138.733 504.906 138.805L520.52 148.5C520.716 148.633 520.872 148.811 520.972 149.015C521.072 149.219 521.113 149.442 521.091 149.665C521.069 149.887 520.985 150.1 520.846 150.285C520.708 150.469 520.52 150.618 520.3 150.718L503.122 157.75C503.059 157.774 503.001 157.81 502.955 157.856C502.908 157.902 502.874 157.957 502.853 158.017L498.48 175.187C498.41 175.41 498.276 175.613 498.091 175.774C497.907 175.934 497.678 176.048 497.429 176.102C497.181 176.156 496.921 176.149 496.676 176.082C496.431 176.015 496.21 175.89 496.036 175.72L482.768 161.699C482.727 161.647 482.671 161.605 482.607 161.578C482.543 161.551 482.472 161.539 482.402 161.544L462.536 163.052C462.272 163.068 462.008 163.018 461.773 162.906C461.538 162.794 461.342 162.626 461.205 162.42C461.069 162.213 460.998 161.977 461 161.736C461.002 161.496 461.077 161.26 461.217 161.056L471.357 146.17C471.387 146.115 471.403 146.054 471.403 145.993C471.403 145.931 471.387 145.871 471.357 145.815L464.565 129.688C464.46 129.466 464.426 129.223 464.466 128.984C464.506 128.746 464.619 128.523 464.793 128.34C464.966 128.158 465.192 128.023 465.445 127.951C465.699 127.88 465.969 127.874 466.226 127.935L484.943 131.263C484.997 131.285 485.055 131.296 485.114 131.296C485.173 131.296 485.231 131.285 485.285 131.263L500.068 120.747C500.261 120.588 500.499 120.48 500.755 120.433C501.011 120.387 501.276 120.404 501.522 120.484C501.767 120.564 501.985 120.703 502.15 120.886C502.316 121.069 502.424 121.289 502.463 121.524Z" fill="#FFAF45"/>
<path d="M1359.66 101.102L1361.88 117.74C1361.89 117.797 1361.9 117.852 1361.93 117.902C1361.96 117.952 1362 117.996 1362.05 118.029L1377.37 127.524C1377.58 127.649 1377.75 127.825 1377.86 128.03C1377.97 128.236 1378.02 128.465 1377.99 128.692C1377.97 128.92 1377.88 129.138 1377.73 129.323C1377.59 129.507 1377.39 129.652 1377.15 129.742L1360.2 136.553C1360.14 136.572 1360.09 136.604 1360.05 136.647C1360.01 136.69 1359.99 136.742 1359.98 136.797L1355.68 153.634C1355.62 153.866 1355.49 154.078 1355.3 154.246C1355.12 154.414 1354.89 154.531 1354.63 154.585C1354.38 154.638 1354.11 154.625 1353.86 154.547C1353.62 154.469 1353.4 154.33 1353.23 154.144L1340.38 140.413C1340.34 140.361 1340.28 140.321 1340.22 140.297C1340.15 140.274 1340.08 140.268 1340.01 140.279L1320.47 141.721C1320.21 141.741 1319.95 141.694 1319.72 141.588C1319.49 141.482 1319.3 141.319 1319.16 141.119C1319.03 140.919 1318.96 140.689 1318.96 140.454C1318.96 140.22 1319.03 139.99 1319.17 139.791L1329.09 125.15C1329.12 125.099 1329.14 125.042 1329.14 124.984C1329.14 124.926 1329.12 124.868 1329.09 124.817L1322.45 109C1322.34 108.785 1322.3 108.546 1322.34 108.313C1322.38 108.079 1322.48 107.86 1322.65 107.68C1322.82 107.501 1323.05 107.369 1323.29 107.301C1323.54 107.232 1323.81 107.229 1324.06 107.292L1342.38 110.553C1342.44 110.575 1342.5 110.586 1342.56 110.586C1342.61 110.586 1342.67 110.575 1342.73 110.553L1357.22 100.215C1357.41 100.017 1357.66 99.8766 1357.94 99.8147C1358.22 99.7527 1358.52 99.7719 1358.79 99.8695C1359.05 99.9671 1359.28 100.138 1359.44 100.359C1359.6 100.58 1359.67 100.84 1359.66 101.102Z" fill="#FFAF45"/>
<path d="M272.89 54.1687L281.565 57.8734C281.59 57.8897 281.62 57.8984 281.65 57.8984C281.681 57.8984 281.711 57.8897 281.736 57.8734L290.557 54.3684C290.678 54.3131 290.814 54.2895 290.949 54.3002C291.085 54.311 291.214 54.3557 291.323 54.4293C291.432 54.5029 291.516 54.6026 291.566 54.7172C291.617 54.8318 291.631 54.9568 291.607 55.0782L290.215 63.7078C290.19 63.7649 290.19 63.8282 290.215 63.8853L297.325 70.2521C297.422 70.3395 297.49 70.4497 297.522 70.5703C297.553 70.6909 297.547 70.8172 297.504 70.9348C297.461 71.0524 297.382 71.1568 297.277 71.236C297.172 71.3153 297.045 71.3664 296.91 71.3835L286.72 72.7145C286.72 72.7145 286.72 72.7145 286.549 72.7145L281.907 80.8783C281.847 80.9908 281.753 81.0857 281.636 81.1521C281.52 81.2185 281.385 81.2537 281.247 81.2537C281.109 81.2537 280.974 81.2185 280.858 81.1521C280.741 81.0857 280.647 80.9908 280.587 80.8783L276.238 72.892C276.19 72.8784 276.139 72.8784 276.091 72.892L266.611 71.206C266.477 71.1856 266.353 71.1321 266.251 71.0514C266.149 70.9708 266.074 70.8661 266.034 70.7491C265.993 70.632 265.989 70.507 266.022 70.388C266.055 70.269 266.123 70.1606 266.22 70.0746L272.89 63.6413C272.901 63.59 272.901 63.5373 272.89 63.486L271.889 54.8564C271.882 54.744 271.906 54.6318 271.958 54.5297C272.01 54.4276 272.089 54.3386 272.188 54.2707C272.287 54.2028 272.403 54.158 272.525 54.1402C272.648 54.1224 272.773 54.1322 272.89 54.1687Z" fill="#FFAF45"/>
<path d="M93.6999 102.01C95.673 107.036 95.9605 112.479 94.5261 117.653C93.0917 122.826 89.9998 127.498 85.6414 131.076C81.283 134.654 75.8537 136.979 70.0401 137.756C64.2266 138.533 58.2897 137.728 52.9803 135.442C47.671 133.155 43.2274 129.491 40.2116 124.913C37.1958 120.334 35.7431 115.046 36.0373 109.718C36.3314 104.389 38.3592 99.2598 41.8642 94.9777C45.3692 90.6956 50.194 87.4533 55.7286 85.6606C59.4042 84.4701 63.3022 83.9486 67.1999 84.126C71.0975 84.3033 74.9185 85.1761 78.4446 86.6943C81.9707 88.2126 85.1328 90.3466 87.7503 92.9746C90.3679 95.6025 92.3896 98.6729 93.6999 102.01Z" fill="#7C3E71"/>
<path d="M73.7358 97.263C70.0462 96.6418 66.0145 100.812 63.962 106.891C58.1954 103.297 52.1845 102.454 49.7655 104.983C47.0044 107.933 49.7655 114.433 56.3384 119.247C59.8603 121.706 63.9158 123.46 68.238 124.394C71.1702 125.037 71.8299 124.394 73.0028 122.841C75.7419 119.689 77.6478 116.008 78.5739 112.082C80.211 104.606 78.0119 97.9507 73.7358 97.263Z" fill="#DD756D"/>
<path d="M971.035 115.327C970.899 115.36 970.756 115.36 970.62 115.327L961.505 111.046C961.399 110.996 961.305 110.928 961.228 110.846C961.15 110.763 961.092 110.668 961.056 110.565C961.019 110.462 961.006 110.353 961.016 110.245C961.026 110.137 961.059 110.032 961.114 109.936C961.167 109.838 961.24 109.75 961.33 109.678C961.419 109.605 961.524 109.55 961.638 109.515C961.752 109.48 961.872 109.466 961.992 109.473C962.112 109.481 962.229 109.51 962.336 109.559L971.572 113.752C971.679 113.801 971.773 113.869 971.85 113.952C971.927 114.034 971.986 114.13 972.022 114.233C972.058 114.336 972.072 114.444 972.062 114.552C972.052 114.66 972.018 114.765 971.963 114.861C971.889 115.022 971.757 115.156 971.588 115.241C971.42 115.325 971.225 115.356 971.035 115.327Z" fill="#DEF9AF"/>
<path d="M967.223 124.312C967.086 124.335 966.945 124.335 966.808 124.312L955.275 119.032C955.148 118.994 955.031 118.932 954.933 118.849C954.835 118.766 954.758 118.665 954.707 118.553C954.656 118.441 954.632 118.32 954.637 118.199C954.643 118.077 954.677 117.958 954.737 117.85C954.798 117.742 954.883 117.647 954.988 117.571C955.093 117.496 955.214 117.442 955.344 117.413C955.474 117.384 955.609 117.381 955.741 117.404C955.872 117.427 955.997 117.475 956.105 117.546L967.638 122.826C967.813 122.916 967.951 123.055 968.031 123.223C968.112 123.39 968.13 123.577 968.083 123.755C968.036 123.933 967.927 124.092 967.772 124.208C967.617 124.325 967.424 124.392 967.223 124.401V124.312Z" fill="#DEF9AF"/>
<path d="M956.119 90.6225C956.119 90.6225 962.917 71.9845 969.397 73.26C975.878 74.5354 969.103 93.6877 969.103 93.6877L956.119 90.6225Z" fill="#7C3E71"/>
<path d="M948.121 80.8097C948.121 80.8097 930.425 72.9513 924.874 75.4816C921.18 77.1479 925.463 82.7228 925.463 82.7228C925.463 82.7228 917.691 80.892 917.442 84.6566C917.307 85.6546 917.443 86.6673 917.838 87.6066C918.233 88.546 918.875 89.3835 919.707 90.0464C919.707 90.0464 912.91 89.8406 915.652 96.0122C918.144 101.649 943.748 115.905 951.203 118.044C958.658 120.184 969.33 94.531 969.33 92.1858C969.33 89.8406 948.121 80.8097 948.121 80.8097Z" fill="#7C3E71"/>
<path d="M949.548 122.077L926.482 112.388C925.58 112.011 924.88 111.325 924.536 110.48C924.192 109.635 924.232 108.701 924.646 107.882C925.061 107.064 925.817 106.429 926.747 106.116C927.678 105.804 928.707 105.84 929.609 106.216L952.675 115.885C953.577 116.261 954.276 116.947 954.62 117.792C954.965 118.637 954.925 119.572 954.51 120.39C954.096 121.208 953.34 121.844 952.409 122.156C951.479 122.469 950.45 122.433 949.548 122.056V122.077Z" fill="#DD756D"/>
<path d="M961.852 88.2157C961.718 88.2431 961.578 88.2431 961.444 88.2157L956.618 85.8088C956.518 85.7614 956.43 85.6963 956.359 85.6174C956.288 85.5386 956.235 85.4475 956.203 85.3496C956.171 85.2517 956.162 85.1491 956.174 85.0477C956.187 84.9464 956.222 84.8484 956.278 84.7597C956.388 84.5813 956.57 84.4491 956.786 84.3914C957.002 84.3337 957.235 84.3551 957.433 84.4511L962.26 86.858C962.423 86.9427 962.552 87.0738 962.625 87.2311C962.699 87.3885 962.714 87.5634 962.668 87.7291C962.622 87.8949 962.517 88.0423 962.369 88.1487C962.222 88.2552 962.04 88.3148 961.852 88.3186V88.2157Z" fill="#DEF9AF"/>
<path d="M273.771 240.179C273.608 240.177 273.448 240.137 273.307 240.064C273.166 239.99 273.048 239.884 272.964 239.757C272.904 239.663 272.864 239.559 272.849 239.45C272.833 239.342 272.841 239.232 272.873 239.126C272.905 239.021 272.96 238.923 273.034 238.837C273.109 238.751 273.201 238.679 273.306 238.626L283.691 233.147C283.795 233.093 283.91 233.058 284.029 233.044C284.148 233.031 284.269 233.039 284.385 233.068C284.501 233.096 284.609 233.146 284.704 233.213C284.799 233.279 284.878 233.363 284.937 233.457C284.997 233.552 285.035 233.656 285.05 233.764C285.065 233.872 285.056 233.982 285.024 234.087C284.993 234.192 284.938 234.291 284.865 234.377C284.791 234.463 284.699 234.535 284.595 234.589L274.235 240.068C274.091 240.136 273.933 240.174 273.771 240.179Z" fill="#DEF9AF"/>
<path d="M278.901 250.339C278.744 250.34 278.589 250.304 278.452 250.234C278.315 250.164 278.2 250.062 278.119 249.94C278.002 249.745 277.972 249.516 278.036 249.301C278.1 249.086 278.252 248.902 278.461 248.786L291.412 241.909C291.627 241.803 291.879 241.776 292.116 241.834C292.352 241.891 292.555 242.03 292.682 242.22C292.743 242.314 292.782 242.419 292.798 242.527C292.814 242.635 292.805 242.745 292.773 242.851C292.742 242.956 292.687 243.055 292.612 243.141C292.538 243.227 292.446 243.298 292.34 243.351L279.366 250.228C279.227 250.309 279.065 250.347 278.901 250.339Z" fill="#DEF9AF"/>
<path d="M238.976 243.218C238.822 243.218 238.671 243.18 238.538 243.11C238.405 243.04 238.295 242.94 238.218 242.819C238.089 242.636 238.045 242.415 238.096 242.203C238.146 241.991 238.287 241.806 238.487 241.688L244.327 238.316C244.427 238.254 244.54 238.212 244.659 238.191C244.778 238.17 244.9 238.171 245.019 238.193C245.138 238.216 245.25 238.26 245.349 238.323C245.449 238.386 245.533 238.466 245.597 238.56C245.728 238.746 245.772 238.971 245.722 239.186C245.672 239.402 245.531 239.591 245.329 239.713L239.464 243.063C239.322 243.158 239.152 243.212 238.976 243.218Z" fill="#DEF9AF"/>
<path d="M1162.94 130.457C1162.82 130.456 1162.69 130.433 1162.57 130.387C1162.45 130.341 1162.35 130.274 1162.26 130.191C1162.09 130.033 1162 129.822 1162 129.603C1162 129.383 1162.09 129.172 1162.26 129.015C1163.81 127.714 1165.54 126.589 1167.39 125.665C1167.5 125.615 1167.61 125.585 1167.73 125.576C1167.85 125.567 1167.97 125.579 1168.08 125.612C1168.2 125.645 1168.3 125.698 1168.39 125.768C1168.48 125.838 1168.56 125.924 1168.61 126.02C1168.72 126.217 1168.75 126.447 1168.67 126.659C1168.6 126.871 1168.44 127.048 1168.22 127.151C1166.5 128.013 1164.91 129.056 1163.46 130.257C1163.31 130.37 1163.13 130.44 1162.94 130.457Z" fill="#C3C6B6"/>
<path d="M1146.48 160.65H1146.35C1146.11 160.617 1145.89 160.498 1145.75 160.319C1145.6 160.14 1145.54 159.916 1145.57 159.696C1146.02 156.818 1146.69 153.972 1147.58 151.177C1147.67 150.997 1147.83 150.853 1148.03 150.771C1148.24 150.69 1148.46 150.675 1148.67 150.731C1148.88 150.787 1149.07 150.91 1149.19 151.077C1149.31 151.244 1149.36 151.444 1149.33 151.643C1148.48 154.363 1147.83 157.136 1147.4 159.94C1147.37 160.139 1147.26 160.321 1147.09 160.451C1146.92 160.582 1146.7 160.652 1146.48 160.65ZM1151.78 144.211C1151.65 144.234 1151.52 144.234 1151.39 144.211C1151.28 144.166 1151.18 144.101 1151.1 144.02C1151.01 143.939 1150.95 143.845 1150.91 143.741C1150.87 143.638 1150.85 143.528 1150.86 143.418C1150.86 143.308 1150.89 143.201 1150.95 143.102C1152.31 140.46 1153.95 137.942 1155.83 135.582C1155.99 135.436 1156.2 135.346 1156.42 135.328C1156.64 135.31 1156.86 135.366 1157.04 135.484C1157.23 135.603 1157.35 135.776 1157.41 135.974C1157.46 136.171 1157.43 136.378 1157.33 136.558C1155.49 138.828 1153.9 141.258 1152.58 143.812C1152.5 143.936 1152.38 144.038 1152.24 144.108C1152.1 144.178 1151.94 144.214 1151.78 144.211Z" fill="#C3C6B6"/>
<path d="M1145.74 174.803C1145.51 174.797 1145.28 174.709 1145.11 174.556C1144.94 174.403 1144.85 174.198 1144.84 173.982C1144.84 172.074 1144.84 170.188 1144.84 168.392C1144.86 168.173 1144.97 167.97 1145.15 167.82C1145.32 167.669 1145.55 167.58 1145.79 167.571C1146.03 167.582 1146.26 167.679 1146.43 167.841C1146.59 168.002 1146.68 168.216 1146.67 168.436C1146.67 170.188 1146.67 172.052 1146.67 173.938C1146.67 174.045 1146.65 174.153 1146.61 174.253C1146.57 174.354 1146.51 174.446 1146.42 174.525C1146.34 174.603 1146.24 174.666 1146.14 174.71C1146.03 174.754 1145.91 174.778 1145.79 174.781L1145.74 174.803Z" fill="#C3C6B6"/>
<path d="M435.454 126.73C435.241 126.74 435.032 126.676 434.867 126.553C433.307 125.41 431.676 124.351 429.981 123.38C429.878 123.325 429.788 123.252 429.717 123.165C429.645 123.078 429.593 122.98 429.564 122.874C429.534 122.769 429.528 122.66 429.545 122.553C429.562 122.445 429.602 122.342 429.663 122.249C429.724 122.156 429.804 122.074 429.9 122.009C429.996 121.945 430.104 121.897 430.22 121.871C430.336 121.844 430.456 121.838 430.574 121.853C430.693 121.869 430.806 121.905 430.909 121.961C432.668 122.967 434.357 124.071 435.967 125.266C436.06 125.333 436.138 125.416 436.195 125.51C436.253 125.605 436.29 125.708 436.304 125.815C436.317 125.922 436.307 126.031 436.275 126.135C436.242 126.238 436.187 126.335 436.114 126.42C436.036 126.513 435.937 126.59 435.823 126.643C435.709 126.697 435.582 126.727 435.454 126.73Z" fill="#C3C6B6"/>
<path d="M473.156 195.7C472.928 195.696 472.708 195.618 472.538 195.48C472.367 195.341 472.257 195.152 472.228 194.946C471.886 191.663 471.397 188.291 470.786 185.229C470.762 185.121 470.761 185.01 470.785 184.902C470.809 184.794 470.856 184.691 470.925 184.6C470.993 184.509 471.081 184.431 471.183 184.371C471.285 184.312 471.4 184.272 471.519 184.253C471.638 184.234 471.76 184.237 471.878 184.261C471.995 184.286 472.107 184.332 472.204 184.396C472.302 184.46 472.385 184.541 472.448 184.635C472.511 184.728 472.552 184.832 472.57 184.941C473.205 188.135 473.694 191.441 474.061 194.768C474.074 194.878 474.063 194.989 474.028 195.095C473.993 195.2 473.935 195.298 473.858 195.383C473.78 195.468 473.685 195.538 473.577 195.589C473.469 195.639 473.351 195.67 473.23 195.678L473.156 195.7ZM469.32 176.267C469.119 176.264 468.925 176.201 468.766 176.089C468.608 175.977 468.493 175.822 468.441 175.646C467.512 172.473 466.413 169.323 465.215 166.306C465.173 166.204 465.154 166.096 465.159 165.987C465.163 165.878 465.191 165.772 465.241 165.673C465.291 165.574 465.362 165.485 465.45 165.411C465.537 165.337 465.64 165.279 465.753 165.241C465.865 165.204 465.984 165.186 466.104 165.19C466.224 165.194 466.342 165.22 466.451 165.265C466.559 165.31 466.657 165.375 466.739 165.454C466.82 165.534 466.884 165.627 466.926 165.729C468.172 168.813 469.369 171.985 470.224 175.224C470.284 175.439 470.248 175.666 470.125 175.857C470.001 176.048 469.8 176.187 469.565 176.245L469.32 176.267ZM461.843 157.743C461.671 157.741 461.503 157.696 461.357 157.614C461.211 157.532 461.092 157.416 461.012 157.277C459.472 154.327 457.759 151.454 455.881 148.67C455.819 148.577 455.777 148.473 455.758 148.365C455.74 148.257 455.745 148.147 455.773 148.041C455.802 147.935 455.853 147.835 455.924 147.747C455.995 147.659 456.084 147.584 456.187 147.527C456.289 147.471 456.403 147.433 456.522 147.416C456.641 147.399 456.762 147.404 456.879 147.429C456.996 147.455 457.106 147.502 457.203 147.566C457.3 147.63 457.382 147.712 457.445 147.805C459.326 150.6 461.086 153.55 462.674 156.545C462.727 156.644 462.758 156.751 462.765 156.861C462.772 156.971 462.754 157.081 462.713 157.184C462.672 157.288 462.608 157.383 462.526 157.464C462.444 157.544 462.345 157.609 462.234 157.654C462.116 157.718 461.98 157.749 461.843 157.743ZM450.53 141.016C450.39 141.02 450.25 140.994 450.123 140.94C449.996 140.886 449.884 140.806 449.797 140.706C447.616 138.11 445.275 135.629 442.784 133.274C442.616 133.117 442.521 132.906 442.521 132.686C442.521 132.467 442.616 132.256 442.784 132.098C442.869 132.02 442.969 131.958 443.08 131.915C443.192 131.872 443.311 131.85 443.432 131.85C443.552 131.85 443.672 131.872 443.783 131.915C443.894 131.958 443.995 132.02 444.079 132.098C446.618 134.492 449 137.018 451.214 139.663C451.291 139.75 451.347 139.849 451.38 139.956C451.413 140.063 451.421 140.174 451.405 140.284C451.389 140.394 451.349 140.5 451.287 140.595C451.224 140.691 451.142 140.773 451.043 140.839C450.899 140.949 450.718 141.012 450.53 141.016Z" fill="#C3C6B6"/>
<path d="M473.841 211.14C473.72 211.14 473.6 211.118 473.489 211.076C473.377 211.033 473.277 210.971 473.192 210.892C473.108 210.813 473.042 210.72 472.998 210.618C472.954 210.516 472.933 210.407 472.936 210.297C472.936 208.434 472.936 206.592 472.936 204.796C472.936 204.574 473.03 204.36 473.198 204.199C473.366 204.038 473.596 203.942 473.841 203.93C473.961 203.927 474.081 203.946 474.194 203.986C474.306 204.026 474.409 204.086 474.496 204.163C474.582 204.239 474.651 204.331 474.698 204.432C474.745 204.533 474.769 204.642 474.769 204.751C474.769 206.57 474.769 208.434 474.769 210.319C474.769 210.429 474.745 210.538 474.698 210.639C474.651 210.74 474.582 210.831 474.496 210.908C474.409 210.984 474.306 211.044 474.194 211.084C474.081 211.124 473.961 211.143 473.841 211.14Z" fill="#C3C6B6"/>
<path d="M245.069 348.606C245.069 348.606 253.87 355.39 260.534 359.469C265.72 362.615 272.084 366.253 271.125 367.501C270.167 368.749 236.476 367.145 236.476 367.145C236.476 367.145 236.36 359.092 233.011 359.532C229.662 359.972 231.267 367.229 231.267 367.229L221.738 366.914C221.738 366.914 221.519 358.903 222.304 355.767C223.151 352.851 224.176 349.981 225.377 347.169L245.069 348.606Z" fill="#7C3E71"/>
<path d="M241.881 346.194L254.043 355.17C251.629 355.83 236.464 354.499 232.537 353.072C228.61 351.646 225.353 347.179 225.353 347.179L234.512 344.034L241.881 346.194Z" fill="#FF8366"/>
<path d="M210.316 195.646C210.316 195.646 205.476 191.986 200.475 195.646C195.474 199.306 199.182 205.146 199.182 205.146C199.182 205.146 194.562 204.926 193.014 208.45C191.467 211.973 194.862 214.877 194.862 214.877C193.299 215.122 191.86 215.808 190.75 216.838C189.641 217.867 188.918 219.189 188.683 220.613C187.736 226.548 195.855 231.099 195.855 231.099L217.996 223.235L216.068 201.141L210.316 195.646Z" fill="black"/>
<path d="M207.763 220.246C205.365 220.535 203.029 221.15 200.833 222.071C198.211 223.381 194.815 231.508 194.815 231.508L207.116 245.381L219.174 239.855L207.763 220.246Z" fill="#7C3E71"/>
<path d="M272.107 230.575C272.107 230.575 260.742 247.353 246.432 249.261C232.121 251.169 218.4 232.567 218.4 232.567L229.557 218.935C229.557 218.935 236.891 225.73 246.651 227.492C252.322 228.541 261.25 219.103 261.25 219.103L272.107 230.575Z" fill="#7C3E71"/>
<path d="M245.785 231.77C245.547 231.764 245.317 231.69 245.126 231.561C245.031 231.507 244.951 231.433 244.893 231.345C244.834 231.258 244.8 231.159 244.791 231.057C244.641 229.872 247.332 227.251 247.644 226.957C247.684 226.917 247.737 226.89 247.796 226.88C247.855 226.871 247.915 226.879 247.968 226.905C248.023 226.925 248.07 226.963 248.099 227.01C248.128 227.058 248.139 227.113 248.129 227.167C248.129 227.565 247.575 231.11 246.201 231.686C246.07 231.741 245.928 231.77 245.785 231.77ZM247.436 227.932C246.42 228.981 245.277 230.407 245.357 230.994C245.356 231.023 245.363 231.052 245.377 231.077C245.391 231.103 245.412 231.125 245.438 231.141C245.51 231.197 245.598 231.234 245.692 231.247C245.786 231.26 245.882 231.249 245.97 231.215C246.616 230.931 247.159 229.296 247.436 227.932Z" fill="white"/>
<path d="M226.289 205.859C226.289 205.859 230.482 199.473 220.814 195.185C211.147 190.896 204.783 197.89 204.957 201.476C204.944 202.437 205.162 203.388 205.595 204.264C206.028 205.14 206.665 205.921 207.463 206.552C207.463 206.552 207.116 214.301 215.236 213.304C217.613 212.991 219.868 212.147 221.797 210.848C223.726 209.548 225.27 207.834 226.289 205.859Z" fill="black"/>
<path d="M230.285 297.591C230.285 297.591 233.901 308.497 225.446 322.349C215.744 338.224 209.022 346.246 209.022 346.246L192.853 342.104C192.853 342.104 207.498 309.723 207.752 296.49C208.006 283.257 230.285 297.591 230.285 297.591Z" fill="#FF8366"/>
<path d="M246.351 292.348C246.694 302.366 246.219 312.394 244.93 322.349C242.805 338.078 241.661 347.169 241.661 347.169H225.353C225.353 347.169 226.785 313.079 224.198 300.055C221.611 287.032 246.351 292.348 246.351 292.348Z" fill="#FF8366"/>
<path d="M220.537 300.317C222.108 300.391 223.736 300.443 225.434 300.454C233.008 300.504 240.501 299.036 247.379 296.155C246.455 270.149 234.004 246.619 234.004 246.619L226.878 248.066L225.619 248.317L220.537 300.317Z" fill="#A27A92"/>
<path d="M201.156 274.69C203.004 290.419 204.737 295.829 204.737 295.829C204.737 295.829 204.39 296.721 203.813 298.241C209.309 299.383 214.905 300.085 220.537 300.338C222.108 300.412 223.736 300.464 225.434 300.475C227.844 300.493 230.252 300.356 232.641 300.066C233.542 297.266 234.131 295.337 234.258 294.823C234.951 291.95 229.788 248.129 229.788 248.129H226.901L207.116 250.006C207.116 250.006 199.32 258.982 201.156 274.69Z" fill="#A27A92"/>
<path d="M228.402 300.653C228.325 300.654 228.251 300.627 228.194 300.58C228.141 300.529 228.111 300.461 228.111 300.391C228.111 300.32 228.141 300.253 228.194 300.202C229.188 299.342 231.567 296.784 230.666 295.378C230.57 295.207 230.433 295.057 230.265 294.939C230.098 294.821 229.903 294.738 229.696 294.697C228.704 294.668 227.73 294.937 226.924 295.462C226.876 295.49 226.82 295.505 226.762 295.505C226.705 295.505 226.649 295.49 226.601 295.462C226.553 295.436 226.515 295.396 226.492 295.349C226.469 295.303 226.463 295.25 226.474 295.2C226.474 295.2 227.097 291.75 225.319 289.957C224.852 289.534 224.284 289.215 223.659 289.024C223.034 288.833 222.368 288.776 221.715 288.856C220.947 288.855 220.188 289.003 219.489 289.291C218.79 289.578 218.166 289.999 217.661 290.523C216.763 291.693 216.379 293.126 216.587 294.54C216.593 294.582 216.588 294.625 216.572 294.665C216.556 294.706 216.529 294.742 216.495 294.77C216.46 294.801 216.417 294.823 216.371 294.834C216.324 294.845 216.275 294.845 216.229 294.833C216.229 294.833 212.764 294.131 212.175 295.882C212.012 296.492 211.993 297.127 212.118 297.745C212.244 298.363 212.511 298.95 212.903 299.468C212.932 299.495 212.954 299.527 212.969 299.563C212.983 299.598 212.989 299.636 212.985 299.674C212.982 299.712 212.97 299.748 212.949 299.781C212.929 299.814 212.901 299.843 212.867 299.865C212.833 299.887 212.795 299.902 212.754 299.91C212.713 299.917 212.671 299.916 212.63 299.908C212.59 299.899 212.552 299.882 212.519 299.859C212.486 299.835 212.46 299.806 212.441 299.772C211.988 299.192 211.68 298.53 211.538 297.831C211.397 297.131 211.425 296.413 211.62 295.725C212.256 293.889 214.935 294.089 215.963 294.236C215.79 292.784 216.2 291.324 217.118 290.125C217.673 289.543 218.359 289.076 219.131 288.755C219.902 288.435 220.74 288.269 221.588 288.269C222.33 288.171 223.087 288.235 223.796 288.455C224.505 288.676 225.146 289.047 225.665 289.538C227.201 291.079 227.155 293.575 227.051 294.676C227.855 294.216 228.809 294.019 229.754 294.12C230.039 294.177 230.307 294.29 230.538 294.451C230.77 294.612 230.959 294.818 231.093 295.053C232.41 297.151 228.68 300.38 228.529 300.517C228.505 300.574 228.46 300.622 228.402 300.653Z" fill="#3E527C"/>
<path d="M234.385 295.504C234.34 295.506 234.295 295.497 234.255 295.479C234.214 295.461 234.18 295.433 234.154 295.399C234.131 295.372 234.115 295.341 234.105 295.307C234.096 295.274 234.094 295.239 234.099 295.205C234.105 295.171 234.117 295.138 234.137 295.109C234.156 295.079 234.182 295.053 234.212 295.032C234.212 295.032 236.949 293.176 237.076 291.278C237.203 289.38 234.558 287.808 234.535 287.797C234.491 287.772 234.456 287.736 234.434 287.693C234.411 287.65 234.402 287.603 234.408 287.556C234.41 287.508 234.427 287.461 234.458 287.422C234.489 287.382 234.532 287.352 234.582 287.336C236.74 286.447 238.463 284.868 239.421 282.9C240.668 279.891 237.989 276.608 237.966 276.546C237.913 276.497 237.883 276.431 237.883 276.362C237.883 276.293 237.913 276.228 237.966 276.179C238.027 276.137 238.104 276.119 238.18 276.129C238.256 276.139 238.324 276.175 238.37 276.231C238.485 276.378 241.257 279.796 239.906 283.089C238.986 285.064 237.313 286.672 235.194 287.619C236.002 288.196 237.712 289.611 237.596 291.31C237.457 293.459 234.616 295.378 234.501 295.452C234.468 295.478 234.428 295.496 234.385 295.504Z" fill="#3E527C"/>
<path d="M206.411 286.151C205.012 286.029 203.687 285.525 202.611 284.704C202.563 284.657 202.535 284.595 202.533 284.531C202.53 284.467 202.555 284.404 202.6 284.355C202.646 284.305 202.71 284.273 202.78 284.264C202.85 284.255 202.922 284.27 202.981 284.305C202.981 284.305 205.718 286.35 207.601 285.354C207.75 285.279 207.879 285.176 207.979 285.051C208.079 284.926 208.147 284.782 208.178 284.63C208.548 283.204 206.781 280.782 206.769 280.75C206.752 280.716 206.744 280.678 206.744 280.64C206.744 280.602 206.752 280.565 206.769 280.53C206.781 280.493 206.802 280.459 206.83 280.43C206.857 280.401 206.892 280.378 206.931 280.362C208.339 279.761 209.52 278.795 210.325 277.586C211.131 276.377 211.525 274.979 211.459 273.568C211.504 272.912 211.402 272.256 211.158 271.638C210.915 271.02 210.535 270.454 210.042 269.974C209.549 269.494 208.953 269.11 208.291 268.846C207.629 268.583 206.915 268.444 206.192 268.44C206.139 268.436 206.088 268.419 206.045 268.392C206.001 268.364 205.967 268.326 205.944 268.283C205.922 268.239 205.913 268.191 205.918 268.143C205.923 268.095 205.942 268.049 205.972 268.01C205.972 268.01 209.114 264.434 207.462 261.299C207.313 260.955 207.08 260.647 206.779 260.398C206.479 260.149 206.12 259.966 205.73 259.862C204.466 259.761 203.208 260.098 202.207 260.806C202.146 260.848 202.069 260.866 201.993 260.856C201.917 260.846 201.849 260.809 201.803 260.754C201.757 260.698 201.737 260.628 201.748 260.559C201.759 260.49 201.799 260.428 201.861 260.387C202.995 259.583 204.426 259.208 205.857 259.338C206.332 259.458 206.771 259.675 207.14 259.973C207.508 260.271 207.797 260.642 207.982 261.058C209.483 263.899 207.532 266.898 206.735 267.947C208.25 268.073 209.653 268.73 210.643 269.78C211.633 270.829 212.133 272.188 212.036 273.568C212.089 275.04 211.683 276.495 210.866 277.768C210.049 279.04 208.853 280.078 207.416 280.761C207.878 281.453 209.079 283.424 208.733 284.788C208.683 285.008 208.58 285.216 208.433 285.397C208.285 285.578 208.096 285.728 207.878 285.836C207.428 286.056 206.922 286.165 206.411 286.151Z" fill="#3E527C"/>
<path d="M222.973 281.852C222.731 281.852 222.491 281.805 222.269 281.715C220.352 280.929 221.114 278.024 221.46 277.028C219.987 276.936 218.602 276.359 217.564 275.405C216.527 274.451 215.908 273.186 215.824 271.848C215.707 271.231 215.736 270.599 215.909 269.993C216.083 269.387 216.396 268.822 216.829 268.335C218.261 267.018 220.158 266.201 222.188 266.028C221.957 265.2 221.449 262.882 222.419 261.624C222.618 261.363 222.881 261.149 223.188 260.998C223.495 260.847 223.837 260.763 224.186 260.754C227.651 260.502 229.834 264.948 229.961 265.084C229.978 265.116 229.988 265.15 229.989 265.185C229.991 265.22 229.984 265.255 229.97 265.288C229.956 265.32 229.935 265.35 229.907 265.374C229.88 265.399 229.847 265.418 229.811 265.431C229.776 265.444 229.738 265.452 229.7 265.453C229.662 265.453 229.625 265.447 229.589 265.434C229.554 265.422 229.521 265.403 229.494 265.379C229.467 265.355 229.445 265.326 229.43 265.294C229.43 265.294 227.443 261.268 224.475 261.268H224.267C224.004 261.272 223.746 261.332 223.514 261.443C223.281 261.554 223.08 261.713 222.927 261.907C221.911 263.239 222.858 266.102 222.927 266.175C222.961 266.249 222.961 266.332 222.927 266.406C222.901 266.436 222.868 266.462 222.83 266.48C222.792 266.498 222.75 266.508 222.708 266.511C222.708 266.511 219.104 266.752 217.395 268.66C217.011 269.098 216.735 269.605 216.586 270.148C216.436 270.69 216.417 271.256 216.529 271.806C217.222 276.619 221.784 276.567 221.969 276.556C222.016 276.551 222.064 276.559 222.106 276.577C222.149 276.596 222.186 276.625 222.211 276.661C222.233 276.698 222.245 276.739 222.245 276.782C222.245 276.824 222.233 276.865 222.211 276.902C222.211 276.902 220.802 280.53 222.604 281.264C224.105 281.873 226.173 279.241 226.843 278.171C226.861 278.141 226.885 278.114 226.915 278.092C226.944 278.07 226.978 278.054 227.015 278.045C227.051 278.035 227.09 278.032 227.128 278.035C227.165 278.039 227.202 278.05 227.235 278.066C227.301 278.101 227.349 278.158 227.368 278.225C227.387 278.292 227.377 278.363 227.339 278.423C227.154 278.549 225.052 281.852 222.973 281.852Z" fill="#3E527C"/>
<path d="M214.37 212.099L214.624 218.327C214.624 218.327 215.929 220.068 219.96 220.236C222.963 220.351 223.991 219.701 223.991 219.701L223.436 216.555L222.905 213.493L215.594 212.287L214.37 212.099Z" fill="#FF8366"/>
<path d="M214.37 211.795C214.411 212.002 214.485 212.204 214.589 212.392C216.252 215.454 221.704 216.482 223.436 216.587L222.905 213.525L214.37 211.795Z" fill="black"/>
<path d="M223.852 199.243C223.852 199.243 227.767 206.94 226.531 211.323C225.296 215.706 220.895 215.108 218.25 214.322C216.761 213.909 215.421 213.141 214.369 212.099C213.628 212.311 212.831 212.306 212.093 212.084C211.355 211.862 210.713 211.434 210.258 210.861C208.571 208.827 209.519 206.436 210.905 205.87C211.411 205.726 211.944 205.679 212.472 205.733C212.999 205.787 213.507 205.941 213.965 206.185L212.614 203.951C212.614 203.951 217.811 192.374 223.852 199.243Z" fill="#FF8366"/>
<path d="M225.111 202.409L223.402 202.179C223.363 202.175 223.325 202.164 223.292 202.146C223.258 202.129 223.228 202.105 223.206 202.076C223.183 202.047 223.167 202.015 223.159 201.98C223.151 201.945 223.151 201.909 223.159 201.875C223.171 201.807 223.211 201.746 223.271 201.705C223.332 201.663 223.408 201.645 223.483 201.654L225.157 201.885C225.232 201.896 225.299 201.932 225.345 201.987C225.39 202.042 225.41 202.111 225.4 202.179C225.389 202.242 225.354 202.299 225.302 202.342C225.249 202.384 225.181 202.408 225.111 202.409Z" fill="black"/>
<path d="M218.897 203.039C218.838 203.039 218.78 203.023 218.731 202.993C218.681 202.963 218.643 202.921 218.62 202.871C218.593 202.807 218.595 202.736 218.626 202.673C218.656 202.61 218.712 202.561 218.782 202.535L220.722 201.791C220.758 201.774 220.797 201.763 220.837 201.761C220.877 201.758 220.917 201.763 220.955 201.776C220.993 201.788 221.028 201.808 221.057 201.833C221.086 201.858 221.109 201.888 221.124 201.922C221.14 201.956 221.147 201.992 221.146 202.029C221.145 202.065 221.136 202.101 221.118 202.134C221.101 202.167 221.077 202.197 221.046 202.221C221.016 202.245 220.98 202.262 220.941 202.273L219.001 203.018L218.897 203.039Z" fill="black"/>
<path d="M223.991 207.925C223.949 207.935 223.905 207.935 223.863 207.925C223.795 207.896 223.742 207.843 223.716 207.778C223.69 207.713 223.693 207.642 223.725 207.579C223.953 207.093 223.979 206.548 223.796 206.046C223.613 205.544 223.234 205.119 222.732 204.853C222.699 204.836 222.67 204.813 222.648 204.785C222.625 204.758 222.609 204.726 222.601 204.693C222.592 204.659 222.591 204.625 222.598 204.591C222.604 204.557 222.618 204.525 222.639 204.496C222.678 204.437 222.741 204.394 222.814 204.376C222.888 204.358 222.966 204.368 223.032 204.402C223.653 204.738 224.116 205.271 224.329 205.899C224.542 206.527 224.492 207.204 224.187 207.799C224.167 207.832 224.138 207.861 224.104 207.883C224.07 207.904 224.032 207.919 223.991 207.925Z" fill="black"/>
<path d="M213.977 209.351H213.861L210.396 207.925C210.328 207.896 210.275 207.843 210.249 207.778C210.223 207.713 210.226 207.642 210.258 207.579C210.29 207.517 210.349 207.469 210.42 207.445C210.491 207.422 210.57 207.425 210.639 207.453L214.104 208.869C214.139 208.883 214.17 208.902 214.197 208.927C214.223 208.952 214.244 208.981 214.258 209.014C214.272 209.046 214.279 209.08 214.278 209.115C214.277 209.149 214.269 209.183 214.254 209.215C214.228 209.261 214.188 209.298 214.139 209.322C214.089 209.347 214.033 209.357 213.977 209.351Z" fill="black"/>
<path d="M210.905 210.075C210.827 210.076 210.753 210.049 210.697 210.002C210.643 209.951 210.613 209.883 210.613 209.813C210.613 209.743 210.643 209.675 210.697 209.624L212.21 208.261C212.267 208.215 212.341 208.189 212.418 208.189C212.494 208.189 212.568 208.215 212.625 208.261C212.679 208.312 212.709 208.379 212.709 208.45C212.709 208.52 212.679 208.588 212.625 208.638L211.112 210.002C211.085 210.026 211.053 210.046 211.017 210.058C210.981 210.071 210.943 210.077 210.905 210.075Z" fill="black"/>
<path d="M226.474 320.346C226.424 320.355 226.373 320.355 226.324 320.346C226.259 320.307 226.214 320.247 226.197 320.179C226.179 320.111 226.192 320.039 226.231 319.979C231.613 312.513 232.341 301.377 232.353 301.261C232.354 301.227 232.363 301.194 232.379 301.163C232.395 301.132 232.418 301.105 232.446 301.082C232.474 301.06 232.507 301.043 232.542 301.032C232.578 301.021 232.616 301.017 232.653 301.02C232.691 301.021 232.728 301.03 232.763 301.044C232.797 301.058 232.828 301.079 232.854 301.104C232.88 301.13 232.9 301.159 232.913 301.192C232.926 301.224 232.932 301.258 232.93 301.293C232.93 301.408 232.179 312.681 226.716 320.262C226.688 320.294 226.65 320.319 226.608 320.334C226.565 320.349 226.519 320.353 226.474 320.346Z" fill="#FC7054"/>
<path d="M234.316 295.955C234.274 295.954 234.233 295.945 234.196 295.929C234.158 295.912 234.125 295.889 234.098 295.861C234.071 295.832 234.05 295.799 234.038 295.763C234.026 295.727 234.022 295.689 234.027 295.651C236.014 283.802 229.292 257.838 229.292 257.587C229.276 257.537 229.278 257.484 229.296 257.436C229.315 257.387 229.35 257.344 229.396 257.314L233.808 254.357C233.838 254.336 233.872 254.321 233.909 254.313C233.946 254.304 233.984 254.302 234.022 254.307C234.059 254.312 234.095 254.324 234.128 254.341C234.161 254.359 234.189 254.382 234.212 254.41C234.235 254.437 234.251 254.468 234.261 254.502C234.27 254.535 234.272 254.57 234.267 254.604C234.261 254.638 234.249 254.671 234.229 254.7C234.21 254.73 234.184 254.756 234.154 254.777L229.892 257.629C230.47 259.904 236.533 284.295 234.616 295.735C234.602 295.798 234.565 295.854 234.51 295.895C234.455 295.935 234.386 295.956 234.316 295.955Z" fill="#3E527C"/>
<path d="M226.289 205.859C225.57 203.989 224.384 202.295 222.824 200.91L220.11 198.33C220.11 198.33 220.41 203.217 218.007 205.325C215.605 207.432 213.907 206.185 213.907 206.185L209.287 202.514L217.488 195.646C217.488 195.646 226.728 195.321 226.289 205.859Z" fill="black"/>
<path d="M223.356 218.16L229.558 218.936C229.558 218.936 235.09 224.409 235.229 230.47C235.367 236.531 233.97 239.352 233.97 239.352L236.13 248.915C231.815 251.759 226.727 253.48 221.415 253.896C215.644 254.386 209.822 253.834 204.287 252.271C204.287 252.271 205.661 222.249 205.661 219.691C205.661 217.992 223.356 218.16 223.356 218.16Z" fill="#7C3E71"/>
<path d="M211.332 231.047C211.232 231.058 211.131 231.058 211.031 231.047C210.781 231 210.548 230.893 210.359 230.736C210.17 230.579 210.031 230.378 209.957 230.156C208.802 227.482 211.586 224.242 211.701 224.105C211.733 224.067 211.776 224.038 211.825 224.022C211.874 224.005 211.927 224.001 211.979 224.011C212.03 224.019 212.078 224.04 212.116 224.071C212.155 224.103 212.184 224.144 212.198 224.189L212.822 226.087L215.594 225.133C215.647 225.117 215.704 225.114 215.759 225.125C215.814 225.136 215.865 225.161 215.905 225.196C215.935 225.24 215.951 225.291 215.951 225.343C215.951 225.394 215.935 225.445 215.905 225.489L214.981 227.398L216.298 227.482C216.352 227.486 216.403 227.505 216.446 227.534C216.489 227.564 216.522 227.604 216.541 227.65C216.563 227.695 216.57 227.745 216.559 227.794C216.549 227.843 216.522 227.888 216.483 227.922C216.194 228.237 213.261 231.047 211.332 231.047ZM210.5 229.998C210.541 230.136 210.621 230.26 210.733 230.36C210.845 230.46 210.983 230.53 211.135 230.565C212.29 230.764 214.531 229.034 215.755 227.996L214.6 227.922C214.553 227.921 214.507 227.908 214.467 227.886C214.426 227.864 214.393 227.833 214.369 227.796C214.346 227.76 214.334 227.718 214.334 227.676C214.334 227.633 214.346 227.592 214.369 227.555L215.166 225.877L212.752 226.706C212.716 226.722 212.677 226.73 212.637 226.73C212.597 226.73 212.557 226.722 212.521 226.706C212.485 226.691 212.453 226.669 212.428 226.642C212.402 226.615 212.382 226.583 212.371 226.548L211.828 224.902C211.147 225.846 209.715 228.142 210.512 230.009L210.5 229.998Z" fill="white"/>
<path d="M217.349 239.194H217.061C216.81 239.147 216.577 239.04 216.388 238.883C216.199 238.726 216.06 238.526 215.987 238.303C214.832 235.629 217.603 232.389 217.719 232.253C217.754 232.216 217.799 232.187 217.85 232.171C217.9 232.154 217.955 232.15 218.008 232.158C218.059 232.167 218.106 232.189 218.144 232.22C218.183 232.251 218.212 232.292 218.227 232.336L218.851 234.234L221.623 233.28C221.675 233.262 221.732 233.26 221.786 233.273C221.84 233.286 221.888 233.314 221.923 233.354C221.953 233.396 221.969 233.445 221.969 233.495C221.969 233.545 221.953 233.594 221.923 233.637L221.011 235.545L222.316 235.629C222.371 235.634 222.423 235.652 222.468 235.682C222.512 235.711 222.548 235.751 222.57 235.797C222.595 235.839 222.608 235.886 222.608 235.933C222.608 235.981 222.595 236.028 222.57 236.069C222.223 236.384 219.278 239.194 217.349 239.194ZM217.846 232.987C217.153 233.93 215.721 236.227 216.518 238.093C216.559 238.232 216.641 238.358 216.755 238.457C216.869 238.557 217.011 238.627 217.165 238.66C218.32 238.869 220.56 237.129 221.715 236.09L220.56 236.017C220.515 236.013 220.472 236 220.434 235.978C220.396 235.956 220.364 235.926 220.341 235.891C220.319 235.854 220.307 235.813 220.307 235.771C220.307 235.728 220.319 235.687 220.341 235.65L221.149 233.972L218.735 234.801C218.699 234.816 218.66 234.825 218.62 234.825C218.58 234.825 218.54 234.816 218.504 234.801C218.468 234.787 218.435 234.766 218.409 234.738C218.383 234.711 218.364 234.678 218.354 234.643L217.846 232.987Z" fill="white"/>
<path d="M223.656 217.793L226.312 218.537C226.312 218.537 227.201 223.151 221.115 223.434C214.716 223.728 209.657 218.6 209.657 218.6L215.236 217.793H223.656Z" fill="#FF8366"/>
<path d="M220.56 223.707C213.861 223.707 209.472 218.81 209.426 218.768C209.372 218.717 209.342 218.649 209.342 218.579C209.342 218.509 209.372 218.441 209.426 218.39C209.481 218.344 209.553 218.319 209.628 218.319C209.703 218.319 209.775 218.344 209.83 218.39C209.83 218.443 214.092 223.13 220.491 223.14C221.318 223.211 222.152 223.116 222.934 222.862C223.716 222.609 224.428 222.203 225.018 221.672C225.776 220.777 226.12 219.648 225.977 218.526C225.965 218.49 225.962 218.453 225.968 218.415C225.974 218.378 225.989 218.343 226.011 218.311C226.034 218.279 226.063 218.253 226.098 218.232C226.133 218.212 226.172 218.199 226.213 218.194C226.254 218.188 226.296 218.191 226.335 218.202C226.375 218.212 226.412 218.23 226.443 218.255C226.474 218.28 226.499 218.31 226.517 218.344C226.534 218.378 226.543 218.416 226.543 218.453C226.63 219.083 226.579 219.722 226.393 220.334C226.207 220.946 225.889 221.519 225.457 222.018C224.826 222.608 224.061 223.064 223.215 223.356C222.369 223.648 221.462 223.767 220.56 223.707Z" fill="white"/>
<path d="M206.192 296.133C205.603 296.133 205.037 296.133 204.679 296.133C204.618 296.133 204.559 296.114 204.511 296.08C204.463 296.046 204.429 295.998 204.414 295.945C204.396 295.891 204.397 295.834 204.418 295.781C204.439 295.728 204.478 295.682 204.529 295.651C204.91 295.441 208.271 293.554 209.519 294.844C209.62 294.923 209.691 295.031 209.72 295.15C209.749 295.269 209.735 295.393 209.68 295.504C209.438 296.008 207.705 296.133 206.192 296.133ZM205.742 295.599C206.913 295.728 208.1 295.602 209.207 295.232L209.138 295.148C208.502 294.54 206.92 295.095 205.788 295.588L205.742 295.599Z" fill="#3E527C"/>
<path d="M235.067 235.441C235.029 235.45 234.989 235.45 234.951 235.441C234.916 235.428 234.885 235.409 234.859 235.385C234.833 235.361 234.813 235.332 234.8 235.301C234.786 235.269 234.781 235.235 234.783 235.202C234.785 235.168 234.795 235.135 234.813 235.105C237.688 229.799 232.087 222.522 232.029 222.406C232.008 222.379 231.993 222.348 231.985 222.315C231.977 222.282 231.976 222.248 231.982 222.215C231.989 222.182 232.002 222.15 232.022 222.122C232.042 222.094 232.068 222.069 232.098 222.05C232.129 222.031 232.163 222.017 232.199 222.01C232.235 222.002 232.273 222.002 232.309 222.007C232.345 222.013 232.38 222.026 232.412 222.044C232.443 222.062 232.47 222.085 232.491 222.113C232.722 222.417 238.335 229.757 235.321 235.325C235.294 235.363 235.256 235.394 235.211 235.415C235.166 235.435 235.116 235.444 235.067 235.441Z" fill="white"/>
<path d="M205.199 203.311C205.129 203.312 205.062 203.288 205.01 203.245C204.959 203.203 204.927 203.144 204.922 203.081C204.24 196.621 209.195 194.692 209.241 194.692C209.313 194.667 209.393 194.669 209.464 194.696C209.535 194.723 209.592 194.775 209.622 194.839C209.637 194.87 209.645 194.904 209.644 194.939C209.644 194.973 209.636 195.007 209.621 195.038C209.606 195.07 209.584 195.098 209.556 195.121C209.529 195.145 209.496 195.163 209.461 195.174C209.276 195.248 204.841 196.988 205.487 203.049C205.494 203.083 205.493 203.118 205.483 203.152C205.473 203.186 205.456 203.217 205.432 203.244C205.408 203.271 205.377 203.292 205.343 203.308C205.309 203.323 205.272 203.331 205.233 203.332L205.199 203.311Z" fill="#FFBB24"/>
<path d="M259.055 190.015L242.782 216.041C242.73 216.126 242.659 216.198 242.574 216.255C242.488 216.311 242.389 216.349 242.285 216.367L209.946 222.448C209.486 222.509 209.054 222.686 208.698 222.958C208.343 223.23 208.078 223.586 207.934 223.987C207.79 224.389 207.772 224.818 207.883 225.228C207.993 225.638 208.228 226.012 208.56 226.307L231.255 248.076C231.334 248.155 231.392 248.248 231.426 248.35C231.46 248.451 231.469 248.558 231.451 248.663L225.757 279.02C225.681 279.436 225.734 279.862 225.91 280.252C226.086 280.642 226.378 280.979 226.753 281.226C227.129 281.474 227.573 281.621 228.036 281.652C228.498 281.683 228.961 281.596 229.372 281.401L260.95 266.825C261.056 266.774 261.175 266.747 261.296 266.747C261.417 266.747 261.536 266.774 261.642 266.825L292.573 281.401C292.984 281.596 293.447 281.683 293.91 281.652C294.372 281.621 294.816 281.474 295.192 281.226C295.567 280.979 295.859 280.642 296.035 280.252C296.211 279.862 296.264 279.436 296.188 279.02L290.944 248.726C290.928 248.622 290.939 248.516 290.975 248.416C291.011 248.316 291.072 248.225 291.152 248.15L314.079 226.307C314.411 226.012 314.645 225.638 314.756 225.228C314.866 224.818 314.848 224.389 314.704 223.987C314.56 223.586 314.295 223.23 313.94 222.958C313.585 222.686 313.153 222.509 312.693 222.448L280.111 216.367C280.003 216.35 279.901 216.311 279.813 216.253C279.725 216.195 279.653 216.119 279.602 216.031L263.56 190.015C263.357 189.629 263.038 189.303 262.639 189.074C262.241 188.846 261.779 188.724 261.308 188.724C260.836 188.724 260.374 188.846 259.976 189.074C259.577 189.303 259.258 189.629 259.055 190.015Z" fill="#FFAF45"/>
<path d="M299.007 224.189H298.914L279.591 220.55C279.478 220.528 279.38 220.465 279.317 220.377C279.254 220.289 279.232 220.181 279.256 220.078C279.281 219.978 279.348 219.89 279.443 219.833C279.538 219.777 279.653 219.756 279.765 219.774L299.087 223.423C299.144 223.432 299.198 223.451 299.246 223.479C299.295 223.508 299.336 223.544 299.369 223.587C299.401 223.63 299.423 223.679 299.435 223.73C299.446 223.781 299.446 223.834 299.434 223.885C299.411 223.972 299.356 224.049 299.278 224.104C299.201 224.159 299.105 224.189 299.007 224.189Z" fill="white"/>
<path d="M214.82 243.473C214.82 243.473 226.555 241.323 229.5 242.424C232.445 243.525 230.089 252.312 229.2 253.959C228.31 255.605 216.218 253.151 216.218 253.151L212.753 248.611L214.82 243.473Z" fill="#FF8366"/>
<path d="M229.5 242.393C229.5 242.393 236.615 246.776 236.892 249.513C237.169 252.25 228.403 246.535 228.403 246.535L229.5 242.393Z" fill="#FF8366"/>
<path d="M224.845 253.487C224.845 253.487 218.828 254.735 220.745 256.224C222.662 257.713 228.622 255.27 229.199 253.885C229.777 252.501 225.399 250.74 225.399 250.74L224.845 253.487Z" fill="#FF8366"/>
<path d="M183.393 239.603C183.208 244.228 187.47 247.688 192.968 250.215C193.152 250.309 193.36 250.393 193.557 250.477C194.457 250.886 195.393 251.253 196.34 251.61L197.137 251.893C203.22 253.928 209.523 255.372 215.94 256.203L217.557 242.109L197.484 229.327L208.802 218.705C208.802 218.705 194.504 221.043 187.354 229.526L186.927 230.061C186.166 231.026 185.516 232.059 184.987 233.144C184.848 233.417 184.721 233.7 184.605 233.993C183.866 235.79 183.456 237.686 183.393 239.603Z" fill="#7C3E71"/>
<path d="M216.333 240.841C216.296 240.852 216.255 240.852 216.218 240.841C216.091 240.841 204.09 235.944 199.193 235.944C199.116 235.944 199.041 235.917 198.985 235.868C198.929 235.819 198.896 235.752 198.893 235.682C198.903 235.614 198.938 235.551 198.993 235.503C199.047 235.455 199.118 235.426 199.193 235.42C204.218 235.42 215.952 240.159 216.449 240.369C216.484 240.383 216.515 240.402 216.542 240.427C216.568 240.452 216.589 240.481 216.603 240.514C216.617 240.546 216.624 240.58 216.623 240.615C216.622 240.649 216.614 240.683 216.599 240.715C216.572 240.756 216.532 240.789 216.485 240.812C216.439 240.834 216.386 240.844 216.333 240.841Z" fill="white"/>
<path d="M207.347 237.643C207.295 237.658 207.238 237.658 207.186 237.643C205.696 236.741 202.277 234.497 202.566 233.585C202.566 233.427 202.762 233.217 203.213 233.165C205.349 232.892 207.428 236.867 207.659 237.359C207.678 237.399 207.686 237.443 207.682 237.487C207.678 237.53 207.662 237.572 207.636 237.608C207.61 237.645 207.574 237.675 207.531 237.695C207.489 237.716 207.442 237.727 207.394 237.726L207.347 237.643ZM203.363 233.637H203.236C203.183 233.622 203.127 233.622 203.074 233.637C203.074 233.962 204.552 235.21 206.539 236.521C205.777 235.315 204.495 233.637 203.363 233.637Z" fill="white"/>
<path d="M224.256 254.368H222.362C222.311 254.368 222.262 254.356 222.219 254.331C222.176 254.307 222.141 254.273 222.119 254.231C222.09 254.191 222.075 254.143 222.075 254.095C222.075 254.047 222.09 253.999 222.119 253.959L223.066 252.627C223.089 252.592 223.121 252.563 223.158 252.542C223.196 252.521 223.238 252.509 223.283 252.506C223.327 252.503 223.371 252.509 223.412 252.525C223.452 252.54 223.488 252.565 223.517 252.595C223.58 252.632 223.626 252.69 223.643 252.757C223.66 252.823 223.648 252.893 223.609 252.952L222.951 253.885H224.302C224.379 253.885 224.452 253.913 224.506 253.962C224.56 254.011 224.591 254.078 224.591 254.147C224.585 254.182 224.572 254.215 224.552 254.245C224.532 254.275 224.506 254.301 224.474 254.322C224.443 254.342 224.408 254.357 224.37 254.365C224.333 254.372 224.294 254.373 224.256 254.368Z" fill="black"/>
<path d="M230.932 247.887C230.89 247.887 230.849 247.878 230.811 247.862C230.773 247.846 230.74 247.822 230.713 247.793C229.96 246.975 229.095 246.249 228.137 245.633C228.064 245.611 228.003 245.563 227.968 245.5C227.934 245.437 227.928 245.364 227.952 245.297C227.977 245.231 228.03 245.175 228.099 245.144C228.168 245.112 228.249 245.107 228.322 245.13C229.372 245.784 230.319 246.563 231.14 247.447C231.168 247.47 231.19 247.499 231.205 247.53C231.22 247.562 231.228 247.596 231.228 247.63C231.228 247.665 231.22 247.699 231.205 247.73C231.19 247.762 231.168 247.79 231.14 247.814C231.114 247.839 231.081 247.859 231.045 247.871C231.009 247.884 230.971 247.89 230.932 247.887Z" fill="black"/>
<path d="M230.25 251.012C230.178 251.012 230.109 250.99 230.054 250.949L226.589 248.076C226.536 248.027 226.506 247.961 226.506 247.893C226.506 247.824 226.536 247.758 226.589 247.709C226.645 247.66 226.719 247.633 226.797 247.633C226.874 247.633 226.949 247.66 227.004 247.709L230.469 250.582C230.497 250.606 230.519 250.634 230.534 250.666C230.549 250.697 230.557 250.731 230.557 250.766C230.557 250.8 230.549 250.834 230.534 250.866C230.519 250.897 230.497 250.926 230.469 250.949C230.44 250.974 230.406 250.993 230.368 251.003C230.33 251.014 230.289 251.017 230.25 251.012Z" fill="black"/>
<path d="M280.781 212.403C280.781 212.403 283.945 208.481 281.046 208.062C278.147 207.642 270.755 213.305 272.165 215.779C273.574 218.254 280.781 212.403 280.781 212.403Z" fill="#FF8366"/>
<path d="M283.576 215.486C283.576 215.486 286.74 211.574 283.841 211.155C280.942 210.736 273.551 216.398 274.96 218.873C276.369 221.347 283.576 215.486 283.576 215.486Z" fill="#FF8366"/>
<path d="M285.401 219.177C285.401 219.177 288.808 216.199 286.348 215.433C283.888 214.668 276.507 218.579 277.327 220.949C278.147 223.319 285.401 219.177 285.401 219.177Z" fill="#FF8366"/>
<path d="M278.956 221.976C278.59 221.993 278.225 221.919 277.902 221.762C277.578 221.605 277.308 221.371 277.12 221.085C277.018 220.928 276.954 220.754 276.93 220.574C276.906 220.393 276.923 220.211 276.981 220.036C277.351 218.988 279.118 218.264 279.187 218.233L283.483 215.328C283.545 215.287 283.622 215.269 283.698 215.278C283.773 215.288 283.842 215.325 283.888 215.381C283.915 215.404 283.937 215.433 283.952 215.464C283.967 215.496 283.975 215.53 283.975 215.564C283.975 215.599 283.967 215.633 283.952 215.664C283.937 215.696 283.915 215.724 283.888 215.748L279.533 218.684C279.037 218.894 277.836 219.512 277.582 220.204C277.543 220.314 277.531 220.43 277.547 220.544C277.563 220.658 277.606 220.768 277.674 220.865C278.575 222.249 281.139 220.928 281.22 220.917C281.252 220.896 281.29 220.881 281.329 220.873C281.369 220.865 281.41 220.865 281.449 220.873C281.489 220.88 281.526 220.895 281.559 220.917C281.591 220.938 281.619 220.966 281.639 220.998C281.659 221.029 281.672 221.064 281.677 221.101C281.681 221.137 281.677 221.174 281.665 221.209C281.652 221.244 281.632 221.276 281.605 221.304C281.578 221.331 281.545 221.353 281.508 221.368C280.72 221.745 279.847 221.953 278.956 221.976Z" fill="black"/>
<path d="M276.519 219.837H276.322C276.014 219.813 275.714 219.728 275.445 219.588C275.176 219.449 274.943 219.259 274.763 219.03C273.677 217.761 275.918 215.381 276.149 215.119L281.162 211.406C281.216 211.358 281.288 211.332 281.364 211.332C281.439 211.332 281.512 211.358 281.566 211.406C281.594 211.431 281.616 211.46 281.631 211.493C281.646 211.525 281.654 211.56 281.654 211.595C281.654 211.63 281.646 211.665 281.631 211.698C281.616 211.73 281.594 211.76 281.566 211.784L276.588 215.465C276.01 216.062 274.578 217.887 275.26 218.684C275.392 218.855 275.564 218.997 275.763 219.1C275.963 219.203 276.186 219.265 276.415 219.281C277.417 219.208 278.366 218.84 279.117 218.233C279.174 218.186 279.249 218.161 279.326 218.164C279.403 218.167 279.475 218.197 279.527 218.249C279.579 218.3 279.607 218.368 279.604 218.438C279.6 218.508 279.567 218.574 279.51 218.621C278.682 219.307 277.633 219.733 276.519 219.837Z" fill="black"/>
<path d="M273.689 216.597C273.371 216.602 273.056 216.55 272.761 216.443C272.465 216.337 272.196 216.179 271.968 215.978C271.837 215.869 271.735 215.734 271.671 215.583C271.607 215.432 271.582 215.269 271.598 215.108C271.691 213.011 277.119 209.079 277.373 208.911C277.434 208.874 277.507 208.86 277.578 208.87C277.65 208.88 277.714 208.915 277.759 208.966C277.804 209.017 277.826 209.082 277.821 209.148C277.816 209.213 277.784 209.275 277.731 209.32C276.218 210.421 272.268 213.609 272.199 215.129C272.188 215.214 272.199 215.3 272.231 215.38C272.263 215.46 272.315 215.532 272.384 215.59C273.92 216.912 276.114 215.171 276.207 215.098C276.265 215.062 276.335 215.046 276.405 215.054C276.474 215.062 276.538 215.092 276.585 215.14C276.632 215.187 276.658 215.248 276.658 215.312C276.659 215.376 276.634 215.437 276.588 215.486C275.792 216.148 274.768 216.541 273.689 216.597Z" fill="black"/>
<path d="M220.895 205.943C220.832 205.943 220.772 205.925 220.722 205.891C220.672 205.857 220.635 205.809 220.618 205.755L220.26 204.706C220.248 204.661 220.248 204.615 220.26 204.57L220.537 203.521C220.545 203.488 220.56 203.456 220.582 203.428C220.604 203.4 220.633 203.376 220.665 203.359C220.697 203.341 220.734 203.33 220.771 203.325C220.809 203.321 220.847 203.323 220.883 203.332C220.956 203.35 221.019 203.392 221.058 203.451C221.097 203.51 221.109 203.58 221.091 203.647L220.837 204.58L221.172 205.629C221.183 205.662 221.186 205.697 221.182 205.731C221.178 205.765 221.166 205.798 221.148 205.828C221.13 205.859 221.105 205.885 221.076 205.907C221.046 205.928 221.012 205.944 220.976 205.954L220.895 205.943Z" fill="black"/>
<path d="M225.111 205.409C225.048 205.409 224.988 205.39 224.938 205.356C224.888 205.322 224.851 205.274 224.834 205.22L224.487 204.171C224.47 204.127 224.47 204.079 224.487 204.035L224.764 202.986C224.783 202.92 224.83 202.863 224.895 202.828C224.96 202.792 225.037 202.782 225.111 202.798C225.148 202.805 225.183 202.819 225.214 202.839C225.244 202.859 225.27 202.885 225.29 202.914C225.309 202.944 225.322 202.976 225.327 203.01C225.332 203.044 225.329 203.079 225.319 203.112L225.065 204.045L225.4 205.094C225.412 205.127 225.417 205.162 225.413 205.197C225.41 205.231 225.399 205.265 225.38 205.296C225.362 205.326 225.336 205.353 225.306 205.374C225.275 205.396 225.241 205.411 225.203 205.419L225.111 205.409Z" fill="black"/>
<path d="M221.865 211.396H221.669C220.988 211.207 220.514 209.792 220.445 209.362C220.427 209.315 220.427 209.264 220.443 209.217C220.46 209.169 220.493 209.128 220.537 209.099C220.583 209.077 220.635 209.065 220.687 209.065C220.74 209.065 220.792 209.077 220.838 209.099L223.032 209.98C223.068 209.994 223.101 210.014 223.129 210.04C223.156 210.065 223.178 210.096 223.192 210.129C223.206 210.163 223.212 210.198 223.211 210.234C223.209 210.27 223.199 210.305 223.182 210.337C223.078 210.473 222.547 211.396 221.865 211.396ZM221.172 209.75C221.266 210.174 221.495 210.565 221.831 210.872C221.993 210.872 222.281 210.62 222.512 210.284L221.172 209.75Z" fill="black"/>
<path d="M211.713 348.773C211.713 348.773 218.192 357.623 223.436 363.307C227.513 367.732 232.676 372.912 231.267 373.793C229.858 374.674 197.403 364.177 197.403 364.177C197.403 364.177 199.84 356.428 196.386 355.946C192.933 355.463 192.24 362.845 192.24 362.845L183 360.004C183 360.004 185.31 352.265 187.077 349.518C188.844 346.948 190.772 344.473 192.852 342.104L211.713 348.773Z" fill="#7C3E71"/>
<path d="M209.345 345.596L218.423 357.456C215.847 357.456 201.399 352.097 198.003 349.675C194.607 347.253 192.817 342.104 192.817 342.104L202.819 341.507L209.345 345.596Z" fill="#FF8366"/>
<path d="M208.502 247.478C207.303 247.457 206.114 247.266 204.979 246.912C204.93 246.897 204.886 246.869 204.854 246.832C204.821 246.794 204.8 246.75 204.795 246.702C204.788 246.654 204.796 246.605 204.818 246.56C204.841 246.516 204.877 246.478 204.922 246.451L206.712 245.329L204.852 243.232C204.82 243.19 204.801 243.141 204.798 243.091C204.794 243.04 204.806 242.99 204.833 242.945C204.859 242.901 204.899 242.863 204.947 242.838C204.995 242.813 205.051 242.8 205.106 242.802L207.416 243.001L207.105 241.847C207.087 241.8 207.086 241.75 207.103 241.702C207.12 241.655 207.153 241.614 207.197 241.585C207.241 241.558 207.293 241.543 207.347 241.543C207.401 241.543 207.453 241.558 207.497 241.585C207.982 241.784 212.244 243.63 212.475 245.371C212.504 245.601 212.465 245.834 212.362 246.046C212.258 246.259 212.094 246.442 211.886 246.577C210.907 247.223 209.711 247.542 208.502 247.478ZM205.73 246.577C206.885 246.87 209.784 247.405 211.505 246.136C211.635 246.058 211.741 245.95 211.81 245.823C211.879 245.696 211.909 245.554 211.898 245.413C211.748 244.364 209.253 242.948 207.797 242.267L208.063 243.242C208.074 243.282 208.075 243.324 208.065 243.364C208.055 243.404 208.034 243.441 208.005 243.473C207.972 243.503 207.932 243.527 207.889 243.543C207.845 243.559 207.798 243.567 207.751 243.567L205.742 243.389L207.347 245.255C207.375 245.284 207.395 245.317 207.407 245.353C207.419 245.39 207.422 245.428 207.416 245.465C207.401 245.537 207.356 245.601 207.289 245.643L205.73 246.577Z" fill="white"/>
<path d="M194.261 241.061C194.209 241.061 194.158 241.048 194.113 241.024C194.069 241 194.032 240.966 194.007 240.925C193.982 240.883 193.968 240.836 193.968 240.788C193.968 240.741 193.982 240.694 194.007 240.652L195.162 239.016L192.598 237.684C192.551 237.656 192.513 237.617 192.489 237.571C192.464 237.525 192.454 237.473 192.459 237.422C192.466 237.371 192.49 237.323 192.527 237.284C192.564 237.245 192.613 237.216 192.667 237.202L194.873 236.625L194.111 235.661C194.082 235.618 194.067 235.569 194.067 235.519C194.067 235.469 194.082 235.42 194.111 235.378C194.137 235.335 194.175 235.299 194.222 235.275C194.269 235.251 194.323 235.239 194.377 235.241C194.908 235.241 199.609 235.577 200.533 237.129C200.653 237.332 200.709 237.562 200.697 237.793C200.685 238.024 200.604 238.247 200.463 238.439C198.916 240.946 194.4 241.061 194.203 241.061H194.261ZM193.557 237.538L195.797 238.67C195.832 238.687 195.861 238.711 195.883 238.74C195.905 238.769 195.92 238.803 195.924 238.838C195.941 238.871 195.949 238.907 195.949 238.943C195.949 238.979 195.941 239.015 195.924 239.048L194.862 240.474C196.098 240.358 198.973 239.897 200.059 238.156C200.148 238.039 200.201 237.902 200.211 237.76C200.221 237.618 200.189 237.476 200.117 237.349C199.551 236.384 196.652 235.933 195.046 235.786L195.682 236.594C195.704 236.631 195.716 236.672 195.716 236.714C195.716 236.757 195.704 236.798 195.682 236.835C195.666 236.875 195.641 236.912 195.606 236.941C195.572 236.97 195.531 236.992 195.485 237.003L193.557 237.538Z" fill="white"/>
<path d="M184.606 234.035V234.13C184.682 234.351 184.822 234.551 185.01 234.707C185.199 234.864 185.43 234.972 185.68 235.021C185.78 235.031 185.881 235.031 185.98 235.021C187.909 235.021 190.854 232.211 191.189 231.875C191.229 231.841 191.255 231.796 191.266 231.747C191.276 231.698 191.27 231.648 191.247 231.603C191.229 231.556 191.197 231.516 191.154 231.486C191.11 231.456 191.059 231.438 191.005 231.435L189.699 231.351L190.612 229.443C190.634 229.395 190.64 229.343 190.629 229.293C190.619 229.242 190.592 229.196 190.553 229.159C190.513 229.122 190.463 229.096 190.408 229.085C190.353 229.074 190.295 229.078 190.242 229.096L187.482 230.04L187.32 229.547L186.893 230.082L187.008 230.46C187.02 230.494 187.039 230.526 187.065 230.553C187.091 230.58 187.123 230.602 187.158 230.617C187.194 230.634 187.234 230.644 187.274 230.644C187.314 230.644 187.354 230.634 187.389 230.617L189.815 229.789L189.006 231.466C188.986 231.504 188.975 231.545 188.975 231.587C188.975 231.629 188.986 231.67 189.006 231.708C189.031 231.744 189.065 231.774 189.105 231.796C189.145 231.818 189.191 231.831 189.237 231.833L190.392 231.907C189.237 232.955 187.008 234.686 185.842 234.476C185.687 234.445 185.544 234.376 185.43 234.276C185.316 234.176 185.234 234.049 185.195 233.91C185.094 233.667 185.028 233.413 184.999 233.155C184.852 233.448 184.721 233.742 184.606 234.035Z" fill="white"/>
<path d="M200.706 232.83C200.475 232.821 200.249 232.763 200.048 232.659C199.847 232.555 199.677 232.408 199.551 232.232C197.657 229.935 199.355 226.139 199.436 225.94C199.457 225.895 199.493 225.857 199.538 225.83C199.583 225.803 199.636 225.789 199.69 225.789C199.744 225.789 199.797 225.803 199.842 225.83C199.887 225.857 199.922 225.895 199.944 225.94L201.099 227.607L203.478 226.014C203.526 225.986 203.583 225.971 203.64 225.971C203.697 225.971 203.753 225.986 203.802 226.014C203.849 226.042 203.886 226.081 203.911 226.127C203.935 226.173 203.945 226.225 203.94 226.276L203.617 228.373L204.899 228.142C204.952 228.132 205.007 228.135 205.058 228.152C205.109 228.168 205.154 228.198 205.188 228.237C205.216 228.279 205.231 228.328 205.231 228.378C205.231 228.428 205.216 228.477 205.188 228.52C204.933 228.95 202.739 232.714 200.799 232.871L200.706 232.83ZM199.748 226.674C199.366 227.723 198.673 230.313 199.99 231.917C200.07 232.041 200.185 232.142 200.323 232.21C200.462 232.279 200.618 232.312 200.776 232.305C201.93 232.211 203.594 229.998 204.402 228.719L203.328 228.918C203.282 228.925 203.235 228.923 203.191 228.91C203.147 228.897 203.107 228.875 203.074 228.845C203.04 228.818 203.014 228.784 202.998 228.745C202.981 228.707 202.976 228.665 202.982 228.625L203.259 226.811L201.18 228.195C201.112 228.237 201.03 228.256 200.949 228.247C200.874 228.231 200.808 228.19 200.764 228.132L199.748 226.674Z" fill="white"/>
<path d="M191.062 248.16L192.967 250.257C193.152 250.352 193.36 250.436 193.556 250.519C193.589 250.497 193.617 250.469 193.637 250.436C193.656 250.404 193.669 250.368 193.672 250.331C193.699 250.266 193.699 250.196 193.672 250.131L191.997 248.338L194.018 248.475C194.064 248.479 194.111 248.473 194.153 248.457C194.196 248.44 194.233 248.414 194.261 248.38C194.289 248.346 194.309 248.307 194.319 248.265C194.329 248.224 194.329 248.181 194.319 248.139L194.03 247.185C195.497 247.824 198.026 249.156 198.199 250.226C198.219 250.369 198.195 250.514 198.129 250.645C198.064 250.776 197.961 250.889 197.83 250.97C197.414 251.29 196.924 251.523 196.398 251.652L197.195 251.935C197.563 251.795 197.906 251.604 198.211 251.369C198.414 251.228 198.572 251.042 198.672 250.829C198.771 250.615 198.807 250.382 198.777 250.152C198.488 248.412 194.157 246.661 193.695 246.461C193.649 246.438 193.597 246.426 193.545 246.426C193.492 246.426 193.441 246.438 193.395 246.461C193.356 246.496 193.327 246.54 193.311 246.587C193.295 246.635 193.292 246.685 193.302 246.734L193.649 247.877L191.339 247.73C191.282 247.721 191.224 247.73 191.174 247.755C191.124 247.779 191.084 247.819 191.062 247.866C191.031 247.91 191.014 247.961 191.014 248.013C191.014 248.065 191.031 248.116 191.062 248.16Z" fill="white"/>
</g>
<g opacity="0.05">
<path d="M1301.67 348.75C1301.67 348.75 1297.67 357.366 1300.6 359.173C1302.25 360.219 1304.13 360.92 1306.1 361.225C1306.1 361.225 1315.29 358.201 1313.88 355.36C1311.67 350.92 1301.67 348.75 1301.67 348.75Z" fill="#FF8366"/>
<path d="M1301.01 284.017L1315.01 306.415C1315.06 306.488 1315.12 306.551 1315.19 306.6C1315.27 306.648 1315.35 306.681 1315.44 306.697L1343.32 311.935C1343.72 311.987 1344.09 312.139 1344.4 312.373C1344.71 312.608 1344.93 312.916 1345.06 313.262C1345.18 313.608 1345.19 313.979 1345.1 314.332C1345 314.685 1344.79 315.006 1344.5 315.258L1324.93 333.988C1324.87 334.056 1324.82 334.137 1324.79 334.225C1324.76 334.313 1324.75 334.405 1324.76 334.496L1329.67 360.626C1329.74 360.984 1329.7 361.352 1329.54 361.689C1329.39 362.025 1329.14 362.317 1328.82 362.53C1328.49 362.743 1328.11 362.87 1327.71 362.896C1327.31 362.922 1326.91 362.846 1326.55 362.677L1299.37 350.121C1299.28 350.079 1299.18 350.057 1299.08 350.057C1298.98 350.057 1298.88 350.079 1298.78 350.121L1272.16 362.668C1271.81 362.837 1271.41 362.913 1271.01 362.887C1270.61 362.861 1270.23 362.734 1269.9 362.521C1269.58 362.308 1269.33 362.016 1269.18 361.68C1269.02 361.343 1268.98 360.975 1269.04 360.616L1273.55 334.542C1273.57 334.452 1273.56 334.361 1273.53 334.274C1273.5 334.188 1273.45 334.109 1273.38 334.042L1253.65 315.249C1253.37 314.996 1253.16 314.674 1253.06 314.321C1252.97 313.967 1252.98 313.596 1253.1 313.25C1253.23 312.903 1253.46 312.595 1253.77 312.361C1254.07 312.127 1254.45 311.976 1254.84 311.926L1282.91 306.688C1283.01 306.674 1283.09 306.641 1283.17 306.592C1283.25 306.544 1283.31 306.48 1283.35 306.406L1297.15 284.008C1297.33 283.681 1297.61 283.406 1297.95 283.214C1298.29 283.021 1298.69 282.92 1299.09 282.921C1299.49 282.922 1299.88 283.025 1300.22 283.219C1300.56 283.413 1300.84 283.689 1301.01 284.017Z" fill="#FFAF45"/>
<path d="M1326.78 479.641L1326.44 486.787L1312.06 489.665L1311.33 484.735L1312.47 478.325L1326.78 479.641Z" fill="#FF8366"/>
<path d="M1311.31 400.401C1311.31 400.401 1308.41 422.526 1307.51 443.889C1306.61 465.251 1306.04 480.686 1306.04 480.686L1331.04 481.476L1332.09 439.059L1331.52 400.401H1311.31Z" fill="#3791C7"/>
<path d="M1353.39 416.915L1348.03 421.8L1359.66 431.568L1365.27 426.412L1353.39 416.915Z" fill="#FF8366"/>
<path d="M1341.51 400.401C1341.51 400.401 1344.07 408.572 1345.51 415.535C1346.95 422.499 1349.23 431.877 1349.23 431.877C1349.23 431.877 1357.69 453.839 1342.39 456.118C1321.49 459.232 1320.47 425.731 1320.47 425.731L1320.13 411.023L1310.44 407.246L1311.79 394.536L1341.51 400.401Z" fill="#6DB3DD"/>
<path d="M1357.12 342.331C1357.12 342.331 1361.58 336.031 1362.77 331.437C1363.96 326.843 1363.23 325.081 1362.51 324.8C1361.79 324.519 1360.33 327.26 1360.33 327.26C1360.33 327.26 1361.33 322.93 1359.73 322.394C1358.13 321.858 1356.79 325.581 1356.79 325.581C1356.79 325.581 1356.79 322.349 1355.34 322.685C1353.89 323.02 1352.07 330.02 1352.07 330.02C1352.07 330.02 1351.71 326.316 1350.58 326.552C1349.45 326.788 1347.7 331.845 1348.09 333.87C1348.51 335.484 1349.14 337.046 1349.97 338.518L1357.12 342.331Z" fill="#FF8366"/>
<path d="M1333.07 355.487C1333.07 355.487 1342.96 358.211 1343.14 367.289C1343.32 376.368 1324.85 377.213 1324.85 377.213C1324.85 377.213 1314.1 378.184 1311.18 371.765C1308.26 365.347 1317.85 361.479 1317.85 361.479C1317.85 361.479 1329.45 353.126 1333.07 355.487Z" fill="black"/>
<path d="M1327.27 368.96C1327.27 368.96 1335.51 359.445 1338.69 352.99C1341.87 346.535 1346.94 335.74 1346.94 335.74L1363.07 341.324C1363.07 341.324 1358.79 354.27 1352.97 364.403C1347.15 374.535 1343.3 379.746 1343.3 379.746C1343.3 379.746 1343.09 401.454 1342.76 401.853C1342.43 402.253 1333.46 404.059 1323.39 403.56C1313.32 403.061 1311.13 401.744 1310.58 401.454C1310.03 401.163 1314.75 372.71 1314.75 372.71C1318.36 370.242 1322.76 368.924 1327.27 368.96Z" fill="#ADA4F7"/>
<path d="M1328.47 363.821L1328.24 369.269C1328.24 369.269 1327.09 370.803 1323.57 370.939C1320.94 371.039 1320.04 370.476 1320.04 370.476L1320.52 367.753L1320.99 365.029L1327.39 363.976L1328.47 363.821Z" fill="#FF8366"/>
<path d="M1328.47 363.558C1328.44 363.74 1328.37 363.915 1328.27 364.076C1326.81 366.799 1322.04 367.662 1320.52 367.707L1320.99 364.983L1328.47 363.558Z" fill="black"/>
<path d="M1320.16 352.564C1320.16 352.564 1316.73 359.3 1317.85 363.113C1318.97 366.926 1322.79 366.436 1325.1 365.746C1326.41 365.383 1327.59 364.709 1328.51 363.794C1329.16 363.98 1329.86 363.976 1330.51 363.782C1331.15 363.588 1331.72 363.214 1332.11 362.714C1333.59 360.898 1332.76 358.837 1331.54 358.338C1331.1 358.213 1330.63 358.172 1330.17 358.219C1329.71 358.266 1329.27 358.399 1328.86 358.61L1330.05 356.658C1330.05 356.658 1325.45 346.544 1320.16 352.564Z" fill="#FF8366"/>
<path d="M1324.46 498.026C1324.99 498.026 1325.5 497.835 1325.88 497.495C1326.25 497.154 1326.46 496.692 1326.46 496.211C1326.64 492.325 1327.59 483.636 1326.77 483.609C1325.71 483.609 1315.05 485.652 1315.05 485.652C1315.05 485.652 1314.99 480.259 1310.6 481.058C1307.22 481.675 1303.2 484.962 1301.5 486.451C1300.97 486.918 1300.3 487.234 1299.57 487.359C1296.43 487.912 1287.77 489.792 1287.46 493.714C1287.1 498.535 1289.37 498.072 1290.46 498.108C1291.55 498.144 1317.16 498.072 1324.46 498.026Z" fill="#A27A92"/>
<path d="M1363.28 409.034C1362.88 408.735 1362.37 408.589 1361.85 408.626C1361.34 408.664 1360.86 408.881 1360.51 409.234C1357.64 412.121 1350.8 418.259 1351.41 418.767C1352.19 419.403 1361.85 423.942 1361.85 423.942C1361.85 423.942 1358.1 428.127 1362.05 430.061C1365.05 431.541 1370.49 431.35 1372.84 431.187C1373.59 431.128 1374.33 431.27 1374.98 431.596C1377.79 432.994 1385.77 436.571 1388.78 433.702C1392.46 430.207 1390.38 429.244 1389.6 428.6C1388.82 427.955 1368.93 413.229 1363.28 409.034Z" fill="#A27A92"/>
<path d="M1319.85 357.294C1319.8 357.295 1319.74 357.278 1319.7 357.247C1319.66 357.215 1319.63 357.171 1319.61 357.121C1319.56 356.976 1319.45 356.853 1319.3 356.776C1319.2 356.737 1319.1 356.717 1318.99 356.717C1318.88 356.717 1318.77 356.737 1318.67 356.776C1318.64 356.786 1318.61 356.79 1318.58 356.788C1318.54 356.786 1318.51 356.778 1318.48 356.765C1318.45 356.751 1318.42 356.732 1318.4 356.709C1318.38 356.686 1318.36 356.66 1318.35 356.631C1318.34 356.573 1318.34 356.511 1318.37 356.457C1318.4 356.403 1318.45 356.361 1318.51 356.34C1318.68 356.287 1318.85 356.264 1319.02 356.271C1319.19 356.279 1319.36 356.318 1319.51 356.386C1319.78 356.523 1319.98 356.747 1320.06 357.012C1320.08 357.07 1320.08 357.132 1320.04 357.185C1320.01 357.238 1319.96 357.277 1319.89 357.294H1319.85Z" fill="black"/>
<path d="M1324.25 357.73C1324.22 357.728 1324.18 357.718 1324.15 357.703C1324.12 357.687 1324.09 357.665 1324.06 357.639C1323.91 357.447 1323.68 357.318 1323.42 357.279C1323.16 357.24 1322.9 357.294 1322.68 357.43C1322.66 357.448 1322.63 357.461 1322.6 357.468C1322.56 357.476 1322.53 357.477 1322.5 357.473C1322.47 357.469 1322.44 357.459 1322.41 357.444C1322.38 357.428 1322.35 357.408 1322.33 357.384C1322.31 357.364 1322.29 357.34 1322.28 357.312C1322.27 357.285 1322.26 357.255 1322.26 357.226C1322.26 357.196 1322.27 357.166 1322.28 357.139C1322.29 357.112 1322.31 357.087 1322.33 357.067C1322.49 356.957 1322.67 356.878 1322.86 356.833C1323.05 356.788 1323.25 356.779 1323.44 356.806C1323.64 356.833 1323.82 356.896 1323.99 356.991C1324.16 357.086 1324.3 357.21 1324.41 357.357C1324.46 357.4 1324.49 357.457 1324.49 357.516C1324.49 357.576 1324.46 357.633 1324.41 357.675C1324.37 357.711 1324.31 357.731 1324.25 357.73Z" fill="black"/>
<path d="M1319.05 355.333C1318.99 355.333 1318.92 355.309 1318.88 355.266C1318.83 355.224 1318.8 355.166 1318.8 355.106C1318.8 355.045 1318.83 354.988 1318.88 354.945C1318.92 354.903 1318.99 354.879 1319.05 354.879L1320.51 354.679C1320.55 354.674 1320.58 354.675 1320.61 354.681C1320.65 354.688 1320.68 354.701 1320.7 354.719C1320.73 354.736 1320.75 354.759 1320.77 354.785C1320.79 354.811 1320.8 354.84 1320.8 354.87C1320.81 354.929 1320.8 354.99 1320.76 355.039C1320.72 355.088 1320.66 355.122 1320.59 355.133L1319.12 355.323L1319.05 355.333Z" fill="black"/>
<path d="M1324.52 355.85C1324.49 355.858 1324.46 355.858 1324.43 355.85L1322.72 355.205C1322.66 355.18 1322.62 355.134 1322.59 355.079C1322.57 355.023 1322.57 354.961 1322.59 354.906C1322.61 354.878 1322.62 354.852 1322.65 354.83C1322.67 354.809 1322.7 354.792 1322.73 354.781C1322.76 354.77 1322.79 354.764 1322.83 354.766C1322.86 354.767 1322.89 354.774 1322.92 354.788L1324.62 355.432C1324.65 355.444 1324.68 355.461 1324.7 355.483C1324.73 355.504 1324.75 355.53 1324.76 355.558C1324.77 355.585 1324.78 355.615 1324.78 355.645C1324.77 355.675 1324.77 355.705 1324.75 355.732C1324.73 355.77 1324.7 355.801 1324.66 355.822C1324.62 355.843 1324.57 355.853 1324.52 355.85Z" fill="black"/>
<path d="M1320.21 360.852C1320.15 360.853 1320.09 360.833 1320.05 360.796C1320 360.759 1319.97 360.708 1319.96 360.653C1319.73 359.416 1320.04 358.143 1320.82 357.112C1320.85 357.089 1320.87 357.071 1320.9 357.057C1320.93 357.044 1320.96 357.036 1321 357.034C1321.03 357.032 1321.06 357.036 1321.09 357.045C1321.13 357.055 1321.15 357.07 1321.18 357.089C1321.2 357.109 1321.22 357.133 1321.24 357.16C1321.25 357.187 1321.26 357.216 1321.27 357.246C1321.27 357.276 1321.26 357.306 1321.25 357.334C1321.24 357.363 1321.23 357.389 1321.2 357.412C1320.52 358.352 1320.25 359.495 1320.46 360.607C1320.47 360.637 1320.46 360.667 1320.45 360.696C1320.44 360.724 1320.43 360.751 1320.41 360.773C1320.38 360.796 1320.36 360.815 1320.33 360.828C1320.3 360.842 1320.27 360.85 1320.23 360.852H1320.21Z" fill="black"/>
<path d="M1322.55 363.113C1322.3 363.095 1322.05 363.027 1321.83 362.914C1321.6 362.801 1321.41 362.646 1321.25 362.46C1321.24 362.428 1321.23 362.392 1321.23 362.355C1321.23 362.319 1321.24 362.283 1321.25 362.251C1321.27 362.214 1321.29 362.182 1321.32 362.156C1321.35 362.131 1321.39 362.113 1321.43 362.106L1323.65 361.588C1323.69 361.569 1323.73 361.558 1323.76 361.558C1323.8 361.558 1323.84 361.569 1323.87 361.588C1323.91 361.609 1323.93 361.638 1323.95 361.672C1323.96 361.706 1323.97 361.742 1323.96 361.779C1323.94 362.05 1323.84 362.311 1323.66 362.531C1323.48 362.751 1323.24 362.921 1322.96 363.023C1322.83 363.071 1322.7 363.102 1322.55 363.113ZM1321.94 362.441C1322.05 362.529 1322.18 362.592 1322.32 362.625C1322.46 362.658 1322.61 362.661 1322.75 362.632C1322.89 362.594 1323.01 362.527 1323.11 362.437C1323.21 362.347 1323.29 362.237 1323.33 362.115L1321.94 362.441Z" fill="black"/>
<path d="M1328.85 361.415C1328.8 361.418 1328.74 361.402 1328.69 361.37C1328.64 361.338 1328.61 361.291 1328.6 361.239C1328.58 361.187 1328.59 361.133 1328.62 361.085C1328.65 361.038 1328.69 361 1328.74 360.98L1331.74 359.736C1331.81 359.711 1331.88 359.708 1331.94 359.728C1332 359.748 1332.05 359.79 1332.08 359.845C1332.1 359.872 1332.1 359.902 1332.11 359.932C1332.11 359.961 1332.1 359.991 1332.09 360.019C1332.08 360.047 1332.06 360.072 1332.04 360.094C1332.01 360.115 1331.98 360.132 1331.95 360.144L1328.95 361.397L1328.85 361.415Z" fill="black"/>
<path d="M1331.5 362.051C1331.47 362.051 1331.44 362.044 1331.41 362.031C1331.38 362.019 1331.35 362.001 1331.32 361.978L1329.99 360.789C1329.97 360.769 1329.95 360.744 1329.94 360.717C1329.93 360.689 1329.92 360.66 1329.92 360.63C1329.92 360.6 1329.93 360.571 1329.94 360.544C1329.95 360.516 1329.97 360.492 1329.99 360.471C1330.04 360.43 1330.1 360.406 1330.17 360.406C1330.24 360.406 1330.3 360.43 1330.34 360.471L1331.67 361.67C1331.72 361.712 1331.75 361.769 1331.75 361.829C1331.75 361.888 1331.72 361.945 1331.67 361.987C1331.63 362.026 1331.57 362.049 1331.5 362.051Z" fill="black"/>
<path d="M1324.52 352.963C1323.3 352.862 1322.07 353.123 1321.01 353.707C1320.08 354.126 1319.32 354.808 1318.85 355.65C1318.56 354.821 1318.52 353.932 1318.75 353.085C1318.99 352.239 1319.48 351.469 1320.17 350.866C1322.6 348.623 1327.27 348.006 1329.96 350.657C1332.65 353.308 1332.49 355.65 1332.49 355.65L1328.85 358.637C1328.85 358.637 1323.15 357.666 1324.52 352.963Z" fill="black"/>
<path d="M1353.85 337.184C1353.82 337.183 1353.79 337.175 1353.75 337.162C1353.72 337.148 1353.69 337.129 1353.67 337.105C1353.65 337.081 1353.63 337.054 1353.62 337.023C1353.61 336.993 1353.6 336.961 1353.6 336.93C1354.26 332.145 1351.91 330.22 1351.89 330.202C1351.85 330.158 1351.82 330.1 1351.82 330.039C1351.82 329.978 1351.85 329.919 1351.89 329.875C1351.94 329.834 1352 329.81 1352.07 329.81C1352.14 329.81 1352.2 329.834 1352.24 329.875C1352.34 329.957 1354.81 331.954 1354.12 337.002C1354.11 337.058 1354.08 337.107 1354.03 337.14C1353.98 337.174 1353.92 337.189 1353.85 337.184Z" fill="black"/>
<path d="M1360.04 332.572C1360 332.58 1359.96 332.58 1359.92 332.572L1352.92 329.267C1352.89 329.254 1352.87 329.235 1352.85 329.212C1352.82 329.189 1352.81 329.162 1352.8 329.134C1352.79 329.105 1352.78 329.075 1352.79 329.044C1352.79 329.014 1352.8 328.985 1352.81 328.958C1352.83 328.931 1352.85 328.907 1352.88 328.887C1352.9 328.868 1352.93 328.853 1352.96 328.845C1352.99 328.836 1353.03 328.834 1353.06 328.838C1353.09 328.842 1353.13 328.852 1353.15 328.868L1360.15 332.172C1360.2 332.196 1360.24 332.233 1360.26 332.279C1360.29 332.324 1360.29 332.375 1360.28 332.424C1360.27 332.472 1360.24 332.516 1360.19 332.548C1360.15 332.579 1360.1 332.597 1360.04 332.599V332.572Z" fill="black"/>
<path d="M1319.05 370.186C1319.05 370.186 1312.73 372.909 1310.53 369.441C1308.33 365.973 1310.53 361.161 1310.53 361.161L1297.4 356.758C1297.4 356.758 1286.84 377.966 1296.74 383.45C1309.07 390.277 1322.53 386.101 1322.53 386.101L1319.05 370.186Z" fill="#ADA4F7"/>
<path d="M1328.34 367.553C1328.34 367.553 1325.26 372.356 1319.79 370.213C1314.32 368.07 1335.29 399.184 1335.29 399.184L1332.49 371.947L1328.34 367.553Z" fill="#ADA4F7"/>
<path d="M1303.63 356.449C1303.59 356.464 1303.53 356.464 1303.48 356.449C1303.46 356.432 1303.44 356.411 1303.42 356.386C1303.4 356.361 1303.39 356.333 1303.39 356.304C1303.38 356.276 1303.38 356.246 1303.39 356.218C1303.4 356.19 1303.42 356.164 1303.43 356.141C1305.43 353.589 1309.84 354.779 1310.03 354.833C1310.1 354.852 1310.15 354.892 1310.18 354.944C1310.21 354.997 1310.21 355.058 1310.19 355.115C1310.19 355.143 1310.17 355.17 1310.15 355.193C1310.13 355.216 1310.1 355.236 1310.07 355.25C1310.05 355.264 1310.01 355.273 1309.98 355.277C1309.95 355.28 1309.92 355.277 1309.88 355.269C1309.88 355.269 1305.64 354.116 1303.88 356.404C1303.85 356.43 1303.81 356.448 1303.77 356.456C1303.72 356.464 1303.68 356.462 1303.63 356.449Z" fill="black"/>
<path d="M1365.27 431.868L1348.48 420.719L1344.33 427.074L1345.55 455.146C1345.55 455.146 1352.31 453.785 1365.27 431.868Z" fill="#6DB3DD"/>
<path d="M1331.57 453.994C1331.53 454.002 1331.48 454.002 1331.43 453.994C1331.21 453.857 1325.97 450.707 1322.58 439.467C1319.37 428.845 1319.85 412.92 1319.91 411.186L1313.19 408.463C1313.13 408.437 1313.09 408.391 1313.06 408.334C1313.04 408.277 1313.04 408.214 1313.07 408.159C1313.1 408.103 1313.15 408.06 1313.21 408.039C1313.27 408.017 1313.34 408.02 1313.4 408.045L1320.27 410.878C1320.32 410.897 1320.36 410.928 1320.39 410.966C1320.41 411.005 1320.43 411.05 1320.42 411.096C1320.42 411.268 1319.71 428.273 1323.06 439.395C1326.41 450.516 1331.65 453.621 1331.7 453.649C1331.76 453.682 1331.8 453.734 1331.81 453.793C1331.83 453.852 1331.82 453.914 1331.78 453.966C1331.75 453.984 1331.72 453.996 1331.68 454C1331.65 454.005 1331.61 454.003 1331.57 453.994Z" fill="white"/>
<path d="M1342.85 429.934C1342.74 429.945 1342.62 429.925 1342.51 429.877C1342.4 429.828 1342.32 429.754 1342.25 429.662C1341.58 428.6 1345.52 424.214 1346.75 422.862C1346.79 422.824 1346.84 422.798 1346.89 422.786C1346.94 422.775 1346.99 422.779 1347.04 422.798C1347.1 422.818 1347.14 422.853 1347.16 422.898C1347.19 422.943 1347.2 422.994 1347.18 423.043C1347.13 423.307 1345.86 429.498 1343.08 429.916L1342.85 429.934ZM1346.48 423.87C1344.32 426.303 1342.38 428.954 1342.69 429.435C1342.69 429.48 1342.84 429.489 1343 429.435C1344.76 429.208 1345.98 425.894 1346.52 423.87H1346.48Z" fill="white"/>
<path d="M1339.52 410.487C1338.67 410.496 1337.83 410.299 1337.09 409.915C1335.62 409.143 1334.62 407.645 1334.09 405.457C1334.08 405.397 1334.1 405.335 1334.13 405.285C1334.17 405.234 1334.23 405.198 1334.29 405.185C1334.36 405.174 1334.43 405.188 1334.48 405.222C1334.54 405.256 1334.57 405.308 1334.58 405.367C1335.04 407.418 1335.96 408.817 1337.3 409.525C1338.37 410.045 1339.62 410.172 1340.78 409.879C1340.81 409.867 1340.85 409.862 1340.88 409.863C1340.91 409.864 1340.94 409.871 1340.97 409.884C1341 409.896 1341.03 409.915 1341.05 409.937C1341.07 409.96 1341.09 409.987 1341.09 410.015C1341.11 410.043 1341.11 410.073 1341.11 410.103C1341.11 410.133 1341.1 410.163 1341.09 410.19C1341.08 410.217 1341.06 410.242 1341.03 410.262C1341.01 410.282 1340.98 410.296 1340.94 410.306C1340.48 410.429 1340.01 410.49 1339.52 410.487Z" fill="white"/>
<path d="M1306.46 374.244C1306.29 374.244 1306.12 374.216 1305.96 374.162C1305.48 374.017 1305.35 373.754 1305.33 373.554C1305.16 372.265 1309.52 369.741 1310.4 369.241C1310.45 369.217 1310.5 369.205 1310.55 369.205C1310.6 369.205 1310.65 369.217 1310.69 369.241C1310.73 369.274 1310.76 369.316 1310.78 369.363C1310.79 369.41 1310.78 369.46 1310.76 369.505C1310.68 369.723 1308.72 374.244 1306.46 374.244ZM1309.99 370.022C1307.99 371.203 1305.74 372.846 1305.82 373.509C1305.82 373.509 1305.82 373.654 1306.12 373.736C1307.56 374.189 1309.19 371.629 1309.99 370.022Z" fill="#A27A92"/>
<path d="M1309.59 365.129H1309.51L1295.74 360.589C1295.68 360.568 1295.63 360.524 1295.6 360.469C1295.58 360.414 1295.58 360.351 1295.6 360.294C1295.62 360.238 1295.67 360.192 1295.73 360.167C1295.79 360.143 1295.86 360.141 1295.92 360.163L1309.68 364.702C1309.75 364.723 1309.8 364.765 1309.83 364.819C1309.85 364.874 1309.86 364.936 1309.83 364.993C1309.81 365.034 1309.78 365.069 1309.74 365.093C1309.69 365.117 1309.64 365.13 1309.59 365.129Z" fill="#A27A92"/>
<path d="M1361.71 345.4H1361.63L1345.08 340.334C1345.05 340.326 1345.02 340.312 1345 340.293C1344.97 340.274 1344.95 340.251 1344.94 340.224C1344.93 340.197 1344.92 340.168 1344.92 340.139C1344.92 340.109 1344.92 340.08 1344.93 340.053C1344.96 339.996 1345 339.949 1345.06 339.922C1345.12 339.895 1345.19 339.89 1345.25 339.907L1361.79 344.955C1361.86 344.976 1361.91 345.018 1361.94 345.072C1361.97 345.126 1361.97 345.188 1361.95 345.246C1361.94 345.291 1361.9 345.329 1361.86 345.357C1361.82 345.384 1361.77 345.399 1361.71 345.4Z" fill="#A27A92"/>
<path d="M1312.53 388.053C1312.48 388.052 1312.42 388.034 1312.38 388.001C1312.34 387.968 1312.31 387.922 1312.29 387.872C1311.44 383.751 1312.03 379.49 1313.97 375.688C1313.99 375.661 1314.01 375.636 1314.04 375.617C1314.06 375.597 1314.09 375.582 1314.12 375.573C1314.15 375.563 1314.19 375.56 1314.22 375.563C1314.25 375.565 1314.29 375.574 1314.31 375.588C1314.37 375.617 1314.42 375.665 1314.44 375.722C1314.46 375.78 1314.45 375.842 1314.42 375.896C1312.52 379.601 1311.95 383.755 1312.78 387.772C1312.79 387.801 1312.79 387.831 1312.79 387.861C1312.78 387.89 1312.77 387.919 1312.75 387.944C1312.73 387.969 1312.71 387.991 1312.68 388.008C1312.66 388.025 1312.63 388.038 1312.59 388.044L1312.53 388.053Z" fill="#A27A92"/>
<path d="M1322.61 370.985C1321.61 370.973 1320.62 370.782 1319.69 370.422C1319.66 370.411 1319.64 370.394 1319.61 370.373C1319.59 370.352 1319.57 370.326 1319.56 370.298C1319.54 370.27 1319.54 370.24 1319.54 370.209C1319.54 370.179 1319.55 370.149 1319.56 370.122C1319.58 370.094 1319.59 370.068 1319.62 370.047C1319.64 370.025 1319.66 370.009 1319.7 369.997C1319.73 369.986 1319.76 369.981 1319.79 369.982C1319.82 369.983 1319.86 369.991 1319.88 370.004C1325.3 372.038 1328.01 367.635 1328.12 367.444C1328.14 367.418 1328.16 367.394 1328.19 367.376C1328.21 367.357 1328.24 367.343 1328.27 367.334C1328.31 367.326 1328.34 367.323 1328.37 367.326C1328.4 367.33 1328.44 367.339 1328.46 367.353C1328.52 367.383 1328.56 367.432 1328.58 367.49C1328.6 367.547 1328.59 367.608 1328.56 367.662C1328.53 367.707 1326.53 370.985 1322.61 370.985Z" fill="#A27A92"/>
<path d="M1310.15 354.316C1310.15 354.316 1312.15 346.562 1313.91 347.597C1315.67 348.632 1314.5 356.213 1313.63 357.021C1312.7 357.701 1311.65 358.246 1310.53 358.637L1310.15 354.316Z" fill="#FF8366"/>
<path d="M1328.34 403.741C1328.31 403.741 1328.28 403.734 1328.25 403.722C1328.22 403.709 1328.19 403.691 1328.16 403.669C1328.16 403.669 1326.08 401.789 1324.48 401.708C1322.88 401.626 1321.22 403.524 1321.2 403.569C1321.18 403.601 1321.14 403.626 1321.1 403.64C1321.06 403.655 1321.02 403.658 1320.97 403.651C1320.93 403.646 1320.89 403.63 1320.85 403.604C1320.82 403.579 1320.79 403.544 1320.77 403.505C1320.77 403.505 1319.77 401.09 1318.03 400.618C1316.29 400.146 1315.22 402.806 1315.21 402.834C1315.2 402.881 1315.17 402.922 1315.12 402.952C1315.08 402.981 1315.03 402.997 1314.97 402.997C1314.92 402.997 1314.87 402.981 1314.82 402.952C1314.78 402.922 1314.75 402.881 1314.73 402.834C1314.57 402.298 1313.97 400.863 1313.22 400.636C1312.47 400.409 1311.22 401.299 1310.75 401.662C1310.71 401.705 1310.64 401.728 1310.57 401.728C1310.51 401.728 1310.44 401.705 1310.39 401.662C1310.35 401.62 1310.32 401.563 1310.32 401.503C1310.32 401.444 1310.35 401.387 1310.39 401.345C1310.57 401.19 1312.2 399.874 1313.39 400.219C1314.2 400.464 1314.75 401.499 1315.03 402.171C1315.51 401.317 1316.62 399.792 1318.19 400.219C1319.76 400.646 1320.74 402.298 1321.1 403.033C1321.68 402.452 1323.1 401.217 1324.53 401.29C1325.96 401.363 1327.66 402.652 1328.28 403.169C1328.7 402.452 1329.93 400.627 1331.58 400.627C1333.23 400.627 1334.08 402.125 1334.45 402.87C1334.95 402.234 1335.99 401.009 1336.79 400.927C1337.59 400.845 1338.41 401.744 1338.79 402.298C1339.12 401.553 1339.87 400.173 1340.87 400.146C1342.19 400.146 1342.94 401.753 1342.97 401.817C1342.99 401.87 1342.98 401.926 1342.95 401.975C1342.92 402.024 1342.88 402.062 1342.82 402.084C1342.77 402.105 1342.7 402.109 1342.65 402.093C1342.59 402.077 1342.54 402.044 1342.5 401.998C1342.5 401.998 1341.84 400.609 1340.88 400.6C1340.09 400.6 1339.3 402.289 1339.09 402.87C1339.08 402.911 1339.05 402.948 1339.01 402.975C1338.98 403.002 1338.93 403.019 1338.88 403.024C1338.84 403.027 1338.79 403.018 1338.75 402.999C1338.71 402.98 1338.67 402.951 1338.64 402.915C1338.23 402.289 1337.4 401.317 1336.81 401.372C1336.22 401.426 1335.12 402.697 1334.57 403.478C1334.55 403.513 1334.51 403.542 1334.47 403.559C1334.43 403.577 1334.38 403.583 1334.33 403.578C1334.29 403.573 1334.24 403.556 1334.2 403.529C1334.17 403.501 1334.14 403.465 1334.12 403.424C1334.12 403.424 1333.22 401.081 1331.54 401.081C1329.86 401.081 1328.54 403.614 1328.54 403.642C1328.53 403.674 1328.5 403.703 1328.47 403.725C1328.43 403.747 1328.39 403.762 1328.35 403.769L1328.34 403.741Z" fill="#A27A92"/>
<path d="M1287.42 495.384C1287.36 495.382 1287.3 495.359 1287.25 495.319C1287.21 495.279 1287.18 495.224 1287.17 495.167C1287.17 495.105 1287.2 495.047 1287.25 495.003C1287.29 494.959 1287.36 494.933 1287.42 494.93L1326.56 494.141C1326.6 494.139 1326.63 494.144 1326.66 494.154C1326.69 494.165 1326.72 494.18 1326.74 494.201C1326.77 494.221 1326.79 494.245 1326.8 494.272C1326.82 494.299 1326.82 494.329 1326.82 494.359C1326.82 494.42 1326.8 494.478 1326.75 494.522C1326.71 494.566 1326.64 494.592 1326.57 494.595L1287.43 495.384H1287.42Z" fill="#3E527C"/>
<path d="M1389.99 432.676C1389.94 432.675 1389.88 432.659 1389.83 432.631L1359.07 410.678C1359.04 410.663 1359.01 410.641 1358.99 410.615C1358.97 410.588 1358.95 410.558 1358.95 410.526C1358.94 410.493 1358.94 410.46 1358.95 410.427C1358.95 410.395 1358.97 410.364 1358.99 410.338C1359.01 410.312 1359.04 410.29 1359.07 410.275C1359.11 410.259 1359.14 410.251 1359.18 410.249C1359.22 410.248 1359.25 410.254 1359.29 410.267C1359.32 410.28 1359.35 410.299 1359.37 410.324L1390.14 432.277C1390.17 432.297 1390.19 432.322 1390.2 432.349C1390.21 432.376 1390.22 432.406 1390.22 432.436C1390.22 432.465 1390.21 432.495 1390.2 432.522C1390.19 432.549 1390.17 432.574 1390.14 432.594C1390.11 432.637 1390.05 432.666 1389.99 432.676Z" fill="#3E527C"/>
<path d="M1330.97 481.248C1330.9 481.248 1330.83 481.222 1330.78 481.176C1330.22 480.568 1328.52 478.997 1327.4 478.997C1326.28 478.997 1325.07 480.549 1324.68 481.14C1324.66 481.178 1324.63 481.21 1324.58 481.229C1324.54 481.249 1324.49 481.255 1324.44 481.248C1324.4 481.246 1324.35 481.232 1324.32 481.208C1324.28 481.184 1324.25 481.151 1324.23 481.112C1324.23 481.112 1323.16 478.779 1321.46 478.543C1320.08 478.37 1318.3 480.359 1317.74 481.149C1317.72 481.185 1317.68 481.213 1317.63 481.231C1317.59 481.248 1317.54 481.255 1317.49 481.248C1317.45 481.241 1317.4 481.222 1317.37 481.193C1317.33 481.164 1317.31 481.127 1317.29 481.085C1317.29 481.085 1316.51 478.361 1314.86 477.889C1313.54 477.526 1312.02 479.85 1311.54 480.776C1311.53 480.819 1311.49 480.856 1311.45 480.88C1311.41 480.904 1311.36 480.916 1311.3 480.913C1311.25 480.909 1311.21 480.891 1311.17 480.862C1311.13 480.833 1311.1 480.793 1311.08 480.749C1310.89 480.213 1310.19 478.652 1309.42 478.543C1308.65 478.434 1307.09 479.896 1306.23 480.831C1306.19 480.872 1306.12 480.896 1306.06 480.896C1305.99 480.896 1305.93 480.872 1305.88 480.831C1305.86 480.81 1305.84 480.786 1305.83 480.759C1305.82 480.731 1305.81 480.702 1305.81 480.672C1305.81 480.642 1305.82 480.613 1305.83 480.585C1305.84 480.558 1305.86 480.533 1305.88 480.513C1306.12 480.241 1308.34 477.916 1309.52 478.071C1310.42 478.198 1311.07 479.378 1311.38 480.086C1311.98 479.106 1313.46 476.99 1315.04 477.426C1316.62 477.862 1317.33 479.623 1317.65 480.486C1318.32 479.66 1319.97 477.862 1321.56 478.071C1323.15 478.28 1324.12 479.805 1324.56 480.531C1325.06 479.868 1326.23 478.516 1327.46 478.516C1329.04 478.516 1331.14 480.758 1331.23 480.849C1331.28 480.892 1331.3 480.949 1331.3 481.008C1331.3 481.067 1331.28 481.123 1331.23 481.167C1331.2 481.2 1331.16 481.226 1331.12 481.24C1331.07 481.254 1331.02 481.257 1330.97 481.248Z" fill="white"/>
<path d="M1363.19 432.785C1362.95 432.789 1362.71 432.746 1362.48 432.658C1361.58 432.304 1361.6 431.205 1361.71 430.543C1361.07 430.887 1360.36 431.105 1359.62 431.182C1358.88 431.258 1358.13 431.192 1357.41 430.987C1355.55 430.306 1355.63 427.846 1355.75 426.811C1354.8 427.304 1353.69 427.507 1352.59 427.392C1352.43 427.362 1352.28 427.301 1352.15 427.213C1352.02 427.126 1351.91 427.013 1351.83 426.884C1351.47 425.979 1351.44 424.993 1351.73 424.069C1350.94 424.387 1349.45 424.895 1348.73 424.423C1347.28 423.461 1348.19 420.792 1348.23 420.646C1348.24 420.614 1348.25 420.583 1348.27 420.555C1348.29 420.528 1348.32 420.504 1348.35 420.487C1348.38 420.469 1348.41 420.458 1348.45 420.454C1348.49 420.45 1348.52 420.453 1348.56 420.463C1348.59 420.473 1348.62 420.49 1348.65 420.512C1348.68 420.534 1348.7 420.562 1348.71 420.592C1348.73 420.622 1348.73 420.655 1348.73 420.688C1348.73 420.721 1348.72 420.753 1348.7 420.783C1348.7 420.783 1347.86 423.279 1349.03 424.06C1349.54 424.396 1351.1 423.869 1351.96 423.461C1352.01 423.434 1352.05 423.42 1352.1 423.42C1352.15 423.42 1352.2 423.434 1352.24 423.461C1352.28 423.487 1352.31 423.525 1352.33 423.567C1352.34 423.61 1352.34 423.655 1352.32 423.697C1352.14 424.269 1351.78 425.93 1352.24 426.629C1352.29 426.703 1352.36 426.767 1352.44 426.817C1352.51 426.867 1352.6 426.902 1352.69 426.92C1353.83 426.985 1354.96 426.725 1355.92 426.176C1355.97 426.153 1356.01 426.141 1356.06 426.141C1356.11 426.141 1356.15 426.153 1356.19 426.176C1356.24 426.2 1356.27 426.236 1356.29 426.278C1356.31 426.32 1356.31 426.367 1356.3 426.412C1356.3 426.412 1355.64 429.825 1357.58 430.533C1359.52 431.242 1361.89 429.898 1361.91 429.88C1361.96 429.851 1362.01 429.835 1362.06 429.835C1362.11 429.835 1362.16 429.851 1362.2 429.88C1362.24 429.906 1362.27 429.943 1362.29 429.985C1362.31 430.027 1362.31 430.073 1362.29 430.116C1362.29 430.116 1361.79 431.868 1362.66 432.204C1363.53 432.54 1365.1 431.65 1365.12 431.641C1365.18 431.606 1365.25 431.592 1365.31 431.602C1365.38 431.613 1365.44 431.646 1365.47 431.696C1365.51 431.745 1365.53 431.806 1365.52 431.866C1365.51 431.925 1365.47 431.978 1365.41 432.013C1364.76 432.442 1364 432.708 1363.19 432.785Z" fill="white"/>
<path d="M1329.27 353.771C1329.27 353.771 1331.18 346.717 1336.22 348.75C1341.26 350.784 1336.31 357.466 1333.22 357.502C1330.13 357.539 1329.27 353.771 1329.27 353.771Z" fill="black"/>
</g>
</g>
<defs>
<filter id="filter0_d_1351_8776" x="-16" y="0" width="1472" height="515" filterUnits="userSpaceOnUse" color-interpolation-filters="sRGB">
<feFlood flood-opacity="0" result="BackgroundImageFix"/>
<feColorMatrix in="SourceAlpha" type="matrix" values="0 0 0 0 0 0 0 0 0 0 0 0 0 0 0 0 0 0 127 0" result="hardAlpha"/>
<feOffset/>
<feGaussianBlur stdDeviation="8"/>
<feColorMatrix type="matrix" values="0 0 0 0 0 0 0 0 0 0 0 0 0 0 0 0 0 0 0.1 0"/>
<feBlend mode="multiply" in2="BackgroundImageFix" result="effect1_dropShadow_1351_8776"/>
<feBlend mode="normal" in="SourceGraphic" in2="effect1_dropShadow_1351_8776" result="shape"/>
</filter>
</defs>
</svg>
