<svg width="64" height="70" viewBox="0 0 64 70" fill="none" xmlns="http://www.w3.org/2000/svg">
<path d="M30.5156 0.578125C26.7344 0.875 23.2812 1.21875 22.8281 1.34375C21.375 1.75 19.8906 3.23438 19.5156 4.65625C19.4219 4.98438 19.1719 6.70312 18.9531 8.51562C18.7344 10.3125 18.5156 11.9531 18.4688 12.1406L18.4062 12.5H9.89062C1.57812 12.5 1.375 12.5 1.0625 12.8125C0.84375 13.0312 0.75 13.3281 0.75 13.8438C0.75 14.4844 6.71875 67.5781 6.9375 68.875C6.98438 69.1562 7.15625 69.5312 7.32812 69.7031C7.60938 69.9844 7.95312 70 19.4375 70C26.9375 70 31.3438 69.9375 31.5312 69.8438C31.9062 69.6406 32.1094 68.9531 32.2344 67.5C32.3906 65.625 32.3125 65.6719 33.6875 66.625C37 68.9375 40.4219 70 44.5 70C49.7344 70 54.125 68.1875 57.7812 64.5312C60.5938 61.7188 62.3594 58.375 63.0156 54.625C63.3594 52.5938 63.3281 49.4062 62.9219 47.4531C61.5 40.4375 56.1562 34.7969 49.2344 33.0312C45.375 32.0469 40.5312 32.4062 37.2031 33.9062C36.6406 34.1719 36.1406 34.3438 36.0938 34.2969C36.0469 34.2656 36.5156 29.7812 37.1406 24.3438C37.75 18.9062 38.25 14.1562 38.25 13.7812C38.25 13.3438 38.1562 13.0312 37.9375 12.8125C37.6406 12.5156 37.4219 12.5 31.9219 12.5C26.5938 12.5 26.2188 12.4844 26.2188 12.2188C26.2344 11.6875 26.6562 8.71875 26.7344 8.64062C26.7812 8.59375 29.7969 8.32812 33.4375 8.04688C37.0781 7.76562 40.1719 7.48438 40.3281 7.42188C40.4844 7.35938 40.7031 7.10938 40.8281 6.875C41.0156 6.51562 41.0156 6.0625 40.8281 3.59375C40.5469 0 40.5312 -0.015625 38.6562 0.015625C37.9531 0.03125 34.2969 0.28125 30.5156 0.578125ZM38.1562 3.76562C38.2188 4.375 38.2344 4.90625 38.2031 4.95312C38.1562 4.98438 35.1875 5.25 31.5938 5.53125C27.9844 5.82812 24.9375 6.09375 24.8125 6.15625C24.3281 6.35938 24.1719 6.92188 23.8438 9.6875L23.5 12.5H22.3594C21.2812 12.5 21.2188 12.4844 21.2188 12.1406C21.2344 11.0625 22.0312 5.51562 22.25 5.0625C22.4062 4.75 22.7812 4.35938 23.1562 4.14062C23.8125 3.76562 24.1562 3.71875 37.7969 2.67188C38 2.65625 38.0781 2.875 38.1562 3.76562ZM18.0469 15.6406C18 16 17.625 19.0625 17.2031 22.4375L16.4531 28.5938H10.7188C5.1875 28.5938 4.96875 28.5781 4.96875 28.2969C4.96875 28.1406 4.65625 25.25 4.26562 21.875C3.875 18.5 3.5625 15.5781 3.5625 15.375V15H10.8438H18.1406L18.0469 15.6406ZM23.0938 15.2656C23.0938 15.4219 22.7344 18.4844 22.2812 22.0625L21.4688 28.5938H20.3281C19.7031 28.5938 19.1875 28.5469 19.1875 28.4688C19.1719 28.4062 19.5469 25.3594 20 21.6719L20.8281 15H21.9531C22.9375 15 23.0938 15.0312 23.0938 15.2656ZM35.4375 15.3594C35.4375 15.5625 35.125 18.5 34.7344 21.8906C34.3438 25.2812 34.0312 28.1719 34.0312 28.3125C34.0312 28.5781 33.6875 28.5938 29.1094 28.5938C26.4062 28.5938 24.1875 28.5469 24.1875 28.4688C24.1875 28.25 25.7656 15.7031 25.8438 15.3438L25.9062 15H30.6719H35.4375V15.3594ZM33.6406 31.6719C33.5938 31.9219 33.4531 33.0469 33.3281 34.2031C33.0938 36.1562 33.0469 36.3125 32.6562 36.625C30.4219 38.3438 28.3906 41.0781 27.1094 44.0625C26.1562 46.2969 25.875 47.6875 25.7969 50.7031C25.7344 53 25.7656 53.5781 26.0625 55C26.5938 57.6406 27.8125 60.3594 29.3906 62.4844L30.0156 63.3281L29.8281 65.1406C29.7188 66.1406 29.6094 67.0781 29.5625 67.2188C29.4844 67.4844 28.875 67.5 19.5 67.5C10.125 67.5 9.51562 67.4844 9.4375 67.2188C9.40625 67.0781 9.3125 66.5156 9.26562 65.9688L9.15625 65H17.7656C26.1719 65 26.375 65 26.6875 64.6875C27.0312 64.3438 27.1094 63.4688 26.8438 62.9688C26.5312 62.375 25.9688 62.3438 17.2969 62.3438H8.90625L8.8125 61.7656C8.76562 61.4375 7.98438 54.625 7.07812 46.6406C6.1875 38.6406 5.40625 31.9219 5.35938 31.6719L5.29688 31.25H19.5H33.7188L33.6406 31.6719ZM47.2344 35.3438C50.3125 35.8125 53.5469 37.5 55.9219 39.875C57.7812 41.7344 59.2656 44.25 60.0781 46.9531C60.4688 48.2656 60.5 48.5469 60.5 51.25C60.5 53.9531 60.4688 54.2344 60.0781 55.5469C58.3594 61.1406 54.4219 65.0781 48.7812 66.8281C47.4844 67.2188 47.2031 67.25 44.5 67.25C41.7969 67.25 41.5156 67.2188 40.2188 66.8281C34.5781 65.0781 30.6406 61.1406 28.9219 55.5469C28.5312 54.2344 28.5 53.9531 28.5 51.25C28.5 48.5469 28.5312 48.2656 28.9219 46.9531C30.3281 42.3281 33.3125 38.7656 37.5469 36.7188C40.625 35.2188 43.6094 34.7969 47.2344 35.3438Z" fill="#151515"/>
<path d="M8.5783 35.375C8.23455 35.7344 8.21892 35.8438 8.3283 37.0781C8.53142 39.625 8.73455 40 9.8908 40C10.5783 40 10.9377 39.7344 11.1252 39.1406C11.297 38.5781 10.8283 35.6719 10.5158 35.3125C10.0939 34.8438 9.04705 34.875 8.5783 35.375Z" fill="#151515"/>
<path d="M9.60954 42.5156C9.01579 42.8594 9.01579 43.2656 9.65642 48.9531C10.422 55.75 10.3908 55.5781 10.797 55.9531C11.2189 56.3437 12.0002 56.3281 12.5314 55.9219C13.0783 55.4844 13.0783 55.2344 12.297 48.5469C11.7345 43.6562 11.6252 43.0156 11.3439 42.7031C10.9845 42.3125 10.1095 42.2187 9.60954 42.5156Z" fill="#151515"/>
<path d="M43.1719 37.5155C38.4844 37.8905 34.1875 40.8593 32.0781 45.203C31.1094 47.2186 30.75 48.828 30.75 51.2499C30.75 55.1718 32.0312 58.328 34.7344 61.0155C36.375 62.6561 38.1094 63.703 40.4375 64.453C42.2031 65.0311 45.3438 65.1718 47.2812 64.7811C51.5156 63.9218 55 61.203 56.9219 57.2655C57.8906 55.2655 58.1094 54.3436 58.2031 51.7186C58.2969 48.9686 58 47.4374 56.9219 45.203C54.3906 39.9843 49.1406 37.0468 43.1719 37.5155ZM43.25 43.9061C43.25 46.8124 43.2031 47.6561 43.0469 47.6561C42.9375 47.6561 41.7031 46.4843 40.2812 45.0624L37.7031 42.4843L38.1562 42.1093C38.8281 41.578 40.2031 40.9218 41.5312 40.5311C43.4375 39.953 43.25 39.5936 43.25 43.9061ZM47.2812 40.4686C48.5781 40.828 50.1562 41.5624 50.8438 42.1093L51.2969 42.4843L48.7188 45.0624C47.2969 46.4843 46.0625 47.6561 45.9531 47.6561C45.7969 47.6561 45.75 46.8124 45.75 43.9061C45.75 40.9843 45.7969 40.1561 45.9531 40.1561C46.0625 40.1561 46.6562 40.2968 47.2812 40.4686ZM38.3594 47.0624C39.7656 48.4686 40.9062 49.6561 40.9062 49.7186C40.9062 49.7968 39.2188 49.8436 37.1562 49.8436H33.4062L33.5 49.4061C33.7656 48.203 34.1094 47.1874 34.5312 46.3436C35.0625 45.2968 35.5625 44.5311 35.7188 44.5311C35.7812 44.5311 36.9688 45.6718 38.3594 47.0624ZM53.6875 44.953C54.4531 46.0468 55.125 47.703 55.5 49.4061L55.5938 49.8436H51.8438C49.7812 49.8436 48.0938 49.7968 48.0938 49.7343C48.0938 49.578 53.125 44.5311 53.2812 44.5311C53.3438 44.5311 53.5156 44.7186 53.6875 44.953ZM45.2812 50.4686C45.4531 50.6405 45.5938 50.9843 45.5938 51.2499C45.5938 51.5155 45.4531 51.8593 45.2812 52.0311C45.1094 52.203 44.7656 52.3436 44.5 52.3436C44.2344 52.3436 43.8906 52.203 43.7188 52.0311C43.5469 51.8593 43.4062 51.5155 43.4062 51.2499C43.4062 50.9843 43.5469 50.6405 43.7188 50.4686C43.8906 50.2968 44.2344 50.1561 44.5 50.1561C44.7656 50.1561 45.1094 50.2968 45.2812 50.4686ZM40.9062 52.703C40.9062 52.8124 39.75 54.0468 38.3125 55.4686L35.7344 58.0468L35.4062 57.6561C34.8594 56.9843 34.0156 55.1561 33.7031 53.9374C33.5469 53.2968 33.4062 52.703 33.4062 52.6249C33.4062 52.5624 35.0938 52.4999 37.1562 52.4999C40.0625 52.4999 40.9062 52.5468 40.9062 52.703ZM55.5938 52.6249C55.5938 52.703 55.4531 53.2968 55.2969 53.9374C54.9844 55.1561 54.1406 56.9843 53.5938 57.6561L53.2656 58.0468L50.6875 55.4686C49.25 54.0468 48.0938 52.8124 48.0938 52.703C48.0938 52.5468 48.9375 52.4999 51.8438 52.4999C53.9062 52.4999 55.5938 52.5624 55.5938 52.6249ZM43.25 58.5936C43.25 60.6561 43.1875 62.3436 43.125 62.3436C43.0469 62.3436 42.4531 62.203 41.8125 62.0468C40.5938 61.7343 38.7656 60.8905 38.0938 60.3436L37.7031 60.0155L40.2812 57.4374C41.7031 55.9999 42.9375 54.8436 43.0469 54.8436C43.2031 54.8436 43.25 55.6874 43.25 58.5936ZM48.7188 57.4374L51.2969 60.0155L50.9062 60.3436C50.2344 60.8905 48.4062 61.7343 47.1875 62.0468C46.5469 62.203 45.9531 62.3436 45.875 62.3436C45.8125 62.3436 45.75 60.6561 45.75 58.5936C45.75 55.6874 45.7969 54.8436 45.9531 54.8436C46.0625 54.8436 47.2969 55.9999 48.7188 57.4374Z" fill="#151515"/>
</svg>
