<svg width="80" height="80" viewBox="0 0 80 80" fill="none" xmlns="http://www.w3.org/2000/svg">
<path d="M11.75 3.93745C11.6406 4.04682 11.5625 4.56245 11.5625 5.24995C11.5625 6.43745 11.75 6.79682 12.2969 6.68745C12.5469 6.64057 12.5781 6.45307 12.5781 5.23432C12.5781 3.93745 12.5469 3.82807 12.2656 3.7812C12.0938 3.76557 11.8594 3.82807 11.75 3.93745Z" fill="#151515"/>
<path d="M6.09355 6.3283C5.8123 6.65642 6.03105 7.0783 6.8748 7.87517C7.51542 8.46892 7.70292 8.56267 7.9998 8.4533C8.60917 8.23455 8.51542 7.8283 7.64042 6.93767C6.78105 6.06267 6.42167 5.92205 6.09355 6.3283Z" fill="#151515"/>
<path d="M16.75 6.92185C15.8438 7.8281 15.7344 8.31248 16.3906 8.40623C16.9219 8.48435 18.3125 7.10935 18.25 6.56248C18.1719 5.87498 17.6563 5.99998 16.75 6.92185Z" fill="#151515"/>
<path d="M10.9218 7.39077C9.42184 7.81265 8.31247 8.70327 7.62497 10.0626C7.23435 10.8283 7.06247 12.7345 7.3281 13.672C7.93747 15.9376 10.3906 17.5626 12.7343 17.2658C13.2343 17.2033 14.0312 16.9533 14.5781 16.672C16.25 15.797 17.3437 13.9064 16.25 13.7814C15.9375 13.7501 15.75 13.8751 15.3593 14.4376C14.1875 16.0939 12.0937 16.6251 10.3125 15.7033C9.67184 15.3751 8.67185 14.172 8.46872 13.4689C8.03122 12.0001 8.48434 10.3908 9.60934 9.39077C10.4375 8.67202 11.0781 8.43765 12.1875 8.43765C14.2343 8.43765 15.7656 9.8439 16.0781 12.0314C16.1718 12.6876 16.2031 12.7345 16.6406 12.7345H17.1093L17.0937 11.797C17.0625 10.1251 15.9375 8.4689 14.2968 7.7189C13.2968 7.25015 11.875 7.12515 10.9218 7.39077Z" fill="#151515"/>
<path d="M53.9373 7.50007C51.2498 7.98444 48.9686 9.54694 47.3905 11.9844C46.9217 12.7344 46.8123 12.8126 46.3123 12.8126C44.8905 12.8126 42.703 13.6876 41.3748 14.7813C39.2186 16.5782 38.0936 19.0469 38.1092 21.9532C38.1092 24.2188 38.8123 26.1719 40.1717 27.7188L40.7811 28.4063L40.3123 29.3126C39.6717 30.5938 39.3748 31.8751 39.3748 33.4376C39.3748 35.9688 40.203 38.0157 41.953 39.7813C44.6405 42.4844 48.953 43.2813 52.1717 41.6563L52.9686 41.2501V48.5938V55.9376H47.1873C44.0155 55.9376 41.4061 55.9219 41.4061 55.8907C41.4061 55.8751 41.2967 55.2657 41.1717 54.5469C40.9998 53.5313 40.6717 52.6563 39.8123 50.7969C39.1873 49.4688 38.6405 48.3282 38.6092 48.2344C38.578 48.1563 38.703 48.1719 38.8748 48.2657C39.0467 48.3594 39.4998 48.4376 39.8905 48.4376C40.8123 48.4376 41.328 47.9219 41.203 47.1251C41.1561 46.8126 41.1873 46.5313 41.2655 46.4844C41.3436 46.4219 41.4061 46.2188 41.4061 46.0157C41.4061 45.7344 41.203 45.5313 40.5623 45.1719C40.1092 44.9063 39.6561 44.5938 39.578 44.4844C39.4842 44.3907 38.7186 42.8594 37.8748 41.0938L36.328 37.8907L36.2498 33.8282C36.1717 29.8282 36.1717 29.7501 35.7498 28.8751C35.5155 28.3751 35.1248 27.6719 34.8592 27.2813C34.4842 26.7501 34.3748 26.4063 34.3748 25.8751C34.3748 25.2501 34.4373 25.1407 34.8123 24.9376C35.0467 24.8126 35.3436 24.5157 35.453 24.2813C35.7655 23.5782 35.9842 21.1563 35.8748 19.4219C35.8123 18.1876 35.8436 17.7344 36.0155 17.3907C36.3123 16.8282 36.3123 15.5782 36.0311 15.0313C35.9061 14.7969 35.6248 14.4376 35.4061 14.2344C35.0623 13.9063 34.9217 13.8751 34.2655 13.9688C33.8592 14.0313 33.453 14.0626 33.3592 14.0626C30.8592 13.8751 30.5155 13.8907 29.6405 14.1876C28.4686 14.6094 27.6561 15.2657 27.1405 16.2188C26.0467 18.2188 26.6561 20.4063 28.8905 22.5782C29.5623 23.2344 29.6873 23.4532 29.6873 23.9376C29.6873 24.3594 29.5936 24.5626 29.3905 24.6876C28.6248 25.0938 24.9217 31.5001 25.078 32.1407C25.1248 32.3594 24.9686 32.9063 24.6717 33.5469C22.7655 37.7032 22.7186 37.8282 22.5155 40.6251C22.4217 42.0469 22.2967 43.5313 22.2498 43.9376L22.1561 44.6876H21.5155C21.1561 44.7032 20.4842 44.8282 20.0155 44.9844L19.1717 45.2813L18.5623 44.8438C17.578 44.1251 16.5467 43.8594 15.1717 43.9376C13.6717 44.0313 12.6873 44.4844 11.6248 45.5626C11.1873 46.0157 10.5467 46.5157 10.2186 46.6876C8.89046 47.3751 8.07796 48.7501 8.06233 50.3282C8.04671 51.3282 8.03108 51.3594 7.46858 51.7657C7.15608 51.9844 6.76546 52.4063 6.60921 52.6876C6.26546 53.3594 6.26546 54.7657 6.60921 55.4219L6.87483 55.9219L5.04671 55.9688C3.42171 56.0157 3.20296 56.0469 3.15608 56.2969C3.01546 57.0469 2.76546 57.0313 13.9061 57.0313H24.328L20.453 64.5626C17.1248 71.0313 16.5936 72.1407 16.7655 72.3907C16.8748 72.5469 17.9373 73.2188 19.1405 73.9063L21.328 75.1563L16.7186 75.1876C12.4217 75.2344 12.1092 75.2501 12.0623 75.5157C11.9061 76.2813 10.8905 76.2501 33.1248 76.2501C55.3592 76.2501 54.3436 76.2813 54.1873 75.5157C54.1405 75.2501 53.8123 75.2344 49.9217 75.1563C47.0155 75.1094 45.953 75.0469 46.5311 74.9532C47.2811 74.8438 47.3436 74.7969 47.3436 74.4063C47.3436 73.4844 45.9061 72.1563 44.5467 71.8282C44.1092 71.7344 43.7498 71.5938 43.7498 71.5313C43.7498 71.4063 41.7655 58.2969 41.6405 57.5313L41.5467 57.0313H55.0467C69.4998 57.0313 69.0311 57.0626 68.8748 56.2969C68.828 56.0313 68.4842 56.0157 63.3905 55.9688L57.9686 55.9376V48.8907C57.9686 42.2344 57.9842 41.8438 58.2498 41.9532C60.8905 43.0469 62.578 43.3594 64.8905 43.2344C66.8592 43.1251 67.953 42.8282 69.7655 41.9532C75.3592 39.2344 78.2342 32.5313 76.2811 26.6719C76.0467 25.9376 75.9686 25.8594 75.5467 25.8594C75.1248 25.8594 75.078 25.9063 75.0936 26.3282C75.1092 26.5782 75.2342 27.2501 75.3905 27.8126C75.828 29.3126 75.7967 31.8907 75.328 33.5157C74.7498 35.5938 73.8748 37.0626 72.2655 38.6719C71.1873 39.7501 70.5623 40.2501 69.6092 40.7344C67.5467 41.7969 66.328 42.1094 64.1405 42.0938C61.9998 42.0938 60.8905 41.8594 59.1092 41.0001L57.9686 40.4532V36.8907V33.3126L60.4373 30.2813C65.328 24.2969 66.2498 23.1251 66.2498 22.8907C66.2498 22.6251 63.7186 20.9376 63.3123 20.9376C62.953 20.9376 62.703 21.2032 58.6873 25.9376C55.1873 30.0469 54.9217 30.4844 55.8123 30.5938C56.1717 30.6407 56.6092 30.1876 59.8123 26.4376L63.3905 22.2188L64.0467 22.6407C64.3905 22.8594 64.6873 23.0782 64.6873 23.1251C64.6873 23.1719 62.9373 25.3594 60.7811 28.0001L56.8748 32.7969V44.3751V55.9376H55.4686H54.0623V44.3282V32.7344L51.5623 29.8751C50.1873 28.2969 49.0623 26.9532 49.0623 26.8907C49.0623 26.8282 49.3123 26.5313 49.6248 26.2344L50.1873 25.7032L52.0311 27.6094C53.0467 28.6719 53.9686 29.5313 54.0936 29.5313C54.3905 29.5313 54.6873 29.2188 54.6873 28.9063C54.6717 28.6251 50.4373 24.2188 50.1561 24.2188C49.7967 24.2188 47.6561 26.4376 47.6561 26.8126C47.6561 27.0469 48.5467 28.2032 50.3123 30.2344L52.9686 33.2969V36.5626V39.8282L52.3905 40.2344C51.0311 41.1563 48.6873 41.5626 46.9061 41.1876C42.453 40.2501 39.5936 35.7813 40.703 31.4844C40.9217 30.6563 41.4061 29.6094 42.0311 28.6407C42.2342 28.3282 42.203 28.2501 41.5936 27.5938C40.7342 26.6563 39.953 25.4219 39.6092 24.4532C39.203 23.2969 39.1248 21.0469 39.453 19.9063C40.0311 17.9063 41.3905 16.1251 43.1405 15.1094C43.9686 14.6251 46.0155 14.0626 46.953 14.0626C47.7655 14.0626 47.9686 13.8907 48.5311 12.7501C49.8905 9.98444 53.5155 8.10944 56.5936 8.59382C58.9998 8.95319 61.0467 10.2657 62.2655 12.1719C62.4842 12.5313 62.7811 12.8751 62.9061 12.9219C63.0311 12.9688 63.4998 12.8438 63.953 12.6563C65.1717 12.1251 67.5623 12.0313 69.0155 12.4688C73.3905 13.7969 75.8123 18.6876 74.1561 22.8282C73.6873 24.0001 73.7342 24.4219 74.3592 24.3438C75.453 24.2188 76.1561 20.4219 75.5467 17.8282C74.8436 14.8907 72.5936 12.4688 69.6092 11.4688C68.078 10.9532 65.7967 10.8751 64.328 11.3126L63.4373 11.5782L62.1405 10.2501C60.7967 8.87507 59.7655 8.23444 58.1248 7.75007C57.0623 7.43757 55.0155 7.31257 53.9373 7.50007ZM33.3592 15.1876C33.6248 15.2032 34.0155 15.1563 34.2498 15.0938C34.6092 14.9844 34.703 15.0313 34.9217 15.4688C35.1405 15.9063 35.1405 16.8751 34.9061 16.8751C34.8592 16.8751 34.5467 16.7344 34.1873 16.5469C33.2811 16.0782 32.1873 16.1876 31.5467 16.8126C31.2967 17.0626 31.0467 17.4063 30.9998 17.5938C30.953 17.7813 30.7498 17.9844 30.5467 18.0313C30.0467 18.1563 29.703 18.9844 29.578 20.4063L29.4842 21.6094L29.1092 21.1563C27.5311 19.2344 27.3436 17.6563 28.5311 16.2657C29.3123 15.3594 30.3905 14.9688 31.7967 15.0782C32.4061 15.1407 33.1092 15.1876 33.3592 15.1876ZM33.9061 17.6876C34.453 17.9688 34.6248 18.1563 34.7342 18.5938C34.953 19.4376 34.7811 22.7969 34.4842 23.4688C34.2655 24.0001 34.203 24.0313 33.7967 23.9219C33.2498 23.7657 32.1561 23.2032 31.3748 22.6876L30.7811 22.2969V21.0626C30.7811 19.8282 30.7811 19.8126 31.0623 20.1563C31.3123 20.4532 31.4061 20.4844 31.6873 20.3282C31.9842 20.1719 32.0311 20.0157 32.0311 19.0313C32.0311 17.3282 32.5155 16.9844 33.9061 17.6876ZM33.2811 25.3438C33.2811 25.5938 33.2342 25.5938 32.7342 25.2969C32.4217 25.1094 31.8905 24.8751 31.5155 24.7657C30.9842 24.6094 30.8436 24.5001 30.8123 24.1719L30.7655 23.7813L32.0155 24.4219C32.8748 24.8594 33.2811 25.1563 33.2811 25.3438ZM31.5467 26.0157L31.9217 26.2032L31.4061 26.2969C31.1248 26.3594 30.6405 26.6719 30.2967 27.0157C29.5155 27.7813 29.5155 27.9532 30.3123 31.3282C30.7967 33.3594 31.0155 34.0313 31.2498 34.2032C31.4217 34.3126 31.5623 34.4844 31.5623 34.5782C31.5623 34.6876 31.953 35.9844 32.4373 37.4844C33.2342 40.0001 33.3748 40.2969 34.2342 41.4219C34.7342 42.0938 35.1561 42.7501 35.1561 42.8751C35.1561 43.0938 34.7342 43.1251 31.7967 43.1251H28.4373V36.3438C28.4373 29.2657 28.5311 27.8907 29.1561 26.6876C29.6248 25.7501 29.8436 25.5938 30.5467 25.7188C30.8905 25.7657 31.3436 25.9063 31.5467 26.0157ZM33.1092 27.3594C33.3748 27.4532 33.6717 27.6719 33.7655 27.8438C33.8592 28.0157 34.1248 29.1876 34.3592 30.4376C34.7342 32.4688 34.7655 32.7344 34.5467 32.7813C34.4061 32.7969 33.7655 32.8751 33.1092 32.9376L31.9217 33.0626L31.328 30.5938C30.7655 28.2032 30.7498 28.1094 31.0155 27.7969C31.2655 27.5313 31.953 27.2344 32.4373 27.2032C32.5311 27.1876 32.828 27.2657 33.1092 27.3594ZM27.2342 31.6719L27.1092 32.3282L26.7342 32.0469L26.3592 31.7657L26.8123 30.9532C27.2342 30.2032 27.2655 30.1719 27.3123 30.5782C27.328 30.8282 27.2967 31.3126 27.2342 31.6719ZM26.7342 33.4532C27.1248 33.7188 27.1873 33.8751 27.1873 34.4688C27.1873 35.0469 27.0467 35.3751 26.328 36.4532C25.5467 37.6407 25.4217 37.9688 24.453 41.3438C23.8905 43.3282 23.4373 45.1563 23.4373 45.3751C23.4373 45.6094 23.328 45.9219 23.1873 46.0469C23.0155 46.2344 22.953 46.5157 22.9998 47.0469C23.0467 47.7344 23.0311 47.7813 22.7811 47.5469C22.5311 47.3282 22.5467 47.2501 22.9061 46.2657C23.1873 45.5157 23.328 44.6719 23.4373 43.1251C23.7655 38.9063 23.8748 38.0469 24.2186 37.2657C24.7967 35.9063 26.1405 33.1251 26.2186 33.1251C26.2498 33.1251 26.4842 33.2657 26.7342 33.4532ZM34.8748 35.9376C35.203 38.2969 35.2811 38.5157 37.1405 42.2657C37.9373 43.8907 38.5155 45.1251 38.4061 45.0001C38.0311 44.5626 34.5936 39.9219 34.328 39.5313C34.1248 39.2188 32.6561 34.5001 32.6561 34.1719C32.6561 34.1251 32.953 34.0469 33.328 34.0157C34.6717 33.8907 34.578 33.7657 34.8748 35.9376ZM27.0155 45.0001C26.8123 46.4844 26.6248 47.0782 26.4217 47.0001C26.3436 46.9688 25.8905 46.5782 25.4061 46.1251L24.5467 45.3126L25.4842 41.9376C25.9842 40.0782 26.5623 38.2813 26.7498 37.9376L27.1092 37.3126L27.1561 40.4844C27.1873 42.4219 27.1405 44.2032 27.0155 45.0001ZM34.9217 44.7188C34.7655 45.4376 30.8592 54.8907 29.578 57.6563C29.0467 58.7813 22.0623 69.8282 21.4842 70.4376C21.3123 70.6251 21.1092 70.5938 20.1717 70.2969C19.5623 70.0938 19.0623 69.8594 19.0623 69.7813C19.0623 69.6876 20.7498 66.4063 22.7811 62.4844L26.4998 55.3594L27.328 50.2969C27.7655 47.5157 28.1873 45.0001 28.2342 44.7188L28.3123 44.2188H31.6717H35.0311L34.9217 44.7188ZM17.1873 45.3907C17.4842 45.5469 17.9842 45.8751 18.2967 46.1094C18.9842 46.6407 19.1873 46.6563 19.9842 46.2501C20.328 46.0782 20.8748 45.9063 21.2342 45.8438L21.8592 45.7501L21.6092 46.3751C21.2967 47.2032 21.4373 47.9844 22.0311 48.5782C22.6873 49.2344 23.3592 49.3438 23.8436 48.8907C24.0467 48.7032 24.2186 48.4063 24.2186 48.2501C24.2186 48.0938 24.3123 47.9688 24.4373 47.9688C24.5623 47.9688 24.7655 47.8282 24.8905 47.6563C25.1092 47.3438 25.1248 47.3594 25.5311 47.9688C25.7498 48.3126 26.0467 48.5938 26.1717 48.5938C26.2967 48.5938 26.4061 48.6719 26.4061 48.7657C26.4061 49.3907 25.4061 54.8751 25.203 55.3594L24.953 55.9532L16.8905 55.9063C8.12483 55.8594 8.17171 55.8594 7.71858 54.9844C7.18733 53.9532 7.71858 52.6563 8.79671 52.3751L9.29671 52.2501L9.23421 50.9844C9.20296 50.0313 9.24983 49.5938 9.45296 49.1563C9.73421 48.5626 10.8436 47.5001 11.1873 47.5001C11.2967 47.5001 11.8436 47.0469 12.3748 46.5157C13.0155 45.8751 13.6248 45.4219 14.0623 45.2657C14.9373 44.9376 16.4373 45.0001 17.1873 45.3907ZM38.953 45.8907C38.8592 46.1094 38.828 46.1094 38.7342 45.8438C38.5467 45.3751 38.578 45.2657 38.8123 45.4688C38.9373 45.5626 38.9998 45.7657 38.953 45.8907ZM37.9061 49.6094L39.8748 53.5782L40.2498 56.0469C41.078 61.2813 42.6405 71.7813 42.6092 71.8126C42.5623 71.8751 40.1092 72.1876 40.078 72.1563C40.0311 72.0782 38.7186 66.1719 37.7186 61.4844C37.1561 58.9063 36.6092 56.5469 36.4842 56.2344C36.1873 55.4688 34.953 53.3907 34.203 52.3907C33.8748 51.9376 33.5936 51.4688 33.5936 51.3438C33.5936 51.2032 34.0936 49.9532 34.6873 48.5313C35.2967 47.1251 35.7811 45.8907 35.7811 45.7969C35.7811 45.7032 35.828 45.6251 35.8748 45.6251C35.9217 45.6251 36.8436 47.4219 37.9061 49.6094ZM39.5311 46.7969C40.0155 47.2969 40.0311 47.3438 39.7186 47.3438C39.4998 47.3438 39.2967 47.1719 39.1405 46.8751C38.7342 46.0782 38.8123 46.0626 39.5311 46.7969ZM34.3123 54.6563C34.7186 55.2813 34.9998 55.8282 34.9686 55.8751C34.9217 55.9063 34.1717 55.9219 33.3123 55.9063L31.7498 55.8594L32.2498 54.6094C32.5311 53.9219 32.8123 53.2188 32.8748 53.0469C32.9842 52.7501 32.9998 52.7501 33.2967 53.1251C33.4686 53.3438 33.9217 54.0313 34.3123 54.6563ZM35.7498 57.8438C36.0936 59.5313 39.3905 74.6251 39.4686 74.8751C39.5467 75.1407 39.0936 75.1563 31.5311 75.1563H23.5155L22.9217 73.2813C22.5936 72.2344 22.3905 71.3126 22.453 71.2032C22.5155 71.0938 24.2498 68.4063 26.2967 65.2344C28.3592 62.0469 30.3123 58.9063 30.6405 58.2344L31.2498 57.0313H33.4217H35.578L35.7498 57.8438ZM20.1248 71.4688C21.1561 71.8126 21.1717 71.8438 21.4998 72.6719C22.1717 74.3438 22.2342 74.3126 20.3592 73.2657C17.7342 71.7813 17.9217 71.9532 18.203 71.3907C18.4061 71.0313 18.5311 70.9376 18.7655 71.0157C18.953 71.0782 19.5623 71.2813 20.1248 71.4688ZM44.7655 73.1094C45.1092 73.2657 45.4842 73.5001 45.5936 73.6251C45.828 73.9219 45.8905 73.9063 42.9217 74.3907C41.6405 74.5938 40.7186 74.6719 40.6405 74.5938C40.5623 74.5157 40.4686 74.1876 40.4217 73.8751C40.328 73.2188 40.0623 73.3282 42.578 72.9844C43.9686 72.7813 44.078 72.7969 44.7655 73.1094Z" fill="#151515"/>
<path d="M3.76562 12.0001C3.67188 12.172 3.67188 12.3751 3.76562 12.547C4 12.9533 6.32812 12.9376 6.54688 12.5314C6.64062 12.3595 6.64062 12.1564 6.54688 11.9845C6.3125 11.5783 3.98438 11.5939 3.76562 12.0001Z" fill="#151515"/>
<path d="M17.8123 11.9531C17.6561 12.1406 17.6405 12.2812 17.7655 12.4687C17.8905 12.6875 18.1873 12.7344 19.2342 12.7344H20.5467V12.2656V11.7969L19.2811 11.75C18.2655 11.7187 17.9686 11.75 17.8123 11.9531Z" fill="#151515"/>
<path d="M6.71861 16.9531C5.99986 17.6718 5.89048 17.8593 6.03111 18.0937C6.35923 18.5937 6.73423 18.4843 7.60923 17.625C8.53111 16.7187 8.65611 16.2031 7.96861 16.125C7.67173 16.0937 7.37486 16.2812 6.71861 16.9531Z" fill="#151515"/>
<path d="M16.0156 16.2658C15.8125 16.5783 16.0938 17.1564 16.7969 17.797C17.6094 18.547 18.1719 18.6095 18.25 17.9845C18.2969 17.7189 18.1094 17.422 17.5625 16.8595C16.8281 16.1251 16.2344 15.8908 16.0156 16.2658Z" fill="#151515"/>
<path d="M11.75 17.9999C11.6406 18.1093 11.5625 18.6249 11.5625 19.3124C11.5625 20.4999 11.75 20.8593 12.2969 20.7499C12.5469 20.7031 12.5781 20.5156 12.5781 19.2968C12.5781 17.9999 12.5469 17.8906 12.2656 17.8437C12.0938 17.8281 11.8594 17.8906 11.75 17.9999Z" fill="#151515"/>
</svg>
