<svg width="80" height="80" viewBox="0 0 80 80" fill="none" xmlns="http://www.w3.org/2000/svg">
<path d="M31.1717 2.68764C30.2342 3.03139 29.0467 3.96889 28.4373 4.81264C26.3123 7.76577 26.7498 12.7345 29.3592 15.3126C30.5155 16.4689 31.1873 16.7658 32.703 16.8439C33.828 16.9064 34.0155 16.8751 34.9217 16.422C37.2342 15.2814 38.7498 12.4376 38.7498 9.21889C38.7498 6.37514 37.5311 4.10952 35.4373 3.01577C34.7342 2.65639 34.3748 2.59389 33.1248 2.54702C32.2967 2.53139 31.4373 2.57827 31.1717 2.68764ZM34.1248 5.37514C35.4061 5.90639 36.1717 7.57827 36.0623 9.59389C35.9373 12.0626 34.4686 14.2189 32.9217 14.2189C31.203 14.2189 29.7811 11.9689 29.7811 9.29702C29.7811 7.50014 30.3905 6.21889 31.6405 5.45327C32.203 5.09389 33.3748 5.06264 34.1248 5.37514Z" fill="#151515"/>
<path d="M18.125 13.8751L14.4531 15.4063L10.4688 14.8126C8.28125 14.4845 6.1875 14.2188 5.8125 14.2188C3.9375 14.2188 2.5 15.7032 2.5 17.6563C2.5 18.7813 2.84375 19.5626 3.65625 20.2813C4.375 20.9063 4.54688 20.9532 9.8125 21.8751L14.25 22.672L17.4531 22.1095C19.2188 21.797 20.6875 21.5782 20.7031 21.5938C20.7188 21.6251 20.8594 24.0313 21 26.9688L21.2656 32.297L20.8125 33.4532C20.1719 35.0782 19.9375 36.1563 19.9375 37.5001C19.9375 38.9845 20.2969 40.0782 21.0938 40.9845L21.7031 41.672L22.7969 48.1251C23.3906 51.6876 23.8594 54.6407 23.8125 54.7032C23.7812 54.7657 23.2812 55.0782 22.6875 55.3907C20.0625 56.8282 18.7188 58.1407 16.2656 61.5938L14.5156 64.0626H13.7344C13.3125 64.0626 12.7031 64.172 12.375 64.297C10.1406 65.2345 10.0469 67.4845 12.0312 72.4845C13.2188 75.4532 13.8594 76.547 14.7344 77.0938C16.0469 77.9063 17.9531 77.6095 18.9531 76.422C19.8125 75.3907 19.875 74.2813 19.1719 71.8282L18.7812 70.4688L25.6406 65.1251C29.4219 62.2032 32.5781 59.6876 32.6406 59.547C32.7188 59.4063 33.1719 56.6407 33.6719 53.4063C34.5312 47.7657 34.5625 47.5001 34.3125 47.1095C33.5156 45.9063 32.0312 46.3751 31.7969 47.9063C31.75 48.2813 31.6094 48.5938 31.5156 48.5938C30.8281 48.5938 25.6719 47.7345 25.5312 47.5938C25.4375 47.5001 25.2344 46.6407 25.0938 45.7032C24.9375 44.7501 24.7812 43.8595 24.75 43.7032C24.6719 43.4532 24.7188 43.4532 25.4219 43.7345C27.75 44.6407 32.7812 45.5001 37.0625 45.7188L39.2031 45.8282L40.8906 47.5001C41.8125 48.4063 43.1406 49.5313 43.8281 49.9845C45.3438 50.9845 47.8906 52.2345 50.3125 53.1876C52.0625 53.8595 52.125 53.9063 52.5938 54.6876C53.5312 56.2188 54.2656 56.7501 55.4688 56.7657C56.4844 56.7813 57.3281 56.2501 58.9531 54.547C60.2812 53.1407 63.3281 49.2345 63.8594 48.2501C64.0312 47.922 64.125 47.3751 64.1406 46.797C64.1406 45.7032 63.8281 45.047 62.9219 44.3126C62.4219 43.9063 62.1719 43.8282 61.2656 43.7813C59.9531 43.7032 59.7969 43.7813 57.2188 45.7188L55.2812 47.172L51.2656 43.9376C49.0625 42.172 46.5156 40.1095 45.6094 39.3751C44.0312 38.1095 43.7812 37.9688 39.625 36.0938L35.2812 34.1563L35.3438 33.672C35.3906 33.422 35.5781 32.422 35.7969 31.4532L36.1719 29.7032L35.8438 29.2657C35.5781 28.922 35.375 28.8126 34.8125 28.7813C34.2031 28.7345 34.0469 28.797 33.7969 29.1251C33.625 29.3438 33.3906 29.9532 33.2812 30.5001C33.1719 31.047 33.0625 31.5001 33.0469 31.5313C33.0156 31.5626 31.4844 31.3126 29.6406 31.0001C26.4062 30.4532 26.25 30.4376 25.8594 30.6876C25.375 31.0001 25.125 31.5938 25.25 32.1095C25.4375 32.8907 25.875 33.0626 28.9062 33.5782C32.8125 34.2345 32.4531 34.1251 32.375 34.6876C32.2656 35.4532 32.7031 35.9063 34.3125 36.6563C35.125 37.0313 35.7812 37.3751 35.7812 37.422C35.7812 37.4688 34.9375 38.6251 33.9062 40.0001C32.5156 41.8438 31.9375 42.5001 31.6875 42.5001C31.0781 42.5001 27.7344 41.6876 26.4531 41.2188C24.0312 40.3438 22.7812 39.2657 22.5781 37.8907C22.4688 37.1563 22.9219 35.2657 23.5312 33.8907L23.9531 32.9532L23.625 26.2345C23.3906 21.7032 23.2188 19.4376 23.0938 19.2188C22.75 18.6876 22.1562 18.5938 20.7344 18.8282C20.0312 18.9532 19.4375 19.0626 19.4219 19.0626C19.3906 19.0626 19.375 18.4376 19.375 17.672V16.2813L20.75 15.7032C22.3281 15.047 22.0781 15.0782 24.4062 15.2345C26.2188 15.3438 26.2344 15.3438 26.625 14.9532C27.0312 14.547 27.1406 13.922 26.9375 13.3595C26.7656 12.9376 26.0781 12.7032 24.6875 12.5938C23.9531 12.5313 23.0156 12.4532 22.5781 12.422C21.8594 12.3438 21.5 12.4532 18.125 13.8751ZM10.4375 17.5001L14.8281 18.1407L15.7656 17.7501L16.7188 17.3595V18.4376V19.5157L16.2188 19.6095C15.9375 19.6563 15.375 19.7501 14.9688 19.8282C14.3906 19.922 13.4219 19.8126 10.0156 19.2032C7.6875 18.7813 5.64062 18.3751 5.46875 18.2813C4.89062 17.9688 5.14062 16.8751 5.78125 16.8751C5.92188 16.8751 8.01562 17.1563 10.4375 17.5001ZM40.6562 39.5313C41.7969 40.0626 42.9688 40.6876 43.25 40.922L43.7656 41.3751L42.5625 42.7032L41.3594 44.0313L41.0156 43.6251C40.6719 43.2188 40.625 43.2032 37.9688 43.1095C36.5 43.047 35.2656 42.9688 35.2188 42.9376C35.125 42.8438 38.2812 38.5938 38.4375 38.5938C38.5156 38.5938 39.5156 39.0157 40.6562 39.5313ZM49.9219 46.3282C53.7188 49.3907 53.9062 49.5782 53.9062 50.0782C53.9062 50.4063 53.7656 50.7657 53.5469 51.0157L53.1875 51.4376L51.2188 50.6563C47.9531 49.3438 45.4688 47.9845 43.8125 46.6095L43.1406 46.047L44.4844 44.5782C45.2188 43.7813 45.8594 43.1251 45.8906 43.1251C45.9219 43.1251 47.75 44.5626 49.9219 46.3282ZM61.4688 46.6563C61.6875 47.2188 56.1719 54.0626 55.5 54.0626C55.4375 54.0626 55.2969 53.922 55.1875 53.7345C55.0156 53.4532 55.0469 53.3438 55.5938 52.7345C56.25 51.9845 56.5625 51.172 56.5625 50.2032C56.5625 49.5938 56.5781 49.5782 58.7031 48.0001C59.8906 47.1251 60.9688 46.4063 61.1094 46.4063C61.25 46.4063 61.4219 46.5157 61.4688 46.6563ZM28.9844 50.9376C30.1719 51.1251 31.1875 51.297 31.2188 51.3282C31.25 51.3595 31.0469 52.8751 30.7812 54.7188C30.2344 58.3126 30.2812 58.2032 29.0938 59.0157C28.7344 59.2657 28.7031 59.2345 27.4219 57.9688L26.125 56.672L26.4531 56.2188L26.7812 55.7813L26.4219 53.547C26.2344 52.3282 26.0312 51.1251 25.9844 50.8751C25.8906 50.4532 25.9219 50.4376 26.3438 50.5313C26.5938 50.5782 27.7812 50.7657 28.9844 50.9376ZM26.5156 61.0313C26.5 61.047 24.4531 62.6407 21.9531 64.5782C17.7969 67.8126 17.4062 68.0782 17.1562 67.8595C16.8438 67.5782 16.4844 66.0313 16.6719 65.7345C16.7344 65.6095 17.6406 64.3438 18.6562 62.9063C20.4688 60.3595 21.2188 59.5782 22.8125 58.4688L23.5156 57.9845L25.0312 59.5001C25.875 60.3282 26.5312 61.0157 26.5156 61.0313ZM14.125 67.3751C14.2812 68.3438 14.7344 69.2657 15.4375 70.0313C15.9844 70.6251 16.1406 70.9688 16.5625 72.4688C17.1094 74.422 17.0781 74.8907 16.4375 74.8126C16.1094 74.7813 15.9375 74.5938 15.5938 73.9063C14.4062 71.4845 13.2812 68.2188 13.2812 67.2345C13.2812 66.797 13.3438 66.7188 13.6562 66.7188C13.9688 66.7188 14.0312 66.8126 14.125 67.3751Z" fill="#151515"/>
<path d="M37.8906 15.2346C37.4531 15.6564 37.375 16.4846 37.7188 16.9533C37.8438 17.1252 38.4688 17.4377 39.125 17.6564C40.0781 17.9689 40.3906 18.1564 40.625 18.5314L40.9375 19.0158L39.1719 19.5314C37.5 20.0158 36.7188 20.4377 36.7188 20.8908C36.7188 21.0002 36.6875 21.0939 36.6406 21.0939C36.6094 21.0939 35.5781 20.7814 34.375 20.3908C33.1719 20.0002 31.9844 19.6877 31.75 19.6877C30.0312 19.6877 28.4375 21.2814 28.4375 22.9846C28.4375 24.0939 29.2188 25.3752 30.1719 25.8752C30.4219 26.0002 33.0625 26.9846 36.0469 28.0627C41.1094 29.9064 41.5625 30.0471 42.6094 30.0314C45.3281 30.0314 47.4062 27.9533 47.3906 25.2346C47.375 24.6408 47.2656 23.8439 47.1406 23.4846C46.9062 22.8752 42.6094 16.4689 42.0625 15.9064C41.7656 15.6252 39.3125 14.8439 38.6875 14.8439C38.4531 14.8439 38.0938 15.0158 37.8906 15.2346ZM43.6562 22.9221C44.875 24.7814 44.9688 25.1564 44.5 26.0939C44.0938 26.8752 43.375 27.3752 42.6094 27.3908C42.0781 27.4064 31.625 23.6877 31.2656 23.3596C31.0156 23.1252 31.1562 22.5627 31.5 22.4377C31.6406 22.3908 33.375 22.8752 35.3594 23.5158C38.5938 24.5627 39.0156 24.6721 39.4844 24.5158C39.7656 24.4221 40.0781 24.2189 40.1562 24.0627C40.3906 23.6096 40.3438 22.7971 40.0469 22.4689C39.9062 22.3127 39.8281 22.1564 39.8594 22.1408C39.9844 22.0314 42.125 21.4221 42.375 21.4221C42.5625 21.4064 43 21.9377 43.6562 22.9221Z" fill="#151515"/>
<path d="M67.7811 22.6406C65.7968 23.2813 64.2811 24.5938 63.3593 26.4688C61.8749 29.4531 62.453 32.9531 64.8124 35.1875C68.5936 38.7969 74.6093 37.7188 76.828 33.0156C77.3593 31.9219 77.4218 31.6406 77.4686 30.2656C77.5468 28.375 77.2499 27.1094 76.4061 25.8125C75.3593 24.1875 73.7968 23.0469 71.953 22.5625C70.8436 22.2656 68.8593 22.2969 67.7811 22.6406ZM71.7186 25.2969C72.9218 25.75 73.8124 26.5781 74.3905 27.7344C74.828 28.6406 74.8749 28.8438 74.8124 29.9531C74.7186 31.9063 73.8436 33.2813 72.1093 34.1875C71.453 34.5313 71.1249 34.6094 70.078 34.6094C69.0155 34.6094 68.6874 34.5469 67.9374 34.1719C66.9374 33.6875 66.1405 32.8438 65.6093 31.7344C65.1249 30.75 65.1093 28.9688 65.578 27.9531C66.1718 26.6406 67.3905 25.5625 68.7499 25.1406C69.4843 24.9219 70.9218 25 71.7186 25.2969Z" fill="#151515"/>
</svg>
