<svg width="80" height="80" viewBox="0 0 80 80" fill="none" xmlns="http://www.w3.org/2000/svg">
<g clip-path="url(#clip0_28_37675)">
<path d="M39.1875 0.1875C39.0469 0.296875 37.8438 1.65625 36.4844 3.20312C33.2344 6.9375 32.2812 7.65625 29.8438 8.23438C28.0781 8.64062 27.2031 8.46875 21.7188 6.64062C18.9531 5.71875 16.5469 5 16.2188 5C15.5 5 15.0469 5.39062 14.9375 6.125C14.8906 6.40625 14.6719 9.01562 14.4531 11.9375C14.125 16.4375 14 17.375 13.6875 18.2969C12.9844 20.3125 11.4375 22.0312 9.45312 23C9.03125 23.2188 6.84375 24.0469 4.60938 24.8594C2.39062 25.6562 0.4375 26.4375 0.28125 26.5938C0.109375 26.7656 0 27.1094 0 27.4844C0 28.0312 0.25 28.3906 2.67188 31.4219C4.15625 33.2656 5.625 35.1875 5.96875 35.6875C7.53125 38.0938 7.625 41.5156 6.1875 43.9688C5.95312 44.3594 4.46875 46.2969 2.89062 48.2812C0.21875 51.5938 0 51.9219 0 52.5C0 52.8906 0.109375 53.2344 0.28125 53.4062C0.4375 53.5625 2.39062 54.3438 4.60938 55.1406C6.84375 55.9531 9.03125 56.7812 9.45312 57C11.4375 57.9688 12.9844 59.6875 13.6875 61.7031C14 62.625 14.125 63.5625 14.4531 68.0625C14.6719 70.9844 14.8906 73.5938 14.9375 73.875C15.0469 74.6094 15.5 75 16.2188 75C16.5469 75 18.9531 74.2812 21.7188 73.3594C27.2031 71.5312 28.0781 71.3594 29.8438 71.7656C32.2812 72.3438 33.2344 73.0625 36.4844 76.7969C37.8438 78.3438 39.0469 79.7031 39.1875 79.7969C39.3281 79.9062 39.6875 80 40 80C40.3125 80 40.6719 79.9062 40.8125 79.7969C40.9531 79.7031 42.125 78.375 43.4375 76.875C46.7188 73.0938 47.6875 72.3438 50.1094 71.7812C51.9219 71.3594 52.7656 71.5156 58.2812 73.3594C61.0469 74.2812 63.4531 75 63.7812 75C64.5 75 64.9531 74.6094 65.0625 73.875C65.1094 73.5938 65.3281 70.9844 65.5469 68.0781C65.9688 62.4688 66.1094 61.7031 67 60.1719C67.6406 59.0781 69.0156 57.7969 70.2344 57.1719C70.8438 56.8594 73.1562 55.9531 75.3906 55.1406C77.6094 54.3438 79.5625 53.5625 79.7188 53.4062C79.8906 53.2344 80 52.8906 80 52.5156C80 51.9688 79.75 51.6094 77.3281 48.5781C74.1562 44.625 73.5312 43.7188 73.125 42.375C72.7031 41.0156 72.7031 38.9844 73.125 37.625C73.5312 36.2812 74.1562 35.375 77.3281 31.4219C79.75 28.3906 80 28.0312 80 27.4844C80 27.1094 79.8906 26.7656 79.7188 26.5938C79.5625 26.4375 77.6094 25.6562 75.3906 24.8594C73.1562 24.0469 70.8438 23.1406 70.2344 22.8281C69.0156 22.2031 67.6406 20.9219 67 19.8281C66.1094 18.2969 65.9688 17.5312 65.5469 11.9219C65.3281 9.01562 65.1094 6.40625 65.0625 6.125C64.9531 5.40625 64.5 5 63.7969 5C63.4844 5 60.9844 5.75 58.25 6.65625C52.7031 8.48438 51.9062 8.64062 50.1094 8.21875C47.7031 7.65625 46.6875 6.875 43.4375 3.125C42.125 1.625 40.9531 0.296875 40.8125 0.1875C40.6719 0.09375 40.3125 0 40 0C39.6875 0 39.3281 0.09375 39.1875 0.1875ZM42.1719 5.78125C43.3125 7.07812 44.5938 8.42188 45.0312 8.76562C47.2812 10.5312 50.4844 11.3906 53.2812 10.9531C53.9219 10.8438 56.25 10.1719 58.4219 9.45312C60.6094 8.73438 62.4375 8.17188 62.4844 8.21875C62.5312 8.26562 62.7188 10.3438 62.9219 12.8281C63.1094 15.3281 63.375 17.7969 63.5156 18.3281C63.6406 18.8594 64.0469 19.8906 64.4062 20.625C64.9219 21.6875 65.3125 22.2188 66.3906 23.2812C68.0312 24.9219 68.6562 25.25 72.8906 26.7969C74.7031 27.4531 76.2344 28.0469 76.2969 28.125C76.375 28.1875 75.4062 29.5312 74.1406 31.1094C70.875 35.1875 70.1406 36.8125 70.1406 40C70.1406 43.1875 70.875 44.8125 74.1406 48.8906C75.4062 50.4688 76.375 51.8125 76.2969 51.875C76.2344 51.9531 74.7031 52.5469 72.8906 53.2031C68.6562 54.75 68.0312 55.0781 66.3906 56.7188C65.3125 57.7812 64.9219 58.3125 64.4062 59.375C64.0469 60.1094 63.6406 61.1406 63.5 61.6875C63.375 62.2188 63.1094 64.7188 62.9062 67.2344C62.625 70.9844 62.5156 71.7969 62.3438 71.7812C62.2188 71.7656 60.3906 71.2031 58.2812 70.5C56.1719 69.7969 53.9219 69.1562 53.2812 69.0469C50.4844 68.6094 47.2812 69.4688 45.0312 71.2344C44.5938 71.5781 43.3125 72.9219 42.1719 74.2188C41.0469 75.5 40.0625 76.5625 40 76.5625C39.9375 76.5625 38.9531 75.5 37.8281 74.2188C36.6875 72.9219 35.4062 71.5781 34.9688 71.2344C32.7188 69.4688 29.5156 68.6094 26.7188 69.0469C26.0781 69.1562 23.8281 69.7969 21.7188 70.5C19.6094 71.2031 17.7812 71.7656 17.6562 71.7812C17.4844 71.7969 17.375 70.9844 17.0938 67.2344C16.8906 64.7188 16.625 62.2188 16.5 61.6875C16.3594 61.1406 15.9531 60.1094 15.5938 59.375C15.0781 58.3125 14.6875 57.7812 13.6094 56.7188C11.9531 55.0781 11.2812 54.7188 7.07812 53.1875C5.29688 52.5469 3.76562 51.9531 3.70312 51.875C3.625 51.8125 4.59375 50.4688 5.85938 48.8906C9.125 44.8125 9.85938 43.1875 9.85938 40C9.85938 36.7812 9.125 35.1406 5.85938 31.1094C4.59375 29.5312 3.625 28.1875 3.6875 28.125C3.76562 28.0469 5.125 27.5156 6.71875 26.9531C11.125 25.3594 12 24.9062 13.5938 23.2969C14.6719 22.2188 15.0781 21.6875 15.5938 20.625C15.9531 19.8906 16.3594 18.8594 16.5 18.3125C16.625 17.7812 16.8906 15.2812 17.0938 12.7656C17.375 9.01562 17.4844 8.20312 17.6562 8.21875C17.7812 8.23438 19.6094 8.79688 21.7188 9.5C23.8281 10.2031 26.0781 10.8438 26.7188 10.9531C29.5156 11.375 32.7344 10.5312 34.9688 8.76562C35.4062 8.42188 36.6875 7.07812 37.8281 5.78125C38.9531 4.5 39.9375 3.4375 40 3.4375C40.0625 3.4375 41.0469 4.5 42.1719 5.78125Z" fill="#222222"/>
<path d="M35.9219 13.9844C26.1875 15.5625 18.0156 22.4844 15.0156 31.6875C14 34.7656 13.8281 35.9531 13.8281 40C13.8281 43.2344 13.875 43.8594 14.1875 45.2656C16.4844 55.7656 24.25 63.5312 34.75 65.8125C36.125 66.125 36.7969 66.1562 40 66.1562C43.2188 66.1562 43.875 66.125 45.2656 65.8125C55.7031 63.5312 63.5625 55.7031 65.7969 45.3594C66.2031 43.4219 66.375 38.5 66.1094 36.5312C65.8125 34.4531 65.1719 32 64.7969 31.5938C64.3125 31.0781 63.2656 31.1094 62.8281 31.6562C62.4219 32.1719 62.4219 32.375 62.8125 33.7969C63.1406 34.9531 63.5938 37.5625 63.5938 38.3125V38.75H62.1094C60.3438 38.75 60 38.9531 60 40C60 41.0469 60.3438 41.25 62.1094 41.25C63.8125 41.25 63.7031 41.0938 63.4219 43.0781C62.8125 47.625 61.2188 51.1562 57.8594 55.4688C57.7188 55.6719 57.5313 55.5469 56.6719 54.7188C55.7813 53.875 55.5781 53.75 55.0469 53.75C54.2344 53.75 53.75 54.25 53.75 55.0625C53.75 55.5781 53.875 55.7812 54.7188 56.6719C55.5469 57.5312 55.6719 57.7188 55.4688 57.8594C51.1563 61.2188 47.625 62.8125 43.0781 63.4219C41.0938 63.7031 41.25 63.8125 41.25 62.1094C41.25 60.3438 41.0469 60 40 60C38.9531 60 38.75 60.3438 38.75 62.1094C38.75 63.8125 38.9063 63.7031 36.9219 63.4219C32.375 62.8125 28.8438 61.2188 24.5313 57.8594C24.3281 57.7188 24.4531 57.5312 25.2813 56.6719C26.125 55.7812 26.25 55.5781 26.25 55.0469C26.25 54.2344 25.75 53.75 24.9375 53.75C24.4219 53.75 24.2188 53.875 23.3281 54.7188C22.4688 55.5469 22.2813 55.6719 22.1406 55.4688C18.8281 51.2188 17.2969 47.8906 16.6406 43.4688C16.2656 41.0469 16.1563 41.25 17.8906 41.25C19.6563 41.25 20 41.0469 20 40C20 38.9531 19.6563 38.75 17.8906 38.75C16.1563 38.75 16.2656 38.9375 16.6406 36.5625C17.0781 33.6719 18.0313 30.8906 19.4219 28.4062C19.8906 27.5625 20.9375 26.0625 22.1406 24.5312C22.2813 24.3281 22.4688 24.4531 23.3281 25.2812C24.2188 26.125 24.4219 26.25 24.9531 26.25C25.7656 26.25 26.25 25.75 26.25 24.9375C26.25 24.4219 26.125 24.2188 25.2813 23.3438L24.3125 22.3281L24.8281 21.9062C28.8125 18.7188 32.9688 16.9688 37.7031 16.4844L38.75 16.375V17.875C38.75 19.6562 38.9531 20 40 20C41.0469 20 41.25 19.6562 41.25 17.875V16.3594L42.3906 16.4688C43.7656 16.6094 45.9688 17.0781 47.3438 17.5156C49.7188 18.2969 53.2813 20.2812 55.1563 21.8594L55.7031 22.3125L54.7188 23.3281C53.875 24.2188 53.75 24.4219 53.75 24.9531C53.75 25.7656 54.25 26.25 55.0625 26.25C55.5781 26.25 55.7813 26.125 56.625 25.3125C57.1719 24.7969 57.6406 24.375 57.7031 24.375C57.7969 24.375 59.7031 26.9219 60.5 28.1094C60.9063 28.7031 60.9844 28.75 61.625 28.75C62.1875 28.75 62.375 28.6719 62.6406 28.3438C63.1094 27.75 63.0469 27.2188 62.4063 26.1562C58.8125 20.1719 52.5 15.7656 45.2969 14.2031C43.3594 13.7812 37.9531 13.6562 35.9219 13.9844Z" fill="#222222"/>
<path d="M39.0625 22.8125C38.7656 23.1094 38.75 23.3281 38.75 29.7344V36.3594L38.375 36.5313C37.7188 36.8281 36.8281 37.7188 36.5469 38.3594C36.1562 39.1875 36.1562 40.8125 36.5469 41.6406C36.8281 42.2813 37.7188 43.1719 38.375 43.4688C38.75 43.6406 38.75 43.6406 38.75 46.5156C38.75 49.1719 38.7656 49.3906 39.0625 49.6875C39.4844 50.1094 40.5156 50.1094 40.9375 49.6875C41.2188 49.4063 41.25 49.1563 41.2656 46.5156V43.6719L42 43.2031C43.1406 42.4688 43.6562 41.6094 43.7188 40.2969C43.7656 39.5313 43.7031 39 43.5312 38.5156C43.2656 37.8281 42.3281 36.8438 41.625 36.5313L41.25 36.3594V29.7344C41.25 23.3281 41.2344 23.1094 40.9375 22.8125C40.7344 22.6094 40.4219 22.5 40 22.5C39.5781 22.5 39.2656 22.6094 39.0625 22.8125ZM40.7812 39.2188C40.9531 39.3906 41.0938 39.7344 41.0938 40C41.0938 40.2656 40.9531 40.6094 40.7812 40.7813C40.6094 40.9531 40.2656 41.0938 40 41.0938C39.7344 41.0938 39.3906 40.9531 39.2188 40.7813C39.0469 40.6094 38.9062 40.2656 38.9062 40C38.9062 39.7344 39.0469 39.3906 39.2188 39.2188C39.3906 39.0469 39.7344 38.9063 40 38.9063C40.2656 38.9063 40.6094 39.0469 40.7812 39.2188Z" fill="#222222"/>
</g>
<defs>
<clipPath id="clip0_28_37675">
<rect width="80" height="80" fill="white"/>
</clipPath>
</defs>
</svg>
