<svg width="120" height="119" viewBox="0 0 120 119" fill="none" xmlns="http://www.w3.org/2000/svg">
<g filter="url(#filter0_d_1351_8444)">
<circle cx="59.9703" cy="59.3768" r="43.2552" fill="#F7DD5E" fill-opacity="0.8"/>
<g clip-path="url(#clip0_1351_8444)">
<path d="M36.285 33.1973C36.0068 33.4755 35.9862 34.1554 36.2644 34.4336C36.3674 34.5366 36.7589 34.7221 37.1298 34.8457C38.4589 35.2887 39.7467 36.3808 40.3031 37.5451C40.8285 38.6165 40.7976 38.6784 40.0764 38.0087C38.9328 36.9475 37.2122 36.2984 35.5432 36.2984C34.5644 36.2984 34.4202 36.4427 34.4202 37.4523C34.4305 39.0287 35.0589 40.7801 35.9965 41.8207L36.4704 42.3462L35.9656 42.954C35.3783 43.6752 34.8323 44.7158 34.7602 45.2412C34.688 45.8182 35.0177 46.1891 35.5947 46.1891C36.1201 46.1891 36.2128 46.0964 36.6662 45.1382C37.274 43.8813 38.5207 42.7892 39.8188 42.3874C40.1588 42.2843 40.8594 42.1607 41.3539 42.1195C42.0339 42.068 42.3224 41.9959 42.4563 41.8619C43.0127 41.3056 42.7757 38.699 42.0339 37.0402C41.323 35.4639 40.1897 34.3203 38.5619 33.5373C37.3874 32.9603 36.625 32.8573 36.285 33.1973ZM37.408 38.4105C38.0983 38.6475 38.8813 39.2347 39.3552 39.8426C39.5922 40.1414 39.7776 40.4401 39.7776 40.4917C39.7776 40.5535 39.6231 40.6359 39.4479 40.6668C39.2625 40.6977 38.8607 40.8419 38.5619 40.9862C38.0467 41.2231 37.9952 41.2334 37.7583 41.0789C37.2019 40.708 36.5631 39.6159 36.3262 38.6062L36.1922 38.0808L36.5734 38.1632C36.7795 38.2044 37.1504 38.3178 37.408 38.4105Z" fill="white"/>
<path d="M59.3835 33.1974C58.312 33.5889 57.529 34.2998 57.0035 35.3712L56.7253 35.9379L56.6944 44.1492C56.6738 52.2781 56.6738 52.3708 56.8799 52.5769C57.1272 52.8242 57.7659 52.8551 58.075 52.6387C58.2605 52.4945 58.2708 52.2575 58.3223 44.5716C58.3738 36.8136 58.3738 36.6488 58.5902 36.1955C58.8477 35.6391 59.4865 35.0313 60.0325 34.8458C60.6301 34.6294 82.3896 34.6294 82.9871 34.8458C83.5641 35.0416 84.2441 35.7112 84.4604 36.2779C84.6356 36.7415 84.6459 37.8336 84.6459 59.3767C84.6459 84.3919 84.7077 82.424 83.9556 83.238C83.152 84.1034 84.0174 84.0519 71.5098 84.0519C62.3919 84.0519 60.3622 84.0313 60.0325 83.9076C59.4865 83.7222 58.8477 83.1143 58.5902 82.558C58.3841 82.1046 58.3738 81.9192 58.3223 75.4181C58.2708 68.9583 58.2605 68.7316 58.075 68.5874C57.7659 68.371 57.1272 68.402 56.8799 68.6492C56.6738 68.8553 56.6635 68.948 56.6944 75.8406L56.7253 82.8155L57.0241 83.4337C57.4156 84.227 58.1986 85.01 58.992 85.4015L59.6101 85.7003H71.5098H83.4095L84.0277 85.4015C84.821 85.01 85.604 84.227 85.9955 83.4337L86.2943 82.8155V59.3767V35.9379L85.9955 35.3197C85.604 34.5264 84.821 33.7434 84.0277 33.3519L83.4095 33.0531L71.6644 33.0325C60.4137 33.0119 59.8986 33.0119 59.3835 33.1974Z" fill="white"/>
<path d="M44.5166 35.6803C44.3312 35.8657 44.3106 36.0203 44.3106 37.5863V39.2863L43.4863 41.3468L42.6621 43.4074V44.5922C42.6621 45.9831 42.7651 46.1891 43.4863 46.1891C44.156 46.1891 44.3106 45.9521 44.3106 44.8704C44.3209 44.0049 44.3415 43.9122 45.0214 42.2225L45.7323 40.4711L48.0608 40.4402C49.3383 40.4299 50.3892 40.4505 50.3892 40.4917C50.3892 40.5329 50.1316 41.2129 49.8122 42.0062C49.1941 43.531 49.0498 44.3037 49.1941 45.3134C49.2971 45.9315 49.5444 46.1891 50.0801 46.1891C50.7498 46.1891 50.9043 45.9521 50.9043 44.9219C50.9043 44.1904 50.9455 43.9431 51.2855 43.0674C51.5019 42.5213 51.6976 42.068 51.7286 42.068C51.7595 42.068 51.9552 42.5213 52.1716 43.0674C52.5116 43.9431 52.5528 44.1904 52.5528 44.9219C52.5528 45.6431 52.5837 45.8079 52.7588 45.9831C53.037 46.2612 53.717 46.2612 53.9849 45.9934C54.2115 45.7667 54.3661 44.5201 54.2527 43.8092C54.2115 43.5619 53.82 42.4389 53.3667 41.3262L52.5528 39.2966V37.5966C52.5528 36.0203 52.5322 35.8657 52.3467 35.6803C52.151 35.4845 52.0067 35.4742 48.4317 35.4742C44.8566 35.4742 44.7124 35.4845 44.5166 35.6803ZM50.9043 37.9469V38.7711H48.4317H45.959V37.9469V37.1227H48.4317H50.9043V37.9469Z" fill="white"/>
<path d="M65.1228 36.5045C64.9889 36.6384 64.9167 36.8445 64.9167 37.1227C64.9167 37.4009 64.9889 37.6069 65.1228 37.7408C65.3186 37.9366 65.4628 37.9469 69.8621 37.9469C74.2614 37.9469 74.4056 37.9366 74.6014 37.7408C74.7353 37.6069 74.8074 37.4009 74.8074 37.1227C74.8074 36.8445 74.7353 36.6384 74.6014 36.5045C74.4056 36.3088 74.2614 36.2985 69.8621 36.2985C65.4628 36.2985 65.3186 36.3088 65.1228 36.5045Z" fill="white"/>
<path d="M76.6626 36.5045C76.5287 36.6384 76.4565 36.8445 76.4565 37.1227C76.4565 37.4009 76.5287 37.6069 76.6626 37.7408C76.7965 37.8748 77.0026 37.9469 77.2808 37.9469C77.5589 37.9469 77.765 37.8748 77.8989 37.7408C78.0329 37.6069 78.105 37.4009 78.105 37.1227C78.105 36.8445 78.0329 36.6384 77.8989 36.5045C77.765 36.3706 77.5589 36.2985 77.2808 36.2985C77.0026 36.2985 76.7965 36.3706 76.6626 36.5045Z" fill="white"/>
<path d="M61.3631 40.6153C61.1365 40.7183 60.8068 40.9656 60.6213 41.151C59.9516 41.8516 59.9722 41.6662 59.9722 48.1466C59.9722 53.8853 59.9722 54.0192 60.1783 54.2253C60.3122 54.3592 60.5183 54.4313 60.7965 54.4313C61.0746 54.4313 61.2807 54.3592 61.4146 54.2253C61.6207 54.0192 61.6207 53.8853 61.6207 48.5072C61.6207 42.3977 61.6207 42.3977 62.2388 42.1813C62.4861 42.0989 65.1133 42.068 71.532 42.068C81.402 42.068 81.062 42.0474 81.2887 42.6861C81.3711 42.9334 81.402 47.1369 81.402 58.1609C81.402 74.7999 81.4432 73.8623 80.7838 74.0993C80.2996 74.2642 62.7231 74.2642 62.2388 74.0993C61.6619 73.8933 61.6207 73.6666 61.6207 70.2461C61.6207 67.3407 61.6104 67.1964 61.4146 67.0007C61.1365 66.7225 60.4565 66.7225 60.1783 67.0007C59.9825 67.1964 59.9722 67.3407 59.9722 70.6067C59.9722 74.3672 59.9825 74.4599 60.6213 75.1296C60.8068 75.315 61.1365 75.5623 61.3631 75.6653C61.7546 75.8508 62.2388 75.8611 71.5113 75.8611C80.7838 75.8611 81.2681 75.8508 81.6596 75.6653C81.8862 75.5623 82.2159 75.315 82.4014 75.1296C83.102 74.3878 83.0505 75.6653 83.0505 58.1403C83.0505 40.6153 83.102 41.8928 82.4014 41.151C82.2159 40.9656 81.8862 40.7183 81.6596 40.6153C81.2681 40.4298 80.7838 40.4195 71.5113 40.4195C62.2388 40.4195 61.7546 40.4298 61.3631 40.6153Z" fill="white"/>
<path d="M34.0498 47.0545C33.8746 47.137 33.6995 47.2709 33.6583 47.3739C33.6273 47.4666 33.5964 48.6309 33.5964 49.9599C33.5964 52.2368 33.6067 52.3811 33.8025 52.5768C34.0498 52.8241 34.6988 52.855 34.9976 52.6386C35.1728 52.5047 35.2037 52.3193 35.2449 50.9902L35.2964 49.486L35.9146 49.8981C36.8006 50.4854 37.0273 50.4648 38.2533 49.6405C38.8096 49.2696 39.3042 48.9709 39.366 48.9709C39.4278 48.9709 39.9223 49.2696 40.4787 49.6405C41.2308 50.1454 41.5605 50.3102 41.8387 50.3102C42.1168 50.3102 42.4465 50.1454 43.1986 49.6405C43.755 49.2696 44.2495 48.9709 44.3113 48.9709C44.3731 48.9709 44.8677 49.2696 45.424 49.6405C46.1761 50.1454 46.5058 50.3102 46.784 50.3102C47.0622 50.3102 47.3919 50.1454 48.144 49.6405C48.7003 49.2696 49.1948 48.9709 49.2567 48.9709C49.3185 48.9709 49.813 49.2696 50.3694 49.6405C51.5954 50.4648 51.822 50.4854 52.7081 49.8981L53.3263 49.486L53.3778 50.9902C53.419 52.3193 53.4499 52.5047 53.625 52.6386C53.9238 52.855 54.5729 52.8241 54.8202 52.5768C55.0159 52.3811 55.0262 52.2368 55.0262 49.9393C55.0262 48.5587 54.985 47.4357 54.9232 47.3224C54.7789 47.0545 54.2535 46.8897 53.9135 47.0236C53.759 47.0854 53.2335 47.4048 52.739 47.7448C52.2548 48.0745 51.8014 48.3527 51.7396 48.3527C51.6778 48.3527 51.173 48.0539 50.6166 47.683C49.8645 47.1782 49.5348 47.0133 49.2567 47.0133C48.9785 47.0133 48.6488 47.1782 47.8967 47.683C47.3403 48.0539 46.8458 48.3527 46.784 48.3527C46.7222 48.3527 46.2276 48.0539 45.6713 47.683C44.9192 47.1782 44.5895 47.0133 44.3113 47.0133C44.0331 47.0133 43.7035 47.1782 42.9514 47.683C42.395 48.0539 41.9005 48.3527 41.8387 48.3527C41.7768 48.3527 41.2823 48.0539 40.726 47.683C39.9739 47.1782 39.6442 47.0133 39.366 47.0133C39.0878 47.0133 38.7581 47.1782 38.006 47.683C37.4497 48.0539 36.9551 48.3527 36.8933 48.3527C36.8315 48.3527 36.337 48.0539 35.7806 47.6933C34.6164 46.9206 34.4825 46.8691 34.0498 47.0545Z" fill="white"/>
<path d="M75.0142 53.8132C74.8081 54.0192 74.8081 54.1532 74.8081 60.2009C74.8081 66.2486 74.8081 66.3826 75.0142 66.5886C75.1481 66.7226 75.3542 66.7947 75.6323 66.7947C75.9105 66.7947 76.1166 66.7226 76.2505 66.5886C76.4565 66.3826 76.4565 66.2486 76.4565 60.2009C76.4565 54.1532 76.4565 54.0192 76.2505 53.8132C76.1166 53.6792 75.9105 53.6071 75.6323 53.6071C75.3542 53.6071 75.1481 53.6792 75.0142 53.8132Z" fill="white"/>
<path d="M53.1204 54.4313C50.4005 54.4828 50.2047 54.4931 49.7308 54.7198C48.2575 55.3998 47.2993 56.8628 47.2993 58.4494C47.2993 59.0366 47.9381 63.4359 48.1235 64.1159C48.412 65.1668 49.3496 66.1765 50.4211 66.568C50.9156 66.7534 51.2556 66.774 54.0991 66.7946C55.83 66.8049 57.396 66.8152 57.5918 66.8049C57.9009 66.7946 58.1069 66.6298 59.199 65.5583L60.4457 64.322H66.5964C72.6132 64.322 72.7472 64.322 72.9532 64.1159C73.2211 63.848 73.2314 63.1578 72.9738 62.9002C72.7884 62.7147 72.4278 62.7044 66.5449 62.6529C63.1141 62.622 60.116 62.6323 59.8687 62.6735C59.4875 62.7456 59.2711 62.9105 58.2203 63.9614L57.0148 65.1668L54.1919 65.1256C52.3992 65.0947 51.2659 65.0432 51.101 64.971C50.6683 64.7856 50.0605 64.2086 49.9059 63.8274C49.7411 63.4359 49.0508 59.0882 49.0508 58.4494C49.0508 57.6252 49.5968 56.8112 50.4417 56.3579C50.8332 56.1416 51.0186 56.1313 53.9343 56.1004L57.0045 56.0591L58.2615 57.3058L59.5287 58.5524H66.1328C72.6132 58.5524 72.7472 58.5524 72.9532 58.3464C73.0872 58.2124 73.1593 58.0064 73.1593 57.7282C73.1593 57.45 73.0872 57.244 72.9532 57.11C72.7472 56.904 72.6132 56.904 66.5861 56.904H60.4354L59.2505 55.7191C57.9421 54.4004 57.7772 54.318 56.6748 54.3489C56.3039 54.3592 54.707 54.4004 53.1204 54.4313Z" fill="white"/>
<path d="M33.8025 54.6373C33.6686 54.7713 33.5964 54.9773 33.5964 55.2555C33.5964 55.8015 33.8746 56.0797 34.4207 56.0797C34.9667 56.0797 35.2449 55.8015 35.2449 55.2555C35.2449 54.7094 34.9667 54.4313 34.4207 54.4313C34.1425 54.4313 33.9364 54.5034 33.8025 54.6373Z" fill="white"/>
<path d="M33.8018 57.9343C33.5957 58.1403 33.5854 58.233 33.6163 63.4772L33.6472 68.8037L33.946 69.4219C34.3375 70.2152 35.1205 70.9982 35.9138 71.3897L36.532 71.6885H44.3106H52.0892L52.6971 71.3897C53.0267 71.2249 53.5007 70.9055 53.7479 70.6582C54.1395 70.2873 54.2013 70.174 54.2013 69.8031C54.2013 68.8861 53.3667 68.6698 52.5219 69.36C51.6668 70.0709 51.9965 70.04 44.3106 70.04C38.6853 70.04 37.2841 70.0091 36.9544 69.8958C36.4084 69.7103 35.7696 69.1025 35.512 68.5461C35.306 68.1031 35.2957 67.8764 35.2442 63.0547C35.1926 58.2227 35.1823 58.0167 34.9969 57.8725C34.6878 57.6561 34.049 57.687 33.8018 57.9343Z" fill="white"/>
<path d="M70.4287 77.7054C69.5324 78.1175 69.0378 78.9417 69.0378 80.0029C69.0481 81.4659 70.0372 82.455 71.5105 82.455C72.9941 82.455 73.9832 81.4659 73.9832 79.9823C73.9832 78.9108 73.4371 78.0557 72.5202 77.6745C71.9844 77.4478 70.9439 77.4684 70.4287 77.7054ZM72.0256 79.4671C72.4687 79.9102 72.139 80.7035 71.5105 80.7035C71.119 80.7035 70.7893 80.3738 70.7893 79.9823C70.7893 79.5908 71.119 79.2611 71.5105 79.2611C71.6857 79.2611 71.9123 79.3538 72.0256 79.4671Z" fill="white"/>
</g>
</g>
<defs>
<filter id="filter0_d_1351_8444" x="0.715088" y="0.121582" width="118.51" height="118.51" filterUnits="userSpaceOnUse" color-interpolation-filters="sRGB">
<feFlood flood-opacity="0" result="BackgroundImageFix"/>
<feColorMatrix in="SourceAlpha" type="matrix" values="0 0 0 0 0 0 0 0 0 0 0 0 0 0 0 0 0 0 127 0" result="hardAlpha"/>
<feOffset/>
<feGaussianBlur stdDeviation="8"/>
<feColorMatrix type="matrix" values="0 0 0 0 0.196487 0 0 0 0 0.196487 0 0 0 0 0.279476 0 0 0 0.08 0"/>
<feBlend mode="multiply" in2="BackgroundImageFix" result="effect1_dropShadow_1351_8444"/>
<feBlend mode="normal" in="SourceGraphic" in2="effect1_dropShadow_1351_8444" result="shape"/>
</filter>
<clipPath id="clip0_1351_8444">
<rect width="52.7502" height="52.7502" fill="white" transform="translate(33.5947 33.0017)"/>
</clipPath>
</defs>
</svg>
