<svg width="120" height="120" viewBox="0 0 120 120" fill="none" xmlns="http://www.w3.org/2000/svg">
<g filter="url(#filter0_d_1351_8412)">
<circle cx="59.9703" cy="60.2012" r="43.2552" fill="#FF965A" fill-opacity="0.8"/>
</g>
<path d="M63.4326 31.1721C63.2987 31.306 62.8247 32.1715 62.392 33.109C61.949 34.0466 60.5066 36.7459 59.1776 39.1155C57.8485 41.4749 56.674 43.6797 56.571 44.0093C56.4679 44.339 56.1485 45.8741 55.8601 47.4299C55.5716 48.9753 55.3243 50.2528 55.314 50.2631C55.2934 50.2837 54.4486 50.531 53.4286 50.8298C52.4086 51.1286 51.3268 51.4892 51.0281 51.6334C50.3893 51.9425 49.7917 52.5504 49.3899 53.3231C49.1117 53.8485 49.1014 53.9309 49.0911 55.4145C49.0808 56.3006 49.0087 57.372 48.916 57.9181C48.5966 59.7726 48.5966 62.0392 48.9057 64.0379L48.9675 64.4088L45.8458 63.3889L42.7137 62.3586L41.7865 62.3895C40.581 62.4307 39.8083 62.7707 39.0562 63.564C38.335 64.3161 37.995 65.0888 37.9538 66.0779C37.9126 66.7579 38.026 67.407 38.9017 71.425C39.4477 73.9389 39.8805 76.0098 39.8599 76.0201C39.8392 76.0304 39.3859 76.288 38.8502 76.5867C38.3144 76.8855 37.7581 77.2255 37.6345 77.3491C36.8514 78.0497 36.8514 79.3273 37.6241 80.1C38.1805 80.6563 38.7575 80.7491 41.0138 80.6666C43.1876 80.5842 43.5895 80.4709 44.424 79.7085C45.1246 79.0594 45.4543 78.3588 45.5161 77.411C45.547 77.0298 45.4234 75.5049 45.2482 73.8668C45.0731 72.2802 44.9391 70.982 44.9494 70.9614C44.97 70.9511 45.3718 71.1778 45.8561 71.4663C46.3403 71.7547 47.5251 72.3935 48.4936 72.888C49.4723 73.3826 52.5735 75.1649 55.3964 76.8546C58.2194 78.534 60.7642 80.0279 61.0527 80.1515C62.3405 80.7388 61.9387 80.7181 73.2615 80.8109C81.7509 80.8727 83.7806 80.8624 84.0485 80.7594C84.6769 80.5018 84.9036 79.5539 84.4709 78.9976C84.3472 78.8327 83.523 77.8952 82.6576 76.9164C80.7104 74.7425 80.4734 74.5777 79.2371 74.5777C78.4747 74.5777 78.2995 74.6086 77.8874 74.8559C77.6298 75.0104 77.2589 75.3092 77.0838 75.5152C76.7953 75.8346 76.6408 75.9171 76.0432 76.0304L75.3323 76.1643L72.4166 75.3401C68.7798 74.3201 67.7804 74.1862 65.9465 74.4747C65.2974 74.5674 64.638 74.6601 64.4938 74.6704C64.2774 74.6807 63.8241 74.2583 61.949 72.2905C60.4345 70.7038 59.6515 69.8075 59.6103 69.6118C59.4145 68.6948 59.3218 68.396 59.1054 67.8809C58.7551 67.1082 58.3018 66.4591 57.5188 65.6452L56.8491 64.9446L56.7976 63.9143C56.6843 61.5241 57.3231 59.7005 58.9921 57.6296C59.9709 56.4242 60.2903 55.8266 60.5272 54.7139C60.5787 54.4873 60.6509 54.4358 60.9084 54.4358C61.2072 54.4358 61.2278 54.4564 61.166 54.7139C60.5272 57.6708 62.052 60.5247 64.8029 61.5241C65.5653 61.7919 65.9774 61.761 66.2144 61.3798C66.4204 61.0707 66.3792 60.5762 66.0083 59.2265C65.6477 57.8769 65.6992 57.4236 66.3689 56.1254C67.0901 54.7139 67.1416 53.6734 66.5647 52.5297C66.3895 52.1898 66.3792 52.0764 66.4822 51.6849C66.7501 50.6134 66.3071 49.0474 65.5138 48.285C65.3283 48.0995 64.7308 47.7183 64.195 47.4299C63.2266 46.9044 62.7114 46.5026 62.3302 45.9772L62.1448 45.7093L62.6908 44.9984C63.4532 44.0196 63.5459 43.793 64.4423 40.9906C64.8853 39.6307 65.3077 38.2913 65.4004 38.0234C65.5344 37.5804 65.658 37.4465 66.5028 36.8283L67.4507 36.1277L67.8834 34.469C68.1204 33.552 68.3161 32.6763 68.3161 32.5114C68.3161 31.9036 68.1101 31.8006 66.0495 31.3575C64.9986 31.1309 64.0405 30.9454 63.9168 30.9454C63.7932 30.9454 63.5768 31.0485 63.4326 31.1721ZM66.338 33.2533C66.3586 33.2739 66.2659 33.686 66.1422 34.1805L65.9053 35.0665L65.1223 35.6229C64.6895 35.9423 64.2671 36.272 64.1744 36.375C64.0817 36.478 63.5665 37.941 63.0308 39.6204C62.4848 41.2997 61.9696 42.8348 61.8872 43.0203C61.7945 43.2057 61.2072 43.999 60.589 44.7821C59.9606 45.5651 59.4557 46.2863 59.4557 46.379C59.4557 47.2238 58.7964 54.4049 58.683 54.8067C58.1988 56.4963 56.5194 57.3411 55.4377 56.4242C54.974 56.0327 54.7989 55.6206 54.7989 54.8994C54.7989 54.1267 54.8298 54.0546 55.9322 52.6328L56.8182 51.4995L57.4982 48.048C58.0236 45.4311 58.2503 44.4627 58.4667 44.0506C58.6212 43.7518 59.6515 41.8973 60.7642 39.9294C62.7114 36.478 63.4326 35.1284 64.1435 33.552L64.4835 32.8205L65.3901 33.0163C65.895 33.1296 66.3174 33.2429 66.338 33.2533ZM62.4229 48.522C62.4332 48.522 62.3096 48.831 62.1448 49.2019C61.8563 49.8407 61.8254 49.8716 61.4133 49.9437C61.166 49.985 60.9702 49.9953 60.9599 49.985C60.9496 49.9644 60.9805 49.3668 61.0321 48.6353L61.1351 47.3268L61.7636 47.9141C62.1139 48.2335 62.4023 48.5117 62.4229 48.522ZM64.6689 50.1807C64.9883 50.9328 64.7823 51.6849 64.1023 52.3031C63.4017 52.9316 63.1029 52.9934 61.5472 52.7667L60.6921 52.6431L60.7539 52.2722C60.7951 52.0764 60.8672 51.8807 60.9187 51.8498C60.9599 51.8189 61.4442 51.7158 61.9696 51.6128C62.5466 51.4995 63.0102 51.3552 63.1029 51.2625C63.1853 51.1595 63.4223 50.7062 63.6387 50.2322L64.0199 49.3771L64.2774 49.6141C64.4114 49.748 64.5968 49.9953 64.6689 50.1807ZM53.6862 52.5194C53.6862 52.54 53.5728 52.8182 53.4286 53.1273C52.7177 54.6727 52.9444 56.4345 53.9953 57.5163C54.4486 57.9799 55.2007 58.4023 55.7776 58.5054C55.9837 58.5466 56.1588 58.5981 56.1588 58.6187C56.1588 58.732 55.9116 59.175 55.8395 59.175C55.7055 59.175 51.0693 56.2697 50.9353 56.1048C50.7602 55.8885 50.7602 54.6212 50.9456 54.1988C51.162 53.663 51.6565 53.2818 52.625 52.8697C53.5316 52.4988 53.6862 52.4473 53.6862 52.5194ZM65.1841 54.3018C65.1532 54.5594 64.9883 54.9921 64.8235 55.2497C64.2877 56.0842 64.0611 56.9393 64.0508 58.0623V59.072L63.7623 58.732C62.9896 57.8357 62.6187 56.4757 62.8557 55.3733C62.9278 55.0127 63.0411 54.7139 63.1029 54.6933C63.8756 54.4976 64.432 54.2915 64.7205 54.0855C64.9162 53.9515 65.112 53.8279 65.1635 53.8279C65.215 53.8176 65.2253 54.0339 65.1841 54.3018ZM53.0783 59.5975L55.2934 60.978L55.2007 61.2871C55.1595 61.452 55.0874 62.2762 55.0564 63.1107L54.9946 64.6252L54.4692 64.6767C54.1807 64.7076 53.2535 64.7488 52.4086 64.7591L50.8632 64.7901L50.7396 64.1719C50.5232 63.1313 50.3584 61.0295 50.4305 60.1023C50.5541 58.5157 50.616 58.1345 50.7396 58.1757C50.8117 58.2066 51.8626 58.8453 53.0783 59.5975ZM46.2064 65.367L50.0287 66.6239L51.7802 66.5518C52.7486 66.5209 54.0262 66.4591 54.6237 66.4179L55.7158 66.3561L56.3546 67.0051C57.0758 67.7469 57.6321 68.7566 57.8073 69.653C57.8691 69.9827 57.9618 70.3742 57.9927 70.5287C58.034 70.6935 59.157 71.9505 60.826 73.6917C63.9581 76.9782 63.5975 76.7516 65.1326 76.3807C66.3174 76.1025 67.4919 76.0304 68.4604 76.1746C69.0785 76.2673 72.3548 77.1225 74.1887 77.6685C74.3123 77.7097 74.3329 77.8643 74.3123 78.4L74.2711 79.08L68.6458 79.0388C63.3193 78.9976 62.9793 78.977 62.3714 78.7812C61.9799 78.6473 59.7339 77.3697 56.3958 75.3813C53.4595 73.6195 50.4305 71.8681 49.6681 71.4869C48.0093 70.6523 46.3403 69.7251 45.104 68.9215C44.321 68.4166 44.1355 68.3342 43.7749 68.3651C43.4555 68.3857 43.301 68.4681 43.1464 68.6742L42.9404 68.9524L43.2907 72.2081C43.7028 75.9686 43.8058 75.5874 42.4046 75.5358L41.5804 75.5049L40.6326 71.0747C40.1071 68.633 39.6744 66.5106 39.6744 66.3458C39.6641 65.161 40.6841 64.1204 41.8792 64.1204C42.2398 64.1204 43.4452 64.4707 46.2064 65.367ZM79.711 76.4116C79.8243 76.4837 80.3292 76.9988 80.834 77.5655C81.3388 78.1321 81.8643 78.7194 82.0085 78.8739L82.2661 79.1624H79.1546H76.0432V78.5546C76.0432 78.194 76.0947 77.9055 76.1771 77.8437C76.239 77.7922 76.5583 77.7097 76.8674 77.6685C77.6092 77.5655 77.8977 77.411 78.248 76.9164C78.6601 76.3189 79.2165 76.1231 79.711 76.4116ZM43.7543 77.5346C43.6719 77.957 43.2495 78.4927 42.8374 78.7194C42.5592 78.8739 42.2192 78.9049 40.7047 78.9049C38.4278 78.9049 38.3866 78.843 40.0041 77.9776L41.158 77.3594L42.3428 77.3079C43.0022 77.2667 43.5998 77.2358 43.6822 77.2255C43.7852 77.2152 43.8058 77.2873 43.7543 77.5346Z" fill="white"/>
<defs>
<filter id="filter0_d_1351_8412" x="0.715088" y="0.946045" width="118.51" height="118.51" filterUnits="userSpaceOnUse" color-interpolation-filters="sRGB">
<feFlood flood-opacity="0" result="BackgroundImageFix"/>
<feColorMatrix in="SourceAlpha" type="matrix" values="0 0 0 0 0 0 0 0 0 0 0 0 0 0 0 0 0 0 127 0" result="hardAlpha"/>
<feOffset/>
<feGaussianBlur stdDeviation="8"/>
<feColorMatrix type="matrix" values="0 0 0 0 0.196487 0 0 0 0 0.196487 0 0 0 0 0.279476 0 0 0 0.08 0"/>
<feBlend mode="multiply" in2="BackgroundImageFix" result="effect1_dropShadow_1351_8412"/>
<feBlend mode="normal" in="SourceGraphic" in2="effect1_dropShadow_1351_8412" result="shape"/>
</filter>
</defs>
</svg>
