<svg width="120" height="120" viewBox="0 0 120 120" fill="none" xmlns="http://www.w3.org/2000/svg">
<g filter="url(#filter0_d_1351_8488)">
<circle cx="43.2552" cy="43.2552" r="43.2552" transform="matrix(-1 0 0 1 103.286 16.7151)" fill="#92ADCC" fill-opacity="0.8"/>
</g>
<g clip-path="url(#clip0_1351_8488)">
<path d="M38.7559 33.7703C38.3025 34.0072 37.8904 34.4193 37.6638 34.8521C37.468 35.223 37.468 35.7793 37.468 56.9C37.468 78.3092 37.468 78.577 37.6741 79.4425C38.3025 82.0388 40.1158 84.2848 42.5473 85.4696C44 86.1702 44.886 86.3453 47.0702 86.3453H48.8938L49.0999 86.0775C49.2235 85.9229 49.3162 85.7169 49.3162 85.6138C49.3162 85.3357 49.0999 84.9236 48.9144 84.8411C48.8217 84.7999 47.915 84.7278 46.8951 84.6969C45.226 84.6351 44.9478 84.5939 44.1751 84.3363C42.0115 83.6048 40.2292 81.8224 39.4668 79.6382L39.168 78.7728L39.1371 57.1988C39.1165 37.1805 39.1268 35.6042 39.2813 35.429C39.4462 35.2539 39.9407 35.2436 51.7889 35.2436H64.1213L64.3171 35.4599C64.5128 35.6763 64.5128 36.2223 64.5643 57.3842C64.6158 77.8352 64.6364 79.1128 64.8013 79.7C65.2958 81.3588 66.5115 83.2442 67.7067 84.223L68.2836 84.6969L60.0311 84.7175L51.7683 84.7484L51.521 85.0369C51.2119 85.3975 51.2016 85.7169 51.4901 86.0775L51.7065 86.3453L63.5134 86.3247L75.3307 86.2938L76.2065 85.995C76.6907 85.8405 77.3192 85.5829 77.5973 85.4387C79.9876 84.2436 81.7184 82.0697 82.4087 79.4219C82.6148 78.6183 82.6251 78.268 82.6663 73.6523C82.7178 67.8209 82.7178 67.8106 81.9348 67.0276C81.5021 66.5846 81.296 66.461 80.853 66.3683C80.5027 66.2961 78.7616 66.2549 75.8356 66.2549C71.1169 66.2549 70.8799 66.2755 70.7048 66.7185C70.6017 67.007 70.6327 67.4397 70.7872 67.6561C70.9314 67.8415 71.1375 67.8519 75.7222 67.9034C80.2864 67.9549 80.5233 67.9652 80.7294 68.1506L80.956 68.3567L80.9251 73.5596L80.8942 78.7728L80.6057 79.597C79.9155 81.5339 78.6276 83.0072 76.804 83.9242C75.5883 84.532 74.6301 84.7381 73.229 84.6763C70.1896 84.5424 67.6036 82.5642 66.5528 79.597L66.2643 78.7728L66.2334 73.3329L66.2025 67.9034H67.2327C68.16 67.9034 68.2836 67.8828 68.4794 67.6767C68.6957 67.4397 68.7472 66.9761 68.5824 66.667C68.4382 66.3889 67.923 66.2549 67.0267 66.2549H66.2128V51.0583C66.2128 40.7555 66.1819 35.7072 66.0994 35.3672C65.9758 34.7593 65.4504 34.0896 64.8631 33.8012C64.4819 33.5951 64.1934 33.5951 51.7683 33.5951C40.394 33.6054 39.034 33.6157 38.7559 33.7703Z" fill="white"/>
<path d="M42.8767 37.9532C42.6707 38.1283 42.5985 38.2829 42.5985 38.5714C42.5985 39.0762 42.7325 39.2204 43.3919 39.4162C43.9688 39.581 44.2264 39.7768 43.8658 39.7768C43.4022 39.7768 42.4955 40.2198 41.9598 40.7143C41.1562 41.4458 40.9192 42.0331 40.9192 43.2797C40.9192 44.1246 40.9604 44.3409 41.1974 44.8458C41.7743 46.0821 42.8973 46.8857 44.3603 47.0918C46.4106 47.3802 48.2136 46.5045 48.9863 44.8458C49.2232 44.3409 49.2644 44.1246 49.2644 43.2797C49.2644 42.4658 49.2232 42.2082 49.0172 41.7652C48.5845 40.7968 47.5439 40.0241 46.3281 39.7665C45.9057 39.6738 45.8439 39.6222 45.6791 39.2101C45.4215 38.6023 44.8239 38.0768 44.1543 37.8811C43.4228 37.6647 43.1961 37.675 42.8767 37.9532ZM44.2676 41.6313C44.2676 41.961 44.7209 42.3525 45.0918 42.3525C45.4627 42.3525 45.916 41.961 45.916 41.6313C45.916 41.3737 46.05 41.3737 46.596 41.621C47.6366 42.0949 47.9457 43.29 47.2966 44.3821C46.6372 45.5051 44.8136 45.8348 43.5464 45.0518C42.1967 44.2173 42.2173 42.2392 43.5876 41.621C44.1337 41.3737 44.2676 41.3737 44.2676 41.6313Z" fill="white"/>
<path d="M51.5522 38.3137C51.2431 38.6537 51.2225 39.0864 51.511 39.4264L51.7685 39.7252L55.0036 39.7561C56.7757 39.7767 58.3829 39.7561 58.5684 39.7252C58.7538 39.6943 59.0011 39.5707 59.1144 39.4573C59.372 39.1998 59.372 38.6434 59.1041 38.3549C58.8878 38.1283 58.8568 38.1283 55.3024 38.1283C51.9746 38.1283 51.7067 38.1386 51.5522 38.3137Z" fill="white"/>
<path d="M51.5517 41.6107C51.459 41.7137 51.3457 41.9404 51.3148 42.1258C51.2633 42.3937 51.3045 42.4967 51.562 42.7646L51.8814 43.084L55.405 43.0531L58.9182 43.0222L59.114 42.7749C59.3818 42.4452 59.3715 41.9301 59.0728 41.6519C58.8358 41.4252 58.7843 41.4252 55.271 41.4252C51.9638 41.4252 51.7063 41.4355 51.5517 41.6107Z" fill="white"/>
<path d="M51.6132 44.8768C51.1496 45.2064 51.2423 46.041 51.7781 46.2676C51.9738 46.3398 53.1174 46.3707 55.4871 46.3501L58.9179 46.3191L59.1137 46.0719C59.3815 45.7422 59.3712 45.2271 59.0724 44.9489C58.8355 44.7222 58.784 44.7222 55.3325 44.7222C52.4168 44.7222 51.7987 44.7428 51.6132 44.8768Z" fill="white"/>
<path d="M40.4664 50.3474C40.1058 50.811 40.1882 51.3262 40.6725 51.5734C41.1155 51.8104 61.855 51.8001 62.298 51.5734C62.7101 51.3571 62.8234 50.7904 62.5349 50.4092L62.3289 50.131L51.5007 50.1001L40.6828 50.0795L40.4664 50.3474Z" fill="white"/>
<path d="M51.614 56.1068C51.1607 56.4262 51.2328 57.2504 51.748 57.4874C51.9231 57.5595 53.0976 57.6007 55.4054 57.6007H58.8054L59.0526 57.3431C59.372 57.0341 59.3823 56.591 59.0938 56.2201L58.8878 55.9523H55.3539C52.4176 55.9523 51.7995 55.9729 51.614 56.1068Z" fill="white"/>
<path d="M42.311 57.106C42.1461 57.2914 42.1049 57.4666 42.1049 58.0435C42.1049 58.6926 42.0843 58.7647 41.8061 59.0017C41.631 59.1459 41.3734 59.5065 41.2292 59.8053C40.9613 60.3514 40.9613 60.4029 40.9922 62.0719L41.0231 63.7822L41.3631 64.1119L41.6928 64.4519L44.557 64.4828C47.2769 64.5034 47.4314 64.4931 47.7508 64.2973C48.3175 63.947 48.4102 63.5555 48.369 61.7834C48.3278 60.0732 48.266 59.8362 47.6169 59.1459C47.3078 58.8162 47.2769 58.7132 47.2357 58.0435C47.1739 56.8484 47.2357 56.8793 44.6703 56.8793C42.5994 56.8793 42.517 56.8896 42.311 57.106ZM45.5048 58.8059C45.5048 59.3932 45.7109 59.8568 46.0303 60.0217C46.5866 60.3101 46.7412 60.7223 46.7412 61.8453V62.8549H44.6806H42.62V61.8246C42.62 60.7016 42.7643 60.2483 43.1352 60.1247C43.5061 60.0114 43.7533 59.5683 43.7533 59.0326V58.5278H44.6291H45.5048V58.8059Z" fill="white"/>
<path d="M51.9021 58.8472C51.356 59.0636 51.2221 59.6405 51.593 60.1145L51.7991 60.3823H55.302C58.6607 60.3823 58.805 60.372 59.0007 60.1763C59.2686 59.9084 59.2686 59.352 59.011 59.0327L58.8153 58.7854L55.4772 58.7648C53.4784 58.7545 52.0463 58.7854 51.9021 58.8472Z" fill="white"/>
<path d="M51.5925 62.2987C51.304 62.6696 51.3143 63.1127 51.6337 63.4218L51.881 63.6793H55.2706C58.5469 63.6793 58.6705 63.669 58.9384 63.463C59.2784 63.1951 59.3196 62.5563 59.0002 62.2369C58.8045 62.0412 58.6602 62.0309 55.3015 62.0309H51.7986L51.5925 62.2987Z" fill="white"/>
<path d="M40.8056 68.0063C40.5171 68.1197 40.2493 68.5009 40.2493 68.7997C40.2493 68.9233 40.3626 69.1603 40.4965 69.3148L40.7438 69.6033H51.4793H62.2148L62.4621 69.3148C62.7711 68.9439 62.7711 68.6142 62.4621 68.2433L62.2148 67.9548L51.6132 67.9342C45.7716 67.9239 40.9189 67.9548 40.8056 68.0063Z" fill="white"/>
<path d="M41.6819 72.9416C40.6826 73.2713 40.2808 74.1779 40.6001 75.4142C41.1668 77.6396 43.6395 80.3699 46.1842 81.5753C46.9054 81.9153 47.0909 81.9668 47.7915 81.9668C48.6466 81.9668 48.9248 81.8432 49.3575 81.2559C49.5326 81.0189 49.5739 80.8232 49.5739 80.1329C49.5739 79.3499 49.5429 79.2263 49.1411 78.4123C48.5848 77.2893 47.9151 76.4136 46.7509 75.2906C45.7309 74.3118 44.6903 73.5803 43.7425 73.1991C43.0728 72.921 42.1043 72.8076 41.6819 72.9416ZM42.908 74.6621C43.114 74.7445 43.4952 74.9403 43.7322 75.0845L44.1855 75.3421L43.8661 75.6718C43.2583 76.29 43.5261 77.176 44.3194 77.176C44.5873 77.176 44.7831 77.0833 45.1025 76.7948L45.5146 76.4239L45.7927 76.6918L46.0606 76.9699L45.6794 77.3615C45.3806 77.6705 45.2982 77.8354 45.2982 78.1342C45.2982 78.9378 46.1121 79.2057 46.7818 78.6081L47.1424 78.299L47.4 78.7008C47.9357 79.5559 48.1418 80.3699 47.8224 80.3699C47.74 80.3699 47.4206 80.2771 47.1218 80.1638C45.02 79.3705 41.991 75.95 42.1971 74.5694C42.2177 74.4561 42.4959 74.487 42.908 74.6621Z" fill="white"/>
<path d="M51.6338 74.0336C51.4689 74.1881 51.3762 74.4045 51.3762 74.6002C51.3762 74.796 51.4689 75.0123 51.6338 75.1669L51.8811 75.4244H55.2707C58.547 75.4244 58.6706 75.4141 58.9385 75.2081C59.2991 74.9299 59.3094 74.322 58.9694 74.0027C58.7324 73.776 58.6809 73.776 55.3016 73.776H51.8811L51.6338 74.0336Z" fill="white"/>
<path d="M51.8396 77.0832C51.3347 77.3717 51.2317 77.8868 51.5923 78.3504L51.7984 78.6183H55.3013C58.66 78.6183 58.8043 78.608 59 78.4122C59.2885 78.1238 59.2782 77.485 58.9897 77.2171C58.7836 77.0317 58.557 77.0214 55.4043 77.0008C53.0862 76.9801 51.9838 77.0111 51.8396 77.0832Z" fill="white"/>
</g>
<defs>
<filter id="filter0_d_1351_8488" x="0.775391" y="0.715088" width="118.51" height="118.51" filterUnits="userSpaceOnUse" color-interpolation-filters="sRGB">
<feFlood flood-opacity="0" result="BackgroundImageFix"/>
<feColorMatrix in="SourceAlpha" type="matrix" values="0 0 0 0 0 0 0 0 0 0 0 0 0 0 0 0 0 0 127 0" result="hardAlpha"/>
<feOffset/>
<feGaussianBlur stdDeviation="8"/>
<feColorMatrix type="matrix" values="0 0 0 0 0.196487 0 0 0 0 0.196487 0 0 0 0 0.279476 0 0 0 0.08 0"/>
<feBlend mode="multiply" in2="BackgroundImageFix" result="effect1_dropShadow_1351_8488"/>
<feBlend mode="normal" in="SourceGraphic" in2="effect1_dropShadow_1351_8488" result="shape"/>
</filter>
<clipPath id="clip0_1351_8488">
<rect width="52.7502" height="52.7502" fill="white" transform="translate(33.6558 33.5951)"/>
</clipPath>
</defs>
</svg>
