<svg width="80" height="80" viewBox="0 0 80 80" fill="none" xmlns="http://www.w3.org/2000/svg">
<g clip-path="url(#clip0_1343_521)">
<path d="M36.1094 0.296845C35.9375 0.46872 35.7344 0.859345 35.6406 1.17185C35.2188 2.7031 33.9219 4.03122 32.3906 4.46872C31.4688 4.73435 31.0938 5.1406 31.0938 5.85935C31.0938 6.5781 31.4531 6.9531 32.4531 7.31247C34.0625 7.90622 35.0781 8.90622 35.5625 10.3593C35.875 11.3437 36.1406 11.6718 36.7344 11.7968C37.5 11.9687 37.9688 11.5937 38.4375 10.4531C38.6719 9.8906 39.0156 9.2031 39.2031 8.92185C39.6719 8.2656 40.6875 7.5781 41.6875 7.2656C42.6094 6.9531 42.9688 6.56247 42.9688 5.85935C42.9688 5.2031 42.5625 4.81247 41.4688 4.40622C39.875 3.8281 38.9219 2.81247 38.375 1.12497C38.2188 0.671845 37.9688 0.234345 37.8125 0.15622C37.3281 -0.109405 36.4375 -0.0312796 36.1094 0.296845ZM37.75 5.18747L38.4219 5.85935L37.7188 6.5781L37 7.29685L36.3281 6.5781L35.6406 5.85935L36.2969 5.18747C36.6406 4.8281 36.9688 4.53122 37.0156 4.53122C37.0469 4.53122 37.3906 4.8281 37.75 5.18747Z" fill="#222222"/>
<path d="M33.281 13.8594C31.8279 14.0156 29.0779 14.5781 27.3904 15.0625C18.656 17.5781 11.8748 23.5313 9.23417 30.9844C8.42167 33.2969 8.10917 35.2031 7.96854 38.75C7.82792 42.2344 7.64042 43.1563 6.68729 45.0781C6.12479 46.2031 4.74979 48.3281 3.79667 49.5625C0.952918 53.2656 1.59354 56.4219 5.35917 57.25C5.71854 57.3438 5.78104 57.4219 5.78104 57.9375C5.78104 58.5781 6.21854 59.6563 6.60917 59.9844C6.82792 60.1563 6.84354 60.2344 6.65604 60.6094C6.04667 61.7969 6.24979 63.0625 7.24979 64.1719L7.90604 64.8906L7.62479 65.9219C7.45292 66.5469 7.34354 67.4688 7.34354 68.2969C7.34354 69.4844 7.40604 69.75 7.82792 70.6094C8.42167 71.7969 9.29667 72.4844 10.8592 73C11.8123 73.3125 12.2498 73.3594 14.3748 73.3438C15.8748 73.3438 17.4685 73.2344 18.5779 73.0625C19.5467 72.9063 20.406 72.8438 20.4685 72.9219C20.531 72.9844 20.8435 74.0938 21.156 75.375C21.7967 77.9688 21.9373 78.2969 22.6873 79.0156C23.7654 80.0469 22.9373 80 38.1717 80C53.5623 80 52.5935 80.0625 53.7498 78.9063C54.1404 78.5156 54.4373 78.0156 54.5935 77.4844C54.9217 76.4063 54.906 75.9531 54.5154 74.875C52.656 69.7656 52.2967 68.1719 52.2967 65.1563C52.2967 63.1406 52.3435 62.7344 52.7185 61.4844C53.281 59.6094 54.3904 57.5469 56.1873 55C60.531 48.875 61.8904 46.125 62.7498 41.7969C63.2029 39.5469 63.1404 35.9219 62.6092 33.4219C60.3123 22.5781 52.6873 15.5938 41.3904 13.9844C39.8904 13.7813 34.7967 13.6875 33.281 13.8594ZM41.0935 16.6563C48.656 17.6875 54.7342 21.7344 57.8592 27.7813C59.2967 30.5625 60.4685 35.0938 60.4685 37.875C60.4685 39.3438 60.1092 41.625 59.6092 43.3594C58.7967 46.1563 57.6404 48.2031 53.2654 54.4531C51.8279 56.5156 50.5623 59.1094 50.0467 61.0313C49.6873 62.375 49.6404 62.9063 49.6248 65C49.6248 68.3125 50.0623 70.5469 51.531 74.5L52.2342 76.4219L51.9217 76.8438C51.7498 77.0625 51.3904 77.3125 51.1248 77.375C50.8592 77.4531 44.8435 77.4844 37.7498 77.4688C25.7498 77.4219 24.8592 77.4063 24.5779 77.1563C24.3592 76.9531 24.0467 75.9375 23.4998 73.7188C22.6092 69.9844 22.4529 69.75 21.281 69.9063C20.8748 69.9531 19.9842 70.0938 19.2967 70.2188C16.0467 70.8125 13.2029 70.8906 11.6404 70.4531C11.3123 70.3594 10.7967 70.0469 10.5154 69.7656C10.0467 69.2969 9.99979 69.1563 9.99979 68.3281C9.99979 67.5156 10.1404 66.9063 10.8123 64.6719C11.0935 63.7813 10.8904 63.375 9.93729 62.8438C8.90604 62.25 8.76542 61.9688 9.34354 61.6094C10.2185 61.0625 10.4685 60.75 10.4685 60.1719C10.4685 59.4375 10.3279 59.25 9.43729 58.7656C8.35917 58.1719 8.28104 57.9531 8.87479 57.2813C9.45292 56.6094 9.53104 55.8594 9.09354 55.3125C8.84354 55 8.54667 54.9219 7.14042 54.7656C4.10917 54.4219 3.99979 53.9063 6.32792 50.7031C8.34354 47.9375 9.56229 45.6719 10.1717 43.5156C10.4217 42.6719 10.5154 41.6563 10.6248 39.1406C10.7185 36.7656 10.8435 35.4219 11.0935 34.2969C12.4685 28 16.6717 22.875 23.1248 19.625C28.8123 16.7813 34.8123 15.7813 41.0935 16.6563Z" fill="#222222"/>
<path d="M35.609 21.9219C35.1871 22.2031 32.6871 25.4375 32.0465 26.5312C31.9684 26.6875 31.3434 26.4531 29.5152 25.6094C28.1871 25 26.8434 24.4531 26.5152 24.4062C25.7184 24.2969 24.6246 24.75 24.1402 25.375C23.6402 26.0312 23.5309 26.6719 23.1871 30.75C22.8746 34.5625 22.9527 35.5781 23.7496 37.6094C24.484 39.5156 25.2809 40.7344 26.7965 42.2656C28.3277 43.8125 28.7809 44.0781 33.2809 46.1875L35.5465 47.2344H37.0309L38.5152 47.25L41.6402 45.7812C45.3121 44.0781 46.0934 43.6094 47.3277 42.3438C49.1402 40.5156 50.4059 37.9844 50.8746 35.2812C51.109 33.9375 51.109 33.5938 50.859 30.7031C50.5309 26.75 50.4059 26.0156 49.9215 25.375C49.4371 24.75 48.3434 24.2969 47.5465 24.4062C47.2184 24.4531 45.8746 25 44.5465 25.6094C43.2184 26.2188 42.1246 26.7031 42.109 26.6875C42.0934 26.6562 41.4527 25.7656 40.7027 24.6875C39.1402 22.4531 38.8277 22.0781 38.2496 21.7812C37.5777 21.4375 36.234 21.5 35.609 21.9219ZM38.9527 26.875C39.9527 28.3281 40.9215 29.8281 41.0934 30.2344C42.234 32.9062 42.234 36.1875 41.0621 38.5156C40.7184 39.2031 37.1559 44.3594 37.0309 44.3594C36.984 44.3594 36.1246 43.1719 35.0934 41.7031C33.0152 38.7188 32.4684 37.5469 32.1871 35.4531C31.8434 32.8594 32.359 30.8906 34.0465 28.4531C36.3121 25.125 36.9527 24.2344 37.0309 24.2344C37.0777 24.2344 37.9371 25.4219 38.9527 26.875ZM29.9996 28.8281L30.4371 29.0625L30.0621 30.1719C28.8121 33.8438 29.4527 38.1875 31.7184 41.5625C32.5777 42.8594 32.5777 42.8281 32.1246 42.6562C29.109 41.5156 26.5465 38.5312 25.8434 35.3125C25.5934 34.2188 25.5934 33.9375 25.8434 31.0156C25.984 29.2969 26.1402 27.7031 26.1871 27.4688L26.2652 27.0625L27.9215 27.8281C28.8277 28.2656 29.7652 28.7031 29.9996 28.8281ZM48.2027 30.7812C48.4371 33.5781 48.4371 33.9219 48.2027 35.0781C47.5152 38.5625 45.1246 41.4531 41.9371 42.6719C41.484 42.8438 41.484 42.8281 42.4215 41.4844C43.734 39.625 44.2809 38.1562 44.5465 35.8125C44.7652 33.8281 44.4215 31.3125 43.6402 29.2812C43.5777 29.125 44.1871 28.7656 45.6402 28.0781C47.6402 27.125 47.734 27.0938 47.8434 27.4062C47.8902 27.5938 48.0621 29.1094 48.2027 30.7812Z" fill="#222222"/>
<path d="M71.2031 28.75C70.9844 28.9219 70.75 29.2969 70.7031 29.5781C70.5312 30.3438 70.0938 31.1094 69.4219 31.7813C68.8281 32.3906 67.5 33.125 67 33.125C66.625 33.125 66.0938 33.875 66.0938 34.4063C66.0938 34.9219 66.8281 35.7813 67.2656 35.7813C67.7656 35.7813 69.0469 36.5625 69.6562 37.2656C70.0156 37.6719 70.4062 38.3594 70.5625 38.7969C70.9219 39.9219 71.3125 40.3125 72.0625 40.3125C72.7812 40.3125 73.2031 39.9375 73.4375 39.0781C73.8125 37.6406 75.2969 36.1563 76.7344 35.7813C77.5625 35.5469 77.9688 35.125 77.9688 34.4688C77.9688 33.875 77.4531 33.125 77.0469 33.125C76.5 33.125 75.1406 32.2969 74.4688 31.5469C74.0469 31.0781 73.6719 30.4531 73.5156 29.9531C73.0625 28.5625 72.0938 28.0469 71.2031 28.75ZM72.7031 33.6875L73.4219 34.4063L72.7344 35.0938L72.0469 35.7969L71.3594 35.1094L70.6719 34.4219L71.3125 33.7031C71.6719 33.3281 71.9688 33 71.9688 32.9844C71.9844 32.9688 72.3125 33.2969 72.7031 33.6875Z" fill="#222222"/>
</g>
<defs>
<clipPath id="clip0_1343_521">
<rect width="80" height="80" fill="white"/>
</clipPath>
</defs>
</svg>
